<?xml version="1.0" encoding="UTF-8"?><svg id="Layer_2" xmlns="http://www.w3.org/2000/svg" viewBox="0 0 161.09 234.55"><defs><style>.cls-1{fill:#ecede8;}.cls-1,.cls-2{stroke-width:0px;}.cls-2{fill:#1a1a1a;}.cls-3{fill:none;stroke:#000;stroke-linecap:round;stroke-linejoin:round;stroke-width:.5px;}</style></defs><g id="Layer_2-2"><rect class="cls-1" width="161.09" height="234.55" rx="5" ry="5"/><path class="cls-2" d="m139.22,203.46c0-2.88-.22-3.24-1.98-3.38l-1.48-.11c-.32-.22-.29-1.15.07-1.26,1.3.07,3.46.11,5.69.11,2.38,0,4.54-.04,5.83-.11.36.11.4,1.04.07,1.26l-1.48.11c-1.76.14-1.98.5-1.98,3.38v11.63c0,2.38.14,2.92,1.73,3.13l1.66.22c.32.18.36,1.04.07,1.26-1.48.22-3.17.61-4.61,1.01-1.58.47-2.95,1.15-3.2,1.15-.18,0-.43-.11-.5-.4.07-.83.11-2.48.11-4.28v-13.71Z"/><path class="cls-2" d="m114.7,210.08c0-5.8,2.48-11.77,8.31-11.77s8.32,5.98,8.32,11.77-2.48,11.77-8.32,11.77-8.31-6.19-8.31-11.77Zm8.31-10.11c-2.74,0-3.06,6.91-3.06,10.11s.32,10.11,3.06,10.11,3.06-6.91,3.06-10.11-.32-10.11-3.06-10.11Z"/><path class="cls-2" d="m127.5,181.2c.43,0,.8-.04,1.12-.11-.51.59-.82,1.36-.82,2.2,0,1.86,1.51,3.37,3.37,3.37s3.37-1.51,3.37-3.37c0-.84-.31-1.61-.82-2.2.32.07.7.11,1.12.11,1.86,0,3.37-1.51,3.37-3.37s-1.51-3.37-3.37-3.37c-1.32,0-2.46.13-3.01.88l.32-1.64c.04-.19-.11-.36-.3-.36h-1.35c-.19,0-.34.18-.3.36l.32,1.64c-.55-.74-1.69-.88-3.01-.88-1.86,0-3.37,1.51-3.37,3.37s1.51,3.37,3.37,3.37Z"/><path class="cls-2" d="m21.88,31.1c0,2.88.22,3.24,1.98,3.38l1.48.11c.32.22.29,1.15-.07,1.26-1.3-.07-3.46-.11-5.69-.11-2.38,0-4.54.04-5.83.11-.36-.11-.4-1.04-.07-1.26l1.48-.11c1.76-.14,1.98-.5,1.98-3.38v-11.63c0-2.38-.14-2.92-1.73-3.13l-1.66-.22c-.32-.18-.36-1.04-.07-1.26,1.48-.22,3.17-.61,4.61-1.01,1.58-.47,2.95-1.15,3.2-1.15.18,0,.43.11.5.4-.07.83-.11,2.48-.11,4.28v13.71Z"/><path class="cls-2" d="m46.39,24.47c0,5.8-2.48,11.77-8.31,11.77s-8.32-5.98-8.32-11.77,2.48-11.77,8.32-11.77,8.31,6.19,8.31,11.77Zm-8.31,10.11c2.74,0,3.06-6.91,3.06-10.11s-.32-10.11-3.06-10.11-3.06,6.91-3.06,10.11.32,10.11,3.06,10.11Z"/><path class="cls-2" d="m33.59,53.35c-.43,0-.8.04-1.12.11.51-.59.82-1.36.82-2.2,0-1.86-1.51-3.37-3.37-3.37s-3.37,1.51-3.37,3.37c0,.84.31,1.61.82,2.2-.32-.07-.7-.11-1.12-.11-1.86,0-3.37,1.51-3.37,3.37s1.51,3.37,3.37,3.37c1.32,0,2.46-.13,3.01-.88l-.32,1.64c-.04.19.11.36.3.36h1.35c.19,0,.34-.18.3-.36l-.32-1.64c.55.74,1.69.88,3.01.88,1.86,0,3.37-1.51,3.37-3.37s-1.51-3.37-3.37-3.37Z"/><path class="cls-2" d="m103.02,69.53c1.38.62,2.04,2.17,1.58,3.57h-7.38l.33-.47c-.7.39-1.65.1-2.69-.37-.49-.22-.88-.55-1.16-.95.89-1.09,1.11-2.63.52-3.96.82-.68,1.98-.87,3.01-.4.34.15.62.31.85.48-.2-.64-.17-1.35.13-2.02.65-1.46,2.37-2.12,3.84-1.47,1.47.66,2.13,2.37,1.47,3.85-.29.66-.81,1.16-1.41,1.45.28.05.58.16.92.3Z"/><path class="cls-2" d="m93.69,71.3c-.24.31-.55.59-.9.81-.69.45-1.47.64-2.24.6.3-.55.48-1.17.48-1.84,0-2.11-1.7-3.83-3.81-3.84-.49,0-.9.04-1.27.12.58-.67.94-1.53.94-2.49,0-2.11-1.7-3.83-3.81-3.84-.18,0-.36,0-.54.03.23-.87.79-1.67,1.61-2.2,1.78-1.14,4.14-.63,5.28,1.15.26.4.45.78.58,1.13.25-.85.8-1.61,1.6-2.13,1.78-1.14,4.14-.63,5.28,1.15,1.14,1.77.63,4.14-1.14,5.28-.81.51-1.72.69-2.6.57.27.26.53.59.79,1,.1.16.2.34.28.51.59,1.33.37,2.87-.52,3.96Z"/><path class="cls-2" d="m78.87,67.02c.49,0,.91.05,1.27.13-.57-.67-.92-1.54-.92-2.49,0-.87.29-1.66.79-2.3.59-.78,1.48-1.33,2.51-1.47.17-.03.36-.03.54-.03,2.11,0,3.82,1.72,3.81,3.84,0,.95-.36,1.82-.94,2.49.37-.08.79-.12,1.27-.12,2.11,0,3.82,1.73,3.81,3.84,0,.67-.17,1.29-.48,1.84-.07.13-.16.26-.24.38h-14.54s-.03-.03-.03-.04c-.44-.62-.7-1.39-.7-2.23,0-.57.13-1.11.36-1.59.61-1.32,1.94-2.23,3.48-2.22Z"/><path class="cls-2" d="m75.71,73.1h-10.92c.21-.1.42-.21.64-.32.53-.28.96-.66,1.3-1.11.27.05.53.14.78.25.44.19.81.41,1.11.62-.2-.66-.23-1.38-.03-2.07,1.18.02,2.28-.69,2.73-1.83.03-.05.04-.11.06-.16.09-.26.14-.52.15-.79.75-.16,1.55-.09,2.3.24.66.29,1.2.75,1.57,1.3-.23.49-.36,1.02-.36,1.59,0,.83.26,1.6.7,2.23,0,.02-.02.03-.03.04Z"/><path class="cls-2" d="m71.7,66.66c.15.07.31.13.49.19,1.52.5,3.17-.32,3.67-1.85.4-1.19-.02-2.45-.94-3.19.3-.46.75-.83,1.29-1.06,1.49-.61,3.19.1,3.8,1.59-.49.64-.79,1.44-.79,2.3,0,.95.35,1.83.92,2.49-.36-.08-.79-.13-1.27-.13-1.54,0-2.88.9-3.48,2.22-.37-.55-.91-1-1.57-1.3-.75-.33-1.55-.4-2.3-.24,0-.2,0-.4-.03-.59.05-.16.13-.3.22-.44Z"/><path class="cls-2" d="m68.58,70.47c-.29,0-.59-.04-.88-.15-.1-.03-.22-.08-.31-.13.18-.85.08-1.76-.36-2.58-.27-.51-.63-.94-1.07-1.26.25-.55.66-1,1.15-1.29-.29-.03-.61-.1-.95-.22-1.52-.5-2.35-2.15-1.85-3.67.51-1.52,2.16-2.36,3.68-1.85,1.08.36,1.98.78,2.24,1.53l.18-1.43c.02-.16.18-.27.35-.22l1.11.37c.16.05.23.23.15.38l-.71,1.26c.66-.46,1.63-.26,2.71.1.34.11.64.28.9.49.93.74,1.34,2,.94,3.19-.5,1.52-2.15,2.35-3.67,1.85-.18-.06-.35-.12-.49-.19s-.28-.14-.4-.21c.09.21.16.42.18.65.03.19.04.39.03.59,0,.27-.06.53-.15.79-.02.05-.03.11-.06.16-.45,1.13-1.55,1.85-2.73,1.83Z"/><path class="cls-2" d="m67.38,70.19c-.11.53-.34,1.03-.66,1.47-.34.45-.77.83-1.3,1.11-.22.11-.43.23-.64.32h-12.34c.05-1.31.78-2.56,2.04-3.21.42-.23.81-.38,1.19-.48-.82-.33-1.54-.94-1.98-1.78-.99-1.86-.26-4.18,1.6-5.16,1.87-.98,4.18-.26,5.17,1.61.44.84.54,1.78.34,2.64.29-.25.64-.49,1.07-.71,1.36-.71,2.95-.53,4.1.36.43.32.8.75,1.07,1.26.43.82.54,1.73.36,2.58Z"/><path class="cls-2" d="m63.9,150.53c.36-.05.68-.07.97-.05-.51-.43-.87-1.05-.98-1.77-.24-1.59.85-3.08,2.44-3.32,1.59-.23,3.07.86,3.31,2.44.11.72-.05,1.41-.41,1.98.27-.1.58-.18.94-.24,1.59-.24,3.07.85,3.31,2.44.24,1.59-.85,3.08-2.44,3.31-.14.03-.29.04-.42.05-3.19-.35-5.97-2.04-7.76-4.5.31-.17.66-.29,1.03-.36Z"/><path class="cls-2" d="m82.2,148.4c-.21.54-.46,1.05-.75,1.54-.03-.03-.07-.05-.1-.1l-.68-1.26c.04.8-.65,1.52-1.52,2.24-1.24,1.02-3.08.84-4.1-.4s-.85-3.08.4-4.1c.28-.23.55-.41.81-.54-.67-.11-1.29-.46-1.75-1.02-1.02-1.24-.85-3.07.39-4.09s3.08-.85,4.1.39c.46.56.68,1.24.67,1.91.17-.23.4-.46.68-.69.68-.55,1.52-.75,2.32-.62.21.85.32,1.72.32,2.63,0,1.22-.2,2.39-.56,3.49-.29.1-.59.13-.87.06l.65.54Z"/><path class="cls-2" d="m70.85,133.89c1.53.5,2.36,2.15,1.85,3.67-.5,1.53-2.15,2.36-3.67,1.85-.35-.11-.64-.24-.89-.39.26.62.3,1.33.07,2.02-.5,1.53-2.15,2.36-3.67,1.85-1.52-.5-2.36-2.15-1.85-3.67.23-.69.68-1.24,1.26-1.59-.26-.03-.54-.09-.85-.18,1.5-1.91,3.6-3.32,6.03-3.92.51,0,1.1.16,1.72.37Z"/><path class="cls-3" d="m52.45,73.1c.05-1.31.78-2.56,2.04-3.21.42-.23.81-.38,1.19-.48-.82-.33-1.54-.94-1.98-1.78-.99-1.86-.26-4.18,1.6-5.16,1.87-.98,4.18-.26,5.17,1.61.44.84.54,1.78.34,2.64.29-.25.64-.49,1.07-.71,1.36-.71,2.95-.53,4.1.36"/><path class="cls-3" d="m67.38,70.19c-.11.53-.34,1.03-.66,1.47"/><path class="cls-3" d="m64.79,73.1c.21-.1.42-.21.64-.32.53-.28.96-.66,1.3-1.11.27.05.53.14.78.25.44.19.81.41,1.11.62-.2-.66-.23-1.38-.03-2.07"/><path class="cls-3" d="m75.73,73.05s-.02.03-.03.04"/><path class="cls-3" d="m93.69,71.3c-.24.31-.55.59-.9.81-.69.45-1.47.64-2.24.6"/><path class="cls-3" d="m82.53,60.87c.23-.87.79-1.67,1.61-2.2,1.78-1.14,4.14-.63,5.28,1.15.26.4.45.78.58,1.13.25-.85.8-1.61,1.6-2.13,1.78-1.14,4.14-.63,5.28,1.15,1.14,1.77.63,4.14-1.14,5.28-.81.51-1.72.69-2.6.57.27.26.53.59.79,1,.1.16.2.34.28.51"/><path class="cls-3" d="m80.01,62.35c.59-.78,1.48-1.33,2.51-1.47.17-.03.36-.03.54-.03,2.11,0,3.82,1.72,3.81,3.84,0,.95-.36,1.82-.94,2.49.37-.08.79-.12,1.27-.12,2.11,0,3.82,1.73,3.81,3.84,0,.67-.17,1.29-.48,1.84-.07.13-.16.26-.24.38"/><path class="cls-3" d="m75.77,73.1s-.03-.03-.03-.04c-.44-.62-.7-1.39-.7-2.23,0-.57.13-1.11.36-1.59"/><path class="cls-3" d="m97.22,73.1l.33-.47c-.7.39-1.65.1-2.69-.37-.49-.22-.88-.55-1.16-.95.89-1.09,1.11-2.63.52-3.96.82-.68,1.98-.87,3.01-.4.34.15.62.31.85.48-.2-.64-.17-1.35.13-2.02.65-1.46,2.37-2.12,3.84-1.47,1.47.66,2.13,2.37,1.47,3.85-.29.66-.81,1.16-1.41,1.45.28.05.58.16.92.3,1.38.62,2.04,2.17,1.58,3.57"/><path class="cls-3" d="m71.52,67.69c0,.27-.06.53-.15.79-.02.05-.03.11-.06.16-.45,1.13-1.55,1.85-2.73,1.83-.29,0-.59-.04-.88-.15-.1-.03-.22-.08-.31-.13.18-.85.08-1.76-.36-2.58-.27-.51-.63-.94-1.07-1.26.25-.55.66-1,1.15-1.29-.29-.03-.61-.1-.95-.22-1.52-.5-2.35-2.15-1.85-3.67.51-1.52,2.16-2.36,3.68-1.85,1.08.36,1.98.78,2.24,1.53l.18-1.43c.02-.16.18-.27.35-.22l1.11.37c.16.05.23.23.15.38l-.71,1.26c.66-.46,1.63-.26,2.71.1.34.11.64.28.9.49"/><path class="cls-3" d="m71.7,66.66c-.15-.07-.28-.14-.4-.21.09.21.16.42.18.65"/><path class="cls-3" d="m69.13,133.52c.51,0,1.1.16,1.72.37,1.53.5,2.36,2.15,1.85,3.67-.5,1.53-2.15,2.36-3.67,1.85-.35-.11-.64-.24-.89-.39.26.62.3,1.33.07,2.02-.5,1.53-2.15,2.36-3.67,1.85-1.52-.5-2.36-2.15-1.85-3.67.23-.69.68-1.24,1.26-1.59-.26-.03-.54-.09-.85-.18"/><path class="cls-3" d="m62.87,150.88c.31-.17.66-.29,1.03-.36.36-.05.68-.07.97-.05-.51-.43-.87-1.05-.98-1.77-.24-1.59.85-3.08,2.44-3.32,1.59-.23,3.07.86,3.31,2.44.11.72-.05,1.41-.41,1.98.27-.1.58-.18.94-.24,1.59-.24,3.07.85,3.31,2.44.24,1.59-.85,3.08-2.44,3.31-.14.03-.29.04-.42.05"/><path class="cls-3" d="m81.44,149.94s-.07-.05-.1-.1l-.68-1.26c.04.8-.65,1.52-1.52,2.24-1.24,1.02-3.08.84-4.1-.4s-.85-3.08.4-4.1c.28-.23.55-.41.81-.54-.67-.11-1.29-.46-1.75-1.02-1.02-1.24-.85-3.07.39-4.09s3.08-.85,4.1.39c.46.56.68,1.24.67,1.91.17-.23.4-.46.68-.69.68-.55,1.52-.75,2.32-.62"/><path class="cls-3" d="m82.41,147.8c-.29.1-.59.13-.87.06l.65.54"/><path class="cls-3" d="m80.01,62.35c-.49.64-.79,1.44-.79,2.3,0,.95.35,1.83.92,2.49-.36-.08-.79-.13-1.27-.13-1.54,0-2.88.9-3.48,2.22-.37-.55-.91-1-1.57-1.3-.75-.33-1.55-.4-2.3-.24,0-.2,0-.4-.03-.59.05-.16.13-.3.22-.44.15.07.31.13.49.19,1.52.5,3.17-.32,3.67-1.85.4-1.19-.02-2.45-.94-3.19.3-.46.75-.83,1.29-1.06,1.49-.61,3.19.1,3.8,1.59Z"/><path class="cls-3" d="m55.54,91.47c-1.52-1.99-2.72-4.28-3.5-6.77-.7-2.19-1.08-4.55-1.08-7v-4.61h57.52v4.61c0,2.45-.38,4.81-1.08,7"/><polyline class="cls-3" points="98.8 115.84 81.03 115.84 40.18 115.84 40.18 175.39 98.8 175.39"/><path class="cls-3" d="m53.01,150.42c-.23.05-.49.09-.74.09-1.71,0-3.09-1.39-3.09-3.09v-6.19c0-1.72,1.39-3.1,3.09-3.1.25,0,.5.03.74.09"/><path class="cls-3" d="m53.01,150.42c2.57,7.94,10.03,13.69,18.83,13.69,10.93,0,19.79-8.86,19.79-19.79s-8.86-19.79-19.79-19.79c-8.8,0-16.26,5.74-18.83,13.69.56.14,1.06.42,1.45.82.56.55.91,1.33.91,2.19v6.19c0,1.46-1,2.68-2.36,3.01Z"/><path class="cls-3" d="m82.41,147.8c-.06.2-.14.4-.22.6-.21.54-.46,1.05-.75,1.54-1.94,3.29-5.52,5.5-9.6,5.5-.41,0-.81-.03-1.21-.07-3.19-.35-5.97-2.04-7.76-4.5-1.36-1.84-2.16-4.11-2.16-6.57,0-2.59.89-4.97,2.38-6.87,1.5-1.91,3.6-3.32,6.03-3.92.87-.23,1.78-.34,2.72-.34,5.22,0,9.63,3.63,10.81,8.5.21.85.32,1.72.32,2.63,0,1.22-.2,2.39-.56,3.49Z"/><line class="cls-3" x1="40.18" y1="115.84" x2="40.18" y2="106.83"/><polyline class="cls-3" points="120.91 84.71 120.91 153.28 98.8 175.39 98.8 115.84 98.8 106.83"/><path class="cls-3" d="m107.4,84.71h13.51s-22.12,22.12-22.12,22.12h-58.61l15.36-15.36c3.77,4.98,9.56,8.17,16.04,8.17h16.27c9.09,0,16.81-6.25,19.54-14.93Z"/><line class="cls-3" x1="81.03" y1="106.83" x2="81.03" y2="115.73"/><circle class="cls-3" cx="45.49" cy="111.33" r="1.33"/><circle class="cls-3" cx="50.69" cy="111.33" r="1.33"/><path class="cls-3" d="m71.59,111.33c0,.73-.6,1.33-1.33,1.33s-1.33-.6-1.33-1.33.6-1.33,1.33-1.33,1.33.59,1.33,1.33Z"/></g></svg>