<?xml version="1.0" encoding="UTF-8"?><svg id="Layer_2" xmlns="http://www.w3.org/2000/svg" viewBox="0 0 161.09 234.55"><defs><style>.cls-1{fill:#ecede8;}.cls-1,.cls-2{stroke-width:0px;}.cls-3{fill:none;stroke:#000;stroke-linecap:round;stroke-linejoin:round;stroke-width:.5px;}.cls-2{fill:#8b001b;}</style></defs><g id="Layer_2-2"><rect class="cls-1" width="161.09" height="234.55" rx="5" ry="5"/><path class="cls-2" d="m139.22,203.46c0-2.88-.22-3.24-1.98-3.38l-1.48-.11c-.32-.22-.29-1.15.07-1.26,1.3.07,3.46.11,5.69.11,2.38,0,4.54-.04,5.83-.11.36.11.4,1.04.07,1.26l-1.48.11c-1.76.14-1.98.5-1.98,3.38v11.63c0,2.38.14,2.92,1.73,3.13l1.66.22c.32.18.36,1.04.07,1.26-1.48.22-3.17.61-4.61,1.01-1.58.47-2.95,1.15-3.2,1.15-.18,0-.43-.11-.5-.4.07-.83.11-2.48.11-4.28v-13.71Z"/><path class="cls-2" d="m114.7,210.08c0-5.8,2.48-11.77,8.32-11.77s8.31,5.98,8.31,11.77-2.48,11.77-8.31,11.77-8.32-6.19-8.32-11.77Zm8.32-10.11c-2.74,0-3.06,6.91-3.06,10.11s.32,10.11,3.06,10.11,3.06-6.91,3.06-10.11-.32-10.11-3.06-10.11Z"/><polygon class="cls-2" points="131.17 189.28 138.21 180 131.17 170.72 124.13 180 131.17 189.28"/><path class="cls-2" d="m21.88,31.1c0,2.88.22,3.24,1.98,3.38l1.48.11c.32.22.29,1.15-.07,1.26-1.3-.07-3.46-.11-5.69-.11-2.38,0-4.54.04-5.83.11-.36-.11-.4-1.04-.07-1.26l1.48-.11c1.76-.14,1.98-.5,1.98-3.38v-11.63c0-2.38-.14-2.92-1.73-3.13l-1.66-.22c-.32-.18-.36-1.04-.07-1.26,1.48-.22,3.17-.61,4.61-1.01,1.58-.47,2.95-1.15,3.2-1.15.18,0,.43.11.5.4-.07.83-.11,2.48-.11,4.28v13.71Z"/><path class="cls-2" d="m46.39,24.47c0,5.8-2.48,11.77-8.32,11.77s-8.31-5.98-8.31-11.77,2.48-11.77,8.31-11.77,8.32,6.19,8.32,11.77Zm-8.32,10.11c2.74,0,3.06-6.91,3.06-10.11s-.32-10.11-3.06-10.11-3.06,6.91-3.06,10.11.32,10.11,3.06,10.11Z"/><polygon class="cls-2" points="29.92 45.27 22.88 54.55 29.92 63.84 36.96 54.55 29.92 45.27"/><polygon class="cls-2" points="60.36 125.56 60.74 125.23 59.5 127.59 63.56 131.42 63.47 131.59 58.33 131.59 56.65 129.92 59.22 125.78 57.78 124.21 56.99 123.35 58.24 121.1 59.72 124.21 60.36 125.56"/><polygon class="cls-2" points="32.22 128.51 33.04 130.23 31.48 131.59 24.67 131.59 23.95 130.05 23.04 128.14 27.16 124.55 29.83 129.13 32.22 128.51"/><polygon class="cls-2" points="34.5 117.94 37.31 122.77 36.05 127.52 32.22 128.51 29.83 129.13 27.16 124.55 24.78 120.46 34.5 117.94"/><polygon class="cls-2" points="46.43 126.07 45.9 128.07 44.97 131.59 36.74 131.59 35.21 130.69 36.05 127.52 37.31 122.77 37.78 120.99 44.13 124.72 46.43 126.07"/><polygon class="cls-2" points="45.9 128.07 46.43 126.07 44.13 124.72 42.15 120.98 49.43 114.07 52.87 120.58 50.62 124.21 49.05 126.73 49.55 127.28 46.84 129.85 45.9 128.07"/><polygon class="cls-2" points="57.78 124.21 59.22 125.78 56.65 129.92 55.61 131.59 53.5 131.59 49.55 127.28 49.05 126.73 50.62 124.21 52.87 120.58 53.51 119.55 56.99 123.35 57.78 124.21"/><polygon class="cls-2" points="61.91 124.21 60.74 125.23 60.36 125.56 59.72 124.21 58.24 121.1 56.73 117.92 63.11 112.37 66.74 120.01 66.12 120.55 63.35 122.96 61.91 124.21"/><polygon class="cls-2" points="70.82 117.17 76.17 122.73 75.3 124.21 74.13 126.2 71.16 128.25 70.45 127.51 67.28 124.21 66.91 123.82 67.86 122.2 70.82 117.17"/><polygon class="cls-2" points="67.86 122.2 66.91 123.82 67.28 124.21 70.45 127.51 69.44 129.43 66.32 131.59 63.74 131.59 63.56 131.42 59.5 127.59 60.74 125.23 61.91 124.21 63.35 122.96 66.12 120.55 67.86 122.2"/><path class="cls-2" d="m101.12,163.58c.13-6.69.26-13.38.39-20.07.61.38,1.26.67,1.93.89,1.17.4,2.39.61,3.63.73,0,6.45-.97,12.91-2.88,19.08-.28.9-.86,1.99-1.8,1.89-1.03-.11-1.29-1.48-1.27-2.52Z"/><path class="cls-2" d="m110.67,145.32c1.57.05,3.28,0,4.73-.49.25,5.67.37,11.34-.01,16.99-.07,1.05-.31,2.3-1.29,2.67-.81.3-1.75-.25-2.18-1-.43-.76-.48-1.66-.52-2.53-.24-5.22-.49-10.43-.73-15.64Z"/><path class="cls-2" d="m110.64,66.23l22.66,29.87-16.61,21.89-6.05,7.98-9.68-12.76-12.97-17.11,22.65-29.87Zm8.9,35.41c0-5.26-4.27-9.53-9.53-9.53s-9.53,4.27-9.53,9.53,4.26,9.53,9.53,9.53,9.53-4.26,9.53-9.53Z"/><polyline class="cls-3" points="100.96 113.21 87.99 96.1 110.64 66.23 133.3 96.1 116.69 117.99"/><polyline class="cls-3" points="37.31 122.77 37.78 120.99 44.13 124.72"/><polyline class="cls-3" points="36.74 131.59 35.21 130.69 36.05 127.52"/><line class="cls-3" x1="45.9" y1="128.07" x2="44.97" y2="131.59"/><line class="cls-3" x1="66.12" y1="120.55" x2="67.86" y2="122.2"/><line class="cls-3" x1="63.74" y1="131.59" x2="63.56" y2="131.42"/><line class="cls-3" x1="70.45" y1="127.51" x2="69.44" y2="129.43"/><polyline class="cls-3" points="27.16 124.55 24.78 120.46 34.5 117.94 37.31 122.77 36.05 127.52 32.22 128.51"/><polyline class="cls-3" points="49.55 127.28 46.84 129.85 45.9 128.07 46.43 126.07 44.13 124.72 42.15 120.98 49.43 114.07 52.87 120.58"/><polyline class="cls-3" points="60.74 125.23 59.5 127.59 63.56 131.42 63.47 131.59"/><line class="cls-3" x1="56.99" y1="123.35" x2="58.24" y2="121.1"/><line class="cls-3" x1="58.33" y1="131.59" x2="56.65" y2="129.92"/><polyline class="cls-3" points="53.5 131.59 49.55 127.28 49.05 126.73 50.62 124.21 52.87 120.58 53.51 119.55 56.99 123.35 57.78 124.21 59.22 125.78 56.65 129.92 55.61 131.59"/><polyline class="cls-3" points="24.67 131.59 23.95 130.05 23.04 128.14 27.16 124.55 29.83 129.13 32.22 128.51 33.04 130.23 31.48 131.59"/><polygon class="cls-3" points="58.24 121.1 56.73 117.92 63.11 112.37 66.74 120.01 66.12 120.55 63.35 122.96 61.91 124.21 60.74 125.23 60.36 125.56 59.72 124.21 58.24 121.1"/><polyline class="cls-3" points="71.16 128.25 70.45 127.51 67.28 124.21 66.91 123.82 67.86 122.2 70.82 117.17 76.17 122.73 75.3 124.21 74.13 126.2"/><circle class="cls-3" cx="110.01" cy="101.64" r="9.53"/><polyline class="cls-3" points="66.32 131.59 69.44 129.43 71.16 128.25 74.13 126.2 77.02 124.21 72.02 153.13 62.82 159"/><polygon class="cls-3" points="66.32 131.59 66.04 133.76 62.82 159 31.02 159 22.59 131.59 24.67 131.59 31.48 131.59 36.74 131.59 44.97 131.59 53.5 131.59 55.61 131.59 58.33 131.59 63.47 131.59 63.74 131.59 66.32 131.59"/><path class="cls-3" d="m101.51,143.51c-.13,6.69-.26,13.38-.39,20.07-.02,1.04.24,2.41,1.27,2.52.94.1,1.52-.99,1.8-1.89,1.91-6.17,2.88-12.63,2.88-19.08"/><path class="cls-3" d="m110.67,145.32c.24,5.21.49,10.42.73,15.64.04.87.09,1.77.52,2.53.43.75,1.37,1.3,2.18,1,.98-.37,1.22-1.62,1.29-2.67.38-5.65.26-11.32.01-16.99"/><path class="cls-3" d="m110.67,145.32h-.22c-1.13-.04-2.26-.08-3.38-.19-1.24-.12-2.46-.33-3.63-.73-.67-.22-1.32-.51-1.93-.89-1.45-.83-2.66-2.04-3.27-3.58-.73-1.85-.52-3.92-.29-5.89.45-3.8.96-7.6,1.52-11.39-7.39-7.43-13.92-15.7-19.45-24.6-.67-1.08.72-2.3,1.67-1.46.69.6,1.33,1.29,1.93,1.97,5.56,6.23,11.12,12.45,16.68,18.68.21-1.34.44-2.68.66-4.03l9.68,12.76,6.05-7.98c.11.49.2.99.28,1.49,5.39-4.35,10.79-8.68,16.19-13.02.91-.74,1.88-1.49,2.91-2.05,1.41-.74,2.98.78,2.24,2.19-.69,1.34-1.8,2.55-2.89,3.63-5.42,5.34-11.33,10.18-17.63,14.46.62,4.49.99,9.01,1.1,13.53.04,1.65.01,3.42-.92,4.79-.63.92-1.53,1.48-2.57,1.82-1.45.49-3.16.54-4.73.49"/><line class="cls-3" x1="22.59" y1="131.59" x2="23.95" y2="130.05"/><line class="cls-3" x1="77.02" y1="124.21" x2="75.3" y2="124.21"/></g></svg>