<?xml version="1.0" encoding="UTF-8"?><svg id="Layer_2" xmlns="http://www.w3.org/2000/svg" viewBox="0 0 161.09 234.55"><defs><style>.cls-1{fill:#ecede8;}.cls-1,.cls-2{stroke-width:0px;}.cls-3{fill:none;stroke:#000;stroke-linecap:round;stroke-linejoin:round;stroke-width:.5px;}.cls-2{fill:#8b001b;}</style></defs><g id="Layer_2-2"><rect class="cls-1" width="161.09" height="234.55" rx="5" ry="5"/><path class="cls-2" d="m139.22,203.46c0-2.88-.22-3.24-1.98-3.38l-1.48-.11c-.32-.22-.29-1.15.07-1.26,1.3.07,3.46.11,5.69.11,2.38,0,4.54-.04,5.83-.11.36.11.4,1.04.07,1.26l-1.48.11c-1.76.14-1.98.5-1.98,3.38v11.63c0,2.38.14,2.92,1.73,3.13l1.66.22c.32.18.36,1.04.07,1.26-1.48.22-3.17.61-4.61,1.01-1.58.47-2.95,1.15-3.2,1.15-.18,0-.43-.11-.5-.4.07-.83.11-2.48.11-4.28v-13.71Z"/><path class="cls-2" d="m114.7,210.08c0-5.79,2.48-11.77,8.31-11.77s8.32,5.98,8.32,11.77-2.48,11.77-8.32,11.77-8.31-6.19-8.31-11.77Zm8.31-10.11c-2.74,0-3.06,6.91-3.06,10.11s.32,10.12,3.06,10.12,3.06-6.91,3.06-10.12-.32-10.11-3.06-10.11Z"/><path class="cls-2" d="m124.2,182.86c.2,1.21.74,2.05,1.8,2.68.9.54,2.06.54,3.03.15.51-.2.97-.38,1.39-.63.27-.16.52-.34.76-.58.23.23.49.42.76.58.42.25.88.43,1.39.63.98.38,2.13.38,3.03-.15,1.05-.63,1.59-1.47,1.8-2.68.17-1.01.02-2.06-.3-3.03-.33-1.01-1.11-2.03-1.88-2.77-.77-.74-1.4-1.2-2.32-1.74-.74-.44-1.49-.85-2.25-1.23-.14-.07-.3-.07-.44,0-.77.38-1.52.79-2.25,1.23-.91.55-1.55,1.01-2.32,1.74-.77.74-1.54,1.75-1.88,2.77-.32.97-.47,2.03-.3,3.03Z"/><path class="cls-2" d="m21.88,31.1c0,2.88.22,3.24,1.98,3.38l1.48.11c.32.22.29,1.15-.07,1.26-1.3-.07-3.46-.11-5.69-.11-2.38,0-4.54.04-5.83.11-.36-.11-.4-1.04-.07-1.26l1.48-.11c1.76-.14,1.98-.5,1.98-3.38v-11.63c0-2.38-.14-2.92-1.73-3.13l-1.66-.22c-.32-.18-.36-1.04-.07-1.26,1.48-.22,3.17-.61,4.61-1.01,1.58-.47,2.95-1.15,3.2-1.15.18,0,.43.11.5.4-.07.83-.11,2.48-.11,4.28v13.71Z"/><path class="cls-2" d="m46.39,24.47c0,5.79-2.48,11.77-8.31,11.77s-8.32-5.98-8.32-11.77,2.48-11.77,8.32-11.77,8.31,6.19,8.31,11.77Zm-8.31,10.11c2.74,0,3.06-6.91,3.06-10.11s-.32-10.12-3.06-10.12-3.06,6.91-3.06,10.12.32,10.11,3.06,10.11Z"/><path class="cls-2" d="m36.89,51.69c-.2-1.21-.74-2.05-1.8-2.68-.9-.54-2.06-.54-3.03-.15-.51.2-.97.38-1.39.63-.27.16-.52.34-.76.58-.23-.23-.49-.42-.76-.58-.42-.25-.88-.43-1.39-.63-.98-.38-2.13-.38-3.03.15-1.05.63-1.59,1.47-1.8,2.68-.17,1.01-.02,2.06.3,3.03.33,1.01,1.11,2.03,1.88,2.77.77.74,1.4,1.2,2.32,1.74.74.44,1.49.85,2.25,1.23.14.07.3.07.44,0,.77-.38,1.52-.79,2.25-1.23.91-.55,1.55-1.01,2.32-1.74.77-.74,1.54-1.75,1.88-2.77.32-.97.47-2.03.3-3.03Z"/><path class="cls-2" d="m31.81,181.09c-.7.46-1.38.55-2.19.32-.66-.19-1.27-.6-1.77-1.08-.4-.38-.72-.91-.96-1.45-.07-.18-.14-.36-.2-.53-.22-.69-.31-1.21-.39-1.93-.04-.59-.08-1.17-.09-1.76,0-.1.05-.2.13-.27.43-.33.86-.65,1.32-.95.03-.03.07-.05.1-.07.61-.4,1.07-.66,1.75-.92.69-.26,1.54-.43,2.27-.34.69.09,1.38.31,1.96.71.52.37.86.8,1.01,1.36.05.16.08.34.1.53.07.71-.27,1.42-.8,1.92-.04.04-.08.07-.11.1-.23.21-.44.41-.68.57-.18.11-.36.22-.58.29,0,.03.02.06.02.09.07.19.1.37.11.55.02.27.02.55,0,.84,0,.06-.01.13-.01.19-.06.72-.4,1.43-.99,1.83Z"/><path class="cls-2" d="m44.09,175.43c.25.57.27,1.24-.03,1.78-.26.47-.6.78-1.05.96h-.01c-.15.06-.31.11-.48.14-.58.12-1.2.05-1.78-.12-.6-.18-1.21-.61-1.66-1.05-.3-.3-.53-.57-.74-.88-.11-.14-.2-.29-.31-.45-.27-.42-.53-.85-.77-1.3-.03-.08-.03-.17,0-.25.13-.29.27-.58.42-.86.08-.16.17-.32.26-.48.3-.55.55-.93.97-1.39.13-.15.28-.3.44-.44.2-.17.42-.34.65-.47.16-.1.33-.18.5-.24.56-.21,1.17-.31,1.78-.23.71.1,1.21.4,1.59,1,.33.51.35,1.19.15,1.78-.11.29-.21.56-.35.82-.09.16-.18.31-.32.45.01.02.04.03.05.06.12.12.22.24.3.37.05.08.1.17.14.26.09.17.17.35.25.54Z"/><path class="cls-2" d="m39.84,170.24c.07.12.12.25.16.38-.23.13-.45.3-.65.47-.16.14-.31.29-.44.44-.42.46-.67.84-.97,1.39-.09.16-.18.32-.26.48-.31,0-.61-.03-.91-.09-.57-.1-1.18-.44-1.66-.81-.03-.02-.06-.05-.09-.07-.48-.39-.79-.72-1.18-1.21-.31-.4-.61-.8-.89-1.22-.04-.08-.05-.17-.03-.26.16-.47.35-.93.55-1.39.25-.58.46-.98.83-1.48.3-.4.69-.81,1.12-1.09.11-.08.23-.15.35-.21.54-.26,1.14-.43,1.74-.41.72.03,1.25.28,1.69.84.12.16.22.34.28.53h0c.13.4.14.83.04,1.23,0,.01,0,.03,0,.04-.08.29-.14.55-.25.81-.08.17-.16.33-.28.48.02.02.04.03.05.05.14.11.25.22.34.35.03.04.07.08.09.13.14.18.26.39.38.62Z"/><path class="cls-2" d="m38.92,161.94l2.08-.1c-.04.84-.38,1.44-1.04,1.95-.21.16-.44.29-.68.4-.39.19-.82.32-1.25.39-.71.12-1.58-.02-2.27-.24-.19-.07-.36-.13-.52-.2-.43-.18-.81-.37-1.27-.64-.5-.31-.99-.63-1.47-.97-.08-.06-.12-.15-.14-.25l2.5-.13,4.06-.21Z"/><path class="cls-2" d="m42.58,184.25c.26.67.11,1.45-.26,2.07-.2.31-.37.59-.6.85-.14.16-.28.3-.48.43.02.03.04.05.05.08.11.17.19.33.25.5.12.31.18.64.26,1,.14.71-.01,1.49-.48,2.02-.55.64-1.18.9-2.02.89-.69-.01-1.38-.24-2-.58-.63-.34-1.23-.98-1.63-1.59-.2-.31-.35-.58-.49-.87-.14-.28-.26-.56-.39-.9-.21-.55-.4-1.11-.56-1.67-.02-.1,0-.2.06-.29.34-.47.71-.92,1.1-1.36.48-.55.86-.92,1.44-1.35.6-.43,1.38-.82,2.1-.93.38-.05.77-.07,1.15-.03.32.03.63.09.93.2.03.01.06.02.09.04.69.27,1.14.69,1.43,1.36.02.04.03.08.05.13Z"/><path class="cls-2" d="m41,161.83h0s-2.08.11-2.08.11l-4.06.21-2.5.13h0c-.01-.59,0-1.18.02-1.76.04-.73.11-1.26.31-1.96.11-.38.26-.78.46-1.15.17-.33.37-.63.61-.87.48-.5,1.06-.93,1.73-1.16.37-.12.71-.17,1.04-.15.39.02.76.15,1.14.38.62.36.99,1.06,1.08,1.78.04.37.07.7.06,1.04-.01.21-.04.42-.11.64.03.01.06.01.09.03.19.06.35.14.5.24.29.17.55.39.83.62.55.47.91,1.16.88,1.87Z"/><path class="cls-2" d="m28.94,163.54c.33.53.45,1.19.24,1.77-.25.67-.68,1.08-1.35,1.33-.23.08-.47.13-.72.16-.35.04-.71.03-1.06-.01-.62-.09-1.29-.42-1.8-.78-.41-.31-.71-.57-1.04-.92-.07-.07-.14-.15-.21-.23-.33-.38-.65-.76-.96-1.16-.04-.08-.06-.17-.04-.26.14-.48.29-.95.46-1.42.22-.59.41-1.01.75-1.53.11-.17.24-.34.38-.5.23-.28.49-.53.78-.73l.24-.15c.52-.29,1.11-.49,1.71-.5.72-.02,1.26.21,1.73.74.14.16.25.34.32.54.03.06.05.12.06.18.1.32.11.68.04,1.02-.06.3-.11.58-.21.86-.06.17-.14.33-.25.5.02.01.04.02.06.05.14.09.25.2.35.32.19.21.35.46.52.72Z"/><path class="cls-2" d="m29.98,157.24c.17.7.04,1.27-.38,1.85-.3.41-.72.74-1.17.98-.01-.06-.03-.12-.06-.18-.07-.2-.18-.38-.32-.54-.47-.53-1.01-.76-1.73-.74-.6.01-1.19.21-1.71.5l-.24.15c-.29.2-.55.45-.78.73-.15-.04-.29-.09-.43-.14-.08-.03-.15-.1-.18-.18-.15-.48-.29-.96-.4-1.45-.15-.61-.22-1.06-.23-1.68,0-.63.11-1.37.39-1.92.28-.53.66-1.03,1.15-1.38.59-.4,1.17-.52,1.86-.34.5.14.92.5,1.18.96.05.08.09.16.13.25.12.29.23.56.3.84.04.18.07.35.07.55.02.01.05,0,.07.01.18,0,.33.03.48.07.28.08.54.19.83.32.41.19.76.49.98.87.09.15.15.3.19.47Z"/><path class="cls-2" d="m143.27,108.59c.21.86-.03,1.91-.79,2.37-.62.38-1.43.29-2.07-.04-.64-.32-1.15-.85-1.65-1.38-1.89-1.98-3.79-3.96-5.68-5.95-.9-.95-2.07-1.93-2.97-3.04.73-1.74,1.21-3.59,1.63-5.45,1.69.28,3.05,1.92,4.04,3.2,2.06,2.66,4.11,5.31,6.17,7.97.55.71,1.11,1.45,1.32,2.32Z"/><path class="cls-2" d="m124.24,107.36c-.01.63-.08,1.26-.14,1.77-.41,3.28-.81,6.56-1.22,9.85-.11.96-.24,1.96-.76,2.78s-1.53,1.41-2.46,1.12c-.72-.23-1.21-.94-1.39-1.68s-.1-1.51-.02-2.26c.25-2.29.5-4.57.75-6.85.12-1.13.12-2.49.25-3.78,1.44.08,2.86-.09,4.22-.61.26-.1.52-.21.77-.34Z"/><path class="cls-2" d="m110.21,59.38c.7,3.37.28,7.41-.6,10.83-.08.31-.16.62-.25.92-.86,2.91-1.75,5.11-3.03,7.57-.3.58-.62,1.19-.98,1.82-1.47,2.63-3.04,5.21-4.71,7.72-.3.45-.8.74-1.34.77-1.72.11-3.45.18-5.18.22-1.28.02-2.57.03-3.86.01-3.75-.05-6.49-.34-10.13-1.23-3.65-.88-7.81-2.63-10.6-5.13-2.69-2.4-5.01-5.34-6.27-8.72-1.51-4.04-1.35-7.56.76-11.33,1.8-3.22,5.33-5.26,8.97-5.82,1.9-.29,3.62-.54,5.34-.52,1.1,0,2.2.12,3.32.42.31-1.12.75-2.13,1.29-3.09.84-1.49,1.93-2.86,3.12-4.36,2.31-2.88,5.83-4.92,9.52-4.87,4.32.06,7.45,1.68,10.2,5.01,2.3,2.77,3.69,6.26,4.43,9.78Zm-12.76,24.88c4.16-2.41,5.59-7.74,3.18-11.9s-7.73-5.59-11.89-3.18c-4.17,2.4-5.59,7.73-3.19,11.89,2.41,4.17,7.73,5.59,11.9,3.19Z"/><path class="cls-2" d="m83.34,115.1c.29.79.21,1.47-.2,2.2-.34.6-.88,1.09-1.47,1.47-.61.39-1.46.6-2.19.66-.72.05-1.25.02-1.97-.08-.58-.09-1.16-.19-1.73-.32-.1-.03-.18-.1-.23-.19-.24-.53-.46-1.07-.66-1.62-.25-.69-.39-1.2-.48-1.92-.09-.73-.06-1.6.2-2.28.25-.65.62-1.27,1.15-1.74.63-.55,1.28-.76,2.1-.64.71.1,1.32.6,1.68,1.23.18.32.34.61.46.93.07.2.13.4.15.63.03,0,.06-.01.09,0,.2-.02.38-.01.56.02.33.05.65.15,1,.26.69.22,1.3.72,1.54,1.39Z"/><path class="cls-2" d="m26.52,137.17c.07.84-.18,1.48-.76,2.08-.48.49-1.13.83-1.8,1.04-.69.22-1.56.21-2.29.08-.7-.14-1.21-.3-1.88-.58-.54-.24-1.07-.48-1.59-.76-.09-.05-.15-.14-.17-.24-.1-.57-.17-1.15-.23-1.73-.06-.73-.06-1.26.03-1.98.1-.73.36-1.56.78-2.15.41-.57.93-1.07,1.56-1.39.75-.37,1.43-.41,2.19-.08.66.28,1.12.92,1.31,1.62.09.35.17.68.21,1.02.01.21.02.42-.02.64.03.01.06.01.09.03.2.03.37.08.53.16.31.13.59.31.9.51.61.39,1.08,1.03,1.14,1.73Z"/><path class="cls-3" d="m106.33,78.7c1.28-2.46,2.17-4.66,3.03-7.57.09-.3.17-.61.25-.92.88-3.42,1.3-7.46.6-10.83-.74-3.52-2.13-7.01-4.43-9.78-2.75-3.33-5.88-4.95-10.2-5.01-3.69-.05-7.21,1.99-9.52,4.87-1.19,1.5-2.28,2.87-3.12,4.36-.54.96-.98,1.97-1.29,3.09-1.12-.3-2.22-.42-3.32-.42-1.72-.02-3.44.23-5.34.52-3.64.56-7.17,2.6-8.97,5.82-2.11,3.77-2.27,7.29-.76,11.33,1.26,3.38,3.58,6.32,6.27,8.72,2.79,2.5,6.95,4.25,10.6,5.13,3.64.89,6.38,1.18,10.13,1.23,1.29.02,2.58.01,3.86-.01"/><path class="cls-3" d="m97.45,84.26c-4.17,2.4-9.49.98-11.9-3.19-2.4-4.16-.98-9.49,3.19-11.89,4.16-2.41,9.48-.98,11.89,3.18s.98,9.49-3.18,11.9Z"/><path class="cls-3" d="m113.68,82.9c2.33.91,4.79,1.51,7.28,1.77,1.1.12,2.2.18,3.31.16,2.63-.03,5.74-.24,7.37,1.82,1.36,1.71.99,4.16.55,6.3-.15.72-.3,1.44-.45,2.15"/><path class="cls-3" d="m119.25,108.31c-2.75-.16-5.54-1.25-8-2.58-3.42-1.85-6.59-4.15-9.42-6.83"/><path class="cls-3" d="m130.11,100.55c-.14.33-.29.65-.44.97-1.19,2.43-3.02,4.65-5.43,5.84"/><path class="cls-3" d="m96.69,93.1c-.93-1.25-1.79-2.54-2.57-3.87,1.73-.04,3.46-.11,5.18-.22.54-.03,1.04-.32,1.34-.77,1.67-2.51,3.24-5.09,4.71-7.72.36-.63.68-1.24.98-1.82.69.56,1.42,1.08,2.17,1.55"/><path class="cls-3" d="m98.95,95.9c-.74-.83-1.43-1.69-2.1-2.57"/><path class="cls-3" d="m109.61,70.21c2.63,2.37,5.55,4.4,8.68,6.05,1.29.67,2.69,1.35,3.46,2.59,1,1.63.6,3.83-.48,5.41-.1.14-.2.28-.31.41"/><path class="cls-3" d="m101.13,91.92v-.04c-.09-1.21,1.38-2.65,2.08-3.69,1.76-2.65,3.53-5.29,5.29-7.94.15-.22.29-.44.44-.66,1.01-1.51,2.46-3.2,4.15-2.75,1.42.38,2.11,2.23,1.82,3.75-.09.47-.58,1.33-1.23,2.31-1.46,2.2-3.71,5.02-4.09,5.49-.99,1.23-1.93,2.77-3.08,3.83-1.14,1.04-3.11,1.75-4.56.86"/><path class="cls-3" d="m96.46,93.35c.07-.08.15-.17.23-.25.05.08.11.15.16.23"/><path class="cls-3" d="m100.45,97.54c-1.72,2-4.4,4.57-4.85,5-1.15,1.09-2.28,2.49-3.56,3.38-1.16.81-2.99,1.26-4.3.48-.11-.07-.22-.14-.33-.23-1.91-1.56.76-3.39,1.89-4.67l6.81-7.77c.11-.13.23-.25.34-.38"/><path class="cls-3" d="m124.24,107.36c-.01.63-.08,1.26-.14,1.77-.41,3.28-.81,6.56-1.22,9.85-.11.96-.24,1.96-.76,2.78s-1.53,1.41-2.46,1.12c-.72-.23-1.21-.94-1.39-1.68s-.1-1.51-.02-2.26c.25-2.29.5-4.57.75-6.85.12-1.13.12-2.49.25-3.78,1.44.08,2.86-.09,4.22-.61.26-.1.52-.21.77-.34Z"/><path class="cls-3" d="m131.74,95.1c1.69.28,3.05,1.92,4.04,3.2,2.06,2.66,4.11,5.31,6.17,7.97.55.71,1.11,1.45,1.32,2.32.21.86-.03,1.91-.79,2.37-.62.38-1.43.29-2.07-.04-.64-.32-1.15-.85-1.65-1.38-1.89-1.98-3.79-3.96-5.68-5.95-.9-.95-2.07-1.93-2.97-3.04.73-1.74,1.21-3.59,1.63-5.45Z"/><line class="cls-3" x1="101.9" y1="95.78" x2="101.83" y2="98.9"/><path class="cls-3" d="m100.11,94.81l-1.16,1.09c.48.56.98,1.11,1.5,1.64.45.46.91.92,1.38,1.36l-.51,25.12c-.66-3.33-3.46-6.27-6.57-7.64-1.94-.86-4.1-1.11-6.12-1.78-2.2-.73-4.19-1.95-5.94-3.47-1.93-1.64-3.58-3.65-4.96-5.77-1.54-2.37-2.82-4.95-4.8-6.96-2.18-2.23-5.31-3.27-6.08-3.61l29.6-1.44h.01l.39-.02,2.25-.11"/><path class="cls-3" d="m43.84,174.89c.04-.19.08-.38.11-.57.3-1.64.48-3.37.54-5.15.01-.41.02-.82.02-1.23,0-2.17-.19-4.28-.54-6.26-.25-1.44-.59-2.82-1.01-4.12-1.28-4-3.27-7.27-5.69-9.31-1.8-1.54-3.83-2.4-5.98-2.4-4.1,0-7.77,3.13-10.19,8.04-1.89,3.82-3.02,8.71-3.02,14.05,0,12.2,5.92,22.08,13.21,22.08,1.35,0,2.66-.34,3.89-.97"/><path class="cls-3" d="m41.1,182.76c.74-1.38,1.39-2.92,1.9-4.59"/><path class="cls-3" d="m39.48,166.53c-.04-.8-.1-1.58-.2-2.34"/><path class="cls-3" d="m23.21,165.09c-.08.92-.13,1.87-.13,2.85,0,4.51.97,8.54,2.4,11.56,1.61,3.41,3.8,5.52,5.82,5.52,1.84,0,3.85-1.77,5.41-4.71.63-1.18,1.18-2.54,1.63-4.05"/><path class="cls-3" d="m36.53,155.23c-1.03-1.84-2.24-3.19-3.46-3.86-.59-.34-1.19-.52-1.77-.52-1.46,0-3.01,1.1-4.37,3.01"/><path class="cls-3" d="m39.51,167.8v.14c0,.4-.01.8-.02,1.2l-.03.48"/><path class="cls-3" d="m33.94,176.73c-.19.49-.4.95-.6,1.37-.18.35-.35.68-.53.97"/><path class="cls-3" d="m35.24,164.14c.08.53.14,1.08.18,1.64"/><path class="cls-3" d="m29.79,156.77l.15-.24c.62-.99,2.09-.99,2.71,0,.17.26.34.56.5.88"/><path class="cls-3" d="m27.66,173.44c-.36-1.63-.58-3.48-.58-5.5,0-.39.01-.77.03-1.14"/><path class="cls-3" d="m35.11,172.5c-.1.59-.22,1.15-.36,1.68"/><path class="cls-3" d="m83.14,117.3c-.34.6-.88,1.09-1.47,1.47-.61.39-1.46.6-2.19.66-.72.05-1.25.02-1.97-.08-.58-.09-1.16-.19-1.73-.32-.1-.03-.18-.1-.23-.19-.24-.53-.46-1.07-.66-1.62-.25-.69-.39-1.2-.48-1.92-.09-.73-.06-1.6.2-2.28.25-.65.62-1.27,1.15-1.74.63-.55,1.28-.76,2.1-.64.71.1,1.32.6,1.68,1.23.18.32.34.61.46.93.07.2.13.4.15.63.03,0,.06-.01.09,0,.2-.02.38-.01.56.02.33.05.65.15,1,.26.69.22,1.3.72,1.54,1.39.29.79.21,1.47-.2,2.2Z"/><polyline class="cls-3" points="98.95 95.9 87.74 106.4 82.69 111.13 80.24 113.43"/><path class="cls-3" d="m101.95,93.08l1.88,2.65-1.93.05h-.13l-1.03.03-.63-1-1.01-1.59-.04-.07.89-1.77.33-.65.77,1.09h.01s.07.1.07.1c.04.41.26.79.76,1.12.02.01.04.03.06.04Z"/><path class="cls-3" d="m25.76,139.25c-.48.49-1.13.83-1.8,1.04-.69.22-1.56.21-2.29.08-.7-.14-1.21-.3-1.88-.58-.54-.24-1.07-.48-1.59-.76-.09-.05-.15-.14-.17-.24-.1-.57-.17-1.15-.23-1.73-.06-.73-.06-1.26.03-1.98.1-.73.36-1.56.78-2.15.41-.57.93-1.07,1.56-1.39.75-.37,1.43-.41,2.19-.08.66.28,1.12.92,1.31,1.62.09.35.17.68.21,1.02.01.21.02.42-.02.64.03.01.06.01.09.03.2.03.37.08.53.16.31.13.59.31.9.51.61.39,1.08,1.03,1.14,1.73.07.84-.18,1.48-.76,2.08Z"/><line class="cls-3" x1="23.95" y1="134.77" x2="47.93" y2="121.86"/><polygon class="cls-3" points="51.29 123.71 48.28 122.99 47.93 121.86 47.34 119.99 49.14 117.96 50.15 120.66 51.29 123.71"/><path class="cls-3" d="m32.36,162.28h0c-.01-.59,0-1.18.02-1.76.04-.73.11-1.26.31-1.96.11-.38.26-.78.46-1.15.17-.33.37-.63.61-.87.48-.5,1.06-.93,1.73-1.16.37-.12.71-.17,1.04-.15.39.02.76.15,1.14.38.62.36.99,1.06,1.08,1.78.04.37.07.7.06,1.04-.01.21-.04.42-.11.64.03.01.06.01.09.03.19.06.35.14.5.24.29.17.55.39.83.62.55.47.91,1.16.88,1.87h0"/><path class="cls-3" d="m41,161.84c-.04.84-.38,1.44-1.04,1.95-.21.16-.44.29-.68.4-.39.19-.82.32-1.25.39-.71.12-1.58-.02-2.27-.24-.19-.07-.36-.13-.52-.2-.43-.18-.81-.37-1.27-.64-.5-.31-.99-.63-1.47-.97-.08-.06-.12-.15-.14-.25l2.5-.13,4.06-.21,2.08-.1Z"/><polyline class="cls-3" points="38.79 159.1 42.96 157.56 64.32 149.64"/><polygon class="cls-3" points="67.39 151.93 64.51 150.81 64.32 149.64 64 147.71 66.06 145.95 66.69 148.76 67.39 151.93"/><path class="cls-3" d="m34.75,174.18c.05.16.08.34.1.53.07.71-.27,1.42-.8,1.92-.04.04-.08.07-.11.1-.23.21-.44.41-.68.57-.18.11-.36.22-.58.29,0,.03.02.06.02.09.07.19.1.37.11.55.02.27.02.55,0,.84,0,.06-.01.13-.01.19-.06.72-.4,1.43-.99,1.83-.7.46-1.38.55-2.19.32-.66-.19-1.27-.6-1.77-1.08-.4-.38-.72-.91-.96-1.45-.07-.18-.14-.36-.2-.53-.22-.69-.31-1.21-.39-1.93-.04-.59-.08-1.17-.09-1.76,0-.1.05-.2.13-.27.43-.33.86-.65,1.32-.95.03-.03.07-.05.1-.07.61-.4,1.07-.66,1.75-.92.69-.26,1.54-.43,2.27-.34.69.09,1.38.31,1.96.71.52.37.86.8,1.01,1.36Z"/><line class="cls-3" x1="54.47" y1="191.95" x2="42.53" y2="184.12"/><line class="cls-3" x1="55.47" y1="192.61" x2="54.48" y2="191.96"/><polyline class="cls-3" points="40.08 182.52 36.71 180.31 33.34 178.1 32.7 177.68"/><polygon class="cls-3" points="58.29 193.19 57.59 194 55.45 196.45 54.65 193.46 55.47 192.61 55.71 192.36 56.84 191.2 59.48 191.82 58.29 193.19"/><path class="cls-3" d="m42.53,184.12s.03.08.05.13c.26.67.11,1.45-.26,2.07-.2.31-.37.59-.6.85-.14.16-.28.3-.48.43.02.03.04.05.05.08.11.17.19.33.25.5.12.31.18.64.26,1,.14.71-.01,1.49-.48,2.02-.55.64-1.18.9-2.02.89-.69-.01-1.38-.24-2-.58-.63-.34-1.23-.98-1.63-1.59-.2-.31-.35-.58-.49-.87-.14-.28-.26-.56-.39-.9-.21-.55-.4-1.11-.56-1.67-.02-.1,0-.2.06-.29.34-.47.71-.92,1.1-1.36.48-.55.86-.92,1.44-1.35.6-.43,1.38-.82,2.1-.93.38-.05.77-.07,1.15-.03.32.03.63.09.93.2.03.01.06.02.09.04.69.27,1.14.69,1.43,1.36Z"/><polyline class="cls-3" points="41.29 187.68 54.47 191.95 54.48 191.96 55.71 192.36 58.29 193.19 67.19 196.08"/><polygon class="cls-3" points="68.18 199.78 66.62 197.12 67.19 196.08 68.14 194.36 70.85 194.26 69.6 196.86 68.18 199.78"/><path class="cls-3" d="m40,170.62c.16-.1.33-.18.5-.24.56-.21,1.17-.31,1.78-.23.71.1,1.21.4,1.59,1,.33.51.35,1.19.15,1.78-.11.29-.21.56-.35.82-.09.16-.18.31-.32.45.01.02.04.03.05.06.12.12.22.24.3.37.05.08.1.17.14.26.09.17.17.35.25.54.25.57.27,1.24-.03,1.78-.26.47-.6.78-1.05.96h-.01c-.15.06-.31.11-.48.14-.58.12-1.2.05-1.78-.12-.6-.18-1.21-.61-1.66-1.05-.3-.3-.53-.57-.74-.88-.11-.14-.2-.29-.31-.45-.27-.42-.53-.85-.77-1.3-.03-.08-.03-.17,0-.25.13-.29.27-.58.42-.86"/><polyline class="cls-3" points="43.4 174.26 43.95 174.32 66.64 176.68"/><polygon class="cls-3" points="68.13 179.61 66.34 177.65 66.64 176.68 67.12 175.06 69.38 174.5 68.79 176.9 68.13 179.61"/><path class="cls-3" d="m35.42,165.78c.11-.08.23-.15.35-.21.54-.26,1.14-.43,1.74-.41.72.03,1.25.28,1.69.84.12.16.22.34.28.53h0c.13.4.14.83.04,1.23,0,.01,0,.03,0,.04-.08.29-.14.55-.25.81-.08.17-.16.33-.28.48.02.02.04.03.05.05.14.11.25.22.34.35.03.04.07.08.09.13.14.18.26.39.38.62.07.12.12.25.16.38-.23.13-.45.3-.65.47-.16.14-.31.29-.44.44-.42.46-.67.84-.97,1.39-.09.16-.18.32-.26.48"/><polyline class="cls-3" points="39.03 169.14 39.49 169.14 44.49 169.17 62.4 169.28"/><polygon class="cls-3" points="64.17 172.05 62.2 170.27 62.4 169.28 62.72 167.63 64.91 166.84 64.56 169.29 64.17 172.05"/><path class="cls-3" d="m28.43,160.07c.1.32.11.68.04,1.02-.06.3-.11.58-.21.86-.06.17-.14.33-.25.5.02.01.04.02.06.05.14.09.25.2.35.32.19.21.35.46.52.72.33.53.45,1.19.24,1.77-.25.67-.68,1.08-1.35,1.33-.23.08-.47.13-.72.16-.35.04-.71.03-1.06-.01-.62-.09-1.29-.42-1.8-.78-.41-.31-.71-.57-1.04-.92-.07-.07-.14-.15-.21-.23-.33-.38-.65-.76-.96-1.16-.04-.08-.06-.17-.04-.26.14-.48.29-.95.46-1.42.22-.59.41-1.01.75-1.53.11-.17.24-.34.38-.5"/><polyline class="cls-3" points="51.4 161.3 43.97 161.68 41 161.83"/><line class="cls-3" x1="32.36" y1="162.28" x2="28.07" y2="162.5"/><polygon class="cls-3" points="53.33 163.96 51.26 162.3 51.4 161.3 51.63 159.63 53.77 158.72 53.56 161.18 53.33 163.96"/><path class="cls-3" d="m29.79,156.77c.09.15.15.3.19.47.17.7.04,1.27-.38,1.85-.3.41-.72.74-1.17.98-.01-.06-.03-.12-.06-.18-.07-.2-.18-.38-.32-.54-.47-.53-1.01-.76-1.73-.74-.6.01-1.19.21-1.71.5l-.24.15c-.29.2-.55.45-.78.73-.15-.04-.29-.09-.43-.14-.08-.03-.15-.1-.18-.18-.15-.48-.29-.96-.4-1.45-.15-.61-.22-1.06-.23-1.68,0-.63.11-1.37.39-1.92.28-.53.66-1.03,1.15-1.38.59-.4,1.17-.52,1.86-.34.5.14.92.5,1.18.96.05.08.09.16.13.25.12.29.23.56.3.84.04.18.07.35.07.55.02.01.05,0,.07.01.18,0,.33.03.48.07.28.08.54.19.83.32.41.19.76.49.98.87Z"/><polyline class="cls-3" points="27.5 155.51 33.07 151.37 37.27 148.25 46.25 141.57"/><polygon class="cls-3" points="49.33 142.71 46.69 142.48 46.25 141.57 45.51 140.05 46.79 138.1 47.98 140.27 49.33 142.71"/></g></svg>