<?xml version="1.0" encoding="UTF-8"?><svg id="Layer_2" xmlns="http://www.w3.org/2000/svg" viewBox="0 0 161.09 234.55"><defs><style>.cls-1{fill:#ecede8;}.cls-1,.cls-2{stroke-width:0px;}.cls-2{fill:#1a1a1a;}.cls-3{fill:none;stroke:#000;stroke-linecap:round;stroke-linejoin:round;stroke-width:.5px;}</style></defs><g id="Layer_2-2"><rect class="cls-1" width="161.09" height="234.55" rx="5" ry="5"/><path class="cls-2" d="m139.22,203.46c0-2.88-.22-3.24-1.98-3.38l-1.48-.11c-.32-.22-.29-1.15.07-1.26,1.3.07,3.46.11,5.69.11,2.38,0,4.54-.04,5.83-.11.36.11.4,1.04.07,1.26l-1.48.11c-1.76.14-1.98.5-1.98,3.38v11.63c0,2.38.14,2.92,1.73,3.13l1.66.22c.32.18.36,1.04.07,1.26-1.48.22-3.17.61-4.61,1.01-1.58.47-2.95,1.15-3.2,1.15-.18,0-.43-.11-.5-.4.07-.83.11-2.48.11-4.28v-13.71Z"/><path class="cls-2" d="m114.7,210.08c0-5.79,2.48-11.77,8.31-11.77,5.83,0,8.32,5.98,8.32,11.77s-2.48,11.77-8.32,11.77c-5.83,0-8.31-6.19-8.31-11.77Zm8.31-10.11c-2.74,0-3.06,6.91-3.06,10.11s.32,10.12,3.06,10.12,3.06-6.91,3.06-10.12-.32-10.11-3.06-10.11Z"/><path class="cls-2" d="m124.5,180.94c.33,1.01,1.11,2.03,1.88,2.77.77.74,1.4,1.2,2.32,1.74.66.4,1.34.77,2.03,1.12.28.14.6.14.88,0,.69-.35,1.37-.72,2.03-1.12.91-.54,1.55-1.01,2.32-1.74.77-.74,1.55-1.75,1.88-2.77.32-.97.47-2.03.3-3.03-.2-1.21-.74-2.05-1.8-2.68-.9-.54-2.06-.54-3.03-.15-.51.2-.97.38-1.39.63l.38-1.94c.04-.22-.12-.42-.35-.42h-1.57c-.22,0-.39.2-.35.42l.38,1.94c-.42-.25-.88-.43-1.39-.63-.98-.38-2.13-.38-3.03.15-1.05.63-1.59,1.47-1.8,2.68-.17,1.01-.02,2.06.3,3.03Z"/><path class="cls-2" d="m21.88,31.1c0,2.88.22,3.24,1.98,3.38l1.48.11c.32.22.29,1.15-.07,1.26-1.3-.07-3.46-.11-5.69-.11-2.38,0-4.54.04-5.83.11-.36-.11-.4-1.04-.07-1.26l1.48-.11c1.76-.14,1.98-.5,1.98-3.38v-11.63c0-2.38-.14-2.92-1.73-3.13l-1.66-.22c-.32-.18-.36-1.04-.07-1.26,1.48-.22,3.17-.61,4.61-1.01,1.58-.47,2.95-1.15,3.2-1.15.18,0,.43.11.5.4-.07.83-.11,2.48-.11,4.28v13.71Z"/><path class="cls-2" d="m46.39,24.47c0,5.79-2.48,11.77-8.31,11.77s-8.32-5.98-8.32-11.77,2.48-11.77,8.32-11.77,8.31,6.19,8.31,11.77Zm-8.31,10.11c2.74,0,3.06-6.91,3.06-10.11s-.32-10.12-3.06-10.12-3.06,6.91-3.06,10.12.32,10.11,3.06,10.11Z"/><path class="cls-2" d="m36.59,53.62c-.33-1.01-1.11-2.03-1.88-2.77-.77-.74-1.4-1.2-2.32-1.74-.66-.4-1.34-.77-2.03-1.12-.28-.14-.6-.14-.88,0-.69.35-1.37.72-2.03,1.12-.91.54-1.55,1.01-2.32,1.74-.77.74-1.55,1.75-1.88,2.77-.32.97-.47,2.03-.3,3.03.2,1.21.74,2.05,1.8,2.68.9.54,2.06.54,3.03.15.51-.2.97-.38,1.39-.63l-.38,1.94c-.04.22.12.42.35.42h1.57c.22,0,.39-.2.35-.42l-.38-1.94c.42.25.88.43,1.39.63.98.38,2.13.38,3.03-.15,1.05-.63,1.59-1.47,1.8-2.68.17-1.01.02-2.06-.3-3.03Z"/><path class="cls-3" d="m57,138.71c.34.1.69.2,1.04.29,2.97.84,6.35.51,8.82-1.32,2.9-2.13,4.24-4.76,4.49-8.35.21-3-.54-6.04-1.75-8.79-1.26-2.87-3.82-5.62-6.28-7.55-2.47-1.93-4.45-3.1-7.28-4.43-2.06-.97-4.15-1.87-6.26-2.69-.85-.33-1.81-.24-2.57.25-1.92,1.21-3.8,2.5-5.64,3.84-2.52,1.86-4.24,3.39-6.27,5.76-2.04,2.37-4.02,5.57-4.71,8.63-.66,2.94-.81,6.06-.02,8.97.94,3.47,2.76,5.78,6.02,7.32,2.4,1.13,5.26,1.03,7.76.09"/><path class="cls-3" d="m51.19,133.64c-3.99.39-7.54-2.53-7.93-6.52-.39-4,2.53-7.55,6.53-7.94,3.99-.39,7.54,2.53,7.93,6.53s-2.53,7.55-6.53,7.93Z"/><path class="cls-3" d="m60,81.08l.02.02c.45.49.88.98,1.3,1.49.2.24.36.45.51.67.31.43.56.86.83,1.41.41.81.73,1.85.7,2.76-.03.87-.21,1.76-.64,2.52-.52.91-1.2,1.43-2.22,1.62-.88.17-1.8-.17-2.48-.76-.34-.31-.66-.59-.92-.91l-.27,1.66c-.02.19-.22.3-.4.24l-.71-.25-.55-.2c-.17-.07-.25-.28-.15-.45l.87-1.43c-.41.07-.83.09-1.3.1-.9.02-1.82-.32-2.39-1.01-.66-.81-.84-1.65-.65-2.67.15-.86.59-1.65,1.13-2.35.56-.71,1.47-1.3,2.31-1.66.82-.37,1.47-.55,2.36-.72.07-.02.14-.02.21-.04.15-.03.3-.06.46-.07"/><path class="cls-3" d="m73.88,86.4c.34.27.68.56,1,.86.23.2.42.4.6.59h0c.37.38.67.77,1.01,1.27.52.74.99,1.73,1.09,2.64.09.86.03,1.76-.29,2.58-.38.97-.98,1.57-1.97,1.92-.85.29-1.81.08-2.56-.41-.38-.25-.74-.49-1.04-.77l-.02,1.68c0,.2-.18.33-.37.29l-.73-.15-.59-.12c-.18-.04-.29-.24-.21-.42l.66-1.55c-.39.13-.81.2-1.27.28-.88.15-1.85-.06-2.5-.66-.77-.71-1.08-1.52-1.03-2.55.03-.87.35-1.73.78-2.48.46-.79,1.28-1.5,2.05-1.98.65-.41,1.18-.67,1.85-.91.12-.05.25-.09.39-.14.39-.13.78-.25,1.18-.37"/><path class="cls-3" d="m87.76,88.88l.42.24c.22.13.44.26.66.4.77.48,1.3.89,1.93,1.54.65.64,1.28,1.52,1.56,2.39.24.83.36,1.73.19,2.59-.2,1.03-.68,1.73-1.58,2.25-.78.44-1.77.41-2.59.07-.42-.18-.81-.35-1.16-.57l.28,1.66c.03.19-.11.36-.31.35h-.74s-.59-.02-.59-.02c-.19,0-.33-.18-.29-.37l.36-1.65c-.36.2-.76.36-1.19.51-.84.3-1.83.28-2.59-.2-.88-.56-1.32-1.29-1.47-2.32-.12-.86.03-1.76.33-2.58.3-.85.99-1.7,1.65-2.31.67-.62,1.21-.99,2.01-1.44.2-.11.41-.23.61-.33.24-.13.49-.26.74-.38"/><path class="cls-3" d="m100.74,87.37c.07.03.15.06.23.08h0c.31.12.63.24.94.37.83.35,1.43.66,2.17,1.19.74.52,1.52,1.29,1.93,2.09.38.78.65,1.65.63,2.53-.02,1.04-.37,1.82-1.18,2.48-.69.56-1.67.7-2.53.51-.46-.11-.87-.2-1.25-.36l.55,1.59c.07.18-.05.37-.24.4l-.74.11-.59.08c-.18.03-.35-.12-.34-.32l.08-1.68c-.33.26-.69.48-1.09.7-.77.45-1.75.59-2.58.25-.96-.41-1.52-1.05-1.85-2.04-.26-.83-.26-1.74-.11-2.6.15-.9.68-1.85,1.24-2.57.55-.73,1.03-1.19,1.74-1.76.15-.13.32-.25.48-.37.23-.18.46-.36.69-.52"/><path class="cls-3" d="m90.95,140.65c-.19-.74-.16-1.55-.04-2.31.16-.89.68-1.84,1.25-2.56.55-.73,1.03-1.19,1.74-1.76.51-.42,1.04-.81,1.57-1.2.22-.15.5-.19.75-.11.63.2,1.24.43,1.85.68.84.34,1.43.66,2.18,1.18s1.52,1.3,1.93,2.1c.08.16.15.33.23.51"/><path class="cls-3" d="m111.3,135.82s0-.02.02-.03c.46-.78.88-1.3,1.51-1.96.46-.47.94-.94,1.42-1.38.2-.18.47-.25.73-.2.65.14,1.29.29,1.92.46.88.24,1.5.48,2.3.91.81.43,1.67,1.09,2.18,1.85.48.73.85,1.56.94,2.43.11,1.03-.15,1.85-.87,2.61-.06.06-.11.11-.17.15"/><path class="cls-3" d="m101.67,140.65c-.33-.88-.28-1.69.14-2.56.15-.32.35-.62.59-.9.32-.4.7-.76,1.12-1.07.73-.54,1.77-.87,2.66-1,.9-.15,1.56-.15,2.47-.08.66.05,1.32.12,1.96.21.26.04.5.2.62.43.02.05.05.09.07.14.29.54.55,1.08.8,1.64.37.83.59,1.46.76,2.35.06.27.1.55.12.84"/><path class="cls-3" d="m78.16,140.65c-.02-.15-.02-.32,0-.49.06-.89.61-1.7,1.34-2.21.38-.26.73-.5,1.11-.68l-1.55-.66c-.17-.07-.24-.29-.13-.46l.42-.62.33-.49c.11-.15.33-.17.46-.04l1.18,1.2c.03-.41.12-.83.22-1.28.2-.87.76-1.69,1.56-2.07.95-.43,1.81-.41,2.75.02.79.36,1.46.98,2,1.67.55.72.9,1.75,1.04,2.65.16.9.18,1.56.12,2.47-.02.33-.04.65-.07.98"/><path class="cls-3" d="m113.11,82.88c.07,0,.14.02.2.02.38.06.76.11,1.13.19.89.17,1.53.36,2.36.73.84.36,1.75.96,2.31,1.67.54.69.96,1.48,1.12,2.35.19,1.03,0,1.86-.66,2.67-.57.69-1.5,1.02-2.39,1-.46,0-.89-.02-1.3-.1l.86,1.44c.1.16.02.37-.15.44l-.71.26-.55.2c-.17.07-.37-.05-.4-.24l-.26-1.66c-.26.32-.58.6-.93.9-.67.59-1.6.93-2.48.76-1.03-.2-1.7-.73-2.22-1.63-.43-.76-.61-1.65-.64-2.52-.02-.9.3-1.95.71-2.76.39-.81.77-1.37,1.34-2.07.14-.17.28-.34.42-.51.16-.2.33-.38.5-.57"/><path class="cls-3" d="m113.31,82.91c4.71-2.3,9.53-5.34,14.43-9.24.51-.4,1-.81,1.51-1.22"/><path class="cls-3" d="m110.9,84.03c-3.38,1.5-6.7,2.61-9.92,3.42"/><path class="cls-3" d="m98.22,88.06c-3.45.68-6.81,1.02-10.04,1.06"/><path class="cls-3" d="m85.22,89.09c-3.4-.14-6.65-.57-9.73-1.23"/><path class="cls-3" d="m70.36,86.53c-3.06-.93-5.91-2.05-8.53-3.27"/><path class="cls-3" d="m43.46,70.99s.49.49,1.42,1.31c2.11,1.87,6.53,5.44,12.7,8.81"/><path class="cls-3" d="m45.4,70.99c0,.51-.2.97-.52,1.31-.35.38-.86.63-1.42.63-1.08,0-1.95-.87-1.95-1.94s.87-1.95,1.95-1.95,1.94.87,1.94,1.95Z"/><path class="cls-3" d="m131.19,72.45c0,1.07-.87,1.94-1.94,1.94-.61,0-1.15-.28-1.51-.72-.28-.33-.44-.77-.44-1.22,0-1.08.87-1.95,1.95-1.95s1.94.87,1.94,1.95Z"/><polygon class="cls-3" points="58.03 81.04 58.31 77.61 61.19 78.33 60 81.08 59.54 82.15 59.13 83.1 57.89 82.79 58.01 81.35 58.03 81.04"/><polygon class="cls-3" points="71.94 86.03 71.77 83.06 74.72 83.37 73.88 86.4 73.61 87.42 73.34 88.39 72.07 88.25 71.99 87 71.94 86.03"/><polygon class="cls-3" points="85.96 88.71 85.39 85.2 88.36 85.2 87.76 88.88 87.72 89.12 87.51 90.34 86.23 90.34 86.03 89.11 85.96 88.71"/><polygon class="cls-3" points="100.74 87.37 100.75 87.51 100.86 88.89 99.63 89.2 99.06 87.89 98.91 87.54 97.55 84.43 100.43 83.71 100.74 87.37"/><polygon class="cls-3" points="113.11 82.88 113.14 82.99 113.15 82.99 113.54 84.26 112.4 84.83 111.59 83.72 111.4 83.46 109.34 80.63 111.99 79.29 113.11 82.88"/><path class="cls-3" d="m121.25,140.65h5.81v4.33c0,2.31-.36,4.52-1.02,6.58-2.57,8.16-9.83,14.04-18.38,14.04h-15.3c-6.1,0-11.54-3-15.09-7.68-1.43-1.87-2.56-4.02-3.29-6.36-.66-2.06-1.02-4.28-1.02-6.58v-4.33h48.28Z"/><path class="cls-3" d="m57,138.71c.46,4.96,2.42,9.78,5.57,13.64.75.91,1.6,1.89,1.58,3.06-.02.86-.51,1.6-1.16,2.19-.37.34-.79.64-1.21.88-.63.37-1.27.7-1.95.98-1.12.47-2.3.81-3.5,1.01-.39.07-.78.13-1.18.16-.98.09-1.99.07-2.92-.15h0c-.68-.16-1.31-.44-1.87-.86-1.55-1.19-2.08-3.26-2.46-5.17-.47-2.35-.87-4.72-1.2-7.1-1.39,3.89-3.02,7.7-4.86,11.4-.24.5-.51,1.01-.95,1.35s-1.11.46-1.55.12c-.74-.57-.31-1.74.15-2.56,2.92-5.16,4.59-11.01,4.87-16.93.39-.15.78-.32,1.16-.51.15-.07.29-.15.44-.23,1.25-.64,2.4-1.25,3.43-2l4.43-.44c.99.47,2.06.81,3.19,1.15Z"/><path class="cls-3" d="m56.34,160.46c2.93,2.44,5.87,4.87,8.81,7.3.46.39.98.94.79,1.51-.12.38-.55.61-.95.63-.4.02-.79-.12-1.16-.28-4.59-1.91-8.46-5.25-11.58-9.15"/><path class="cls-3" d="m62.99,157.6c3.14,1.6,6.48,2.79,9.92,3.56.53.12,1.07.24,1.51.55.43.32.73.9.54,1.4-.25.68-1.14.81-1.87.8-4.71-.13-9.08-2.17-13.25-4.46"/><path class="cls-2" d="m122.3,137.89c.11,1.03-.15,1.85-.87,2.61-.06.06-.11.11-.17.15h-8.28c-.02-.29-.07-.57-.12-.84-.17-.9-.38-1.52-.76-2.35-.24-.55-.51-1.1-.8-1.64,0,0,0-.02.02-.03.46-.78.88-1.3,1.51-1.96.46-.47.94-.94,1.42-1.38.2-.18.47-.25.73-.2.65.14,1.29.29,1.92.46.88.24,1.5.48,2.3.91.81.43,1.67,1.09,2.18,1.85.48.73.85,1.56.94,2.43Z"/><path class="cls-2" d="m112.98,140.65h-11.31c-.33-.88-.28-1.69.14-2.56.15-.32.35-.62.59-.9.32-.4.7-.76,1.12-1.07.73-.54,1.77-.87,2.66-1,.9-.15,1.56-.15,2.47-.08.66.05,1.32.12,1.96.21.26.04.5.2.62.43.02.05.05.09.07.14.29.54.55,1.08.8,1.64.37.83.59,1.46.76,2.35.06.27.1.55.12.84Z"/><path class="cls-2" d="m102.17,136.68c.08.16.15.33.23.51-.24.29-.43.59-.59.9-.42.87-.47,1.68-.14,2.56h-10.72c-.19-.74-.16-1.55-.04-2.31.16-.89.68-1.84,1.25-2.56.55-.73,1.03-1.19,1.74-1.76.51-.42,1.04-.81,1.57-1.2.22-.15.5-.19.75-.11.63.2,1.24.43,1.85.68.84.34,1.43.66,2.18,1.18s1.52,1.3,1.93,2.1Z"/><path class="cls-2" d="m88.9,137.21c.16.9.18,1.56.12,2.47-.02.33-.04.65-.07.98h-10.79c-.02-.15-.02-.32,0-.49.06-.89.61-1.7,1.34-2.21.38-.26.73-.5,1.11-.68l-1.55-.66c-.17-.07-.24-.29-.13-.46l.42-.62.33-.49c.11-.15.33-.17.46-.04l1.18,1.2c.03-.41.12-.83.22-1.28.2-.87.76-1.69,1.56-2.07.95-.43,1.81-.41,2.75.02.79.36,1.46.98,2,1.67.55.72.9,1.75,1.04,2.65Z"/><path class="cls-2" d="m65.14,167.76c.46.39.98.94.79,1.51-.12.38-.55.61-.95.63-.4.02-.79-.12-1.16-.28-4.59-1.91-8.46-5.25-11.58-9.15.94.23,1.95.24,2.92.15.4-.03.79-.09,1.18-.16,2.93,2.44,5.87,4.87,8.81,7.3Z"/><path class="cls-2" d="m74.42,161.71c.43.32.73.9.54,1.4-.25.68-1.14.81-1.87.8-4.71-.13-9.08-2.17-13.25-4.46.68-.28,1.32-.6,1.95-.98.42-.24.84-.54,1.21-.88h0c3.14,1.6,6.48,2.8,9.92,3.57.53.12,1.07.24,1.51.55Z"/><path class="cls-2" d="m69.61,120.54c1.21,2.75,1.96,5.79,1.75,8.79-.25,3.59-1.59,6.22-4.49,8.35-2.48,1.83-5.86,2.16-8.82,1.32-.35-.1-.7-.2-1.04-.29-1.13-.33-2.2-.68-3.19-1.15l-4.43.44c-1.03.75-2.18,1.37-3.43,2-.15.08-.29.15-.44.23-.37.19-.77.36-1.16.51-2.5.94-5.36,1.04-7.76-.09-3.26-1.54-5.08-3.85-6.02-7.32-.79-2.91-.64-6.03.02-8.97.68-3.05,2.66-6.26,4.71-8.63,2.04-2.37,3.76-3.9,6.27-5.76,1.84-1.34,3.71-2.63,5.64-3.84.77-.49,1.73-.59,2.57-.25,2.12.82,4.2,1.72,6.26,2.69,2.83,1.33,4.81,2.5,7.28,4.43,2.46,1.93,5.02,4.68,6.28,7.55Zm-18.42,13.1c4-.38,6.92-3.94,6.53-7.93s-3.94-6.92-7.93-6.53c-3.99.39-6.92,3.94-6.53,7.94.39,3.99,3.94,6.91,7.93,6.52Z"/><path class="cls-2" d="m120.24,87.84c.19,1.03,0,1.86-.66,2.67-.57.69-1.5,1.02-2.39,1-.46,0-.89-.02-1.3-.1l.86,1.44c.1.16.02.37-.15.44l-.71.26-.55.2c-.17.07-.37-.05-.4-.24l-.26-1.66c-.26.32-.58.6-.93.9-.67.59-1.6.93-2.48.76-1.03-.2-1.7-.73-2.22-1.63-.43-.76-.61-1.65-.64-2.52-.02-.9.3-1.95.71-2.76.39-.81.77-1.37,1.34-2.07.14-.17.28-.34.42-.51.16-.2.33-.38.5-.57l.2.26.81,1.11,1.14-.57-.39-1.27h0l-.03-.11c.07,0,.14.02.2.02.38.06.76.11,1.13.19.89.17,1.53.36,2.36.73.84.36,1.75.96,2.31,1.67.54.69.96,1.48,1.12,2.35Z"/><path class="cls-2" d="m106.01,91.1c.38.78.65,1.65.63,2.53-.02,1.04-.37,1.82-1.18,2.48-.69.56-1.67.7-2.53.51-.46-.11-.87-.2-1.25-.36l.55,1.59c.07.18-.05.37-.24.4l-.74.11-.59.08c-.18.03-.35-.12-.34-.32l.08-1.68c-.33.26-.69.48-1.09.7-.77.45-1.75.59-2.58.25-.96-.41-1.52-1.05-1.85-2.04-.26-.83-.26-1.74-.11-2.6.15-.9.68-1.85,1.24-2.57.55-.73,1.03-1.19,1.74-1.76.15-.13.32-.25.48-.37.23-.18.46-.36.69-.52l.15.35.57,1.3,1.24-.31-.11-1.38v-.14c.07.03.15.06.22.08h0c.31.12.63.24.94.37.83.35,1.43.66,2.17,1.19.74.52,1.52,1.29,1.93,2.09Z"/><path class="cls-2" d="m92.32,93.46c.24.83.36,1.73.19,2.59-.2,1.03-.68,1.73-1.58,2.25-.78.44-1.77.41-2.59.07-.42-.18-.81-.35-1.16-.57l.28,1.66c.03.19-.11.36-.31.35h-.74s-.59-.02-.59-.02c-.19,0-.33-.18-.29-.37l.36-1.65c-.36.2-.76.36-1.19.51-.84.3-1.83.28-2.59-.2-.88-.56-1.32-1.29-1.47-2.32-.12-.86.03-1.76.33-2.58.3-.85.99-1.7,1.65-2.31.67-.62,1.21-.99,2.01-1.44.2-.11.41-.23.61-.33.24-.13.49-.26.74-.38l.07.4.2,1.23h1.28l.2-1.21.04-.24.42.24c.22.13.44.26.66.4.77.48,1.3.89,1.93,1.54.65.64,1.28,1.52,1.56,2.39Z"/><path class="cls-2" d="m77.6,91.77c.09.86.03,1.76-.29,2.58-.38.97-.98,1.57-1.97,1.92-.85.29-1.81.08-2.56-.41-.38-.25-.74-.49-1.04-.77l-.02,1.68c0,.2-.18.33-.37.29l-.73-.15-.59-.12c-.18-.04-.29-.24-.21-.42l.66-1.55c-.39.13-.81.2-1.27.28-.88.15-1.85-.06-2.5-.66-.77-.71-1.08-1.52-1.03-2.55.03-.87.35-1.73.78-2.48.46-.79,1.28-1.5,2.05-1.98.65-.41,1.18-.67,1.85-.91.12-.05.25-.09.39-.14.39-.13.78-.25,1.18-.37l.06.98.07,1.25,1.27.14.27-.97.28-1.02c.34.27.68.56,1,.86.23.2.42.4.6.59h0c.37.38.67.77,1.01,1.27.52.74.99,1.73,1.09,2.64Z"/><path class="cls-2" d="m62.67,84.67c.41.81.73,1.85.7,2.76-.03.87-.21,1.76-.64,2.52-.52.91-1.2,1.43-2.22,1.62-.88.17-1.8-.17-2.48-.76-.34-.31-.66-.59-.92-.91l-.27,1.66c-.02.19-.22.3-.4.24l-.71-.25-.55-.2c-.17-.07-.25-.28-.15-.45l.87-1.43c-.41.07-.83.09-1.3.1-.9.02-1.82-.32-2.39-1.01-.66-.81-.84-1.65-.65-2.67.15-.86.59-1.65,1.13-2.35.56-.71,1.47-1.3,2.31-1.66.82-.37,1.47-.55,2.36-.72.07-.02.14-.02.21-.04.15-.03.3-.06.46-.07l-.02.31-.11,1.44,1.24.31.41-.95.46-1.07.02.02c.45.49.88.98,1.3,1.49.2.24.36.45.51.67.31.43.56.86.83,1.41Z"/></g></svg>