<?xml version="1.0" encoding="UTF-8"?><svg id="Layer_2" xmlns="http://www.w3.org/2000/svg" viewBox="0 0 161.09 234.55"><defs><style>.cls-1{fill:#ecede8;}.cls-1,.cls-2{stroke-width:0px;}.cls-2{fill:#1a1a1a;}.cls-3{fill:none;stroke:#000;stroke-linecap:round;stroke-linejoin:round;stroke-width:.5px;}</style></defs><g id="Layer_2-2"><rect class="cls-1" width="161.09" height="234.55" rx="5" ry="5"/><path class="cls-2" d="m138.78,202.52c-2.63,0-3.06.07-4.1,1.98-.25.25-1.08.25-1.22-.22.32-2.23,1.15-4.72,1.76-5.58,1.44.07,2.74.11,5.04.11h5.72c1.87,0,3.42-.04,4.03-.11.32.07.43.47.36.79-1.37,1.26-3.42,3.17-5.58,5.54-2.48,2.74-4.72,5.76-4.72,9.61,0,2.48,1.51,4.39,3.92,4.39,2.05,0,3.49-1.33,4.64-3.31.43-.29,1.12-.07,1.19.5-1.48,3.64-4.79,5.62-8.28,5.62-4.21,0-6.8-2.74-6.8-6.12,0-2.81,1.12-4.82,5.44-8.89l1.73-1.62c1.58-1.48,1.91-1.98,1.91-2.27,0-.22-.18-.43-.68-.43h-4.36Z"/><path class="cls-2" d="m138.25,181.2c.43,0,.8-.04,1.12-.11-.51.59-.82,1.36-.82,2.2,0,1.86,1.51,3.37,3.37,3.37s3.37-1.51,3.37-3.37c0-.84-.31-1.61-.82-2.2.32.07.7.11,1.12.11,1.86,0,3.37-1.51,3.37-3.37s-1.51-3.37-3.37-3.37c-1.32,0-2.46.13-3.01.88l.32-1.64c.04-.19-.11-.36-.3-.36h-1.35c-.19,0-.34.18-.3.36l.32,1.64c-.55-.74-1.69-.88-3.01-.88-1.86,0-3.37,1.51-3.37,3.37s1.51,3.37,3.37,3.37Z"/><path class="cls-2" d="m22.31,32.03c2.63,0,3.06-.07,4.1-1.98.25-.25,1.08-.25,1.22.22-.32,2.23-1.15,4.72-1.76,5.58-1.44-.07-2.74-.11-5.04-.11h-5.72c-1.87,0-3.42.04-4.03.11-.32-.07-.43-.47-.36-.79,1.37-1.26,3.42-3.17,5.58-5.54,2.48-2.74,4.72-5.76,4.72-9.61,0-2.48-1.51-4.39-3.92-4.39-2.05,0-3.49,1.33-4.64,3.31-.43.29-1.12.07-1.19-.5,1.48-3.64,4.79-5.62,8.28-5.62,4.21,0,6.8,2.74,6.8,6.12,0,2.81-1.12,4.82-5.44,8.89l-1.73,1.62c-1.58,1.48-1.91,1.98-1.91,2.27,0,.22.18.43.68.43h4.36Z"/><path class="cls-2" d="m22.84,53.35c-.43,0-.8.04-1.12.11.51-.59.82-1.36.82-2.2,0-1.86-1.51-3.37-3.37-3.37s-3.37,1.51-3.37,3.37c0,.84.31,1.61.82,2.2-.32-.07-.7-.11-1.12-.11-1.86,0-3.37,1.51-3.37,3.37s1.51,3.37,3.37,3.37c1.32,0,2.46-.13,3.01-.88l-.32,1.64c-.04.19.11.36.3.36h1.35c.19,0,.34-.18.3-.36l-.32-1.64c.55.74,1.69.88,3.01.88,1.86,0,3.37-1.51,3.37-3.37s-1.51-3.37-3.37-3.37Z"/><path class="cls-2" d="m112.74,101.06c-2.94,0-5.32,2.38-5.32,5.32s2.38,5.33,5.32,5.33,5.33-2.38,5.33-5.33-2.39-5.32-5.33-5.32Zm-16.69,10.64c6.78-2.7,11.57-9.33,11.57-17.07,0-2.13-.36-4.17-1.03-6.07,1.53-1.66,3.72-2.69,6.16-2.69,4.64,0,8.41,3.77,8.41,8.42,0,2.1-.76,4.01-2.04,5.49.81-.18,1.74-.28,2.8-.28,4.65,0,8.42,3.77,8.42,8.42s-3.77,8.42-8.42,8.42c-3.29,0-6.15-.34-7.53-2.19l.67,3.4h-4.63l.67-3.4c-1.38,1.85-4.24,2.19-7.53,2.19s-6.14-1.89-7.52-4.64Z"/><path class="cls-2" d="m89.23,76.24c8.03,0,14.86,5.14,17.36,12.32.67,1.9,1.03,3.94,1.03,6.07,0,7.74-4.79,14.37-11.57,17.07-2.11.85-4.41,1.31-6.82,1.31-7.2,0-13.43-.73-16.45-4.78l1.74,8.93c.03.13.04.26.02.39h-10.71c-.02-.13-.01-.26.02-.39l1.74-8.93c-3.02,4.05-9.25,4.78-16.45,4.78-10.16,0-18.39-8.23-18.39-18.38s8.23-18.39,18.39-18.39c2.32,0,4.34.21,6.11.6-2.77-3.21-4.45-7.41-4.45-11.99,0-10.16,8.23-18.38,18.39-18.38s18.38,8.22,18.38,18.38c0,4.58-1.67,8.78-4.46,11.99,1.78-.39,3.8-.6,6.12-.6Zm-31.67,15.03c0,6.43,5.2,11.63,11.62,11.63s11.63-5.2,11.63-11.63-5.2-11.62-11.63-11.62-11.62,5.2-11.62,11.62Z"/><path class="cls-3" d="m74.54,117.55c.02-.13,0-.26-.02-.39l-1.74-8.93c3.02,4.05,9.25,4.78,16.45,4.78,2.41,0,4.71-.46,6.82-1.31"/><path class="cls-3" d="m106.59,88.56c-2.5-7.18-9.33-12.32-17.36-12.32-2.32,0-4.34.21-6.12.6,2.79-3.21,4.46-7.41,4.46-11.99,0-10.16-8.23-18.38-18.38-18.38s-18.39,8.22-18.39,18.38c0,4.58,1.68,8.78,4.45,11.99-1.77-.39-3.79-.6-6.11-.6-10.16,0-18.39,8.23-18.39,18.39s8.23,18.38,18.39,18.38c7.2,0,13.43-.73,16.45-4.78l-1.74,8.93c-.03.13-.04.26-.02.39"/><path class="cls-3" d="m80.81,91.27c0,6.43-5.2,11.63-11.63,11.63s-11.62-5.2-11.62-11.63,5.2-11.62,11.62-11.62,11.63,5.2,11.63,11.62Z"/><path class="cls-3" d="m118.07,106.38c0-2.94-2.39-5.32-5.33-5.32s-5.32,2.38-5.32,5.32,2.38,5.33,5.32,5.33,5.33-2.38,5.33-5.33Z"/><path class="cls-3" d="m110.43,117.55l.67-3.4c-1.38,1.85-4.24,2.19-7.53,2.19s-6.14-1.89-7.52-4.64c6.78-2.7,11.57-9.33,11.57-17.07,0-2.13-.36-4.17-1.03-6.07,1.53-1.66,3.72-2.69,6.16-2.69,4.64,0,8.41,3.77,8.41,8.42,0,2.1-.76,4.01-2.04,5.49.81-.18,1.74-.28,2.8-.28,4.65,0,8.42,3.77,8.42,8.42s-3.77,8.42-8.42,8.42c-3.29,0-6.15-.34-7.53-2.19l.67,3.4"/><path class="cls-3" d="m55.72,130.57c-2.64,0-4.78-2.14-4.78-4.79v-3.44c0-2.65,2.14-4.79,4.78-4.79h64.47c2.64,0,4.79,2.14,4.79,4.79v3.44c0,2.65-2.15,4.79-4.79,4.79"/><path class="cls-3" d="m120.19,130.57h.79l-5.44,50.25c-.32,2.94-2.8,5.16-5.74,5.16h-43.68c-2.95,0-5.43-2.22-5.74-5.16l-5.44-50.25h65.25Z"/></g></svg>