<?xml version="1.0" encoding="UTF-8"?><svg id="Layer_2" xmlns="http://www.w3.org/2000/svg" viewBox="0 0 161.09 234.55"><defs><style>.cls-1{fill:#ecede8;}.cls-1,.cls-2{stroke-width:0px;}.cls-3{fill:none;stroke:#000;stroke-linecap:round;stroke-linejoin:round;stroke-width:.5px;}.cls-2{fill:#8b001b;}</style></defs><g id="Layer_2-2"><rect class="cls-1" width="161.09" height="234.55" rx="5" ry="5"/><path class="cls-2" d="m22.31,32.03c2.63,0,3.06-.07,4.1-1.98.25-.25,1.08-.25,1.22.22-.32,2.23-1.15,4.72-1.76,5.58-1.44-.07-2.74-.11-5.04-.11h-5.72c-1.87,0-3.42.04-4.03.11-.32-.07-.43-.47-.36-.79,1.37-1.26,3.42-3.17,5.58-5.54,2.48-2.74,4.72-5.76,4.72-9.61,0-2.48-1.51-4.39-3.92-4.39-2.05,0-3.49,1.33-4.64,3.31-.43.29-1.12.07-1.19-.5,1.48-3.64,4.79-5.62,8.28-5.62,4.21,0,6.8,2.74,6.8,6.12,0,2.81-1.12,4.82-5.44,8.89l-1.73,1.62c-1.58,1.48-1.91,1.98-1.91,2.27,0,.22.18.43.68.43h4.36Z"/><polygon class="cls-2" points="19.17 45.27 12.13 54.55 19.17 63.84 26.21 54.55 19.17 45.27"/><path class="cls-2" d="m138.78,202.52c-2.63,0-3.06.07-4.1,1.98-.25.25-1.08.25-1.22-.22.32-2.23,1.15-4.72,1.76-5.58,1.44.07,2.74.11,5.04.11h5.72c1.87,0,3.42-.04,4.03-.11.32.07.43.47.36.79-1.37,1.26-3.42,3.17-5.58,5.54-2.48,2.74-4.72,5.76-4.72,9.61,0,2.48,1.51,4.39,3.92,4.39,2.05,0,3.49-1.33,4.64-3.31.43-.29,1.12-.07,1.19.5-1.48,3.64-4.79,5.62-8.28,5.62-4.21,0-6.8-2.74-6.8-6.12,0-2.81,1.12-4.82,5.44-8.89l1.73-1.62c1.58-1.48,1.91-1.98,1.91-2.27,0-.22-.18-.43-.68-.43h-4.36Z"/><polygon class="cls-2" points="141.93 189.28 148.97 180 141.93 170.72 134.88 180 141.93 189.28"/><path class="cls-2" d="m74.45,159.33l-4.61,10.77-.09.22-.61,1.41-.73,1.69-.51,1.2-.1.24-.85,1.99-.55,1.29-2.29,5.3-5.93-4.79h-.01l-.69-.56-.4-.33-1.07-.86-1.6-1.28-1.53-1.24-1.99-1.6-7.21-5.82,10.35-24.11,18.36,14.82,2.06,1.66Zm-11.91,13.54c3.42-.91,5.46-4.42,4.55-7.84s-4.42-5.44-7.85-4.53c-3.41.91-5.44,4.41-4.53,7.82.91,3.43,4.42,5.46,7.83,4.55Z"/><path class="cls-2" d="m49.1,198.55h0l-9.39,8.34c-.75.67-1.68,1.38-2.65,1.11-.96-.27-1.41-1.46-1.19-2.43.21-.98.91-1.77,1.6-2.48,2.56-2.61,5.47-4.84,8.42-7,.97.96,2.01,1.83,3.21,2.46Z"/><path class="cls-2" d="m37.32,189.02c.78,1.56,2.37,2.69,4.09,2.92.32.04.65.05.97.03.52.81,1.14,1.56,1.76,2.25.15.17.3.34.47.51-.27.16-.56.3-.85.42-1.34.58-2.89.82-4.28.34-1.37-.47-2.43-1.57-3.3-2.74-1.68-2.27-2.83-4.93-3.35-7.71-.12-.62-.17-1.33.25-1.8.42-.46,1.17-.48,1.71-.17s.89.86,1.13,1.43c.62,1.45.68,3.11,1.4,4.52Z"/><polygon class="cls-2" points="108.13 68.81 90.67 58.29 99.59 25.92 128.35 43.24 119.43 75.61 108.13 68.81"/><polyline class="cls-3" points="69.75 170.32 69.84 170.1 74.45 159.33 72.39 157.67 54.03 142.85 43.68 166.96 50.89 172.78"/><path class="cls-3" d="m62.54,172.87c-3.41.91-6.92-1.12-7.83-4.55-.91-3.41,1.12-6.91,4.53-7.82,3.43-.91,6.94,1.11,7.85,4.53s-1.13,6.93-4.55,7.84Z"/><polygon class="cls-3" points="99.59 25.92 90.67 58.29 108.13 68.81 119.43 75.61 128.35 43.24 99.59 25.92"/><path class="cls-3" d="m69.84,170.1c-.01.07-.03.14-.04.21"/><path class="cls-3" d="m54.79,208.59c6.46-7.51,10.01-16.92,12.46-26.6"/><path class="cls-3" d="m105.68,58.69c1.13,3.29,1.95,6.68,2.45,10.12,1.78,12.16-.36,24.91-6.22,35.73-6.19,11.45-16.14,20.53-22.24,32.02-3.51,6.61-5.63,13.79-7.28,21.11"/><path class="cls-3" d="m69.8,170.31c-.21,1.03-.41,2.06-.62,3.09-.58,2.86-1.21,5.74-1.93,8.59-.25.32-.53.64-.82.94-.81.85-1.7,1.64-2.66,2.32-.72.51-2.01.91-2.59,1.53-.76.81-.85,2.51-1.17,3.58-.38,1.29-.8,2.56-1.26,3.82-.59,1.61-1.3,3.29-2.68,4.32-1.86,1.4-4.55,1.25-6.64.23-.11-.05-.22-.11-.33-.18-1.2-.63-2.24-1.5-3.21-2.46-.44-.44-.87-.9-1.28-1.36-.17-.17-.32-.34-.47-.51-.62-.69-1.24-1.44-1.76-2.25h0c-.88-1.37-1.41-2.87-.98-4.39.67-2.38,3.31-3.47,5.38-4.81,2.01-1.31,3.66-3.13,4.81-5.24-4.38-1.12-8.77-2.22-13.15-3.34-.75-.19-1.53-.39-2.14-.86-.62-.47-1.05-1.27-.84-2.02.27-.96,1.46-1.39,2.44-1.19.98.19,1.8.83,2.64,1.37,3.31,2.13,6.71,2.15,10.35,1.29l1.99,1.6,1.53,1.24,1.6,1.28,1.07.86.4.33.69.56h.01l5.93,4.79,2.29-5.3.55-1.29.85-1.99.1-.24.51-1.2.73-1.69.61-1.41s.03-.01.05-.01Z"/><path class="cls-3" d="m69.8,170.31s.01,0,.02,0c.93-.29,1.82.56,1.73,1.53-.35,3.71-1.91,7.29-4.3,10.16"/><path class="cls-3" d="m42.38,191.97c-.32.02-.65,0-.97-.03-1.72-.23-3.31-1.36-4.09-2.92-.72-1.41-.78-3.07-1.4-4.52-.24-.57-.59-1.12-1.13-1.43s-1.29-.29-1.71.17c-.42.47-.37,1.18-.25,1.8.52,2.78,1.67,5.44,3.35,7.71.87,1.17,1.93,2.27,3.3,2.74,1.39.48,2.94.24,4.28-.34.29-.12.58-.26.85-.42"/><path class="cls-3" d="m49.1,198.56c-3.13,2.77-6.26,5.55-9.39,8.33-.75.67-1.68,1.38-2.65,1.11-.96-.27-1.41-1.46-1.19-2.43.21-.98.91-1.77,1.6-2.48,2.56-2.61,5.47-4.84,8.42-7"/></g></svg>