<?xml version="1.0" encoding="UTF-8"?><svg id="Layer_2" xmlns="http://www.w3.org/2000/svg" viewBox="0 0 161.09 234.55"><defs><style>.cls-1{fill:#ecede8;}.cls-1,.cls-2{stroke-width:0px;}.cls-3{fill:none;stroke:#000;stroke-linecap:round;stroke-linejoin:round;stroke-width:.5px;}.cls-2{fill:#8b001b;}</style></defs><g id="Layer_2-2"><rect class="cls-1" width="161.09" height="234.55" rx="5" ry="5"/><path class="cls-2" d="m138.78,202.52c-2.63,0-3.06.07-4.1,1.98-.25.25-1.08.25-1.22-.22.32-2.23,1.15-4.72,1.76-5.58,1.44.07,2.74.11,5.04.11h5.72c1.87,0,3.42-.04,4.03-.11.32.07.43.47.36.79-1.37,1.26-3.42,3.17-5.58,5.54-2.48,2.74-4.72,5.76-4.72,9.61,0,2.48,1.51,4.39,3.92,4.39,2.05,0,3.49-1.33,4.64-3.31.43-.29,1.12-.07,1.19.5-1.48,3.64-4.79,5.62-8.28,5.62-4.21,0-6.8-2.74-6.8-6.12,0-2.81,1.12-4.82,5.44-8.89l1.73-1.62c1.58-1.48,1.91-1.98,1.91-2.27,0-.22-.18-.43-.68-.43h-4.36Z"/><path class="cls-2" d="m134.95,182.86c.2,1.21.74,2.05,1.8,2.68.9.54,2.06.54,3.03.15.51-.2.97-.38,1.39-.63.27-.16.52-.34.76-.58.23.23.49.42.76.58.42.25.88.43,1.39.63.98.38,2.13.38,3.03-.15,1.05-.63,1.59-1.47,1.8-2.68.17-1.01.02-2.06-.3-3.03-.33-1.01-1.11-2.03-1.88-2.77-.77-.74-1.4-1.2-2.32-1.74-.74-.44-1.49-.85-2.25-1.23-.14-.07-.3-.07-.44,0-.77.38-1.52.79-2.25,1.23-.91.55-1.55,1.01-2.32,1.74-.77.74-1.54,1.75-1.88,2.77-.32.97-.47,2.03-.3,3.03Z"/><path class="cls-2" d="m22.31,32.03c2.63,0,3.06-.07,4.1-1.98.25-.25,1.08-.25,1.22.22-.32,2.23-1.15,4.72-1.76,5.58-1.44-.07-2.74-.11-5.04-.11h-5.72c-1.87,0-3.42.04-4.03.11-.32-.07-.43-.47-.36-.79,1.37-1.26,3.42-3.17,5.58-5.54,2.48-2.74,4.72-5.76,4.72-9.61,0-2.48-1.51-4.39-3.92-4.39-2.05,0-3.49,1.33-4.64,3.31-.43.29-1.12.07-1.19-.5,1.48-3.64,4.79-5.62,8.28-5.62,4.21,0,6.8,2.74,6.8,6.12,0,2.81-1.12,4.82-5.44,8.89l-1.73,1.62c-1.58,1.48-1.91,1.98-1.91,2.27,0,.22.18.43.68.43h4.36Z"/><path class="cls-2" d="m26.14,51.69c-.2-1.21-.74-2.05-1.8-2.68-.9-.54-2.06-.54-3.03-.15-.51.2-.97.38-1.39.63-.27.16-.52.34-.76.58-.23-.23-.49-.42-.76-.58-.42-.25-.88-.43-1.39-.63-.98-.38-2.13-.38-3.03.15-1.05.63-1.59,1.47-1.8,2.68-.17,1.01-.02,2.06.3,3.03.33,1.01,1.11,2.03,1.88,2.77.77.74,1.4,1.2,2.32,1.74.74.44,1.49.85,2.25,1.23.14.07.3.07.44,0,.77-.38,1.52-.79,2.25-1.23.91-.55,1.55-1.01,2.32-1.74.77-.74,1.54-1.75,1.88-2.77.32-.97.47-2.03.3-3.03Z"/><path class="cls-2" d="m75.98,117.53c-1.42-.66-2.82-1.35-4.21-2.07-.05-.02-.09-.04-.14-.06h0c-.46-.23-.94-.46-1.4-.71-.14-.07-.27-.14-.4-.22-4.43-2.32-7.61-4.4-11.48-7.7-4-3.4-8.1-8.2-10-13.09-1.85-4.69-2.9-9.83-2.34-14.84.67-5.99,3.09-10.3,8.09-13.69,4.27-2.88,9.97-3.2,14.87-1.6,2.56.84,4.86,1.6,6.99,2.71,1.38.7,2.67,1.54,3.9,2.62,1.08-1.21,2.27-2.19,3.55-3.05,2-1.33,4.21-2.36,6.65-3.47,4.7-2.15,10.39-2.47,14.96-.08,5.35,2.79,8.24,6.79,9.58,12.67,1.12,4.92.66,10.15-.63,15.02-1.37,5.07-4.9,10.3-8.48,14.13s-6.57,6.28-10.91,9.21c-.89.59-1.77,1.17-2.66,1.75-.95.61-1.9,1.22-2.87,1.81-.63.4-1.26.79-1.9,1.17-1.1.66-2.21,1.31-3.32,1.94-.66.38-1.47.42-2.16.12-1.92-.82-3.82-1.67-5.69-2.57Zm6.37-4.54c6.72-.37,11.85-6.13,11.47-12.85-.37-6.71-6.13-11.86-12.85-11.47-6.71.38-11.86,6.13-11.47,12.85.38,6.72,6.13,11.85,12.85,11.47Z"/><path class="cls-2" d="m92.04,156.65c.79,6.6,1.05,13.29.77,19.95-.04.96-.09,1.95-.44,2.81-.35.87-1.07,1.59-1.88,1.57-.71-.01-1.35-.6-1.72-1.33-.36-.73-.51-1.59-.63-2.42-.94-6.53-.93-13.18-.74-19.81,1.55-.19,3.1-.44,4.64-.77Z"/><path class="cls-2" d="m90.54,135.9v.03c-.11,1.14-.69,2.38-1.32,3.33-.64.94-1.2,1.57-2.03,2.35-.67.63-1.36,1.23-2.07,1.8-.13.11-.3.15-.46.11-.89-.23-1.77-.48-2.64-.77-1.08-.36-1.85-.7-2.83-1.29-.97-.59-2.02-1.48-2.6-2.46-.18-.3-.34-.61-.48-.93.31.18.63.35.95.51.45.23.99.47,1.47.28.9-.36.68-1.72.14-2.52-.69-1.04-1.65-1.87-2.62-2.68.2-.34.46-.67.79-.98.82-.77,2.03-1.03,3.14-.86.57.09,1.1.18,1.59.34.32.1.63.24.92.43.2-.3.42-.55.66-.78.38-.35.82-.65,1.31-.97.93-.63,2.14-.89,3.21-.54.62.2,1.11.49,1.52.88-.27.16-.54.32-.81.46-1.17.62-2.62,1.4-2.57,2.72.04.94.91,1.66,1.82,1.89.97.26,1.99.09,2.91-.35Z"/><path class="cls-2" d="m76.52,157.64c-.46,7.56-1.47,15.08-3.01,22.49-.17.84-.43,1.78-1.19,2.17-1.15.59-2.48-.55-2.93-1.76-.59-1.63-.37-3.43-.13-5.15.87-6.28,1.73-12.55,2.6-18.83,1.49.57,3.06.9,4.66,1.08Z"/><path class="cls-3" d="m76.05,133.66c.2-.34.46-.67.79-.98.82-.77,2.03-1.03,3.14-.86.57.09,1.1.18,1.59.34.32.1.63.24.92.43.2-.3.42-.55.66-.78.38-.35.82-.65,1.31-.97.93-.63,2.14-.89,3.21-.54.62.2,1.11.49,1.52.88"/><path class="cls-3" d="m75.98,117.53c1.87.9,3.77,1.75,5.69,2.57.69.3,1.5.26,2.16-.12,1.11-.63,2.22-1.28,3.32-1.94"/><path class="cls-3" d="m91.92,115.06c.89-.58,1.77-1.16,2.66-1.75,4.34-2.93,7.33-5.38,10.91-9.21s7.11-9.06,8.48-14.13c1.29-4.87,1.75-10.1.63-15.02-1.34-5.88-4.23-9.88-9.58-12.67-4.57-2.39-10.26-2.07-14.96.08-2.44,1.11-4.65,2.14-6.65,3.47-1.28.86-2.47,1.84-3.55,3.05-1.23-1.08-2.52-1.92-3.9-2.62-2.13-1.11-4.43-1.87-6.99-2.71-4.9-1.6-10.6-1.28-14.87,1.6-5,3.39-7.42,7.7-8.09,13.69-.56,5.01.49,10.15,2.34,14.84,1.9,4.89,6,9.69,10,13.09,3.87,3.3,7.05,5.38,11.48,7.7.13.08.26.15.4.22.46.25.94.48,1.4.7h0"/><path class="cls-3" d="m82.35,112.99c-6.72.38-12.47-4.75-12.85-11.47-.39-6.72,4.76-12.47,11.47-12.85,6.72-.39,12.48,4.76,12.85,11.47.38,6.72-4.75,12.48-11.47,12.85Z"/><path class="cls-3" d="m76,117.5s-.01.02-.02.03"/><path class="cls-3" d="m68.36,132.64c-1.31-1.28-2.35-2.78-2.63-4.56-.43-2.64.94-5.23,2.48-7.42,1.2-1.71,2.57-3.38,3.42-5.26.05.02.09.04.14.06,1.39.72,2.79,1.41,4.21,2.07-1.35,1.84-2.71,3.72-3.5,5.86-.79,2.16-.93,4.67.17,6.69.79,1.46,2.11,2.51,3.4,3.58.97.81,1.93,1.64,2.62,2.68.54.8.76,2.16-.14,2.52-.48.19-1.02-.05-1.47-.28-.32-.16-.64-.33-.95-.51"/><path class="cls-3" d="m90.54,135.9c-.92.44-1.94.61-2.91.35-.91-.23-1.78-.95-1.82-1.89-.05-1.32,1.4-2.1,2.57-2.72.27-.14.54-.3.81-.46,1.79-1.12,3.35-2.76,3.67-4.83.31-2.04-.66-4.11-2.09-5.61-1.04-1.1-2.31-1.94-3.62-2.7.64-.38,1.27-.77,1.9-1.17.97-.59,1.92-1.2,2.87-1.81,1.31,1.32,2.61,2.65,3.62,4.21,1.09,1.68,1.83,3.65,1.72,5.64-.12,2.29-1.32,4.36-2.49,6.33-.13.23-.27.45-.41.68"/><path class="cls-3" d="m94.36,131.92c1.1,3.89,3.98,11.63,4.48,14.03.57,2.79-1.48,9.48-5.47,10.41-.44.1-.89.2-1.33.29-1.54.33-3.09.58-4.64.77-2.35.29-4.71.43-7.07.42-1.26,0-2.54-.05-3.8-.2h0c-1.6-.18-3.17-.51-4.66-1.08-.25-.1-.5-.2-.74-.31-2.85-1.3-5.33-3.76-5.96-6.83-.49-2.34.11-4.75.71-7.06l2.49-9.72c.66.65,1.39,1.25,2.12,1.8,1.78,1.34,3.67,2.56,5.63,3.63.14.32.3.63.48.93.58.98,1.63,1.87,2.6,2.46.98.59,1.75.93,2.83,1.29.87.29,1.75.54,2.64.77.16.04.33,0,.46-.11.71-.57,1.4-1.17,2.07-1.8.83-.78,1.39-1.41,2.03-2.35.63-.95,1.21-2.19,1.32-3.33v-.03c.52-.23,1-.54,1.43-.91.98-.86,1.72-1.95,2.39-3.07Z"/><path class="cls-3" d="m71.86,156.56c-.87,6.28-1.73,12.55-2.6,18.83-.24,1.72-.46,3.52.13,5.15.45,1.21,1.78,2.35,2.93,1.76.76-.39,1.02-1.33,1.19-2.17,1.54-7.41,2.55-14.93,3.01-22.49"/><path class="cls-3" d="m87.4,157.42c-.19,6.63-.2,13.28.74,19.81.12.83.27,1.69.63,2.42.37.73,1.01,1.32,1.72,1.33.81.02,1.53-.7,1.88-1.57.35-.86.4-1.85.44-2.81.28-6.66.02-13.35-.77-19.95"/></g></svg>