<?xml version="1.0" encoding="UTF-8"?><svg id="Layer_2" xmlns="http://www.w3.org/2000/svg" viewBox="0 0 161.09 234.8"><defs><style>.cls-1{fill:#ecede8;}.cls-1,.cls-2{stroke-width:0px;}.cls-2{fill:#1a1a1a;}.cls-3{fill:none;stroke:#000;stroke-linecap:round;stroke-linejoin:round;stroke-width:.5px;}</style></defs><g id="Layer_2-2"><rect class="cls-1" y=".25" width="161.09" height="234.55" rx="5" ry="5"/><path class="cls-2" d="m138.78,202.77c-2.63,0-3.06.07-4.1,1.98-.25.25-1.08.25-1.22-.22.32-2.23,1.15-4.72,1.76-5.58,1.44.07,2.74.11,5.04.11h5.72c1.87,0,3.42-.04,4.03-.11.32.07.43.47.36.79-1.37,1.26-3.42,3.17-5.58,5.54-2.48,2.74-4.72,5.76-4.72,9.61,0,2.48,1.51,4.39,3.92,4.39,2.05,0,3.49-1.33,4.64-3.31.43-.29,1.12-.07,1.19.5-1.48,3.64-4.79,5.62-8.28,5.62-4.21,0-6.8-2.74-6.8-6.12,0-2.81,1.12-4.82,5.44-8.89l1.73-1.62c1.58-1.48,1.91-1.98,1.91-2.27,0-.22-.18-.43-.68-.43h-4.36Z"/><path class="cls-2" d="m135.26,181.19c.33,1.01,1.11,2.03,1.88,2.77.77.74,1.4,1.2,2.32,1.74.66.4,1.34.77,2.03,1.12.28.14.6.14.88,0,.69-.35,1.37-.72,2.03-1.12.91-.54,1.55-1.01,2.32-1.74.77-.74,1.55-1.75,1.88-2.77.32-.97.47-2.03.3-3.03-.2-1.21-.74-2.05-1.8-2.68-.9-.54-2.06-.54-3.03-.15-.51.2-.97.38-1.39.63l.38-1.94c.04-.22-.12-.42-.35-.42h-1.57c-.22,0-.39.2-.35.42l.38,1.94c-.42-.25-.88-.43-1.39-.63-.98-.38-2.13-.38-3.03.15-1.05.63-1.59,1.47-1.8,2.68-.17,1.01-.02,2.06.3,3.03Z"/><path class="cls-2" d="m22.31,32.28c2.63,0,3.06-.07,4.1-1.98.25-.25,1.08-.25,1.22.22-.32,2.23-1.15,4.72-1.76,5.58-1.44-.07-2.74-.11-5.04-.11h-5.72c-1.87,0-3.42.04-4.03.11-.32-.07-.43-.47-.36-.79,1.37-1.26,3.42-3.17,5.58-5.54,2.48-2.74,4.72-5.76,4.72-9.61,0-2.48-1.51-4.39-3.92-4.39-2.05,0-3.49,1.33-4.64,3.31-.43.29-1.12.07-1.19-.5,1.48-3.64,4.79-5.62,8.28-5.62,4.21,0,6.8,2.74,6.8,6.12,0,2.81-1.12,4.82-5.44,8.89l-1.73,1.62c-1.58,1.48-1.91,1.98-1.91,2.27,0,.22.18.43.68.43h4.36Z"/><path class="cls-2" d="m25.84,53.87c-.33-1.01-1.11-2.03-1.88-2.77-.77-.74-1.4-1.2-2.32-1.74-.66-.4-1.34-.77-2.03-1.12-.28-.14-.6-.14-.88,0-.69.35-1.37.72-2.03,1.12-.91.54-1.55,1.01-2.32,1.74-.77.74-1.55,1.75-1.88,2.77-.32.97-.47,2.03-.3,3.03.2,1.21.74,2.05,1.8,2.68.9.54,2.06.54,3.03.15.51-.2.97-.38,1.39-.63l-.38,1.94c-.04.22.12.42.35.42h1.57c.22,0,.39-.2.35-.42l-.38-1.94c.42.25.88.43,1.39.63.98.38,2.13.38,3.03-.15,1.05-.63,1.59-1.47,1.8-2.68.17-1.01.02-2.06-.3-3.03Z"/><path class="cls-3" d="m67.04,141.92c1.6.27,3.33-.06,4.55-1.12.07-.06.14-.12.21-.2,1.34-1.23,1.91-2.68,1.89-4.55-.01-1.65-.54-3.28-1.32-4.74-.16-.3-.35-.59-.57-.88-.83-1.17-2.03-2.23-3.18-2.99-1.43-.95-2.56-1.51-4.17-2.12-1.17-.44-2.35-.85-3.54-1.21-.48-.15-1-.06-1.4.24-.51.38-1.01.77-1.5,1.17-.48.38-.95.77-1.42,1.17-1.3,1.12-2.18,2.03-3.19,3.41-1.02,1.39-1.97,3.22-2.22,4.92-.24,1.63-.19,3.35.37,4.91.66,1.86,1.75,3.05,3.59,3.75.31.12.62.2.95.24"/><path class="cls-3" d="m58.49,143.75c.53-.16,1.04-.38,1.51-.67.26-.15.5-.3.74-.45"/><path class="cls-3" d="m62.84,139.24c-2.17.38-4.23-1.07-4.61-3.23-.38-2.17,1.07-4.24,3.24-4.62,2.16-.38,4.23,1.07,4.61,3.24s-1.07,4.24-3.24,4.61Z"/><path class="cls-3" d="m103.93,137.33c.66.04,1.33-.04,1.95-.26"/><path class="cls-3" d="m109.41,133.7c.07-.17.14-.35.2-.53.52-1.57.54-3.29.27-4.91-.28-1.7-1.27-3.51-2.31-4.87-.04-.05-.07-.1-.11-.14-1-1.29-1.89-2.16-3.16-3.21-.97-.79-1.95-1.55-2.97-2.28-.4-.29-.93-.37-1.4-.22-1.19.39-2.36.82-3.52,1.29-.87.35-1.6.68-2.31,1.07-.59.32-1.17.69-1.81,1.13-1.41.98-2.89,2.42-3.67,3.95-.75,1.47-1.25,3.11-1.23,4.76.03,1.98.68,3.45,2.21,4.71,1.22,1.02,2.93,1.32,4.5,1.04.1-.01.19-.03.29-.05.24-.05.47-.1.69-.16"/><path class="cls-3" d="m102.86,129.38c-.34,2.18-2.38,3.67-4.55,3.34-2.18-.34-3.67-2.37-3.33-4.55.33-2.18,2.37-3.67,4.54-3.33,2.18.33,3.67,2.37,3.34,4.54Z"/><path class="cls-3" d="m96.27,146.54c-.62-.44-1.11-1.04-1.34-1.76-.21-.65-.18-1.36-.15-2.05.03-.9.07-1.8.11-2.7-.26.03-.53.05-.79.06-1.77.13-3.55.17-5.33.14-.91-.02-1.9-.09-2.56-.71-.24-.22-.43-.53-.36-.85.11-.56.85-.69,1.42-.69,2.28,0,4.56-.01,6.83-.02.29.01.58,0,.87,0,.04-.89.07-1.79.11-2.68.59-.14,1.15-.29,1.67-.5l2.42.38c.6.49,1.29.9,2.05,1.34.83.47,1.77.77,2.71.83.24.52.46,1.04.67,1.57.54-.52.98-1.14,1.28-1.83.07-.02.14-.04.21-.07.51-.21.97-.46,1.37-.76.89-.62,1.51-1.46,1.95-2.54.59,1.59.16,3.49-.85,4.88-.32.45-.69.85-1.1,1.21-.61.56-1.3,1.03-2.03,1.43.21.68.38,1.37.5,2.07.16.9.23,1.89-.22,2.68-.12.22-.28.41-.46.57"/><path class="cls-3" d="m97.51,147.18c.07.04.15.07.23.09.6.18,1.22.26,1.86.29"/><path class="cls-3" d="m99.71,148.91c.09,1.58.05,3.16-.13,4.72-.07.65-.24,1.41-.72,1.64-.57.28-1.15-.41-1.41-1.12-.55-1.47-.43-3.2-.22-4.81.02-.14.04-.29.06-.43"/><path class="cls-3" d="m101.92,147.55c.67-.02,1.33-.07,1.97-.26.12-.03.23-.08.35-.12"/><path class="cls-3" d="m104.33,148.91c.03,1.25-.03,2.49-.17,3.72-.07.65-.24,1.41-.72,1.64-.57.28-1.15-.41-1.41-1.12-.49-1.3-.45-2.8-.29-4.24"/><path class="cls-3" d="m61.64,154.7c-.16.33-.28.68-.35,1.04-.19,1.06.06,2.2.68,3.08.34.48.79.89,1.01,1.43s.11,1.28-.42,1.52c-.33.14-.71.05-1-.15-.3-.2-.51-.48-.72-.77-.52-.7-1.02-1.43-1.34-2.24-.33-.81-.47-1.72-.23-2.56.13-.48.37-.92.65-1.35"/><path class="cls-3" d="m68.51,154.7c.54,1.93.4,4.05-.45,5.87-.25.53-.67,1.1-1.26,1.07-.37-.02-.7-.3-.85-.64s-.16-.74-.1-1.11c.14-1.05.7-2.03.81-3.09.07-.72-.08-1.42-.34-2.1"/><path class="cls-3" d="m60.9,153.1c-.26.55-.64,1.06-.98,1.6h-3v-2.36h3.12"/><path class="cls-3" d="m65.84,153.64c.18.34.35.7.48,1.06h-4.68c.2-.41.47-.78.79-1.1"/><path class="cls-3" d="m69.81,152.34h2.97v2.36h-4.27c-.09-.39-.23-.77-.39-1.14"/><path class="cls-3" d="m97.51,147.18c-.05.58-.14,1.16-.22,1.73h-4.37v-2.37h3.35c.38.28.8.5,1.24.64Z"/><path class="cls-3" d="m101.92,147.55c-.04.26-.07.53-.11.79-.02.19-.05.38-.07.57h-2.03c-.02-.45-.06-.9-.11-1.35.66.04,1.34.02,2.01,0,.1,0,.21-.01.31-.01Z"/><path class="cls-3" d="m107.46,146.54h1.32v2.37h-4.45c-.01-.58-.04-1.16-.09-1.74.37-.15.72-.36,1.01-.63h2.21Z"/><line class="cls-3" x1="107.46" y1="146.54" x2="107.46" y2="139.79"/><line class="cls-3" x1="107.46" y1="123.25" x2="107.46" y2=".25"/><line class="cls-3" x1="94.1" y1="137.96" x2="94.1" y2="135.49"/><line class="cls-3" x1="94.1" y1="146.54" x2="94.1" y2="140.09"/><line class="cls-3" x1="94.1" y1="119.9" x2="94.1" y2=".25"/><path class="cls-3" d="m71.8,142.61c1.12-.59,2.23-1.19,3.35-1.78.43-.23.88-.46,1.37-.49.49-.02,1.02.22,1.18.68.23.71-.49,1.35-1.13,1.73-1.53.91-3.12,1.72-4.77,2.4-.94.39-1.89.75-2.86,1.06.61,1.38,1.1,2.78,1.18,4.29.03.62-.05,1.29-.31,1.84-.17.39-.43.71-.8.93-.27.16-.57.25-.89.29-.3.05-.61.06-.91.06-.46.01-.91.02-1.37.02l-1.56.03c-.62.01-1.24.02-1.85-.07-.19-.02-.37-.05-.55-.1-.34-.08-.68-.21-.98-.4-.34-.19-.64-.44-.86-.76-.04-.05-.08-.1-.11-.16-.54-.91-.39-2.07-.22-3.12.02-.1.03-.21.05-.31-.66-.39-1.25-.92-1.75-1.52-.17-.19-.32-.4-.47-.61-.59-.84-1.04-1.76-1.45-2.7.63.11,1.29.08,1.92-.05.16-.03.32-.07.48-.12.38.65.86,1.24,1.41,1.77.1.1.21.19.33.28.17-1.06.34-2.11.51-3.17h0c.46-.3.89-.59,1.29-.93l2.41-.42c.73.28,1.51.44,2.37.61.08.01.15.03.23.03.31.89.71,1.75,1.12,2.62,1.21-.65,2.43-1.29,3.64-1.93Z"/><line class="cls-3" x1="71.8" y1="152.34" x2="71.8" y2="145.15"/><line class="cls-3" x1="71.8" y1="130.43" x2="71.8" y2=".25"/><line class="cls-3" x1="71.8" y1="142.61" x2="71.8" y2="140.6"/><line class="cls-3" x1="58.01" y1="125.52" x2="58.01" y2=".25"/><line class="cls-3" x1="58.01" y1="152.34" x2="58.01" y2="147.23"/><path class="cls-2" d="m109.88,128.26c.27,1.62.25,3.34-.27,4.91-.06.18-.13.36-.2.53-.44,1.08-1.06,1.92-1.95,2.54-.4.3-.86.55-1.37.76-.07.03-.14.05-.21.07-.62.22-1.29.3-1.95.26-.94-.06-1.88-.36-2.71-.83-.76-.44-1.45-.85-2.05-1.34l-2.42-.38c-.52.21-1.08.36-1.67.5-.22.06-.45.11-.69.16-.1.02-.19.04-.29.05-1.57.28-3.28-.02-4.5-1.04-1.53-1.26-2.18-2.73-2.21-4.71-.02-1.65.48-3.29,1.23-4.76.78-1.53,2.26-2.97,3.67-3.95.64-.44,1.22-.81,1.81-1.13.71-.39,1.44-.72,2.31-1.07,1.16-.47,2.33-.9,3.52-1.29.47-.15,1-.07,1.4.22,1.02.73,2,1.49,2.97,2.28,1.27,1.05,2.16,1.92,3.16,3.21.04.04.07.09.11.14,1.04,1.36,2.03,3.17,2.31,4.87Zm-7.02,1.12c.33-2.17-1.16-4.21-3.34-4.54-2.17-.34-4.21,1.15-4.54,3.33-.34,2.18,1.15,4.21,3.33,4.55,2.17.33,4.21-1.16,4.55-3.34Z"/><path class="cls-2" d="m104.33,148.91c.03,1.25-.03,2.49-.17,3.72-.07.65-.24,1.41-.72,1.64-.57.28-1.15-.41-1.41-1.12-.49-1.3-.45-2.8-.29-4.24.02-.19.05-.38.07-.57.04-.26.07-.53.11-.79.67-.02,1.33-.07,1.97-.26.12-.03.23-.08.35-.12.05.58.08,1.16.09,1.74Z"/><path class="cls-2" d="m99.71,148.91c.09,1.58.05,3.16-.13,4.72-.07.65-.24,1.41-.72,1.64-.57.28-1.15-.41-1.41-1.12-.55-1.47-.43-3.2-.22-4.81.02-.14.04-.29.06-.43.08-.57.17-1.15.22-1.73.07.04.15.07.23.09.6.18,1.22.26,1.86.29.05.45.09.9.11,1.35Z"/><path class="cls-2" d="m73.69,136.05c.02,1.87-.55,3.32-1.89,4.55-.07.08-.14.14-.21.2-1.22,1.06-2.95,1.39-4.55,1.12-.08,0-.15-.02-.23-.03-.86-.17-1.64-.33-2.37-.61l-2.41.42c-.4.34-.83.63-1.29.92h0c-.24.16-.48.31-.74.46-.47.29-.98.51-1.51.67-.16.05-.32.09-.48.12-.63.13-1.29.16-1.92.05-.33-.04-.64-.12-.95-.24-1.84-.7-2.93-1.89-3.59-3.75-.56-1.56-.61-3.28-.37-4.91.25-1.7,1.2-3.53,2.22-4.92,1.01-1.38,1.89-2.29,3.19-3.41.47-.4.94-.79,1.42-1.17.49-.4.99-.79,1.5-1.17.4-.3.92-.39,1.4-.24,1.19.36,2.37.77,3.54,1.21,1.61.61,2.74,1.17,4.17,2.12,1.15.76,2.35,1.82,3.18,2.99.22.29.41.58.57.88.78,1.46,1.31,3.09,1.32,4.74Zm-10.85,3.19c2.17-.37,3.62-2.44,3.24-4.61s-2.45-3.62-4.61-3.24c-2.17.38-3.62,2.45-3.24,4.62.38,2.16,2.44,3.61,4.61,3.23Z"/><path class="cls-2" d="m68.51,154.7c.54,1.93.4,4.05-.45,5.87-.25.53-.67,1.1-1.26,1.07-.37-.02-.7-.3-.85-.64s-.16-.74-.1-1.11c.14-1.05.7-2.03.81-3.09.07-.72-.08-1.42-.34-2.1-.13-.36-.3-.72-.48-1.06.46,0,.91-.01,1.37-.02.3,0,.61,0,.91-.06.16.37.3.75.39,1.14Z"/><path class="cls-2" d="m62.98,160.25c.22.54.11,1.28-.42,1.52-.33.14-.71.05-1-.15-.3-.2-.51-.48-.72-.77-.52-.7-1.02-1.43-1.34-2.24-.33-.81-.47-1.72-.23-2.56.13-.48.37-.92.65-1.35.34-.54.72-1.05.98-1.6.3.19.64.32.98.4.18.05.36.08.55.1-.32.32-.59.69-.79,1.1-.16.33-.28.68-.35,1.04-.19,1.06.06,2.2.68,3.08.34.48.79.89,1.01,1.43Z"/></g></svg>