<?xml version="1.0" encoding="UTF-8"?><svg id="Layer_2" xmlns="http://www.w3.org/2000/svg" viewBox="0 0 161.09 234.55"><defs><style>.cls-1{fill:#ecede8;}.cls-1,.cls-2{stroke-width:0px;}.cls-2{fill:#1a1a1a;}.cls-3{fill:none;stroke:#000;stroke-linecap:round;stroke-linejoin:round;stroke-width:.5px;}</style></defs><g id="Layer_2-2"><rect class="cls-1" width="161.09" height="234.55" rx="5" ry="5"/><path class="cls-2" d="m147.85,216.59c.5-.14,1.01.25,1.01.68-1.44,2.92-4.28,4.57-7.52,4.57-3.53,0-5.72-1.73-5.72-4.14,0-1.48.61-2.95,4.54-4.64.4-.18.14-.47-.32-.47-3.24.11-6.05-2.12-6.05-5.58,0-2.59,1.26-5.22,4.14-7.34,3.1-2.23,6.37-2.88,8.31-2.88s3.89.72,3.89,2.56c0,.97-.72,1.98-2.16,1.98-1.3,0-2.09-1.44-2.41-1.91-.43-.65-1.04-.83-1.55-.83-1.55,0-4.82,2.05-4.82,6.48,0,3.2,1.66,5.51,4.21,5.51,1.48,0,2.66-.68,3.56-1.51.72.14,1.15.9.83,1.73-1.44.54-4.36,1.73-5.8,2.92-.65.54-1.51,1.62-1.51,3.24,0,1.33,1.19,2.63,2.95,2.63s3.35-1.37,4.43-2.99Z"/><path class="cls-2" d="m138.28,181.2c.43,0,.8-.04,1.12-.11-.51.59-.82,1.36-.82,2.2,0,1.86,1.51,3.37,3.37,3.37s3.37-1.51,3.37-3.37c0-.84-.31-1.61-.82-2.2.32.07.7.11,1.12.11,1.86,0,3.37-1.51,3.37-3.37s-1.51-3.37-3.37-3.37c-1.32,0-2.46.13-3.01.88l.32-1.64c.04-.19-.11-.36-.3-.36h-1.35c-.19,0-.34.18-.3.36l.32,1.64c-.55-.74-1.69-.88-3.01-.88-1.86,0-3.37,1.51-3.37,3.37s1.51,3.37,3.37,3.37Z"/><path class="cls-2" d="m13.24,17.96c-.5.14-1.01-.25-1.01-.68,1.44-2.92,4.28-4.57,7.52-4.57,3.53,0,5.72,1.73,5.72,4.14,0,1.48-.61,2.95-4.54,4.64-.4.18-.14.47.32.47,3.24-.11,6.05,2.12,6.05,5.58,0,2.59-1.26,5.22-4.14,7.34-3.1,2.23-6.37,2.88-8.31,2.88s-3.89-.72-3.89-2.56c0-.97.72-1.98,2.16-1.98,1.3,0,2.09,1.44,2.41,1.91.43.65,1.04.83,1.55.83,1.55,0,4.82-2.05,4.82-6.48,0-3.2-1.66-5.51-4.21-5.51-1.48,0-2.66.68-3.56,1.51-.72-.14-1.15-.9-.83-1.73,1.44-.54,4.36-1.73,5.8-2.92.65-.54,1.51-1.62,1.51-3.24,0-1.33-1.19-2.63-2.95-2.63s-3.35,1.37-4.43,2.99Z"/><path class="cls-2" d="m22.82,53.35c-.43,0-.8.04-1.12.11.51-.59.82-1.36.82-2.2,0-1.86-1.51-3.37-3.37-3.37s-3.37,1.51-3.37,3.37c0,.84.31,1.61.82,2.2-.32-.07-.7-.11-1.12-.11-1.86,0-3.37,1.51-3.37,3.37s1.51,3.37,3.37,3.37c1.32,0,2.46-.13,3.01-.88l-.32,1.64c-.04.19.11.36.3.36h1.35c.19,0,.34-.18.3-.36l-.32-1.64c.55.74,1.69.88,3.01.88,1.86,0,3.37-1.51,3.37-3.37s-1.51-3.37-3.37-3.37Z"/><path class="cls-2" d="m32.09,151.97c0,.72.01,1.46-.2,2.14-.21.67-.66,1.28-1.25,1.38-.71.12-1.39-.54-1.67-1.34-.29-.8-.28-1.7-.26-2.57.07-3.4.13-6.81.2-10.22.96.54,2.02.91,3.13,1.11.02,3.17.03,6.33.05,9.5Z"/><path class="cls-2" d="m40.15,141.15c.02,3.61.04,7.21.06,10.82,0,.72,0,1.46-.2,2.14-.21.67-.67,1.28-1.26,1.38-.71.12-1.38-.54-1.67-1.34-.28-.8-.27-1.7-.25-2.57.06-3.06.12-6.13.17-9.19h.01c1.09-.25,2.18-.66,3.14-1.24Z"/><path class="cls-2" d="m77.68,134.84c-.45.6-.74,1.31-.52,2.01.19.61.72,1.03,1.21,1.44.6.52,1.17,1.08,1.69,1.68.38.43.75,1.01.53,1.54-.19.43-.74.62-1.21.53-.46-.08-.86-.37-1.24-.66-1.44-1.11-2.9-2.58-2.88-4.4.01-.98.43-1.83.96-2.66.43.25.94.41,1.46.52Z"/><path class="cls-2" d="m83.28,134.67c-.34.79-.5,1.72-.02,2.41.37.52,1,.76,1.59,1.01.73.31,1.44.68,2.12,1.09.49.3,1.02.74.96,1.31-.05.47-.51.81-.98.87s-.94-.09-1.39-.25c-1.71-.63-3.54-1.6-4.07-3.34-.28-.92-.14-1.86.1-2.8.57-.06,1.13-.15,1.69-.3Z"/><path class="cls-2" d="m132.04,154.15c-.28.8-.96,1.46-1.67,1.34-.58-.1-1.04-.71-1.25-1.38-.2-.68-.2-1.42-.2-2.14.02-3.17.03-6.33.05-9.5,1.11-.2,2.17-.57,3.13-1.11.07,3.41.13,6.82.2,10.22.02.87.03,1.77-.26,2.57Z"/><path class="cls-2" d="m123.93,154.15c-.29.8-.96,1.46-1.67,1.34-.59-.1-1.05-.71-1.25-1.38-.21-.68-.21-1.42-.21-2.14l.06-10.83c.96.59,2.04,1,3.14,1.25h.01c.06,3.06.11,6.13.17,9.19.02.87.03,1.77-.25,2.57Z"/><path class="cls-2" d="m126.41,116.09c3.98,0,7.21-3.23,7.21-7.21s-3.23-7.2-7.21-7.2-7.2,3.23-7.2,7.2,3.23,7.21,7.2,7.21Zm12.42-16.52c6.29,0,11.39,5.1,11.39,11.39s-5.1,11.39-11.39,11.39c-1.91,0-3.71-.09-5.3-.38-.68-.13-1.32-.29-1.91-.51-1.24-.45-2.26-1.11-2.98-2.08h-4.45c-.75,1-1.82,1.68-3.12,2.13-1.94.67-4.4.84-7.07.84-3,0-5.73-1.16-7.76-3.06h0c-2.23-2.08-3.63-5.04-3.63-8.33,0-.34.01-.68.05-1.01h0c.51-5.82,5.39-10.38,11.34-10.38,1.43,0,2.69.13,3.79.38-1.72-2-2.76-4.59-2.76-7.43,0-6.29,5.1-11.39,11.39-11.39s11.38,5.1,11.38,11.39c0,2.84-1.03,5.43-2.76,7.43,1.1-.25,2.35-.38,3.79-.38Z"/><path class="cls-2" d="m75.44,112.2c0,2.82,2.29,5.11,5.11,5.11s5.11-2.29,5.11-5.11-2.29-5.11-5.11-5.11-5.11,2.29-5.11,5.11Zm3.53,7.45c-.45.6-1.06,1.04-1.79,1.35-.39.16-.81.3-1.27.4-.53-.63-1.09-1.24-1.68-1.82-.65-.64-1.42-1.28-2.33-1.28-.32,0-.67.1-.87.37-.38.51.02,1.21.43,1.71.38.46.76.91,1.15,1.36-.28.01-.58.01-.87.01-4.46,0-8.07-3.62-8.07-8.08s3.61-8.07,8.07-8.07c1.02,0,1.91.09,2.69.26-1.22-1.41-1.96-3.25-1.96-5.27,0-.85.13-1.66.37-2.43,1.04-3.27,4.1-5.64,7.71-5.64s6.76,2.43,7.75,5.77c.21.73.33,1.5.33,2.3,0,2.02-.74,3.86-1.96,5.27.78-.17,1.67-.26,2.69-.26,4.46,0,8.07,3.61,8.07,8.07,0,4.13-3.09,7.53-7.08,8.02.57-.57,1.12-1.16,1.66-1.76.29-.33.6-.79.38-1.18-.18-.32-.63-.36-.99-.29-.82.16-1.49.73-2.13,1.28-.74.64-1.48,1.29-2.23,1.93-.75-.06-1.45-.17-2.08-.33-1.21-.3-2.19-.82-2.83-1.69h-3.16Z"/><path class="cls-2" d="m34.69,116.09c3.98,0,7.2-3.23,7.2-7.21s-3.22-7.2-7.2-7.2-7.2,3.23-7.2,7.2,3.22,7.21,7.2,7.21Zm23.7-6.65c.07.5.1,1.01.1,1.52,0,3.5-1.58,6.64-4.07,8.72-1.98,1.67-4.53,2.67-7.31,2.67s-5.22-.17-7.18-.88c-1.25-.44-2.28-1.11-3.01-2.09h-4.46c-.74.99-1.8,1.67-3.08,2.11-.59.22-1.23.38-1.91.49-1.56.29-3.33.37-5.2.37-6.29,0-11.39-5.1-11.39-11.39s5.1-11.39,11.39-11.39c1.44,0,2.69.13,3.79.38-1.72-2-2.76-4.59-2.76-7.43,0-6.29,5.1-11.39,11.39-11.39s11.39,5.1,11.39,11.39c0,2.84-1.04,5.43-2.76,7.43,1.09-.25,2.35-.38,3.79-.38,5.78,0,10.54,4.3,11.28,9.87Z"/><path class="cls-3" d="m39.93,121.47c1.96.71,4.46.88,7.18.88s5.33-1,7.31-2.67c2.49-2.08,4.07-5.22,4.07-8.72,0-.51-.03-1.02-.1-1.52-.74-5.57-5.5-9.87-11.28-9.87-1.44,0-2.7.13-3.79.38,1.72-2,2.76-4.59,2.76-7.43,0-6.29-5.1-11.39-11.39-11.39s-11.39,5.1-11.39,11.39c0,2.84,1.04,5.43,2.76,7.43-1.1-.25-2.35-.38-3.79-.38-6.29,0-11.39,5.1-11.39,11.39s5.1,11.39,11.39,11.39c1.87,0,3.64-.08,5.2-.37"/><path class="cls-3" d="m41.89,108.88c0,3.98-3.22,7.21-7.2,7.21s-7.2-3.23-7.2-7.21,3.22-7.2,7.2-7.2,7.2,3.23,7.2,7.2Z"/><path class="cls-3" d="m133.53,121.97c1.59.29,3.39.38,5.3.38,6.29,0,11.39-5.1,11.39-11.39s-5.1-11.39-11.39-11.39c-1.44,0-2.69.13-3.79.38,1.73-2,2.76-4.59,2.76-7.43,0-6.29-5.1-11.39-11.38-11.39s-11.39,5.1-11.39,11.39c0,2.84,1.04,5.43,2.76,7.43-1.1-.25-2.36-.38-3.79-.38-5.95,0-10.83,4.56-11.34,10.37h0c-.04.34-.05.68-.05,1.02,0,3.29,1.4,6.25,3.63,8.32h0c2.03,1.91,4.76,3.07,7.76,3.07,2.67,0,5.13-.17,7.07-.84"/><path class="cls-3" d="m133.62,108.88c0,3.98-3.23,7.21-7.21,7.21s-7.2-3.23-7.2-7.21,3.23-7.2,7.2-7.2,7.21,3.23,7.21,7.2Z"/><path class="cls-3" d="m84.96,121.34c.63.16,1.33.27,2.08.33"/><path class="cls-3" d="m75.91,121.4c.46-.1.88-.24,1.27-.4"/><path class="cls-3" d="m90.35,121.69c3.99-.49,7.08-3.89,7.08-8.02,0-4.46-3.61-8.07-8.07-8.07-1.02,0-1.91.09-2.69.26,1.22-1.41,1.96-3.25,1.96-5.27,0-.8-.12-1.57-.33-2.3-.99-3.34-4.09-5.77-7.75-5.77s-6.67,2.37-7.71,5.64c-.24.77-.37,1.58-.37,2.43,0,2.02.74,3.86,1.96,5.27-.78-.17-1.67-.26-2.69-.26-4.46,0-8.07,3.61-8.07,8.07s3.61,8.08,8.07,8.08c.29,0,.59,0,.87-.01"/><path class="cls-3" d="m39.93,121.47c.44,1.42.85,2.85,1.24,4.28.6.8,1.42,1.43,2.35,1.8,1.56.6,3.39.44,4.82-.43,1.46-.88,2.42-2.39,3.78-3.42.55-.42,1.2-.77,1.89-.73h.04c.7.05,1.4.61,1.38,1.32-.02.64-.59,1.12-1.1,1.51-.12.09-.25.18-.37.28-.95.71-1.89,1.42-2.84,2.13-1.17.88-2.35,1.76-3.68,2.36s-2.84.89-4.26.54c-.24-.06-.48-.14-.7-.24.1.38.19.77.28,1.15.45,1.96.87,4.05.17,5.94-.5,1.37-1.53,2.43-2.78,3.19-.96.58-2.05.99-3.14,1.24h-.01c-.11.02-.21.05-.32.07-1.51.3-3.11.31-4.64.01-1.11-.2-2.17-.57-3.13-1.11-1.22-.69-2.26-1.65-2.96-2.9-.44-.79-.72-1.62-.87-2.49-.18.24-.39.43-.67.52-.76.26-1.58-.41-1.78-1.19s.04-1.59.29-2.35c1.23-3.77,2.75-7.44,4.55-10.97.68-.11,1.32-.27,1.91-.49,1.28-.44,2.34-1.12,3.08-2.11h4.46c.73.98,1.76,1.65,3.01,2.09Z"/><path class="cls-3" d="m25.08,135.97c.19-.25.34-.56.47-.85l4.92-11.16"/><path class="cls-3" d="m37.52,122.65c.41,1.74.82,3.51,1.68,5.08.75,1.35,1.88,2.55,3.28,3.14"/><path class="cls-3" d="m28.91,141.36c-.07,3.41-.13,6.82-.2,10.22-.02.87-.03,1.77.26,2.57.28.8.96,1.46,1.67,1.34.59-.1,1.04-.71,1.25-1.38.21-.68.2-1.42.2-2.14-.02-3.17-.03-6.33-.05-9.5"/><path class="cls-3" d="m37,142.39c-.05,3.06-.11,6.13-.17,9.19-.02.87-.03,1.77.25,2.57.29.8.96,1.46,1.67,1.34.59-.1,1.05-.71,1.26-1.38.2-.68.2-1.42.2-2.14-.02-3.61-.04-7.21-.06-10.82"/><path class="cls-3" d="m133.53,121.97c1.81,3.53,3.34,7.21,4.56,10.98.25.76.49,1.57.29,2.35s-1.02,1.45-1.78,1.19c-.28-.09-.49-.28-.67-.52-.15.87-.43,1.7-.87,2.49-.7,1.25-1.74,2.21-2.96,2.9-.96.54-2.02.91-3.13,1.11-1.53.3-3.13.29-4.64-.01-.11-.02-.21-.05-.32-.07h-.01c-1.1-.25-2.18-.66-3.14-1.25-1.25-.76-2.28-1.81-2.78-3.18-.7-1.89-.28-3.98.17-5.94.09-.38.18-.77.28-1.15-.23.1-.46.18-.7.24-1.42.35-2.93.06-4.26-.54s-2.51-1.48-3.68-2.36l-3.12-2.34s-.06-.05-.09-.07c-.51-.39-1.08-.87-1.1-1.51-.02-.63.53-1.14,1.14-1.28.08-.02.16-.03.24-.04.7-.05,1.37.3,1.94.73,1.35,1.03,2.31,2.54,3.77,3.42,1.43.87,3.26,1.03,4.82.43.93-.37,1.75-1,2.35-1.8.39-1.42.8-2.83,1.23-4.24,1.3-.45,2.37-1.13,3.12-2.13h4.45c.72.97,1.74,1.63,2.98,2.08.59.22,1.23.38,1.91.51Z"/><path class="cls-3" d="m130.54,123.96c1.64,3.72,3.28,7.44,4.93,11.16.12.29.27.6.46.85"/><path class="cls-3" d="m118.53,130.87c1.41-.59,2.54-1.79,3.28-3.14.86-1.57,1.28-3.34,1.68-5.08"/><path class="cls-3" d="m132.1,141.36c.07,3.41.13,6.82.2,10.22.02.87.03,1.77-.26,2.57-.28.8-.96,1.46-1.67,1.34-.58-.1-1.04-.71-1.25-1.38-.2-.68-.2-1.42-.2-2.14.02-3.17.03-6.33.05-9.5"/><path class="cls-3" d="m124.01,142.39c.06,3.06.11,6.13.17,9.19.02.87.03,1.77-.25,2.57-.29.8-.96,1.46-1.67,1.34-.59-.1-1.05-.71-1.25-1.38-.21-.68-.21-1.42-.21-2.14l.06-10.83"/><path class="cls-3" d="m77.68,134.84c-.45.6-.74,1.31-.52,2.01.19.61.72,1.03,1.21,1.44.6.52,1.17,1.08,1.69,1.68.38.43.75,1.01.53,1.54-.19.43-.74.62-1.21.53-.46-.08-.86-.37-1.24-.66-1.44-1.11-2.9-2.58-2.88-4.4.01-.98.43-1.83.96-2.66"/><path class="cls-3" d="m83.28,134.67c-.34.79-.5,1.72-.02,2.41.37.52,1,.76,1.59,1.01.73.31,1.44.68,2.12,1.09.49.3,1.02.74.96,1.31-.05.47-.51.81-.98.87s-.94-.09-1.39-.25c-1.71-.63-3.54-1.6-4.07-3.34-.28-.92-.14-1.86.1-2.8"/><circle class="cls-3" cx="80.55" cy="112.2" r="5.11"/><path class="cls-3" d="m53.96,126.08c.56,14.92,12.16,26.83,26.4,26.83s25.96-12.02,26.41-27.04"/><path class="cls-3" d="m87.04,121.67c.75-.64,1.49-1.29,2.23-1.93.64-.55,1.31-1.12,2.13-1.28.36-.07.81-.03.99.29.22.39-.09.85-.38,1.18-.54.6-1.09,1.19-1.66,1.76-1.39,1.39-2.86,2.69-4.42,3.88.27,2.02.29,4.07.05,6.09-.08.7-.21,1.44-.66,1.98-.46.55-1.16.81-1.85.99-.06.02-.13.03-.19.04-.56.15-1.12.24-1.69.3-.99.11-1.98.1-2.97.01-.31-.03-.63-.08-.94-.14-.52-.11-1.03-.27-1.46-.52-.48-.26-.87-.63-1.11-1.12-.42-.88-.25-1.91-.06-2.87.33-1.69.69-3.37,1.08-5.05-1.24-1.1-2.41-2.29-3.52-3.54-.39-.45-.77-.9-1.15-1.36-.41-.5-.81-1.2-.43-1.71.2-.27.55-.37.87-.37.91,0,1.68.64,2.33,1.28.59.58,1.15,1.19,1.68,1.82.32.35.61.71.89,1.08.12-.49.25-.99.38-1.48.73-.31,1.34-.75,1.79-1.35h3.16c.64.87,1.62,1.39,2.83,1.69.19.56.35,1.13.49,1.7.53-.45,1.06-.91,1.59-1.37Z"/></g></svg>