<?xml version="1.0" encoding="UTF-8"?><svg id="Layer_2" xmlns="http://www.w3.org/2000/svg" viewBox="0 0 161.09 234.55"><defs><style>.cls-1{fill:#ecede8;}.cls-1,.cls-2{stroke-width:0px;}.cls-3{fill:none;stroke:#000;stroke-linecap:round;stroke-linejoin:round;stroke-width:.5px;}.cls-2{fill:#8b001b;}</style></defs><g id="Layer_2-2"><rect class="cls-1" width="161.09" height="234.55" rx="5" ry="5"/><path class="cls-2" d="m147.85,216.6c.5-.14,1.01.25,1.01.68-1.44,2.92-4.28,4.57-7.52,4.57-3.53,0-5.72-1.73-5.72-4.14,0-1.48.61-2.95,4.54-4.64.4-.18.14-.47-.32-.47-3.24.11-6.05-2.12-6.05-5.58,0-2.59,1.26-5.22,4.14-7.34,3.1-2.23,6.37-2.88,8.31-2.88s3.89.72,3.89,2.56c0,.97-.72,1.98-2.16,1.98-1.3,0-2.09-1.44-2.41-1.91-.43-.65-1.04-.83-1.55-.83-1.55,0-4.82,2.05-4.82,6.48,0,3.2,1.66,5.51,4.21,5.51,1.48,0,2.66-.68,3.56-1.51.72.14,1.15.9.83,1.73-1.44.54-4.36,1.73-5.8,2.92-.65.54-1.51,1.62-1.51,3.24,0,1.33,1.19,2.63,2.95,2.63s3.35-1.37,4.43-2.99Z"/><polygon class="cls-2" points="141.95 189.28 148.99 180 141.95 170.72 134.91 180 141.95 189.28"/><path class="cls-2" d="m13.24,17.96c-.5.14-1.01-.25-1.01-.68,1.44-2.92,4.28-4.57,7.52-4.57,3.53,0,5.72,1.73,5.72,4.14,0,1.48-.61,2.95-4.54,4.64-.4.18-.14.47.32.47,3.24-.11,6.05,2.12,6.05,5.58,0,2.59-1.26,5.22-4.14,7.34-3.1,2.23-6.37,2.88-8.31,2.88s-3.89-.72-3.89-2.56c0-.97.72-1.98,2.16-1.98,1.3,0,2.09,1.44,2.41,1.91.43.65,1.04.83,1.55.83,1.55,0,4.82-2.05,4.82-6.48,0-3.2-1.66-5.51-4.21-5.51-1.48,0-2.66.68-3.56,1.51-.72-.14-1.15-.9-.83-1.73,1.44-.54,4.36-1.73,5.8-2.92.65-.54,1.51-1.62,1.51-3.24,0-1.33-1.19-2.63-2.95-2.63s-3.35,1.37-4.43,2.99Z"/><polygon class="cls-2" points="19.14 45.27 12.1 54.55 19.14 63.84 26.18 54.55 19.14 45.27"/><path class="cls-2" d="m60.52,69.75l-6.21,7.97-.85,1.09-.59.77-.12.16-.99,1.28-.65.83-2.67,3.4-3.38-4.6h0l-.39-.54-.23-.31-.61-.83-.91-1.23-6.12-8.31,12.08-15.48,11.65,15.81Zm-11.2,7.54c2.65,0,4.79-2.16,4.78-4.81s-2.16-4.78-4.82-4.77c-2.64,0-4.77,2.15-4.76,4.8,0,2.66,2.16,4.79,4.8,4.78Z"/><path class="cls-2" d="m45.71,106.59c-.46.02-.87-.32-1.07-.73-.21-.4-.26-.87-.29-1.32,0-.05,0-.09,0-.14-.24-3.02-.24-6.07.02-9.1.83.7,1.96,1.09,3.1,1.27.03,1.88.05,3.76.07,5.63,0,.73,0,1.49-.15,2.2-.11.59-.32,1.14-.69,1.61-.25.3-.59.57-.99.58Z"/><path class="cls-2" d="m50.66,105.99c-.58-.19-1-.74-1.2-1.32-.03-.09-.05-.17-.06-.26-.13-.5-.13-1.03-.14-1.55,0-2.04-.02-4.1-.04-6.15.84,0,1.7-.07,2.46-.35.31,1.94.44,3.91.38,5.87-.02.72-.09,1.5-.32,2.18-.21.64-.54,1.21-1.1,1.59Z"/><path class="cls-2" d="m77.33,133.11c1.38,1.22,2.94,2.22,4.63,2.94.04.29.05.58.07.87.06,1.82-.37,3.71-1.57,5.07-.96,1.08-2.3,1.72-3.62,2.27-2.83,1.2-5.77,2.18-8.76,2.92-.73.18-1.53.34-2.22.02-1.31-.62-1.22-2.68-.18-3.69s2.59-1.2,4.03-1.31,4.81-1.11,5.98-1.95c1.68-1.21,2.04-3.58,1.84-5.65-.05-.49-.12-.99-.2-1.48Z"/><path class="cls-2" d="m98.11,139.3c.41,1.06-.18,2.23-.78,3.19-1.79,2.84-3.89,5.48-6.24,7.87-.75.76-1.83,1.55-2.78,1.06-1.03-.53-.89-2.04-.47-3.13.64-1.66,1.58-3.2,2.77-4.52.73-.82,1.62-1.73,1.48-2.82-.11-.79-.76-1.4-1.37-1.91-.73-.63-1.47-1.22-2.22-1.83.96-.18,1.83-.59,2.48-1.32.33-.37.57-.78.75-1.24,1.57,1,3.14,2.01,4.72,3.01.67.43,1.38.9,1.67,1.64Z"/><path class="cls-2" d="m88.49,137.21c.75.6,1.49,1.2,2.22,1.83.61.51,1.26,1.11,1.37,1.91.15,1.09-.75,2-1.48,2.82-1.2,1.31-2.14,2.86-2.77,4.52-.42,1.09-.56,2.6.47,3.13.95.49,2.04-.3,2.78-1.06,2.35-2.39,4.45-5.03,6.24-7.87.6-.96,1.2-2.13.78-3.19-.29-.74-1-1.21-1.67-1.64-1.58-1-3.15-2.01-4.72-3.01h0c.31-.81.46-1.71.56-2.56.26-2.07.44-4.16.52-6.25.78.73,1.61,1.41,2.53,1.94.58.33,1.2.61,1.87.6.66,0,1.35-.37,1.57-1,.21-.6-.06-1.29-.5-1.74-.45-.47-1.03-.76-1.59-1.06-1.37-.75-2.65-1.64-3.82-2.67-.03-3.21-.26-6.43-.69-9.6l.36-.46,1.81-2.31.96-1.24,1.35-1.75,1.67-2.14h4.31l22.82,68.51H51.56l-21.91-68.51h14.69s0,.09,0,.14c.04.46.08.92.29,1.32.2.41.61.75,1.07.73.39-.02.74-.28.99-.58.37-.47.58-1.01.69-1.61h2.01c0,.09.04.17.06.26.19.58.61,1.13,1.2,1.32.56-.37.89-.95,1.1-1.59h24.92l1.59,2.15,1.47,2,1.36,1.83.4.56c-1.26,4.41-3.01,8.69-5.22,12.71-.85,1.55-1.8,3.19-1.66,4.97.13,1.74,1.31,3.24,2.62,4.41.04.03.06.05.1.08.08.49.16.99.2,1.48.2,2.07-.16,4.44-1.84,5.65-1.17.84-4.54,1.84-5.98,1.95s-2.99.31-4.03,1.31-1.12,3.07.18,3.69c.68.32,1.49.16,2.22-.02,2.99-.74,5.93-1.72,8.76-2.92,1.32-.56,2.67-1.2,3.62-2.27,1.2-1.35,1.63-3.25,1.57-5.07-.02-.29-.04-.58-.07-.87.97.43,1.98.76,3.01.99,1.13.26,2.37.37,3.5.16h.02Z"/><path class="cls-2" d="m88.59,105.84c1.67,0,3.21-.54,4.48-1.44,1.96-1.41,3.24-3.71,3.23-6.32,0-4.27-3.49-7.72-7.77-7.71-4.25.02-7.71,3.49-7.69,7.76,0,2.59,1.29,4.87,3.23,6.27,1.27.91,2.83,1.45,4.52,1.44Zm-.72-37.68l18.8,25.52-8.36,10.72-1.67,2.14-1.35,1.75-.96,1.24-1.81,2.31-.36.46-.69.89-4.29,5.49-5.46-7.41h0s-.23-.32-.23-.32l-.4-.56-1.36-1.83-1.47-2-1.59-2.15-8.3-11.25,19.5-24.99Z"/><polyline class="cls-3" points="52.75 79.73 52.87 79.57 53.46 78.81 54.31 77.72 60.52 69.75 48.87 53.94 36.79 69.42 42.91 77.73 43.82 78.96 44.43 79.79"/><path class="cls-3" d="m49.32,77.29c-2.64,0-4.79-2.13-4.8-4.78,0-2.65,2.13-4.79,4.76-4.8,2.66,0,4.81,2.13,4.82,4.77s-2.14,4.8-4.78,4.81Z"/><polyline class="cls-3" points="98.31 104.4 106.67 93.68 87.87 68.16 68.37 93.15 76.67 104.4"/><path class="cls-3" d="m93.07,104.4c-1.27.9-2.81,1.43-4.48,1.44-1.69,0-3.25-.53-4.52-1.44-1.94-1.4-3.22-3.68-3.23-6.27-.02-4.27,3.44-7.74,7.69-7.76,4.28,0,7.76,3.44,7.77,7.71,0,2.61-1.27,4.91-3.23,6.32Z"/><polyline class="cls-3" points="92.17 112.29 92.53 111.84 94.33 109.53 95.29 108.29 96.64 106.54 98.31 104.4 102.62 104.4 125.44 172.91 51.56 172.91 29.66 104.4 44.34 104.4"/><polyline class="cls-3" points="51.75 104.4 76.67 104.4 78.26 106.55 79.73 108.55 81.09 110.39 81.49 110.94"/><line class="cls-3" x1="47.39" y1="104.4" x2="49.4" y2="104.4"/><path class="cls-3" d="m44.36,95.3c-.39-.32-.72-.72-.95-1.2-.52-1.11-.38-2.41-.24-3.62.16-1.35.32-2.69.47-4.04-.93,1.03-1.9,2.05-2.98,2.88-.55.43-1.27-.26-.89-.83l3.21-4.79c.78-1.16,1.27-2.49,1.43-3.88v-.02l.23.31.39.54h0l3.38,4.6,2.67-3.4.65-.83.99-1.28c.15.35.28.69.41,1.05.55,1.48,1.3,2.88,2.31,4.08,1.31,1.54,2.6,3.08,3.91,4.62.23.27.47.57.54.91.07.36-.1.78-.45.87-.38.1-.73-.24-.99-.55-1.24-1.46-2.56-2.85-3.94-4.15.19,1.52.24,3.04.16,4.56-.1,1.61-.41,3.35-1.61,4.43-.41.37-.89.63-1.4.8"/><path class="cls-3" d="m49.22,96.7c-.21,0-.43,0-.64-.02-.37-.02-.75-.05-1.12-.11"/><path class="cls-3" d="m47.39,104.4c-.11.59-.32,1.14-.69,1.61-.25.3-.59.57-.99.58-.46.02-.87-.32-1.07-.73-.21-.4-.26-.87-.29-1.32,0-.05,0-.09,0-.14-.24-3.02-.24-6.07.02-9.1.83.7,1.96,1.09,3.1,1.27.03,1.88.05,3.76.07,5.63,0,.73,0,1.49-.15,2.2Z"/><path class="cls-3" d="m51.69,96.35c.31,1.94.44,3.91.38,5.87-.02.72-.09,1.5-.32,2.18-.21.64-.54,1.21-1.1,1.59-.58-.19-1-.74-1.2-1.32-.03-.09-.05-.17-.06-.26-.13-.5-.13-1.03-.14-1.55,0-2.04-.02-4.1-.04-6.15.84,0,1.7-.07,2.46-.35Z"/><path class="cls-3" d="m92.86,121.9c.02,1.31,0,2.62-.06,3.93-.08,2.09-.26,4.18-.52,6.25-.1.86-.25,1.75-.56,2.56h0c-.18.47-.42.88-.75,1.25-.66.73-1.52,1.14-2.48,1.32h-.02c-1.13.21-2.37.1-3.5-.16-1.03-.24-2.04-.57-3.01-.99-1.69-.72-3.25-1.72-4.63-2.94-.04-.03-.06-.05-.1-.08-1.31-1.17-2.49-2.67-2.62-4.41-.14-1.77.81-3.41,1.66-4.97,2.21-4.03,3.96-8.31,5.22-12.71l.23.31h0s5.46,7.42,5.46,7.42l4.29-5.49.69-.89c.44,3.18.67,6.39.69,9.6Z"/><path class="cls-3" d="m82.36,115.68c.4,2.43.95,5.12,2.94,6.58,1.29.94,2.99,1.2,4.23,2.23.37.3.69.69.83,1.15.13.47.05,1-.3,1.33-.68.65-1.78.17-2.57-.32l-3.89-2.41c-.91-.57-1.83-1.14-2.56-1.93s-1.27-1.82-1.22-2.89"/><path class="cls-3" d="m92.86,121.9c1.17,1.03,2.45,1.93,3.82,2.67.56.3,1.14.59,1.59,1.06.44.46.71,1.14.5,1.74-.22.63-.91.99-1.57,1-.67,0-1.3-.27-1.87-.6-.92-.53-1.75-1.21-2.53-1.94"/><path class="cls-3" d="m91.72,134.65c1.57,1,3.14,2.01,4.72,3.01.67.43,1.38.9,1.67,1.64.41,1.06-.18,2.23-.78,3.19-1.79,2.84-3.89,5.48-6.24,7.87-.75.76-1.83,1.55-2.78,1.06-1.03-.53-.89-2.04-.47-3.13.64-1.66,1.58-3.2,2.77-4.52.73-.82,1.62-1.73,1.48-2.82-.11-.79-.76-1.4-1.37-1.91-.73-.63-1.47-1.22-2.22-1.83h0"/><path class="cls-3" d="m81.96,136.05c.04.29.05.58.07.87.06,1.82-.37,3.71-1.57,5.07-.96,1.08-2.3,1.72-3.62,2.27-2.83,1.2-5.77,2.18-8.76,2.92-.73.18-1.53.34-2.22.02-1.31-.62-1.22-2.68-.18-3.69s2.59-1.2,4.03-1.31,4.81-1.11,5.98-1.95c1.68-1.21,2.04-3.58,1.84-5.65-.05-.49-.12-.99-.2-1.48"/></g></svg>