<?xml version="1.0" encoding="UTF-8"?><svg id="Layer_2" xmlns="http://www.w3.org/2000/svg" viewBox="0 0 161.09 234.55"><defs><style>.cls-1{fill:#ecede8;}.cls-1,.cls-2{stroke-width:0px;}.cls-3{fill:none;stroke:#000;stroke-linecap:round;stroke-linejoin:round;stroke-width:.5px;}.cls-2{fill:#8b001b;}</style></defs><g id="Layer_2-2"><rect class="cls-1" width="161.09" height="234.55" rx="5" ry="5"/><path class="cls-2" d="m147.85,216.6c.5-.14,1.01.25,1.01.68-1.44,2.92-4.28,4.57-7.52,4.57-3.53,0-5.72-1.73-5.72-4.14,0-1.48.61-2.95,4.54-4.64.4-.18.14-.47-.32-.47-3.24.11-6.05-2.12-6.05-5.58,0-2.59,1.26-5.22,4.14-7.34,3.1-2.23,6.37-2.88,8.31-2.88s3.89.72,3.89,2.56c0,.97-.72,1.98-2.16,1.98-1.3,0-2.09-1.44-2.41-1.91-.43-.65-1.04-.83-1.55-.83-1.55,0-4.82,2.05-4.82,6.48,0,3.2,1.66,5.51,4.21,5.51,1.48,0,2.66-.68,3.56-1.51.72.14,1.15.9.83,1.73-1.44.54-4.36,1.73-5.8,2.92-.65.54-1.51,1.62-1.51,3.24,0,1.33,1.19,2.63,2.95,2.63s3.35-1.37,4.43-2.99Z"/><path class="cls-2" d="m134.98,182.86c.2,1.21.74,2.05,1.8,2.68.9.54,2.06.54,3.03.15.51-.2.97-.38,1.39-.63.27-.16.52-.34.76-.58.23.23.49.42.76.58.42.25.88.43,1.39.63.98.38,2.13.38,3.03-.15,1.05-.63,1.59-1.47,1.8-2.68.17-1.01.02-2.06-.3-3.03-.33-1.01-1.11-2.03-1.88-2.77-.77-.74-1.4-1.2-2.32-1.74-.74-.44-1.49-.85-2.25-1.23-.14-.07-.3-.07-.44,0-.77.38-1.52.79-2.25,1.23-.91.55-1.55,1.01-2.32,1.74-.77.74-1.54,1.75-1.88,2.77-.32.97-.47,2.03-.3,3.03Z"/><path class="cls-2" d="m13.24,17.96c-.5.14-1.01-.25-1.01-.68,1.44-2.92,4.28-4.57,7.52-4.57,3.53,0,5.72,1.73,5.72,4.14,0,1.48-.61,2.95-4.54,4.64-.4.18-.14.47.32.47,3.24-.11,6.05,2.12,6.05,5.58,0,2.59-1.26,5.22-4.14,7.34-3.1,2.23-6.37,2.88-8.31,2.88s-3.89-.72-3.89-2.56c0-.97.72-1.98,2.16-1.98,1.3,0,2.09,1.44,2.41,1.91.43.65,1.04.83,1.55.83,1.55,0,4.82-2.05,4.82-6.48,0-3.2-1.66-5.51-4.21-5.51-1.48,0-2.66.68-3.56,1.51-.72-.14-1.15-.9-.83-1.73,1.44-.54,4.36-1.73,5.8-2.92.65-.54,1.51-1.62,1.51-3.24,0-1.33-1.19-2.63-2.95-2.63s-3.35,1.37-4.43,2.99Z"/><path class="cls-2" d="m26.11,51.69c-.2-1.21-.74-2.05-1.8-2.68-.9-.54-2.06-.54-3.03-.15-.51.2-.97.38-1.39.63-.27.16-.52.34-.76.58-.23-.23-.49-.42-.76-.58-.42-.25-.88-.43-1.39-.63-.98-.38-2.13-.38-3.03.15-1.05.63-1.59,1.47-1.8,2.68-.17,1.01-.02,2.06.3,3.03.33,1.01,1.11,2.03,1.88,2.77.77.74,1.4,1.2,2.32,1.74.74.44,1.49.85,2.25,1.23.14.07.3.07.44,0,.77-.38,1.52-.79,2.25-1.23.91-.55,1.55-1.01,2.32-1.74.77-.74,1.54-1.75,1.88-2.77.32-.97.47-2.03.3-3.03Z"/><path class="cls-2" d="m133.83,92.72c1.3,7.71.13,15.76-2.31,23.19-2.35,7.11-7.55,14.28-12.94,19.75-.47.48-.94.94-1.41,1.39-1.52,1.45-2.97,2.76-4.4,3.97-.37-.24-.72-.49-1.07-.76-.89-.68-1.71-1.46-2.49-2.29l2.49-1.13v-44.1l-3.45-3.45-27.7,12.59-27.7-12.59-3.45,3.45v44.1l2.49,1.13c-.78.83-1.6,1.61-2.49,2.29-.35.27-.7.52-1.07.76-1.44-1.21-2.88-2.52-4.4-3.97-.47-.45-.94-.91-1.41-1.39-5.4-5.47-10.6-12.64-12.94-19.75-2.45-7.43-3.62-15.48-2.32-23.19,1.56-9.23,5.69-15.68,13.73-20.48,6.88-4.1,15.72-4.09,23.18-1.18,3.87,1.51,7.39,2.91,10.59,4.8,2.07,1.21,4,2.63,5.79,4.4,1.79-1.77,3.72-3.19,5.78-4.4,3.2-1.89,6.72-3.29,10.59-4.8,7.47-2.91,16.3-2.92,23.18,1.18,8.04,4.8,12.17,11.25,13.73,20.48Z"/><path class="cls-2" d="m106.77,118.05c.55,1.36.66,2.89.51,4.35-.15,1.52-.92,3.18-1.77,4.45-.7,1.03-1.32,1.78-2.12,2.58-1.11-1.89-2.23-3.77-3.53-5.53-1.09-1.47-2.94-2.99-4.56-2.13-1.55.83-1.41,3.09-.88,4.76.59,1.86,1.39,3.62,2.35,5.29-.3-.1-.6-.19-.9-.29-1.45-.48-2.48-.93-3.79-1.73-1.3-.79-2.7-1.98-3.48-3.29-.75-1.27-1.29-2.69-1.36-4.16-.08-1.75.41-3.1,1.69-4.31,1.1-1.03,2.72-1.38,4.2-1.15.77.12,1.48.24,2.14.45.43.14.84.33,1.24.58.25-.4.55-.74.88-1.04.51-.48,1.1-.88,1.75-1.31,1.25-.83,2.87-1.19,4.29-.72,1.67.56,2.69,1.57,3.34,3.2Z"/><path class="cls-2" d="m103.7,140.48c1.47,1.43,3.02,2.79,4.59,4.08-2.69,1.99-5.53,3.83-8.84,5.8-5.62,3.34-11.36,6.47-17.21,9.38-1.06.53-2.31.53-3.37,0-5.86-2.91-11.6-6.04-17.23-9.38-3.32-1.97-6.15-3.81-8.84-5.79,1.58-1.3,3.13-2.66,4.6-4.09l23.15,10.51,23.15-10.51Z"/><path class="cls-2" d="m72.17,118.04c1.28,1.21,1.77,2.56,1.69,4.31-.07,1.47-.61,2.89-1.36,4.16-.78,1.31-2.18,2.5-3.48,3.29-1.31.8-2.34,1.25-3.79,1.73-.3.1-.6.19-.9.29.96-1.67,1.76-3.43,2.35-5.29.53-1.67.67-3.93-.88-4.76-1.62-.86-3.47.66-4.56,2.13-1.3,1.76-2.42,3.64-3.53,5.53-.8-.8-1.42-1.55-2.12-2.58-.85-1.27-1.62-2.93-1.77-4.45-.15-1.46-.04-2.99.51-4.35.65-1.63,1.67-2.64,3.34-3.2,1.42-.47,3.04-.11,4.29.72.65.43,1.24.83,1.75,1.31.33.3.63.64.88,1.04.4-.25.81-.44,1.24-.58.66-.21,1.37-.33,2.14-.45,1.48-.23,3.1.12,4.2,1.15Z"/><path class="cls-3" d="m108.29,144.56c-2.69,1.99-5.53,3.83-8.84,5.8-5.62,3.34-11.36,6.47-17.21,9.38-1.06.53-2.31.53-3.37,0-5.86-2.91-11.6-6.04-17.23-9.38-3.32-1.97-6.15-3.81-8.84-5.79"/><path class="cls-3" d="m42.52,135.66c-5.4-5.47-10.6-12.64-12.94-19.75-2.45-7.43-3.62-15.48-2.32-23.19,1.56-9.23,5.69-15.68,13.73-20.48,6.88-4.1,15.72-4.09,23.18-1.18,3.87,1.51,7.39,2.91,10.59,4.8,2.07,1.21,4,2.63,5.79,4.4,1.79-1.77,3.72-3.19,5.78-4.4,3.2-1.89,6.72-3.29,10.59-4.8,7.47-2.91,16.3-2.92,23.18,1.18,8.04,4.8,12.17,11.25,13.73,20.48,1.3,7.71.13,15.76-2.31,23.19-2.35,7.11-7.55,14.28-12.94,19.75"/><path class="cls-3" d="m96.77,131.82c-.3-.1-.6-.19-.9-.29-1.45-.48-2.48-.93-3.79-1.73-1.3-.79-2.7-1.98-3.48-3.29-.75-1.27-1.29-2.69-1.36-4.16-.08-1.75.41-3.1,1.69-4.31,1.1-1.03,2.72-1.38,4.2-1.15.77.12,1.48.24,2.14.45.43.14.84.33,1.24.58.25-.4.55-.74.88-1.04.51-.48,1.1-.88,1.75-1.31,1.25-.83,2.87-1.19,4.29-.72,1.67.56,2.69,1.57,3.34,3.2.55,1.36.66,2.89.51,4.35-.15,1.52-.92,3.18-1.77,4.45-.7,1.03-1.32,1.78-2.12,2.58"/><line class="cls-3" x1="111.7" y1="136.84" x2="111.7" y2="92.74"/><line class="cls-3" x1="111.7" y1="92.74" x2="80.55" y2="106.89"/><line class="cls-3" x1="108.25" y1="89.29" x2="80.55" y2="101.88"/><line class="cls-3" x1="111.7" y1="136.84" x2="109.21" y2="137.97"/><line class="cls-3" x1="103.7" y1="140.48" x2="80.55" y2="150.99"/><path class="cls-3" d="m103.39,129.43c1.07,1.82,2.13,3.66,3.33,5.4.75,1.09,1.58,2.16,2.49,3.14.78.83,1.6,1.61,2.49,2.29.35.27.7.52,1.07.76,1.43-1.21,2.88-2.52,4.4-3.97.47-.45.94-.91,1.41-1.39,1.1,1.99,2.15,4.04,2.38,6.29.23,2.38-.74,5.06-2.9,6.1-1.44.69-3.18.55-4.67-.04-.59-.23-1.15-.53-1.69-.87-.82-.51-1.59-1.11-2.35-1.71-.35-.29-.71-.57-1.06-.87-1.57-1.29-3.12-2.65-4.59-4.08-2.68-2.62-5.1-5.48-6.93-8.66"/><path class="cls-3" d="m116.57,142.77c-1.36-.37-2.63-.98-3.8-1.75"/><line class="cls-3" x1="111.7" y1="92.74" x2="108.25" y2="89.29"/><path class="cls-3" d="m57.71,129.43c-.8-.8-1.42-1.55-2.12-2.58-.85-1.27-1.62-2.93-1.77-4.45-.15-1.46-.04-2.99.51-4.35.65-1.63,1.67-2.64,3.34-3.2,1.42-.47,3.04-.11,4.29.72.65.43,1.24.83,1.75,1.31.33.3.63.64.88,1.04.4-.25.81-.44,1.24-.58.66-.21,1.37-.33,2.14-.45,1.48-.23,3.1.12,4.2,1.15,1.28,1.21,1.77,2.56,1.69,4.31-.07,1.47-.61,2.89-1.36,4.16-.78,1.31-2.18,2.5-3.48,3.29-1.31.8-2.34,1.25-3.79,1.73-.3.1-.6.19-.9.29"/><polyline class="cls-3" points="80.55 150.99 80.55 106.89 80.55 101.88"/><line class="cls-3" x1="49.4" y1="92.74" x2="49.4" y2="136.84"/><line class="cls-3" x1="80.55" y1="106.89" x2="49.4" y2="92.74"/><line class="cls-3" x1="80.55" y1="101.88" x2="52.85" y2="89.29"/><line class="cls-3" x1="51.89" y1="137.97" x2="49.4" y2="136.84"/><line class="cls-3" x1="80.55" y1="150.99" x2="57.4" y2="140.48"/><path class="cls-3" d="m57.71,129.43c1.11-1.89,2.23-3.77,3.53-5.53,1.09-1.47,2.94-2.99,4.56-2.13,1.55.83,1.41,3.09.88,4.76-.59,1.86-1.39,3.62-2.35,5.29-1.83,3.18-4.25,6.04-6.93,8.66-1.47,1.43-3.02,2.79-4.6,4.09-.35.29-.7.58-1.05.86-.76.6-1.53,1.2-2.35,1.71-.54.34-1.1.64-1.69.87-1.49.59-3.23.73-4.67.04-2.16-1.04-3.13-3.72-2.9-6.1.23-2.25,1.28-4.3,2.38-6.29.47.48.94.94,1.41,1.39,1.52,1.45,2.96,2.76,4.4,3.97.37-.24.72-.49,1.07-.76.89-.68,1.71-1.46,2.49-2.29.91-.98,1.74-2.05,2.49-3.14,1.2-1.74,2.26-3.58,3.33-5.4Z"/><path class="cls-3" d="m48.33,141.02c-1.17.77-2.44,1.38-3.8,1.75"/><line class="cls-3" x1="52.85" y1="89.29" x2="49.4" y2="92.74"/></g></svg>