<?xml version="1.0" encoding="UTF-8"?><svg id="Layer_2" xmlns="http://www.w3.org/2000/svg" viewBox="0 0 161.09 234.55"><defs><style>.cls-1{fill:#ecede8;}.cls-1,.cls-2{stroke-width:0px;}.cls-2{fill:#1a1a1a;}.cls-3{fill:none;stroke:#000;stroke-linecap:round;stroke-linejoin:round;stroke-width:.5px;}</style></defs><g id="Layer_2-2"><rect class="cls-1" width="161.09" height="234.55" rx="5" ry="5"/><path class="cls-2" d="m147.85,216.6c.5-.14,1.01.25,1.01.68-1.44,2.92-4.28,4.57-7.52,4.57-3.53,0-5.72-1.73-5.72-4.14,0-1.48.61-2.95,4.54-4.64.4-.18.14-.47-.32-.47-3.24.11-6.05-2.12-6.05-5.58,0-2.59,1.26-5.22,4.14-7.34,3.1-2.23,6.37-2.88,8.31-2.88s3.89.72,3.89,2.56c0,.97-.72,1.98-2.16,1.98-1.3,0-2.09-1.44-2.41-1.91-.43-.65-1.04-.83-1.55-.83-1.55,0-4.82,2.05-4.82,6.48,0,3.2,1.66,5.51,4.21,5.51,1.48,0,2.66-.68,3.56-1.51.72.14,1.15.9.83,1.73-1.44.54-4.36,1.73-5.8,2.92-.65.54-1.51,1.62-1.51,3.24,0,1.33,1.19,2.63,2.95,2.63s3.35-1.37,4.43-2.99Z"/><path class="cls-2" d="m135.28,180.94c.33,1.01,1.11,2.03,1.88,2.77.77.74,1.4,1.2,2.32,1.74.66.4,1.34.77,2.03,1.12.28.14.6.14.88,0,.69-.35,1.37-.72,2.03-1.12.91-.54,1.55-1.01,2.32-1.74.77-.74,1.55-1.75,1.88-2.77.32-.97.47-2.03.3-3.03-.2-1.21-.74-2.05-1.8-2.68-.9-.54-2.06-.54-3.03-.15-.51.2-.97.38-1.39.63l.38-1.94c.04-.22-.12-.42-.35-.42h-1.57c-.22,0-.39.2-.35.42l.38,1.94c-.42-.25-.88-.43-1.39-.63-.98-.38-2.13-.38-3.03.15-1.05.63-1.59,1.47-1.8,2.68-.17,1.01-.02,2.06.3,3.03Z"/><path class="cls-2" d="m13.24,17.96c-.5.14-1.01-.25-1.01-.68,1.44-2.92,4.28-4.57,7.52-4.57,3.53,0,5.72,1.73,5.72,4.14,0,1.48-.61,2.95-4.54,4.64-.4.18-.14.47.32.47,3.24-.11,6.05,2.12,6.05,5.58,0,2.59-1.26,5.22-4.14,7.34-3.1,2.23-6.37,2.88-8.31,2.88s-3.89-.72-3.89-2.56c0-.97.72-1.98,2.16-1.98,1.3,0,2.09,1.44,2.41,1.91.43.65,1.04.83,1.55.83,1.55,0,4.82-2.05,4.82-6.48,0-3.2-1.66-5.51-4.21-5.51-1.48,0-2.66.68-3.56,1.51-.72-.14-1.15-.9-.83-1.73,1.44-.54,4.36-1.73,5.8-2.92.65-.54,1.51-1.62,1.51-3.24,0-1.33-1.19-2.63-2.95-2.63s-3.35,1.37-4.43,2.99Z"/><path class="cls-2" d="m25.81,53.62c-.33-1.01-1.11-2.03-1.88-2.77-.77-.74-1.4-1.2-2.32-1.74-.66-.4-1.34-.77-2.03-1.12-.28-.14-.6-.14-.88,0-.69.35-1.37.72-2.03,1.12-.91.54-1.55,1.01-2.32,1.74-.77.74-1.55,1.75-1.88,2.77-.32.97-.47,2.03-.3,3.03.2,1.21.74,2.05,1.8,2.68.9.54,2.06.54,3.03.15.51-.2.97-.38,1.39-.63l-.38,1.94c-.04.22.12.42.35.42h1.57c.22,0,.39-.2.35-.42l-.38-1.94c.42.25.88.43,1.39.63.98.38,2.13.38,3.03-.15,1.05-.63,1.59-1.47,1.8-2.68.17-1.01.02-2.06-.3-3.03Z"/><path class="cls-3" d="m113.57,137.59c-.72.41-1.39.49-2.17.21-.67-.24-1.16-.85-1.38-1.52-.12-.35-.22-.67-.27-.99l-.85,1.03c-.1.11-.28.11-.37,0l-.68-.83c-.1-.11-.06-.29.07-.36l1.18-.64c-.31-.11-.61-.27-.93-.45-.61-.35-1.11-.95-1.22-1.65-.12-.82.09-1.47.63-2.09.45-.52,1.07-.9,1.72-1.15.67-.26,1.53-.29,2.25-.21.71.09,1.23.22,1.9.47.5.18.98.37,1.46.58.19.08.34.26.38.46.11.51.21,1.03.29,1.54.11.71.14,1.24.09,1.96-.06.72-.26,1.56-.64,2.17-.37.59-.86,1.12-1.46,1.47Z"/><path class="cls-3" d="m115.96,142.49c.59.58.85,1.21.79,2.04-.05.71-.5,1.35-1.09,1.74-.3.21-.58.39-.88.53l1.22.54c.14.06.19.23.1.35l-.61.88c-.08.12-.26.14-.37.03l-.93-.96c-.02.32-.1.65-.18,1.01-.17.69-.62,1.33-1.26,1.62-.76.34-1.44.32-2.19-.04-.62-.29-1.15-.79-1.56-1.34-.44-.58-.7-1.4-.81-2.11-.11-.72-.12-1.25-.07-1.96.04-.53.09-1.05.17-1.57.03-.2.15-.39.34-.48.46-.25.93-.48,1.4-.7.66-.3,1.16-.47,1.87-.61.7-.14,1.57-.18,2.26.03.66.2,1.31.52,1.8,1Z"/><path class="cls-3" d="m89.76,115.44c3.23.21,6.49-.42,9.27-2.07,5.26-3.15,7.96-7.37,8.98-13.41.85-5.04.09-10.31-1.51-15.18-1.67-5.06-5.54-10.16-9.39-13.83-3.86-3.68-7.02-5.99-11.6-8.72-3.33-1.97-6.72-3.84-10.17-5.59-1.38-.69-3.02-.69-4.4,0-3.45,1.75-6.85,3.62-10.18,5.59-4.57,2.73-7.74,5.04-11.59,8.72-3.85,3.67-7.73,8.77-9.39,13.83-1.6,4.87-2.37,10.14-1.52,15.18,1.02,6.04,3.73,10.26,8.99,13.41,4.49,2.67,10.27,2.67,15.14.78"/><path class="cls-3" d="m85.5,91.56c0,6.83-5.53,12.37-12.36,12.37s-12.37-5.54-12.37-12.37,5.54-12.37,12.37-12.37,12.36,5.54,12.36,12.37Z"/><path class="cls-3" d="m54.78,142.22c.61-.15,1.2-.43,1.68-.81,1.4-1.11,2.18-2.81,2.91-4.45,2.44-5.5,4.88-11,7.32-16.5"/><path class="cls-3" d="m114.23,120.86c-.19.38-.44.72-.74.99-.98.88-2.33,1.2-3.62,1.43-.92.16-1.84.3-2.77.39-8.41.93-17.08-.72-24.56-4.68,1.27,7.52,2.55,15.04,3.83,22.56.32,1.88.62,3.9-.19,5.64-.74,1.58-2.31,2.65-3.98,3.18-.33.1-.66.19-1,.26-1.37.29-2.8.34-4.2.38-.28.01-.56.02-.84.02-2.97.09-5.94.18-8.91.27-1.3.04-2.59.07-3.88.11-.41.01-.81.03-1.22.03h-.01c-1.7,0-3.41-.16-4.8-1.08-1.78-1.17-2.66-3.38-2.75-5.5-.04-.89.04-1.77.19-2.64-1.16.29-2.41.11-3.22-.73-1.33-1.38-.9-3.64-.17-5.41,1.74-4.24,4.61-7.91,7.01-11.82,1.91-3.1,3.56-6.53,3.99-10.11.01,0,.02-.01.03-.01,2.53-.99,4.84-1.91,6.93-3.14h7.57c2.1,1.23,4.4,2.15,6.94,3.14,1.88.73,3.88,1.18,5.9,1.3,2.43,1.38,5.21,2.19,8,2.54,3.79.47,7.64.13,11.43-.42.26-.03.51-.07.77-.11,1.38-.2,3.03-.32,3.97.62.07.07.14.16.21.25.54.73.49,1.71.09,2.54Z"/><path class="cls-3" d="m62.15,151.44l-.72,20.64c-.04,1.13-.07,2.31.41,3.33.47,1.03,1.62,1.84,2.71,1.53,1.36-.38,1.78-2.07,1.93-3.47.83-7.36,1.08-14.78.77-22.17"/><path class="cls-3" d="m76.16,151.03c.36,7.09.72,14.18,1.08,21.27.06,1.13.13,2.3.69,3.28s1.77,1.69,2.83,1.29c1.32-.49,1.59-2.21,1.63-3.62.2-7.56-.2-15.13-1.19-22.62"/><path class="cls-3" d="m107.1,123.67c-1.78,1.84-3.44,3.78-4.54,6.08-1.73,3.61-1.93,7.73-2.09,11.72-.1,2.39-.17,4.9.93,7.02,1.13,2.17,3.38,3.6,5.75,4.24s4.87.58,7.32.39c2.42-.18,5.04-.57,6.74-2.3,1.99-2.02,2.09-5.19,1.91-8.02-.26-4.13-.86-8.26-2.28-12.14-1.38-3.74-3.56-7.25-6.61-9.8"/><path class="cls-3" d="m113.93,118.07c.22-1.61.81-3.26,1.81-4.04.68-.53,1.59-1.14,1.42-1.98-.14-.64-.84-.96-1.46-1.18-1.01-.36-2.08-.73-3.14-.56-.82.13-1.55.56-2.35.76-1.38.35-2.81-.02-4.18-.39.07,2.59,1.26,5.13,3.16,6.88"/><path class="cls-2" d="m115.96,142.49c.59.58.85,1.21.79,2.04-.05.71-.5,1.35-1.09,1.74-.3.21-.58.39-.88.53l1.22.54c.14.06.19.23.1.35l-.61.88c-.08.12-.26.14-.37.03l-.93-.96c-.02.32-.1.65-.18,1.01-.17.69-.62,1.33-1.26,1.62-.76.34-1.44.32-2.19-.04-.62-.29-1.15-.79-1.56-1.34-.44-.58-.7-1.4-.81-2.11-.11-.72-.12-1.25-.07-1.96.04-.53.09-1.05.17-1.57.03-.2.15-.39.34-.48.46-.25.93-.48,1.4-.7.66-.3,1.16-.47,1.87-.61.7-.14,1.57-.18,2.26.03.66.2,1.31.52,1.8,1Z"/><path class="cls-2" d="m115.58,131.99c.11.71.14,1.24.09,1.96-.06.72-.26,1.56-.64,2.17-.37.59-.86,1.12-1.46,1.47-.72.41-1.39.49-2.17.21-.67-.24-1.16-.85-1.38-1.52-.12-.35-.22-.67-.27-.99l-.85,1.03c-.1.11-.28.11-.37,0l-.68-.83c-.1-.11-.06-.29.07-.36l1.18-.64c-.31-.11-.61-.27-.93-.45-.61-.35-1.11-.95-1.22-1.65-.12-.82.09-1.47.63-2.09.45-.52,1.07-.9,1.72-1.15.67-.26,1.53-.29,2.25-.21.71.09,1.23.22,1.9.47.5.18.98.37,1.46.58.19.08.34.26.38.46.11.51.21,1.03.29,1.54Z"/><path class="cls-2" d="m106.5,84.78c1.6,4.87,2.36,10.14,1.51,15.18-1.02,6.04-3.72,10.26-8.98,13.41-2.78,1.65-6.04,2.28-9.27,2.07-2.02-.12-4.02-.57-5.9-1.3-2.54-.99-4.84-1.91-6.94-3.14h-7.57c-2.09,1.23-4.4,2.15-6.93,3.14,0,0-.02.01-.03.01-4.87,1.89-10.65,1.89-15.14-.78-5.26-3.15-7.97-7.37-8.99-13.41-.85-5.04-.08-10.31,1.52-15.18,1.66-5.06,5.54-10.16,9.39-13.83,3.85-3.68,7.02-5.99,11.59-8.72,3.33-1.97,6.73-3.84,10.18-5.59,1.38-.69,3.02-.69,4.4,0,3.45,1.75,6.84,3.62,10.17,5.59,4.58,2.73,7.74,5.04,11.6,8.72,3.85,3.67,7.72,8.77,9.39,13.83Zm-21,6.78c0-6.83-5.53-12.37-12.36-12.37s-12.37,5.54-12.37,12.37,5.54,12.37,12.37,12.37,12.36-5.54,12.36-12.37Z"/><path class="cls-2" d="m81.2,150.63c.99,7.49,1.39,15.06,1.19,22.62-.04,1.41-.31,3.13-1.63,3.62-1.06.4-2.27-.31-2.83-1.29s-.63-2.15-.69-3.28c-.36-7.09-.72-14.18-1.08-21.27.28,0,.56-.01.84-.02,1.4-.04,2.83-.09,4.2-.38Z"/><path class="cls-2" d="m67.25,151.3c.31,7.39.06,14.81-.77,22.17-.15,1.4-.57,3.09-1.93,3.47-1.09.31-2.24-.5-2.71-1.53-.48-1.02-.45-2.2-.41-3.33l.72-20.64c.41,0,.81-.02,1.22-.03,1.29-.04,2.58-.07,3.88-.11Z"/></g></svg>