<?xml version="1.0" encoding="UTF-8"?><svg id="Layer_2" xmlns="http://www.w3.org/2000/svg" viewBox="0 0 161.09 234.55"><defs><style>.cls-1{fill:#ecede8;}.cls-1,.cls-2{stroke-width:0px;}.cls-2{fill:#1a1a1a;}.cls-3{fill:none;stroke:#000;stroke-linecap:round;stroke-linejoin:round;stroke-width:.5px;}</style></defs><g id="Layer_2-2"><rect class="cls-1" width="161.09" height="234.55" rx="5" ry="5"/><path class="cls-2" d="m141.12,204.46c0,.94.07,1.04.83,1.04h8.31c.43.18.54.68.4,1.15l-11.7,16.7c-.4.58-.68.86-1.19.86h-1.04c-.61,0-.9-.25-.36-.97l10.8-14.97c.32-.47.36-.76-.79-.76h-4.43c-.76,0-.83.11-.83,1.04v5.04c0,.83-.22,1.08-.79,1.3-.94.4-2.88,1.12-3.49,1.12-.32,0-.47-.25-.47-.61v-6.84c0-.94-.07-1.04-.83-1.04h-2.38c-.54-.29-.54-1.69,0-2.02h2.38c.76,0,.83-.11.83-1.04v-1.01c0-2.95-.22-3.28-1.8-3.42l-.76-.07c-.32-.22-.29-1.15.07-1.26,1.3.07,3.2.11,4.86.11,2.38,0,4.54-.04,5.76-.11.36.11.4,1.04.07,1.26l-1.48.11c-1.76.14-1.98.43-1.98,3.38v1.01Z"/><path class="cls-2" d="m138.07,181.2c.43,0,.8-.04,1.12-.11-.51.59-.82,1.36-.82,2.2,0,1.86,1.51,3.37,3.37,3.37s3.37-1.51,3.37-3.37c0-.84-.31-1.61-.82-2.2.32.07.7.11,1.12.11,1.86,0,3.37-1.51,3.37-3.37s-1.51-3.37-3.37-3.37c-1.32,0-2.46.13-3.01.88l.32-1.64c.04-.19-.11-.36-.3-.36h-1.35c-.19,0-.34.18-.3.36l.32,1.64c-.55-.74-1.69-.88-3.01-.88-1.86,0-3.37,1.51-3.37,3.37s1.51,3.37,3.37,3.37Z"/><path class="cls-2" d="m19.97,30.09c0-.94-.07-1.04-.83-1.04h-8.31c-.43-.18-.54-.68-.4-1.15l11.7-16.7c.4-.58.68-.86,1.19-.86h1.04c.61,0,.9.25.36.97l-10.8,14.97c-.32.47-.36.76.79.76h4.43c.76,0,.83-.11.83-1.04v-5.04c0-.83.22-1.08.79-1.3.94-.4,2.88-1.12,3.49-1.12.32,0,.47.25.47.61v6.84c0,.94.07,1.04.83,1.04h2.38c.54.29.54,1.69,0,2.02h-2.38c-.76,0-.83.11-.83,1.04v1.01c0,2.95.22,3.28,1.8,3.42l.76.07c.32.22.29,1.15-.07,1.26-1.3-.07-3.2-.11-4.86-.11-2.38,0-4.54.04-5.76.11-.36-.11-.4-1.04-.07-1.26l1.48-.11c1.76-.14,1.98-.43,1.98-3.38v-1.01Z"/><path class="cls-2" d="m23.02,53.35c-.43,0-.8.04-1.12.11.51-.59.82-1.36.82-2.2,0-1.86-1.51-3.37-3.37-3.37s-3.37,1.51-3.37,3.37c0,.84.31,1.61.82,2.2-.32-.07-.7-.11-1.12-.11-1.86,0-3.37,1.51-3.37,3.37s1.51,3.37,3.37,3.37c1.32,0,2.46-.13,3.01-.88l-.32,1.64c-.04.19.11.36.3.36h1.35c.19,0,.34-.18.3-.36l-.32-1.64c.55.74,1.69.88,3.01.88,1.86,0,3.37-1.51,3.37-3.37s-1.51-3.37-3.37-3.37Z"/><path class="cls-2" d="m119.09,177.47s0,0,0,.02c-.47,1.14-2.18,1.03-2.52-.15-.24-.89-.24-1.91-.22-2.85.12-3.94.12-7.88,0-11.82.6-.05,1.18-.14,1.77-.23.39-.07.79-.15,1.18-.27.29,4.36.34,8.75.14,13.11-.04.75-.07,1.51-.35,2.2Z"/><path class="cls-2" d="m112.55,177.47s0,0,0,.02c-.46,1.14-2.18,1.03-2.51-.15-.25-.89-.25-1.91-.23-2.85.12-3.97.12-7.95,0-11.92.48.09.97.15,1.44.19.51.04,1.03.06,1.54.07.26,4.14.3,8.3.12,12.45-.04.75-.08,1.51-.36,2.2Z"/><path class="cls-2" d="m69.26,159.05c.12,5.47.06,10.94-.18,16.4-.05.98-.2,2.15-1.07,2.6-.86.45-1.97-.12-2.45-.97s-.49-1.87-.5-2.83c0-5.15,0-10.28-.02-15.43.69.03,1.39,0,2.06.04.72.02,1.44.09,2.16.19Z"/><path class="cls-2" d="m74.4,159.66c.98.03,2.01-.06,2.98-.31.14,4.98.3,9.97.44,14.95.05,1.47-.18,3.34-1.59,3.76-1.07.32-2.18-.51-2.61-1.53-.42-1.02-.32-2.18-.23-3.28.39-4.52.58-9.07.55-13.61.14,0,.3.02.45.02Z"/><path class="cls-2" d="m92.54,123.68c.3-.3.62-.58.96-.84,0-.02.03-.03.05-.03.11-.09.23-.18.34-.26.17-.13.34-.24.51-.36.23-.14.46-.29.7-.42.14-.08.28-.15.42-.23.19-.09.38-.18.57-.26,1.44-.63,3.03-.97,4.7-.97,1.19,0,2.27.09,3.22.25.24.04.49.08.71.14-.19-.22-.36-.44-.53-.67-.14-.19-.28-.39-.41-.59-.08-.11-.15-.23-.22-.34-.14-.21-.25-.42-.36-.63-.11-.2-.21-.41-.3-.61-.04-.06-.06-.13-.09-.19-.05-.12-.1-.23-.14-.34-.07-.17-.14-.34-.2-.51-.11-.32-.2-.63-.28-.96-.14-.54-.23-1.11-.29-1.69-.04-.31-.05-.62-.05-.93,0-.08,0-.17,0-.25,0-1.89.44-3.67,1.23-5.24,1.93-3.91,5.96-6.59,10.61-6.59,6.54,0,11.83,5.3,11.83,11.83,0,2.95-1.08,5.64-2.87,7.72,1.14-.25,2.45-.39,3.94-.39,6.54,0,11.83,5.29,11.83,11.83s-5.3,11.83-11.83,11.83c-3.09,0-5.89-.21-8-1.13-1.07-.45-1.94-1.08-2.59-1.95h-4.62c-.7.94-1.68,1.61-2.86,2.07-2.08.81-4.78,1.01-7.73,1.01-6.54,0-11.83-5.3-11.83-11.83,0-.1,0-.2,0-.3,0-.13,0-.25.02-.38,0-.13.02-.25.03-.38.06-.7.18-1.38.35-2.05.06-.21.13-.42.2-.63.3-.9.7-1.76,1.21-2.55.13-.2.26-.4.4-.59,0-.02.02-.04.04-.05.28-.4.59-.78.93-1.13.13-.14.25-.27.39-.4Z"/><path class="cls-2" d="m52.1,98.68c2.09,0,3.92.19,5.52.54-2.5-2.91-4.02-6.69-4.02-10.82,0-1.22.14-2.41.38-3.56.4-1.82,1.1-3.54,2.05-5.09,2.92-4.77,8.17-7.95,14.17-7.95,9.16,0,16.59,7.43,16.59,16.6,0,4.13-1.51,7.92-4.02,10.82,1.6-.35,3.42-.54,5.52-.54,6.45,0,12.05,3.68,14.8,9.06-.79,1.58-1.23,3.36-1.23,5.24,0,.08,0,.17,0,.25-1.94-.7-3.91-1.34-5.89-1.92-.52-.15-1.06-.31-1.6-.27-.55.04-1.11.3-1.35.79-.28.55-.06,1.25.36,1.71.42.46.99.72,1.57.97,2.42,1.02,4.95,1.8,7.52,2.3.06.17.13.34.2.51.04.12.09.23.14.34.03.06.05.13.09.19.09.21.19.42.3.61.11.22.23.42.36.63.06.12.14.23.22.34.13.2.26.4.41.59-.05.18-.11.36-.18.53-.96-.16-2.03-.25-3.22-.25-1.67,0-3.27.34-4.7.97-.19.08-.38.17-.57.26-.14.07-.29.14-.42.23-.24.13-.48.27-.7.42-.17.12-.34.23-.51.36-.12.07-.23.16-.34.26-.02,0-.04,0-.05.03l-4.58-5.42c-.61-.72-1.38-1.51-2.32-1.41-1.09.12-1.69,1.46-1.43,2.54.25,1.07,1.08,1.89,1.88,2.65,1.39,1.34,2.78,2.66,4.17,4-.02.02-.04.04-.04.05-.14.19-.27.39-.4.59-.51.79-.91,1.65-1.21,2.55-.07.21-.14.42-.2.63-.17.67-.29,1.35-.35,2.05,0,.13-.03.25-.03.38,0,.13-.02.25-.02.38-.23,0-.46.02-.69.02-3.63,0-6.98-.21-9.7-1.02-2.17-.65-3.94-1.67-5.15-3.29h-6.49c-.93,1.24-2.18,2.14-3.7,2.78h0c-2.62,1.1-5.99,1.45-9.72,1.52-.47.02-.94.02-1.42.02-1.77,0-3.48-.28-5.08-.79-6.68-2.14-11.52-8.4-11.52-15.8,0-9.16,7.43-16.59,16.6-16.59Z"/><path class="cls-2" d="m42.19,70.31c-.54.73-1.68.87-2.99.87-1.85,0-3.34-1.5-3.34-3.34s1.49-3.35,3.34-3.35c.42,0,.79.05,1.11.12-.51-.59-.81-1.35-.81-2.18,0-1.85,1.5-3.34,3.35-3.34s3.34,1.49,3.34,3.34c0,.83-.31,1.6-.81,2.18.32-.07.7-.12,1.12-.12,1.84,0,3.34,1.5,3.34,3.35s-1.5,3.34-3.34,3.34c-1.31,0-2.45-.14-3-.87l.32,1.62c.02.08,0,.15-.05.22-.31-.03-.61-.04-.92-.04s-.62,0-.93.04c-.05-.06-.06-.14-.05-.22l.32-1.62Z"/><path class="cls-2" d="m42.85,136.57c.31,0,.61,0,.91-.04.05.06.07.14.05.23l-.32,1.62c.55-.74,1.69-.88,3-.88,1.84,0,3.34,1.5,3.34,3.35s-1.5,3.34-3.34,3.34c-.42,0-.79-.04-1.12-.11.51.59.81,1.35.81,2.18,0,1.85-1.5,3.35-3.34,3.35s-3.35-1.5-3.35-3.35c0-.83.31-1.59.81-2.18-.32.07-.69.11-1.11.11-1.85,0-3.34-1.5-3.34-3.34s1.49-3.35,3.34-3.35c1.31,0,2.45.14,2.99.88l-.32-1.62c-.02-.08,0-.16.05-.23.31.03.61.04.92.04Z"/><path class="cls-3" d="m56.03,79.75c2.92-4.77,8.17-7.95,14.17-7.95,9.16,0,16.59,7.43,16.59,16.6,0,4.13-1.51,7.92-4.02,10.82,1.6-.35,3.42-.54,5.52-.54,6.45,0,12.05,3.68,14.8,9.06"/><path class="cls-3" d="m63.24,130.33c-2.62,1.1-5.99,1.45-9.72,1.52"/><path class="cls-3" d="m88.98,131.84c-.23,0-.46.02-.69.02-3.63,0-6.98-.21-9.7-1.02"/><path class="cls-3" d="m91.18,125.26c-.14.19-.27.39-.4.59"/><path class="cls-3" d="m93.88,122.56c-.12.07-.23.16-.34.26"/><path class="cls-3" d="m104.2,120.04c-.05.18-.11.36-.18.53"/><path class="cls-3" d="m91.22,125.21c-1.39-1.34-2.78-2.66-4.17-4-.79-.77-1.62-1.59-1.88-2.65-.26-1.07.33-2.42,1.43-2.54.94-.1,1.71.69,2.32,1.41l4.58,5.42"/><path class="cls-3" d="m92.54,123.68c-.14.12-.26.25-.39.4"/><path class="cls-3" d="m102.49,116.81c-2.57-.51-5.1-1.28-7.52-2.3-.58-.24-1.16-.51-1.57-.97-.42-.46-.64-1.16-.36-1.71.23-.5.79-.76,1.35-.79.54-.04,1.07.12,1.6.27,1.98.59,3.94,1.23,5.89,1.92"/><path class="cls-3" d="m108.52,142.97c-2.08.81-4.78,1.01-7.73,1.01-6.54,0-11.83-5.3-11.83-11.83,0-.1,0-.2,0-.3,0-.13,0-.25.02-.38,0-.13.02-.25.03-.38.06-.7.18-1.38.35-2.05.06-.21.13-.42.2-.63.3-.9.7-1.76,1.21-2.55.13-.2.26-.4.4-.59,0-.02.02-.04.04-.05.28-.4.59-.78.93-1.13.13-.14.25-.27.39-.4.3-.3.62-.58.96-.84,0-.02.03-.03.05-.03.11-.09.23-.18.34-.26.17-.13.34-.24.51-.36.23-.14.46-.29.7-.42.14-.08.28-.15.42-.23.19-.09.38-.18.57-.26,1.44-.63,3.03-.97,4.7-.97,1.19,0,2.27.09,3.22.25.24.04.49.08.71.14-.19-.22-.36-.44-.53-.67-.14-.19-.28-.39-.41-.59-.08-.11-.15-.23-.22-.34-.14-.21-.25-.42-.36-.63-.11-.2-.21-.41-.3-.61-.04-.06-.06-.13-.09-.19-.05-.12-.1-.23-.14-.34-.07-.17-.14-.34-.2-.51-.11-.32-.2-.63-.28-.96-.14-.54-.23-1.11-.29-1.69-.04-.31-.05-.62-.05-.93,0-.08,0-.17,0-.25,0-1.89.44-3.67,1.23-5.24,1.93-3.91,5.96-6.59,10.61-6.59,6.54,0,11.83,5.3,11.83,11.83,0,2.95-1.08,5.64-2.87,7.72,1.14-.25,2.45-.39,3.94-.39,6.54,0,11.83,5.29,11.83,11.83s-5.3,11.83-11.83,11.83c-3.09,0-5.89-.21-8-1.13"/><path class="cls-3" d="m41.92,72.16c-.05-.06-.06-.14-.05-.22l.32-1.62c-.54.73-1.68.87-2.99.87-1.85,0-3.34-1.5-3.34-3.34s1.49-3.35,3.34-3.35c.42,0,.79.05,1.11.12-.51-.59-.81-1.35-.81-2.18,0-1.85,1.5-3.34,3.35-3.34s3.34,1.49,3.34,3.34c0,.83-.31,1.6-.81,2.18.32-.07.7-.12,1.12-.12,1.84,0,3.34,1.5,3.34,3.35s-1.5,3.34-3.34,3.34c-1.31,0-2.45-.14-3-.87l.32,1.62c.02.08,0,.15-.05.22"/><path class="cls-3" d="m43.76,136.54c.05.06.07.14.05.23l-.32,1.62c.55-.74,1.69-.88,3-.88,1.84,0,3.34,1.5,3.34,3.35s-1.5,3.34-3.34,3.34c-.42,0-.79-.04-1.12-.11.51.59.81,1.35.81,2.18,0,1.85-1.5,3.35-3.34,3.35s-3.35-1.5-3.35-3.35c0-.83.31-1.59.81-2.18-.32.07-.69.11-1.11.11-1.85,0-3.34-1.5-3.34-3.34s1.49-3.35,3.34-3.35c1.31,0,2.45.14,2.99.88l-.32-1.62c-.02-.08,0-.16.05-.23"/><path class="cls-3" d="m47.02,131.07c1.6.51,3.31.79,5.08.79.48,0,.95,0,1.42-.02-2.83,2.78-6.16,4.46-9.76,4.69-.3.03-.6.04-.91.04s-.61,0-.92-.04c-10.88-.74-19.26-14.61-19.26-32.19s8.39-31.44,19.25-32.19c.31-.03.62-.04.93-.04s.61,0,.92.04c4.71.32,8.96,3.11,12.26,7.59-.95,1.55-1.65,3.27-2.05,5.09"/><path class="cls-3" d="m53.98,84.84c-.24,1.15-.38,2.34-.38,3.56,0,4.13,1.52,7.92,4.02,10.82-1.6-.35-3.42-.54-5.52-.54-9.17,0-16.6,7.43-16.6,16.59,0,7.4,4.84,13.66,11.52,15.8-1.33.65-2.73.99-4.17.99-8.66,0-15.67-12.4-15.67-27.71s7.01-27.71,15.67-27.71c4.35,0,8.3,3.14,11.13,8.21Z"/><path class="cls-3" d="m78.59,130.84c1.72,6.38,2.88,12.91,3.47,19.49.21,2.33.29,4.87-1.09,6.75-.86,1.18-2.16,1.9-3.58,2.27-.97.24-2,.33-2.98.31-.15,0-.31,0-.45-.02-1.57-.08-3.12-.39-4.69-.59-.71-.1-1.44-.17-2.16-.19-.67-.03-1.37,0-2.06-.04-1.4-.05-2.75-.25-3.71-1.21-1.16-1.16-1.22-2.92-.9-4.59-.84-.12-1.56-.89-1.79-1.74-.27-1.03-.02-2.11.23-3.14,1.45-5.94,2.91-11.87,4.36-17.81h0c1.52-.64,2.77-1.54,3.7-2.78h6.49c1.21,1.62,2.98,2.64,5.15,3.29Z"/><path class="cls-3" d="m60.43,153.02c.17.03.34.03.52,0,1.06-.21,1.6-1.37,1.97-2.38,2.13-5.97,3.86-12.09,5.17-18.29"/><path class="cls-3" d="m65.05,158.83c0,5.15.02,10.28.02,15.43,0,.97.02,1.99.5,2.83s1.59,1.42,2.45.97c.88-.45,1.03-1.62,1.07-2.6.24-5.46.3-10.93.18-16.4"/><path class="cls-3" d="m73.95,159.64c.03,4.54-.16,9.09-.55,13.61-.09,1.1-.19,2.26.23,3.28.42,1.02,1.54,1.84,2.61,1.53,1.41-.42,1.63-2.28,1.59-3.76-.14-4.98-.3-9.97-.44-14.95"/><path class="cls-3" d="m118.6,142.85c1.31,4.31,2.46,8.67,3.44,13.06.36,1.59.66,3.41-.29,4.74-.58.79-1.48,1.24-2.45,1.51-.39.12-.79.2-1.18.27-.59.1-1.17.18-1.77.23-1.18.14-2.37.19-3.56.15-.51,0-1.03-.04-1.54-.07-.48-.04-.97-.1-1.44-.19h0c-1.44-.29-2.83-.88-3.57-2.09-.9-1.47-.59-3.35-.24-5.04l2.55-12.46c1.18-.46,2.16-1.13,2.86-2.07h4.62c.65.87,1.53,1.5,2.59,1.95Z"/><path class="cls-3" d="m112.79,162.82c.26,4.14.3,8.3.12,12.45-.04.75-.08,1.51-.36,2.2t0,.02c-.46,1.14-2.18,1.03-2.51-.15-.25-.89-.25-1.91-.23-2.85.12-3.97.12-7.95,0-11.92"/><path class="cls-3" d="m116.35,162.66c.12,3.94.12,7.88,0,11.82-.03.94-.03,1.96.22,2.85.33,1.18,2.05,1.29,2.52.15,0,0,0,0,0-.02.28-.7.32-1.45.35-2.2.2-4.36.14-8.75-.14-13.11"/></g></svg>