<?xml version="1.0" encoding="UTF-8"?><svg id="Layer_2" xmlns="http://www.w3.org/2000/svg" viewBox="0 0 161.09 234.55"><defs><style>.cls-1{fill:#ecede8;}.cls-1,.cls-2{stroke-width:0px;}.cls-3{fill:none;stroke:#000;stroke-linecap:round;stroke-linejoin:round;stroke-width:.5px;}.cls-2{fill:#8b001b;}</style></defs><g id="Layer_2-2"><rect class="cls-1" width="161.09" height="234.55" rx="5" ry="5"/><path class="cls-2" d="m141.12,204.46c0,.94.07,1.04.83,1.04h8.31c.43.18.54.68.4,1.15l-11.7,16.7c-.4.58-.68.86-1.19.86h-1.04c-.61,0-.9-.25-.36-.97l10.8-14.97c.32-.47.36-.76-.79-.76h-4.43c-.76,0-.83.11-.83,1.04v5.04c0,.83-.22,1.08-.79,1.3-.94.4-2.88,1.12-3.49,1.12-.32,0-.47-.25-.47-.61v-6.84c0-.94-.07-1.04-.83-1.04h-2.38c-.54-.29-.54-1.69,0-2.02h2.38c.76,0,.83-.11.83-1.04v-1.01c0-2.95-.22-3.28-1.8-3.42l-.76-.07c-.32-.22-.29-1.15.07-1.26,1.3.07,3.2.11,4.86.11,2.38,0,4.54-.04,5.76-.11.36.11.4,1.04.07,1.26l-1.48.11c-1.76.14-1.98.43-1.98,3.38v1.01Z"/><polygon class="cls-2" points="141.74 189.28 148.78 180 141.74 170.72 134.7 180 141.74 189.28"/><path class="cls-2" d="m19.97,30.09c0-.94-.07-1.04-.83-1.04h-8.31c-.43-.18-.54-.68-.4-1.15l11.7-16.7c.4-.58.68-.86,1.19-.86h1.04c.61,0,.9.25.36.97l-10.8,14.97c-.32.47-.36.76.79.76h4.43c.76,0,.83-.11.83-1.04v-5.04c0-.83.22-1.08.79-1.3.94-.4,2.88-1.12,3.49-1.12.32,0,.47.25.47.61v6.84c0,.94.07,1.04.83,1.04h2.38c.54.29.54,1.69,0,2.02h-2.38c-.76,0-.83.11-.83,1.04v1.01c0,2.95.22,3.28,1.8,3.42l.76.07c.32.22.29,1.15-.07,1.26-1.3-.07-3.2-.11-4.86-.11-2.38,0-4.54.04-5.76.11-.36-.11-.4-1.04-.07-1.26l1.48-.11c1.76-.14,1.98-.43,1.98-3.38v-1.01Z"/><polygon class="cls-2" points="19.35 45.27 12.31 54.55 19.35 63.84 26.39 54.55 19.35 45.27"/><path class="cls-2" d="m104.54,78.16c.42.73.04,1.71-.64,2.22-.67.51-1.54.65-2.38.75-4.26.49-8.61.2-12.76-.87.69-1.1,1.33-2.31,1.51-3.57,3.97.18,7.95.36,11.92.54.88.04,1.9.17,2.35.93Z"/><path class="cls-2" d="m85.95,83.54c1.27,2.74,1.87,5.8,1.7,8.83-.07,1.08-.26,2.23-1.01,3.01-.75.77-2.22.91-2.83.02-.45-.67-.25-1.57-.1-2.37.53-2.85.13-5.85-1.08-8.49.83.03,1.65-.11,2.41-.46.32-.15.62-.32.9-.54h.01Z"/><polygon class="cls-2" points="81.39 163.84 95.77 182.83 81.36 201.8 66.98 182.81 81.39 163.84"/><polygon class="cls-2" points="100.39 130.99 103.35 154.62 81.39 163.84 78.43 140.21 100.39 130.99"/><polygon class="cls-2" points="105.84 107.81 100.39 130.99 79.53 119.49 84.98 96.31 105.84 107.81"/><path class="cls-2" d="m72.74,61.9c2.15-1.95,2.32-5.27.37-7.42s-5.27-2.31-7.42-.36c-2.14,1.94-2.31,5.26-.36,7.41s5.27,2.31,7.41.37Zm4.79,2.39l.33,4.72-6.12-1.26h-.01l-.71-.15-1.52-.31-1.65-.34-11.07-2.27-1.52-21.46,21.08,4.33.78,11.04.11,1.5.08,1.06.14,1.99.08,1.15Z"/><polyline class="cls-3" points="77.31 61.15 77.23 60.09 77.12 58.59 76.34 47.55 55.26 43.22 56.78 64.68 67.85 66.95"/><path class="cls-3" d="m72.74,61.9c-2.14,1.94-5.46,1.78-7.41-.37s-1.78-5.47.36-7.41c2.15-1.95,5.47-1.79,7.42.36s1.78,5.47-.37,7.42Z"/><polygon class="cls-3" points="84.98 96.31 79.53 119.49 100.39 130.99 105.84 107.81 84.98 96.31"/><polygon class="cls-3" points="100.39 130.99 78.43 140.21 81.39 163.84 103.35 154.62 100.39 130.99"/><polygon class="cls-3" points="81.39 163.84 66.98 182.81 81.36 201.8 95.77 182.83 81.39 163.84"/><path class="cls-3" d="m90.27,76.69c-.18,1.26-.82,2.47-1.51,3.57-.02.04-.05.07-.07.11-.75,1.19-1.6,2.38-2.74,3.17h-.01c-.28.22-.58.39-.9.54-.76.35-1.58.49-2.41.46-1.4-.03-2.82-.53-4-1.32-1.86-1.25-3.2-3.14-4.36-5.07-.94-1.58-1.8-3.22-2.55-4.9-.34-.76-1.34-.94-1.9-.32-1.7,1.86-3.4,3.71-5.09,5.57-.71.78-1.45,1.57-2.41,2.01s-2.2.44-2.96-.3c.45-1.6,1.98-2.6,3.25-3.67,2.84-2.42,4.72-5.91,5.24-9.59l1.65.34,1.52.31.71.15h.01l6.12,1.26-.33-4.72-.08-1.15-.14-1.99c1.73-.55,3.05-2.2,3.82-3.9.91-2,1.35-4.22,2.5-6.09.55-.89,1.55-1.77,2.51-1.37.97.39,1.07,1.73.81,2.74-.49,1.91-1.68,3.57-2.85,5.17-1.16,1.6-2.36,3.25-2.87,5.16-.21.79-.28,1.64-.18,2.45,2.38,1.6,4.59,3.46,6.58,5.53,1.28,1.32,2.53,2.87,2.69,4.71.03.38,0,.76-.05,1.14Z"/><path class="cls-3" d="m90.27,76.69c3.97.18,7.95.36,11.92.54.88.04,1.9.17,2.35.93.42.73.04,1.71-.64,2.22-.67.51-1.54.65-2.38.75-4.26.49-8.61.2-12.76-.87"/><path class="cls-3" d="m85.95,83.54c1.27,2.74,1.87,5.8,1.7,8.83-.07,1.08-.26,2.23-1.01,3.01-.75.77-2.22.91-2.83.02-.45-.67-.25-1.57-.1-2.37.53-2.85.13-5.85-1.08-8.49"/></g></svg>