<?xml version="1.0" encoding="UTF-8"?><svg id="Layer_2" xmlns="http://www.w3.org/2000/svg" viewBox="0 0 161.09 234.55"><defs><style>.cls-1{fill:#ecede8;}.cls-1,.cls-2{stroke-width:0px;}.cls-3{fill:none;stroke:#000;stroke-linecap:round;stroke-linejoin:round;stroke-width:.5px;}.cls-2{fill:#8b001b;}</style></defs><g id="Layer_2-2"><rect class="cls-1" width="161.09" height="234.55" rx="5" ry="5"/><path class="cls-2" d="m141.12,204.46c0,.94.07,1.04.83,1.04h8.31c.43.18.54.68.4,1.15l-11.7,16.7c-.4.58-.68.86-1.19.86h-1.04c-.61,0-.9-.25-.36-.97l10.8-14.97c.32-.47.36-.76-.79-.76h-4.43c-.76,0-.83.11-.83,1.04v5.04c0,.83-.22,1.08-.79,1.3-.94.4-2.88,1.12-3.49,1.12-.32,0-.47-.25-.47-.61v-6.84c0-.94-.07-1.04-.83-1.04h-2.38c-.54-.29-.54-1.69,0-2.02h2.38c.76,0,.83-.11.83-1.04v-1.01c0-2.95-.22-3.28-1.8-3.42l-.76-.07c-.32-.22-.29-1.15.07-1.26,1.3.07,3.2.11,4.86.11,2.38,0,4.54-.04,5.76-.11.36.11.4,1.04.07,1.26l-1.48.11c-1.76.14-1.98.43-1.98,3.38v1.01Z"/><path class="cls-2" d="m134.77,182.86c.2,1.21.74,2.05,1.8,2.68.9.54,2.06.54,3.03.15.51-.2.97-.38,1.39-.63.27-.16.52-.34.76-.58.23.23.49.42.76.58.42.25.88.43,1.39.63.98.38,2.13.38,3.03-.15,1.05-.63,1.59-1.47,1.8-2.68.17-1.01.02-2.06-.3-3.03-.33-1.01-1.11-2.03-1.88-2.77-.77-.74-1.4-1.2-2.32-1.74-.74-.44-1.49-.85-2.25-1.23-.14-.07-.3-.07-.44,0-.77.38-1.52.79-2.25,1.23-.91.55-1.55,1.01-2.32,1.74-.77.74-1.54,1.75-1.88,2.77-.32.97-.47,2.03-.3,3.03Z"/><path class="cls-2" d="m19.97,30.09c0-.94-.07-1.04-.83-1.04h-8.31c-.43-.18-.54-.68-.4-1.15l11.7-16.7c.4-.58.68-.86,1.19-.86h1.04c.61,0,.9.25.36.97l-10.8,14.97c-.32.47-.36.76.79.76h4.43c.76,0,.83-.11.83-1.04v-5.04c0-.83.22-1.08.79-1.3.94-.4,2.88-1.12,3.49-1.12.32,0,.47.25.47.61v6.84c0,.94.07,1.04.83,1.04h2.38c.54.29.54,1.69,0,2.02h-2.38c-.76,0-.83.11-.83,1.04v1.01c0,2.95.22,3.28,1.8,3.42l.76.07c.32.22.29,1.15-.07,1.26-1.3-.07-3.2-.11-4.86-.11-2.38,0-4.54.04-5.76.11-.36-.11-.4-1.04-.07-1.26l1.48-.11c1.76-.14,1.98-.43,1.98-3.38v-1.01Z"/><path class="cls-2" d="m26.32,51.69c-.2-1.21-.74-2.05-1.8-2.68-.9-.54-2.06-.54-3.03-.15-.51.2-.97.38-1.39.63-.27.16-.52.34-.76.58-.23-.23-.49-.42-.76-.58-.42-.25-.88-.43-1.39-.63-.98-.38-2.13-.38-3.03.15-1.05.63-1.59,1.47-1.8,2.68-.17,1.01-.02,2.06.3,3.03.33,1.01,1.11,2.03,1.88,2.77.77.74,1.4,1.2,2.32,1.74.74.44,1.49.85,2.25,1.23.14.07.3.07.44,0,.77-.38,1.52-.79,2.25-1.23.91-.55,1.55-1.01,2.32-1.74.77-.74,1.54-1.75,1.88-2.77.32-.97.47-2.03.3-3.03Z"/><path class="cls-2" d="m139.14,83.03c.43,3.86-.38,7.82-1.8,11.43-1.47,3.76-4.62,7.46-7.7,10.07-2.98,2.55-5.43,4.14-8.84,5.93-.1.05-.2.11-.31.16-.39.21-.79.41-1.19.6-2.5,1.29-5.04,2.46-7.62,3.57-.53.24-1.16.2-1.67-.09-1.35-.77-2.69-1.57-4.01-2.39-1.44-.89-2.85-1.8-4.26-2.75-3.34-2.26-5.64-4.14-8.41-7.09-2.75-2.94-5.47-6.98-6.52-10.88-1-3.75-1.35-7.77-.49-11.56,1.03-4.53,3.26-7.61,7.37-9.76,3.52-1.84,7.9-1.59,11.52.06,1.88.85,3.58,1.65,5.12,2.67.99.66,1.9,1.41,2.74,2.35.94-.83,1.94-1.48,3-2.02,1.64-.85,3.42-1.44,5.38-2.08,3.78-1.23,8.16-.99,11.45,1.23,3.85,2.61,5.72,5.93,6.23,10.54Zm-18.09,17.47c.3-5.17-3.66-9.6-8.83-9.89-5.17-.3-9.6,3.66-9.89,8.83s3.66,9.6,8.83,9.89,9.6-3.66,9.89-8.83Z"/><path class="cls-2" d="m119.92,158.47c.1,1.31.18,2.71-.26,3.83s-1.63,1.75-2.4.89c-.51-.56-.64-1.51-.75-2.37-.64-5.39-1.29-10.86-1.07-16.21h0c1.08-.33,2.11-.75,3.08-1.32.1-.06.2-.12.3-.19.37,5.13.73,10.25,1.1,15.37Z"/><path class="cls-2" d="m110.13,145.37c-.14,4.43-.26,8.86-.4,13.29-.04,1.31-.1,2.72-.65,3.79-.55,1.08-1.79,1.58-2.47.64-.44-.61-.49-1.57-.51-2.44-.1-5.19-.18-10.46.47-15.55.9.19,1.84.25,2.75.27.27,0,.53,0,.81,0Z"/><path class="cls-2" d="m89.94,105.17c.27.61.35,1.3.31,1.96-.04.69-.35,1.46-.72,2.05s-.69.99-1.17,1.48c-.39.4-.8.78-1.21,1.14-.07.06-.18.09-.28.07-.54-.11-1.08-.24-1.61-.4-.66-.19-1.14-.37-1.74-.71-.61-.34-1.26-.85-1.64-1.43-.36-.55-.63-1.2-.69-1.86-.07-.79.13-1.4.69-1.98.47-.48,1.2-.67,1.88-.6.35.05.67.08.97.16.2.05.39.14.57.24.11-.19.24-.34.38-.49.23-.23.48-.42.77-.63.55-.4,1.28-.59,1.93-.4.76.22,1.24.66,1.57,1.38Z"/><path class="cls-2" d="m79.23,105.5c.55.57.75,1.19.68,1.98-.05.66-.33,1.3-.69,1.86-.37.58-1.03,1.1-1.63,1.43-.61.34-1.08.52-1.75.71-.53.15-1.07.29-1.61.4-.1.02-.2,0-.28-.07-.42-.36-.82-.74-1.21-1.14-.48-.49-.8-.89-1.16-1.48s-.68-1.36-.72-2.05c-.05-.66.04-1.35.31-1.96.33-.72.81-1.16,1.57-1.38.66-.19,1.39,0,1.93.4.29.21.54.4.77.63.14.14.27.3.38.49.18-.11.37-.19.57-.24.3-.08.63-.12.97-.16.68-.07,1.4.12,1.88.6Z"/><path class="cls-2" d="m74.77,80.04c.86,3.79.51,7.81-.49,11.56-1.05,3.9-3.77,7.94-6.52,10.88-2.76,2.95-5.06,4.84-8.41,7.09-1.4.94-2.82,1.86-4.26,2.75-1.32.82-2.66,1.62-4.01,2.39-.51.29-1.13.33-1.67.09-2.58-1.11-5.12-2.28-7.62-3.57-.4-.19-.8-.39-1.19-.6-.11-.05-.21-.11-.31-.16-3.42-1.79-5.86-3.39-8.84-5.93-3.08-2.62-6.23-6.31-7.7-10.07-1.42-3.61-2.23-7.57-1.8-11.43.52-4.61,2.38-7.93,6.23-10.54,3.29-2.22,7.67-2.46,11.45-1.23,1.97.64,3.74,1.23,5.38,2.08,1.06.54,2.06,1.19,3,2.02.83-.93,1.75-1.69,2.74-2.35,1.54-1.02,3.24-1.82,5.12-2.67,3.62-1.66,8-1.9,11.52-.06,4.11,2.15,6.34,5.23,7.37,9.76Zm-24.83,29.29c5.17-.29,9.12-4.72,8.83-9.89s-4.72-9.13-9.89-8.83c-5.17.29-9.13,4.72-8.83,9.89.29,5.17,4.72,9.12,9.89,8.83Z"/><path class="cls-2" d="m54.52,145.11c.66,5.08.57,10.36.47,15.55-.02.87-.05,1.83-.51,2.44-.68.93-1.92.43-2.47-.64-.55-1.07-.62-2.47-.65-3.79-.14-4.43-.26-8.86-.4-13.29.27,0,.53,0,.81,0,.92-.02,1.86-.08,2.75-.27Z"/><path class="cls-2" d="m45.66,144.61c.23,5.35-.43,10.82-1.07,16.21-.11.86-.24,1.81-.75,2.37-.77.86-1.96.24-2.4-.89s-.36-2.52-.26-3.83c.36-5.13.72-10.25,1.1-15.37.1.07.2.13.3.19.97.57,2,1,3.08,1.32h0Z"/><path class="cls-3" d="m55.09,112.32c1.44-.89,2.85-1.8,4.26-2.75,3.34-2.26,5.64-4.14,8.41-7.09,2.75-2.94,5.47-6.98,6.52-10.88,1-3.75,1.35-7.77.49-11.56-1.03-4.53-3.26-7.61-7.37-9.76-3.52-1.84-7.9-1.59-11.52.06-1.88.85-3.58,1.65-5.12,2.67-.99.66-1.9,1.41-2.74,2.35-.94-.83-1.94-1.48-3-2.02-1.64-.85-3.42-1.44-5.38-2.08-3.78-1.23-8.16-.99-11.45,1.23-3.85,2.61-5.72,5.93-6.23,10.54-.43,3.86.38,7.82,1.8,11.43,1.47,3.76,4.62,7.46,7.7,10.07,2.98,2.55,5.43,4.14,8.84,5.93"/><path class="cls-3" d="m49.94,109.33c-5.17.29-9.6-3.66-9.89-8.83-.3-5.17,3.66-9.6,8.83-9.89,5.17-.3,9.6,3.66,9.89,8.83s-3.66,9.6-8.83,9.89Z"/><path class="cls-3" d="m79.22,109.33c-.37.58-1.03,1.1-1.63,1.43-.61.34-1.08.52-1.75.71-.53.15-1.07.29-1.61.4-.1.02-.2,0-.28-.07-.42-.36-.82-.74-1.21-1.14-.48-.49-.8-.89-1.16-1.48s-.68-1.36-.72-2.05c-.05-.66.04-1.35.31-1.96.33-.72.81-1.16,1.57-1.38.66-.19,1.39,0,1.93.4.29.21.54.4.77.63.14.14.27.3.38.49.18-.11.37-.19.57-.24.3-.08.63-.12.97-.16.68-.07,1.4.12,1.88.6.55.57.75,1.19.68,1.98-.05.66-.33,1.3-.69,1.86Z"/><path class="cls-3" d="m72.46,116.99c.5.08.98.21,1.43.43,1.18.56,2.11,1.92,1.69,3.16-.31.88-1.21,1.45-2.14,1.59-.81.14-1.62,0-2.41-.18-.13-.02-.24-.05-.36-.07-4.58-1.06-9.04-2.63-13.27-4.67,1.9,6.42,3.42,13.08,2.94,19.76-.17,2.4-.71,4.96-2.51,6.56-.92.82-2.07,1.29-3.3,1.54-.9.19-1.84.25-2.75.27-.27,0-.53,0-.81,0-1.79-.03-3.6-.25-5.3-.76h0c-1.08-.33-2.11-.75-3.08-1.32-.1-.06-.2-.12-.3-.19-2.29-1.42-3.61-3.4-4.67-5.84-1.64,1.28-4.06-.29-3.69-2.36,1.48-8.28,3.9-16.36,6.39-24.42.1.05.2.11.31.16.39.21.79.41,1.19.6,2.5,1.29,5.04,2.46,7.62,3.57.53.24,1.16.2,1.67-.09,1.35-.77,2.69-1.57,4.01-2.39,4.49,2.74,9.69,4.3,14.94,4.5.81.04,1.63.04,2.43.16Z"/><path class="cls-3" d="m37.6,137.25s.04-.03.05-.05c.02,0,.03-.02.04-.03,1.22-1.06,1.63-2.75,1.98-4.32,1.02-4.76,2.06-9.5,3.09-14.26"/><path class="cls-3" d="m50.96,145.37c.14,4.43.26,8.86.4,13.29.04,1.31.1,2.72.65,3.79.55,1.08,1.79,1.58,2.47.64.45-.61.49-1.57.51-2.44.1-5.19.19-10.46-.47-15.55"/><path class="cls-3" d="m42.27,143.1c-.37,5.13-.73,10.25-1.1,15.37-.1,1.31-.18,2.71.26,3.83s1.63,1.75,2.4.89c.51-.56.64-1.51.75-2.37.64-5.39,1.3-10.86,1.07-16.21"/><line class="cls-3" x1="71.03" y1="121.99" x2="70.2" y2="124.91"/><line class="cls-3" x1="73.95" y1="111.8" x2="72.46" y2="116.99"/><path class="cls-3" d="m120.8,110.47c3.42-1.79,5.86-3.39,8.84-5.93,3.08-2.62,6.23-6.31,7.7-10.07,1.42-3.61,2.23-7.57,1.8-11.43-.52-4.61-2.38-7.93-6.23-10.54-3.29-2.22-7.67-2.46-11.45-1.23-1.97.64-3.74,1.23-5.38,2.08-1.06.54-2.06,1.19-3,2.02-.83-.93-1.75-1.69-2.74-2.35-1.54-1.02-3.24-1.82-5.12-2.67-3.62-1.66-8-1.9-11.52-.06-4.11,2.15-6.34,5.23-7.37,9.76-.86,3.79-.51,7.81.49,11.56,1.05,3.9,3.77,7.94,6.52,10.88,2.76,2.95,5.06,4.84,8.41,7.09,1.4.94,2.82,1.86,4.26,2.75"/><path class="cls-3" d="m111.16,109.33c5.17.29,9.6-3.66,9.89-8.83.3-5.17-3.66-9.6-8.83-9.89-5.17-.3-9.6,3.66-9.89,8.83s3.66,9.6,8.83,9.89Z"/><path class="cls-3" d="m81.87,109.33c.38.58,1.03,1.1,1.64,1.43.6.34,1.08.52,1.74.71.53.15,1.07.29,1.61.4.1.02.21,0,.28-.07.42-.36.82-.74,1.21-1.14.48-.49.81-.89,1.17-1.48s.68-1.36.72-2.05c.05-.66-.04-1.35-.31-1.96-.33-.72-.81-1.16-1.57-1.38-.65-.19-1.38,0-1.93.4-.29.21-.54.4-.77.63-.14.14-.27.3-.38.49-.18-.11-.37-.19-.57-.24-.3-.08-.62-.12-.97-.16-.68-.07-1.4.12-1.88.6-.56.57-.76,1.19-.69,1.98.06.66.33,1.3.69,1.86Z"/><path class="cls-3" d="m88.63,116.99c-.5.08-.98.21-1.43.43-1.18.56-2.11,1.92-1.69,3.16.31.88,1.21,1.45,2.14,1.59.81.14,1.62,0,2.41-.18.13-.02.24-.05.36-.07,4.58-1.06,9.04-2.63,13.27-4.67-1.9,6.42-3.42,13.08-2.94,19.76.17,2.4.71,4.96,2.51,6.56.92.82,2.07,1.29,3.3,1.54.9.19,1.84.25,2.75.27.27,0,.53,0,.81,0,1.79-.03,3.6-.25,5.3-.76h0c1.08-.33,2.11-.75,3.08-1.32.1-.06.2-.12.3-.19,2.29-1.42,3.61-3.4,4.67-5.84,1.64,1.28,4.06-.29,3.69-2.36-1.48-8.28-3.9-16.36-6.39-24.42-.1.05-.2.11-.31.16-.39.21-.79.41-1.19.6-2.5,1.29-5.04,2.46-7.62,3.57-.53.24-1.16.2-1.67-.09-1.35-.77-2.69-1.57-4.01-2.39-4.49,2.74-9.69,4.3-14.94,4.5-.81.04-1.63.04-2.43.16Z"/><path class="cls-3" d="m118.34,118.6c1.03,4.76,2.07,9.5,3.09,14.26.34,1.58.75,3.26,1.98,4.32,0,0,.02.02.04.03.02.02.04.03.05.05"/><path class="cls-3" d="m110.13,145.37c-.14,4.43-.26,8.86-.4,13.29-.04,1.31-.1,2.72-.65,3.79-.55,1.08-1.79,1.58-2.47.64-.44-.61-.49-1.57-.51-2.44-.1-5.19-.18-10.46.47-15.55"/><path class="cls-3" d="m118.82,143.1c.37,5.13.73,10.25,1.1,15.37.1,1.31.18,2.71-.26,3.83s-1.63,1.75-2.4.89c-.51-.56-.64-1.51-.75-2.37-.64-5.39-1.29-10.86-1.07-16.21"/><line class="cls-3" x1="90.9" y1="124.91" x2="90.06" y2="121.99"/><line class="cls-3" x1="88.63" y1="116.99" x2="87.15" y2="111.8"/></g></svg>