<?xml version="1.0" encoding="UTF-8"?><svg id="Layer_2" xmlns="http://www.w3.org/2000/svg" viewBox="0 0 161.09 234.55"><defs><style>.cls-1{fill:#ecede8;}.cls-1,.cls-2{stroke-width:0px;}.cls-2{fill:#1a1a1a;}.cls-3{fill:none;stroke:#000;stroke-linecap:round;stroke-linejoin:round;stroke-width:.5px;}</style></defs><g id="Layer_2-2"><rect class="cls-1" width="161.09" height="234.55" rx="5" ry="5"/><path class="cls-2" d="m141.12,204.46c0,.94.07,1.04.83,1.04h8.31c.43.18.54.68.4,1.15l-11.7,16.7c-.4.58-.68.86-1.19.86h-1.04c-.61,0-.9-.25-.36-.97l10.8-14.97c.32-.47.36-.76-.79-.76h-4.43c-.76,0-.83.11-.83,1.04v5.04c0,.83-.22,1.08-.79,1.3-.94.4-2.88,1.12-3.49,1.12-.32,0-.47-.25-.47-.61v-6.84c0-.94-.07-1.04-.83-1.04h-2.38c-.54-.29-.54-1.69,0-2.02h2.38c.76,0,.83-.11.83-1.04v-1.01c0-2.95-.22-3.28-1.8-3.42l-.76-.07c-.32-.22-.29-1.15.07-1.26,1.3.07,3.2.11,4.86.11,2.38,0,4.54-.04,5.76-.11.36.11.4,1.04.07,1.26l-1.48.11c-1.76.14-1.98.43-1.98,3.38v1.01Z"/><path class="cls-2" d="m135.07,180.94c.33,1.01,1.11,2.03,1.88,2.77.77.74,1.4,1.2,2.32,1.74.66.4,1.34.77,2.03,1.12.28.14.6.14.88,0,.69-.35,1.37-.72,2.03-1.12.91-.54,1.55-1.01,2.32-1.74.77-.74,1.55-1.75,1.88-2.77.32-.97.47-2.03.3-3.03-.2-1.21-.74-2.05-1.8-2.68-.9-.54-2.06-.54-3.03-.15-.51.2-.97.38-1.39.63l.38-1.94c.04-.22-.12-.42-.35-.42h-1.57c-.22,0-.39.2-.35.42l.38,1.94c-.42-.25-.88-.43-1.39-.63-.98-.38-2.13-.38-3.03.15-1.05.63-1.59,1.47-1.8,2.68-.17,1.01-.02,2.06.3,3.03Z"/><path class="cls-2" d="m19.97,30.09c0-.94-.07-1.04-.83-1.04h-8.31c-.43-.18-.54-.68-.4-1.15l11.7-16.7c.4-.58.68-.86,1.19-.86h1.04c.61,0,.9.25.36.97l-10.8,14.97c-.32.47-.36.76.79.76h4.43c.76,0,.83-.11.83-1.04v-5.04c0-.83.22-1.08.79-1.3.94-.4,2.88-1.12,3.49-1.12.32,0,.47.25.47.61v6.84c0,.94.07,1.04.83,1.04h2.38c.54.29.54,1.69,0,2.02h-2.38c-.76,0-.83.11-.83,1.04v1.01c0,2.95.22,3.28,1.8,3.42l.76.07c.32.22.29,1.15-.07,1.26-1.3-.07-3.2-.11-4.86-.11-2.38,0-4.54.04-5.76.11-.36-.11-.4-1.04-.07-1.26l1.48-.11c1.76-.14,1.98-.43,1.98-3.38v-1.01Z"/><path class="cls-2" d="m26.02,53.62c-.33-1.01-1.11-2.03-1.88-2.77-.77-.74-1.4-1.2-2.32-1.74-.66-.4-1.34-.77-2.03-1.12-.28-.14-.6-.14-.88,0-.69.35-1.37.72-2.03,1.12-.91.54-1.55,1.01-2.32,1.74-.77.74-1.55,1.75-1.88,2.77-.32.97-.47,2.03-.3,3.03.2,1.21.74,2.05,1.8,2.68.9.54,2.06.54,3.03.15.51-.2.97-.38,1.39-.63l-.38,1.94c-.04.22.12.42.35.42h1.57c.22,0,.39-.2.35-.42l-.38-1.94c.42.25.88.43,1.39.63.98.38,2.13.38,3.03-.15,1.05-.63,1.59-1.47,1.8-2.68.17-1.01.02-2.06-.3-3.03Z"/><path class="cls-3" d="m51.48,125.88c.8.34,1.64.67,2.51,1.01,4.01,1.56,8.74,1.57,12.44-.63,4.31-2.58,6.53-6.04,7.36-10.99.7-4.14.07-8.45-1.24-12.44-1.37-4.15-4.54-8.33-7.7-11.34-3.16-3.02-5.75-4.91-9.5-7.14-2.73-1.62-5.51-3.15-8.34-4.58-1.13-.58-2.47-.58-3.61,0-2.83,1.43-5.61,2.96-8.34,4.58-3.75,2.23-6.35,4.12-9.5,7.14-3.16,3.01-6.34,7.19-7.7,11.34-1.31,3.99-1.94,8.3-1.24,12.44.83,4.95,3.05,8.41,7.36,10.99,3.54,2.11,8.06,2.19,11.96.81h0l.48-.18c2.08-.81,3.96-1.56,5.68-2.57h6.21c.99.59,2.05,1.09,3.17,1.56Z"/><path class="cls-3" d="m55.34,108.39c0,5.59-4.54,10.13-10.14,10.13s-10.13-4.54-10.13-10.13,4.54-10.14,10.13-10.14,10.14,4.54,10.14,10.14Z"/><path class="cls-3" d="m59.34,130.97c.31-.23.68-.37,1.12-.45.68-.11,1.39-.01,2.05.21.68.23,1.37.75,1.87,1.27s.81.95,1.18,1.57c.27.45.52.91.75,1.38.1.18.1.4,0,.59-.23.47-.48.93-.75,1.38-.37.62-.68,1.04-1.18,1.57-.5.52-1.19,1.04-1.87,1.27-.66.21-1.37.32-2.05.2-.4-.07-.74-.19-1.04-.38"/><path class="cls-3" d="m51.48,125.88c2.59,8.23,5.01,16.59,5.16,25.2.02,1.13-.03,2.33-.67,3.25-.64.91-1.74,1.37-2.8,1.71-.79.25-1.59.47-2.39.66"/><path class="cls-3" d="m32.31,153.23s-.01-.03-.02-.04c-.66-1.48-.39-3.19-.11-4.78,1.25-7.11,2.5-14.22,3.76-21.34"/><path class="cls-3" d="m59.42,139.58l-.58.55c1.58,3.42,3.19,6.94,3.52,10.7s-.86,7.88-3.93,10.09c-1.69,1.21-3.78,1.74-5.83,2.06-3.83.6-7.72.57-11.59.54-3.41-.03-6.95-.09-9.98-1.64-2.57-1.32-4.62-3.79-5.06-6.64-.21-1.38.12-3.06,1.38-3.64,1.39-.65,2.94.37,4.23,1.2.24.15.48.3.73.43,5.46,3.16,12.07,3.49,18.47,3.47.67,0,1.33,0,1.99-.02,1.29-.01,2.69-.06,3.69-.88,1.59-1.29,1.35-3.74.97-5.75-.7-3.74-1.41-7.48-2.11-11.22-.26-1.37-.52-2.76-.35-4.15.18-1.38.86-2.77,2.07-3.46.69-.38,1.55-.47,2.3-.25-.27.18-.5.44-.7.77-.36.61-.36,1.39-.1,2.05.13.35.26.66.42.94l-1.31-.25c-.15-.03-.29.08-.29.23v1.06c0,.16.14.27.29.24l1.31-.26c-.16.29-.29.6-.42.94-.26.66-.26,1.45.1,2.05.22.37.48.64.78.84Z"/><path class="cls-3" d="m40.79,130.15c-.36,6.87-.7,13.87,1.12,20.5.28,1.02.58,2.21-.08,3.04-.76.94-2.38.67-3.2-.23-.81-.9-1.02-2.18-1.18-3.39-.61-4.89-.76-9.83-.92-14.76"/><path class="cls-3" d="m125.16,127.07c3.9,1.38,8.42,1.3,11.96-.81,4.31-2.58,6.53-6.04,7.36-10.99.7-4.14.07-8.45-1.24-12.44-1.36-4.15-4.54-8.33-7.7-11.34-3.15-3.02-5.75-4.91-9.5-7.14-2.73-1.62-5.51-3.15-8.34-4.58-1.14-.58-2.48-.58-3.61,0-2.83,1.43-5.61,2.96-8.34,4.58-3.75,2.23-6.34,4.12-9.5,7.14-3.16,3.01-6.33,7.19-7.7,11.34-1.31,3.99-1.94,8.3-1.24,12.44.83,4.95,3.05,8.41,7.36,10.99,3.7,2.2,8.43,2.19,12.44.63.87-.34,1.71-.67,2.51-1.01,1.12-.47,2.18-.97,3.17-1.56h6.21c1.72,1.01,3.6,1.76,5.68,2.57.16.06.32.12.48.17h0Z"/><path class="cls-3" d="m105.76,108.39c0,5.59,4.54,10.13,10.14,10.13s10.13-4.54,10.13-10.13-4.54-10.14-10.13-10.14-10.14,4.54-10.14,10.14Z"/><path class="cls-3" d="m101.76,130.97c-.31-.23-.68-.37-1.12-.45-.68-.11-1.39-.01-2.05.21-.68.23-1.37.75-1.87,1.27s-.81.95-1.18,1.57c-.27.45-.52.91-.75,1.38-.1.18-.1.4,0,.59.23.47.48.93.75,1.38.37.62.68,1.04,1.18,1.57.5.52,1.19,1.04,1.87,1.27.66.21,1.37.32,2.05.2.4-.07.74-.19,1.04-.38"/><path class="cls-3" d="m110.32,156.7c-.8-.19-1.6-.41-2.39-.66-1.06-.34-2.16-.8-2.8-1.71-.64-.92-.69-2.12-.67-3.25.15-8.61,2.57-16.97,5.16-25.2"/><path class="cls-3" d="m125.16,127.07c1.26,7.12,2.51,14.23,3.76,21.34.28,1.59.55,3.3-.11,4.78-.01,0-.01.03-.02.04"/><path class="cls-3" d="m101.68,139.58l.58.55c-1.58,3.42-3.19,6.94-3.52,10.7s.86,7.88,3.93,10.09c1.69,1.21,3.78,1.74,5.83,2.06,3.83.6,7.72.57,11.59.54,3.41-.03,6.95-.09,9.98-1.64,2.57-1.32,4.62-3.79,5.06-6.64.21-1.38-.12-3.06-1.38-3.64-1.39-.65-2.94.37-4.23,1.2-.24.15-.48.3-.73.43-5.46,3.16-12.07,3.49-18.47,3.47-.67,0-1.33,0-1.99-.02-1.29-.01-2.69-.06-3.69-.88-1.59-1.29-1.35-3.74-.97-5.75.7-3.74,1.41-7.48,2.11-11.22.26-1.37.52-2.76.35-4.15-.18-1.38-.86-2.77-2.07-3.46-.69-.38-1.55-.47-2.3-.25.27.18.5.44.7.77.36.61.36,1.39.1,2.05-.13.35-.26.66-.42.94l1.31-.25c.15-.03.29.08.29.23v1.06c0,.16-.14.27-.29.24l-1.31-.26c.16.29.29.6.42.94.26.66.26,1.45-.1,2.05-.22.37-.48.64-.78.84Z"/><path class="cls-3" d="m120.31,130.15c.36,6.87.7,13.87-1.12,20.5-.28,1.02-.58,2.21.08,3.04.76.94,2.38.67,3.2-.23.81-.9,1.02-2.18,1.17-3.39.62-4.89.77-9.83.93-14.76"/><path class="cls-2" d="m143.24,102.83c1.31,3.99,1.94,8.3,1.24,12.44-.83,4.95-3.05,8.41-7.36,10.99-3.54,2.11-8.06,2.19-11.96.81h0l-.48-.18c-2.08-.81-3.96-1.56-5.68-2.57h-6.21c-.99.59-2.05,1.09-3.17,1.56-.8.34-1.64.67-2.51,1.01-4.01,1.56-8.74,1.57-12.44-.63-4.31-2.58-6.53-6.04-7.36-10.99-.7-4.14-.07-8.45,1.24-12.44,1.37-4.15,4.54-8.33,7.7-11.34,3.16-3.02,5.75-4.91,9.5-7.14,2.73-1.62,5.51-3.15,8.34-4.58,1.13-.58,2.47-.58,3.61,0,2.83,1.43,5.61,2.96,8.34,4.58,3.75,2.23,6.35,4.12,9.5,7.14,3.16,3.01,6.34,7.19,7.7,11.34Zm-17.21,5.56c0-5.6-4.54-10.14-10.13-10.14s-10.14,4.54-10.14,10.14,4.54,10.13,10.14,10.13,10.13-4.54,10.13-10.13Z"/><path class="cls-2" d="m103.74,134.71v1.06c0,.16-.14.27-.29.24l-1.31-.26c.16.29.29.6.42.94.26.66.26,1.45-.1,2.05-.22.37-.48.64-.78.84-.3.19-.64.31-1.04.38-.68.12-1.39.01-2.05-.2-.68-.23-1.37-.75-1.87-1.27-.5-.53-.81-.95-1.18-1.57-.27-.45-.52-.91-.75-1.38-.1-.19-.1-.41,0-.59.23-.47.48-.93.75-1.38.37-.62.68-1.05,1.18-1.57s1.19-1.04,1.87-1.27c.66-.22,1.37-.32,2.05-.21.44.08.81.22,1.12.45.27.18.5.44.7.77.36.61.36,1.39.1,2.05-.13.35-.26.66-.42.94l1.31-.25c.15-.03.29.08.29.23Z"/><path class="cls-2" d="m72.55,102.83c1.31,3.99,1.94,8.3,1.24,12.44-.83,4.95-3.05,8.41-7.36,10.99-3.7,2.2-8.43,2.19-12.44.63-.87-.34-1.71-.67-2.51-1.01-1.12-.47-2.18-.97-3.17-1.56h-6.21c-1.72,1.01-3.6,1.76-5.68,2.57-.16.06-.32.12-.48.17h0c-3.9,1.39-8.42,1.31-11.96-.8-4.31-2.58-6.53-6.04-7.36-10.99-.7-4.14-.07-8.45,1.24-12.44,1.36-4.15,4.54-8.33,7.7-11.34,3.15-3.02,5.75-4.91,9.5-7.14,2.73-1.62,5.51-3.15,8.34-4.58,1.14-.58,2.48-.58,3.61,0,2.83,1.43,5.61,2.96,8.34,4.58,3.75,2.23,6.34,4.12,9.5,7.14,3.16,3.01,6.33,7.19,7.7,11.34Zm-17.21,5.56c0-5.6-4.54-10.14-10.14-10.14s-10.13,4.54-10.13,10.14,4.54,10.13,10.13,10.13,10.14-4.54,10.14-10.13Z"/><path class="cls-2" d="m66.31,134.95c.1.18.1.4,0,.59-.23.47-.48.93-.75,1.38-.37.62-.68,1.04-1.18,1.57-.5.52-1.19,1.04-1.87,1.27-.66.21-1.37.32-2.05.2-.4-.07-.74-.19-1.04-.38-.3-.2-.56-.47-.78-.84-.36-.6-.36-1.39-.1-2.05.13-.34.26-.65.42-.94l-1.31.26c-.15.03-.29-.08-.29-.24v-1.06c0-.15.14-.26.29-.23l1.31.25c-.16-.28-.29-.59-.42-.94-.26-.66-.26-1.44.1-2.05.2-.33.43-.59.7-.77.31-.23.68-.37,1.12-.45.68-.11,1.39-.01,2.05.21.68.23,1.37.75,1.87,1.27s.81.95,1.18,1.57c.27.45.52.91.75,1.38Z"/></g></svg>