<?xml version="1.0" encoding="UTF-8"?><svg id="Layer_2" xmlns="http://www.w3.org/2000/svg" viewBox="0 0 161.09 234.55"><defs><style>.cls-1{fill:#ecede8;}.cls-1,.cls-2{stroke-width:0px;}.cls-2{fill:#1a1a1a;}.cls-3{fill:none;stroke:#000;stroke-linecap:round;stroke-linejoin:round;stroke-width:.5px;}</style></defs><g id="Layer_2-2"><rect class="cls-1" width="161.09" height="234.55" rx="5" ry="5"/><path class="cls-2" d="m135.62,222.35c-.29,0-.4-.18-.4-.43.32-1.37,1.08-2.84,1.98-3.71l8.13-.9c.5-.07.68-.43.83-1.04l.22-.83c.22-.83-.25-.97-.97-1.04-1.91-.22-5.26-.72-7.34-1.76-2.02-1.01-3.82-3.02-3.82-6.01,0-3.74,2.2-6.16,5.18-7.77,2.99-1.62,6.73-2.3,9.75-2.38.54.25.68,1.37.22,1.69-2.59.11-5.51.61-7.2,1.62-2.12,1.26-3.35,2.92-3.35,4.86,0,5.15,5.4,5.69,9,5.98,1.15.07,1.3.4,1.08,1.22l-2.16,8.28c-.25.94-.47.94-1.62,1.08l-9.54,1.15Z"/><path class="cls-2" d="m138.29,181.2c.43,0,.8-.04,1.12-.11-.51.59-.82,1.36-.82,2.2,0,1.86,1.51,3.37,3.37,3.37s3.37-1.51,3.37-3.37c0-.84-.31-1.61-.82-2.2.32.07.7.11,1.12.11,1.86,0,3.37-1.51,3.37-3.37s-1.51-3.37-3.37-3.37c-1.32,0-2.46.13-3.01.88l.32-1.64c.04-.19-.11-.36-.3-.36h-1.35c-.19,0-.34.18-.3.36l.32,1.64c-.55-.74-1.69-.88-3.01-.88-1.86,0-3.37,1.51-3.37,3.37s1.51,3.37,3.37,3.37Z"/><path class="cls-2" d="m25.48,12.2c.29,0,.4.18.4.43-.32,1.37-1.08,2.84-1.98,3.71l-8.13.9c-.5.07-.68.43-.83,1.04l-.22.83c-.22.83.25.97.97,1.04,1.91.22,5.26.72,7.34,1.76,2.02,1.01,3.82,3.02,3.82,6.01,0,3.74-2.2,6.16-5.18,7.77-2.99,1.62-6.73,2.3-9.75,2.38-.54-.25-.68-1.37-.22-1.69,2.59-.11,5.51-.61,7.2-1.62,2.12-1.26,3.35-2.92,3.35-4.86,0-5.15-5.4-5.69-9-5.98-1.15-.07-1.3-.4-1.08-1.22l2.16-8.28c.25-.94.47-.94,1.62-1.08l9.54-1.15Z"/><path class="cls-2" d="m22.8,53.35c-.43,0-.8.04-1.12.11.51-.59.82-1.36.82-2.2,0-1.86-1.51-3.37-3.37-3.37s-3.37,1.51-3.37,3.37c0,.84.31,1.61.82,2.2-.32-.07-.7-.11-1.12-.11-1.86,0-3.37,1.51-3.37,3.37s1.51,3.37,3.37,3.37c1.32,0,2.46-.13,3.01-.88l-.32,1.64c-.04.19.11.36.3.36h1.35c.19,0,.34-.18.3-.36l-.32-1.64c.55.74,1.69.88,3.01.88,1.86,0,3.37-1.51,3.37-3.37s-1.51-3.37-3.37-3.37Z"/><path class="cls-2" d="m58.89,104.32c2.3-5.28,6.81-9.2,11.73-12.31.26.59.51,1.17.77,1.76.22.52.45,1.04.71,1.54-1.54,1.01-2.93,2.28-4.18,3.64-2.09,2.3-3.84,4.88-5.74,7.34-.36.45-.72.91-1.21,1.22-.49.3-1.12.43-1.64.19-.57-.26-.89-.92-.9-1.56-.02-.63.21-1.24.46-1.82Z"/><path class="cls-2" d="m66.92,83.57c.63,1.44,1.27,2.89,1.9,4.33-2.33-.17-4.67-.27-6.98.05-2.78.39-5.55,1.45-7.52,3.45-.65.65-1.22,1.41-2.05,1.81s-2.02.25-2.4-.59c-.38-.85.28-1.8.95-2.46,1.54-1.52,3.35-2.74,5.16-3.93,1.34-.89,2.71-1.77,4.23-2.3,2.16-.75,4.43-.73,6.7-.38,0,.01.01.01.01.02Z"/><path class="cls-2" d="m73.51,71.94c.1.19.01.42-.19.49l-1.41.48c-.2.07-.41-.06-.44-.27l-.25-1.82c-.31.97-1.45,1.52-2.82,1.99-1.94.66-4.04-.37-4.7-2.31-.67-1.93.36-4.03,2.3-4.7.44-.15.84-.24,1.2-.28-.73-.43-1.33-1.12-1.63-2-.66-1.93.37-4.04,2.31-4.7,1.93-.66,4.04.37,4.7,2.3.3.88.25,1.79-.07,2.58.32-.19.69-.36,1.13-.51,1.94-.67,4.04.37,4.7,2.3.33.96.24,1.96-.17,2.81-.41.86-1.16,1.56-2.13,1.89-.79.27-1.54.48-2.19.48-.48.02-.9-.07-1.26-.32l.92,1.59Z"/><path class="cls-2" d="m98.06,75.05c2.62,4.3,8.22,5.67,12.53,3.05,4.3-2.62,5.66-8.22,3.05-12.52-2.62-4.31-8.23-5.67-12.53-3.05-4.3,2.61-5.67,8.22-3.05,12.52Zm37.8-23c4.14,6.8,1.98,15.67-4.82,19.81-3.07,1.87-6.56,2.45-9.85,1.9.98,1.03,1.95,2.3,2.9,3.86,4.13,6.8,1.98,15.66-4.82,19.8-6.81,4.14-15.67,1.98-19.81-4.82-1.15-1.89-2.17-3.73-2.88-5.49-.41-1.01-.73-1.99-.92-2.94-.32-1.61-.27-3.14.3-4.54l-2.93-4.82c-1.7-.16-3.23-.97-4.66-2.22-.9-.8-1.76-1.77-2.59-2.87-.91-1.2-1.79-2.55-2.66-3.98-4.14-6.8-1.98-15.66,4.82-19.8s15.67-1.98,19.81,4.82c.94,1.55,1.63,3,2.08,4.34,1.03-3.17,3.15-6,6.22-7.87,6.8-4.14,15.67-1.98,19.81,4.82Z"/><path class="cls-2" d="m91.73,119.11l1.67-.75c-1.01-.03-1.86-.97-2.69-2.16-1.18-1.67-.77-3.98.9-5.15,1.67-1.18,3.98-.78,5.16.9.27.38.47.74.61,1.07.2-.83.7-1.59,1.46-2.12,1.67-1.18,3.98-.77,5.16.9,1.17,1.67.77,3.98-.9,5.16-.76.53-1.64.74-2.5.65.27.25.54.56.81.94,1.18,1.68.77,3.98-.9,5.16s-3.98.77-5.16-.9c-.83-1.19-1.43-2.3-1.11-3.26l-1.28,1.32c-.14.15-.39.13-.51-.04l-.86-1.22c-.12-.17-.05-.42.14-.5Z"/><path class="cls-2" d="m84.27,151.61l.95-1.15c.13-.16.38-.16.52,0l1.17,1.41c-.25-.99.43-2.05,1.35-3.18,1.29-1.58,3.63-1.81,5.21-.52,1.58,1.3,1.82,3.63.52,5.21-.3.36-.59.65-.87.88.85-.02,1.72.25,2.43.84,1.59,1.29,1.82,3.62.52,5.21-1.29,1.58-3.62,1.81-5.21.52-.71-.59-1.15-1.37-1.3-2.22h-.01c-.15.33-.38.66-.67,1.02-1.18,1.45-3.22,1.77-4.76.83-.16-.09-.31-.19-.45-.31-.95-.77-1.41-1.9-1.35-3.03h0c.03-.78.3-1.54.83-2.18.91-1.12,1.82-2,2.84-1.95l-1.61-.87c-.19-.1-.24-.34-.11-.51Z"/><path class="cls-2" d="m50,165.96c4.23,2.73,9.88,1.52,12.61-2.71s1.52-9.87-2.71-12.6-9.87-1.52-12.6,2.71c-2.74,4.23-1.52,9.87,2.7,12.6Zm23.51-31.54c6.69,4.33,8.61,13.25,4.29,19.93-.91,1.41-1.83,2.73-2.77,3.9-.86,1.08-1.75,2.03-2.67,2.8-1.46,1.22-3.01,1.99-4.71,2.1l-3.07,4.74c.53,1.42.54,2.94.18,4.54-.21.95-.56,1.93-1,2.93-.77,1.73-1.83,3.53-3.03,5.39-4.32,6.69-13.24,8.61-19.93,4.29-6.68-4.32-8.6-13.24-4.28-19.93.99-1.53,1.99-2.77,3-3.77-3.3.46-6.77-.22-9.79-2.17-6.69-4.32-8.6-13.25-4.28-19.93,4.32-6.69,13.24-8.61,19.93-4.29,3.02,1.95,5.06,4.84,6,8.04.49-1.33,1.22-2.76,2.21-4.28,4.32-6.69,13.24-8.61,19.92-4.29Z"/><path class="cls-2" d="m109.42,179.64c.65.67,1.29,1.64.88,2.48-.4.83-1.6.95-2.41.53-.82-.42-1.37-1.2-2-1.87-1.91-2.05-4.66-3.18-7.43-3.65-2.29-.38-4.64-.35-6.97-.24.67-1.43,1.34-2.85,2.01-4.28,0,0,.01,0,.01-.02,2.28-.29,4.56-.24,6.69.56,1.51.57,2.85,1.49,4.17,2.41,1.78,1.25,3.55,2.52,5.05,4.08Z"/><path class="cls-2" d="m100.97,193.57c.24.59.45,1.21.41,1.84-.03.63-.36,1.28-.94,1.53-.53.23-1.16.08-1.64-.24-.47-.32-.83-.79-1.17-1.25-1.84-2.5-3.51-5.14-5.54-7.49-1.21-1.4-2.57-2.71-4.08-3.76.27-.49.51-1,.75-1.51.27-.58.55-1.17.82-1.75,4.83,3.25,9.23,7.29,11.39,12.63Z"/><path class="cls-3" d="m82.32,157.12h0c.03-.78.3-1.54.83-2.18.91-1.12,1.82-2,2.84-1.95l-1.61-.87c-.19-.1-.24-.34-.11-.51l.95-1.15c.13-.16.38-.16.52,0l1.17,1.41c-.25-.99.43-2.05,1.35-3.18,1.29-1.58,3.63-1.81,5.21-.52,1.58,1.3,1.82,3.63.52,5.21-.3.36-.59.65-.87.88.85-.02,1.72.25,2.43.84,1.59,1.29,1.82,3.62.52,5.21-1.29,1.58-3.62,1.81-5.21.52-.71-.59-1.15-1.37-1.3-2.22h-.01c-.15.33-.38.66-.67,1.02-1.18,1.45-3.22,1.77-4.76.83"/><path class="cls-3" d="m100.51,123.71c-1.67,1.18-3.98.77-5.16-.9-.83-1.19-1.43-2.3-1.11-3.26l-1.28,1.32c-.14.15-.39.13-.51-.04l-.86-1.22c-.12-.17-.05-.42.14-.5l1.67-.75c-1.01-.03-1.86-.97-2.69-2.16-1.18-1.67-.77-3.98.9-5.15,1.67-1.18,3.98-.78,5.16.9.27.38.47.74.61,1.07.2-.83.7-1.59,1.46-2.12,1.67-1.18,3.98-.77,5.16.9,1.17,1.67.77,3.98-.9,5.16-.76.53-1.64.74-2.5.65.27.25.54.56.81.94,1.18,1.68.77,3.98-.9,5.16Z"/><path class="cls-3" d="m96.58,87.11c.71,1.76,1.73,3.6,2.88,5.49,4.14,6.8,13,8.96,19.81,4.82,6.8-4.14,8.95-13,4.82-19.8-.95-1.56-1.92-2.83-2.9-3.86,3.29.55,6.78-.03,9.85-1.9,6.8-4.14,8.96-13.01,4.82-19.81s-13.01-8.96-19.81-4.82c-3.07,1.87-5.19,4.7-6.22,7.87-.45-1.34-1.14-2.79-2.08-4.34-4.14-6.8-13.01-8.96-19.81-4.82s-8.96,13-4.82,19.8c.87,1.43,1.75,2.78,2.66,3.98"/><path class="cls-3" d="m110.59,78.1c-4.31,2.62-9.91,1.25-12.53-3.05s-1.25-9.91,3.05-12.52c4.3-2.62,9.91-1.26,12.53,3.05,2.61,4.3,1.25,9.9-3.05,12.52Z"/><path class="cls-3" d="m78.17,68.3c2.51.58,5.05,1.05,7.61,1.42.83,1.1,1.69,2.07,2.59,2.87,1.43,1.25,2.96,2.06,4.66,2.22l2.93,4.82c-.57,1.4-.62,2.93-.3,4.54.19.95.51,1.93.92,2.94-2.28,5.62-5.27,10.96-8.89,15.83-.4.54-.82,1.09-1.4,1.42s-1.37.39-1.89-.03c-.51-.41-.62-1.18-.44-1.81.17-.63.58-1.17.97-1.7,2.9-3.9,5.43-8.29,6.48-12.97-.87.69-1.76,1.37-2.65,2.05-2.89,2.21-5.78,4.43-8.67,6.64-1.28.98-2.73,2.01-4.33,1.84-1.11-.12-2.08-.82-2.78-1.69-.34-.43-.62-.9-.88-1.38-.26-.5-.49-1.02-.71-1.54-.26-.59-.51-1.17-.77-1.76l-1.8-4.11c-.63-1.44-1.27-2.89-1.9-4.33,0,0-.01,0-.01-.02-.61-1.39-1.19-3.05-.38-4.32.59-.93,1.73-1.32,2.78-1.63,4.92-1.48,9.89-2.82,14.88-4.03-3.48-.42-6.94-1.62-10.34-2.9"/><path class="cls-3" d="m78.17,68.3c-.41.86-1.16,1.56-2.13,1.89-.79.27-1.54.48-2.19.48-.48.02-.9-.07-1.26-.32l.92,1.59c.1.19.01.42-.19.49l-1.41.48c-.2.07-.41-.06-.44-.27l-.25-1.82c-.31.97-1.45,1.52-2.82,1.99-1.94.66-4.04-.37-4.7-2.31-.67-1.93.36-4.03,2.3-4.7.44-.15.84-.24,1.2-.28-.73-.43-1.33-1.12-1.63-2-.66-1.93.37-4.04,2.31-4.7,1.93-.66,4.04.37,4.7,2.3.3.88.25,1.79-.07,2.58.32-.19.69-.36,1.13-.51,1.94-.67,4.04.37,4.7,2.3.33.96.24,1.96-.17,2.81Z"/><path class="cls-3" d="m66.91,83.55c-2.27-.35-4.54-.37-6.7.38-1.52.53-2.89,1.41-4.23,2.3-1.81,1.19-3.62,2.41-5.16,3.93-.67.66-1.33,1.61-.95,2.46.38.84,1.57.99,2.4.59s1.4-1.16,2.05-1.81c1.97-2,4.74-3.06,7.52-3.45,2.31-.32,4.65-.22,6.98-.05"/><path class="cls-3" d="m70.62,92.01c-4.92,3.11-9.43,7.03-11.73,12.31-.25.58-.48,1.19-.46,1.82.01.64.33,1.3.9,1.56.52.24,1.15.11,1.64-.19.49-.31.85-.77,1.21-1.22,1.9-2.46,3.65-5.04,5.74-7.34,1.25-1.36,2.64-2.63,4.18-3.64"/><path class="cls-3" d="m75.03,158.25c.94-1.17,1.86-2.49,2.77-3.9,4.32-6.68,2.4-15.6-4.29-19.93-6.68-4.32-15.6-2.4-19.92,4.29-.99,1.52-1.72,2.95-2.21,4.28-.94-3.2-2.98-6.09-6-8.04-6.69-4.32-15.61-2.4-19.93,4.29-4.32,6.68-2.41,15.61,4.28,19.93,3.02,1.95,6.49,2.63,9.79,2.17-1.01,1-2.01,2.24-3,3.77-4.32,6.69-2.4,15.61,4.28,19.93,6.69,4.32,15.61,2.4,19.93-4.29,1.2-1.86,2.26-3.66,3.03-5.39"/><path class="cls-3" d="m62.61,163.25c-2.73,4.23-8.38,5.44-12.61,2.71-4.22-2.73-5.44-8.37-2.7-12.6,2.73-4.23,8.37-5.44,12.6-2.71s5.44,8.37,2.71,12.6Z"/><path class="cls-3" d="m93.51,172.59s-.01.01-.01.02c-.67,1.43-1.34,2.85-2.01,4.28-.64,1.35-1.27,2.7-1.91,4.05-.27.58-.55,1.17-.82,1.75-.24.51-.48,1.02-.75,1.51-.01,0-.01.01-.01.01-.26.48-.56.93-.91,1.35-.72.85-1.71,1.52-2.82,1.61-1.6.13-3.03-.94-4.28-1.95l-8.49-6.87c-.87-.7-1.73-1.4-2.59-2.12.92,4.7,3.34,9.16,6.12,13.14.38.53.77,1.08.93,1.72s.03,1.4-.5,1.8c-.53.41-1.31.32-1.88-.02-.57-.35-.98-.91-1.36-1.45-3.48-4.97-6.33-10.39-8.46-16.06.44-1,.79-1.98,1-2.93.36-1.6.35-3.12-.18-4.54l3.07-4.74c1.7-.11,3.25-.88,4.71-2.1.92-.77,1.81-1.72,2.67-2.8,2.44-.28,4.87-.66,7.29-1.13-.06,1.13.4,2.26,1.35,3.03.14.12.29.22.45.31-2.52.8-5.07,1.45-7.61,1.69,4.96,1.34,9.89,2.82,14.77,4.43,1.04.34,2.17.76,2.73,1.7.78,1.29.15,2.94-.5,4.31Z"/><path class="cls-3" d="m76.51,162.15c-.49.05-.99.08-1.48.1"/><path class="cls-3" d="m93.51,172.59c2.28-.29,4.56-.24,6.69.56,1.51.57,2.85,1.49,4.17,2.41,1.78,1.25,3.55,2.52,5.05,4.08.65.67,1.29,1.64.88,2.48-.4.83-1.6.95-2.41.53-.82-.42-1.37-1.2-2-1.87-1.91-2.05-4.66-3.18-7.43-3.65-2.29-.38-4.64-.35-6.97-.24"/><path class="cls-3" d="m89.58,180.94c4.83,3.25,9.23,7.29,11.39,12.63.24.59.45,1.21.41,1.84-.03.63-.36,1.28-.94,1.53-.53.23-1.16.08-1.64-.24-.47-.32-.83-.79-1.17-1.25-1.84-2.5-3.51-5.14-5.54-7.49-1.21-1.4-2.57-2.71-4.08-3.76"/></g></svg>