<?xml version="1.0" encoding="UTF-8"?><svg id="Layer_2" xmlns="http://www.w3.org/2000/svg" viewBox="0 0 161.09 234.55"><defs><style>.cls-1{fill:#ecede8;}.cls-1,.cls-2{stroke-width:0px;}.cls-3{stroke-width:.5px;}.cls-3,.cls-4{fill:none;stroke:#000;stroke-linecap:round;stroke-linejoin:round;}.cls-2{fill:#8b001b;}</style></defs><g id="Layer_2-2"><rect class="cls-1" width="161.09" height="234.55" rx="5" ry="5"/><path class="cls-2" d="m135.62,222.35c-.29,0-.4-.18-.4-.43.32-1.37,1.08-2.84,1.98-3.71l8.13-.9c.5-.07.68-.43.83-1.04l.22-.83c.22-.83-.25-.97-.97-1.04-1.91-.22-5.26-.72-7.34-1.76-2.02-1.01-3.82-3.02-3.82-6.01,0-3.74,2.2-6.16,5.18-7.77,2.99-1.62,6.73-2.3,9.75-2.38.54.25.68,1.37.22,1.69-2.59.11-5.51.61-7.2,1.62-2.12,1.26-3.35,2.92-3.35,4.86,0,5.15,5.4,5.69,9,5.98,1.15.07,1.3.4,1.08,1.22l-2.16,8.28c-.25.94-.47.94-1.62,1.08l-9.54,1.15Z"/><polygon class="cls-2" points="141.97 189.28 149.01 180 141.97 170.72 134.93 180 141.97 189.28"/><path class="cls-2" d="m25.48,12.2c.29,0,.4.18.4.43-.32,1.37-1.08,2.84-1.98,3.71l-8.13.9c-.5.07-.68.43-.83,1.04l-.22.83c-.22.83.25.97.97,1.04,1.91.22,5.26.72,7.34,1.76,2.02,1.01,3.82,3.02,3.82,6.01,0,3.74-2.2,6.16-5.18,7.77-2.99,1.62-6.73,2.3-9.75,2.38-.54-.25-.68-1.37-.22-1.69,2.59-.11,5.51-.61,7.2-1.62,2.12-1.26,3.35-2.92,3.35-4.86,0-5.15-5.4-5.69-9-5.98-1.15-.07-1.3-.4-1.08-1.22l2.16-8.28c.25-.94.47-.94,1.62-1.08l9.54-1.15Z"/><polygon class="cls-2" points="19.13 45.27 12.09 54.55 19.13 63.84 26.17 54.55 19.13 45.27"/><path class="cls-4" d="m45.08,166.59c-.07.68.82,1.01,1.18,1.58.53.85-.21,1.93-1.01,2.53s-1.79,1.21-1.9,2.21c-.07.63.27,1.26.78,1.64s1.16.53,1.8.52c1.66,0,3.27-1.08,3.92-2.62s.28-3.44-.87-4.63"/><polygon class="cls-2" points="93.77 91.93 99.98 100.35 93.55 108.6 87.34 100.18 93.77 91.93"/><polygon class="cls-2" points="121.89 84.53 116.88 93.71 109.39 86.41 114.4 77.23 121.89 84.53"/><polygon class="cls-2" points="110.22 57.25 114.39 66.84 106.28 73.44 102.11 63.85 110.22 57.25"/><polygon class="cls-2" points="87.6 62.59 83.52 72.22 75.35 65.69 79.44 56.06 87.6 62.59"/><path class="cls-2" d="m72.98,116.05l-3.71,10.55h-4.85c0-.85-.15-1.71-.44-2.56-1.47-4.33-6.16-6.64-10.48-5.17-3.4,1.16-5.56,4.32-5.6,7.73h-13.19l10.56-29.99,27.71,19.44Z"/><path class="cls-3" d="m47.9,126.6c.04-3.41,2.2-6.57,5.6-7.73,4.32-1.47,9.01.84,10.48,5.17.29.85.43,1.71.44,2.56"/><polyline class="cls-3" points="69.27 126.6 72.98 116.05 45.27 96.61 34.71 126.6"/><polygon class="cls-3" points="79.44 56.06 75.35 65.69 83.52 72.22 87.6 62.59 79.44 56.06"/><polygon class="cls-3" points="110.22 57.25 102.11 63.85 106.28 73.44 114.39 66.84 110.22 57.25"/><polygon class="cls-3" points="114.4 77.23 109.39 86.41 116.88 93.71 121.89 84.53 114.4 77.23"/><polygon class="cls-3" points="93.77 91.93 87.34 100.18 93.55 108.6 99.98 100.35 93.77 91.93"/><path class="cls-3" d="m33.06,133.75h-2.04c-1.98,0-3.58-1.6-3.58-3.58,0-.98.4-1.88,1.05-2.52.64-.65,1.54-1.05,2.53-1.05h99.06c1.98,0,3.58,1.6,3.58,3.57,0,.99-.4,1.88-1.05,2.53-.64.65-1.54,1.05-2.53,1.05h-2.04"/><path class="cls-3" d="m128.04,133.75l-8.68,31.24c-.62,2.23-2.37,3.92-4.52,4.52-.56.16-1.14.24-1.74.24H48c-2.92,0-5.48-1.95-6.26-4.76l-8.68-31.24h94.98Z"/><path class="cls-3" d="m116.02,166.6c.07.68-.82,1-1.18,1.58-.26.42-.22.89,0,1.33.21.46.6.89,1.01,1.2.8.61,1.79,1.22,1.9,2.21.07.63-.27,1.27-.78,1.65-.51.37-1.16.52-1.8.52-1.66-.01-3.27-1.09-3.91-2.62-.36-.85-.41-1.82-.18-2.72.18-.71.54-1.38,1.05-1.91"/></g></svg>