<?xml version="1.0" encoding="UTF-8"?><svg id="Layer_2" xmlns="http://www.w3.org/2000/svg" viewBox="0 0 161.09 234.55"><defs><style>.cls-1{fill:#ecede8;}.cls-1,.cls-2{stroke-width:0px;}.cls-3{fill:none;stroke:#000;stroke-linecap:round;stroke-linejoin:round;stroke-width:.5px;}.cls-2{fill:#8b001b;}</style></defs><g id="Layer_2-2"><rect class="cls-1" width="161.09" height="234.55" rx="5" ry="5"/><path class="cls-2" d="m135.62,222.35c-.29,0-.4-.18-.4-.43.32-1.37,1.08-2.84,1.98-3.71l8.13-.9c.5-.07.68-.43.83-1.04l.22-.83c.22-.83-.25-.97-.97-1.04-1.91-.22-5.26-.72-7.34-1.76-2.02-1.01-3.82-3.02-3.82-6.01,0-3.74,2.2-6.16,5.18-7.78s6.73-2.3,9.75-2.38c.54.25.68,1.37.22,1.69-2.59.11-5.51.61-7.2,1.62-2.12,1.26-3.35,2.92-3.35,4.86,0,5.15,5.4,5.69,9,5.98,1.15.07,1.3.4,1.08,1.22l-2.16,8.28c-.25.94-.47.94-1.62,1.08l-9.54,1.15Z"/><path class="cls-2" d="m135,182.86c.2,1.21.74,2.05,1.8,2.68.9.54,2.06.54,3.03.15.51-.2.97-.38,1.39-.63.27-.16.52-.34.76-.58.23.23.49.42.76.58.42.25.88.43,1.39.63.98.38,2.13.38,3.03-.15,1.05-.63,1.59-1.47,1.8-2.68.17-1.01.02-2.06-.3-3.03-.33-1.01-1.11-2.03-1.88-2.77-.77-.74-1.4-1.2-2.32-1.74-.74-.44-1.49-.85-2.25-1.23-.14-.07-.3-.07-.44,0-.77.38-1.52.79-2.25,1.23-.91.55-1.55,1.01-2.32,1.74-.77.74-1.54,1.75-1.88,2.77-.32.97-.47,2.03-.3,3.03Z"/><path class="cls-2" d="m25.48,12.2c.29,0,.4.18.4.43-.32,1.37-1.08,2.84-1.98,3.71l-8.13.9c-.5.07-.68.43-.83,1.04l-.22.83c-.22.83.25.97.97,1.04,1.91.22,5.26.72,7.34,1.76,2.02,1.01,3.82,3.02,3.82,6.01,0,3.74-2.2,6.16-5.18,7.78s-6.73,2.3-9.75,2.38c-.54-.25-.68-1.37-.22-1.69,2.59-.11,5.51-.61,7.2-1.62,2.12-1.26,3.35-2.92,3.35-4.86,0-5.15-5.4-5.69-9-5.98-1.15-.07-1.3-.4-1.08-1.22l2.16-8.28c.25-.94.47-.94,1.62-1.08l9.54-1.15Z"/><path class="cls-2" d="m26.1,51.69c-.2-1.21-.74-2.05-1.8-2.68-.9-.54-2.06-.54-3.03-.15-.51.2-.97.38-1.39.63-.27.16-.52.34-.76.58-.23-.23-.49-.42-.76-.58-.42-.25-.88-.43-1.39-.63-.98-.38-2.13-.38-3.03.15-1.05.63-1.59,1.47-1.8,2.68-.17,1.01-.02,2.06.3,3.03.33,1.01,1.11,2.03,1.88,2.77.77.74,1.4,1.2,2.32,1.74.74.44,1.49.85,2.25,1.23.14.07.3.07.44,0,.77-.38,1.52-.79,2.25-1.23.91-.55,1.55-1.01,2.32-1.74.77-.74,1.54-1.75,1.88-2.77.32-.97.47-2.03.3-3.03Z"/><path class="cls-2" d="m134.93,50.99c.06,4.79-1.39,9.55-3.56,13.81-2.26,4.44-6.57,8.6-10.65,11.44-3.1,2.17-5.73,3.67-8.84,5.08-5.04-1.63-10.37-2.46-15.66-2.66-3.52-.14-7.03-.02-10.53.27-.04-.03-.07-.06-.11-.09-3.66-3.04-6.2-5.59-9.14-9.42-3.04-3.94-5.89-9.21-6.7-14.11-.79-4.73-.74-9.7.76-14.25,1.8-5.42,4.9-8.94,10.21-11.1,4.53-1.83,9.88-1,14.12,1.45,2.2,1.28,4.19,2.44,5.95,3.89,1.14.93,2.18,1.96,3.1,3.2,1.24-.91,2.54-1.58,3.9-2.12,2.12-.84,4.37-1.37,6.85-1.91,4.79-1.07,10.13-.25,13.91,2.87,4.4,3.65,6.3,7.93,6.39,13.65Z"/><path class="cls-2" d="m114.9,133.42c.86.99,1.71,2.31,1.2,3.52-.6,1.44-2.62,1.54-4.11,1.1-4.4-1.29-7.63-4.99-10.26-8.74-1.58-2.23-3.03-4.55-4.36-6.94,2.52.07,4.86,0,6.69-.2.83,1.07,1.73,2.09,2.67,3.06,2.68,2.78,5.64,5.28,8.17,8.2Z"/><path class="cls-2" d="m84.56,120.77c-1.7,1.48-3.4,2.95-5.09,4.43-.88.76-1.81,1.55-2.94,1.77-1.86.35-3.6-.9-5.07-2.1-4.05-3.31-8.07-6.77-11.1-11.03-.59-.82-1.15-1.7-1.35-2.69-.21-.99.01-2.12.77-2.79.73-.64,1.83-.72,2.75-.4s1.67.99,2.32,1.72c1.62,1.84,2.64,4.14,3.97,6.21,1.34,2.07,3.17,4.03,5.58,4.55,1.87.41,4.07-.43,5.03-1.98,1.04.94,2.88,1.71,5.13,2.31Z"/><path class="cls-2" d="m73.02,170.12c.13.91.17,1.59.1,2.5-.06.92-.32,1.99-.81,2.77-.47.75-1.09,1.43-1.86,1.87-.91.52-1.77.62-2.77.27-.85-.31-1.48-1.08-1.76-1.94-.15-.45-.28-.85-.34-1.27-.05-.27-.06-.54-.03-.82-.29-.03-.55-.09-.8-.19-.4-.14-.77-.35-1.18-.58-.79-.44-1.42-1.21-1.56-2.1-.16-1.05.11-1.87.8-2.67.58-.67,1.37-1.14,2.19-1.46.86-.33,1.96-.38,2.87-.26.92.11,1.57.28,2.43.59.7.25,1.38.52,2.06.83.12.05.21.16.24.29.17.72.3,1.44.42,2.17Z"/><path class="cls-2" d="m69.35,142.98c.11.72.14,1.25.08,1.98-.05.72-.25,1.57-.64,2.19-.38.59-.87,1.12-1.47,1.47-.73.42-1.41.5-2.19.21-.68-.24-1.18-.85-1.4-1.53-.11-.35-.22-.67-.27-1-.03-.21-.04-.43-.02-.65-.23-.02-.43-.08-.64-.15-.31-.11-.6-.28-.93-.46-.62-.35-1.12-.96-1.23-1.66-.12-.83.09-1.48.63-2.11.46-.53,1.08-.91,1.74-1.16.67-.26,1.55-.3,2.27-.21s1.24.22,1.92.47c.55.2,1.09.42,1.63.66.09.04.16.13.19.23.13.57.24,1.14.33,1.72Z"/><path class="cls-2" d="m49.75,200.29c.1.72.14,1.25.08,1.98-.05.72-.25,1.57-.64,2.19-.38.59-.87,1.13-1.47,1.47-.73.42-1.41.5-2.19.22-.68-.24-1.18-.85-1.4-1.54-.12-.35-.22-.67-.27-1-.03-.21-.04-.42-.02-.65-.23-.02-.43-.07-.64-.15-.31-.11-.6-.27-.93-.46-.62-.35-1.12-.95-1.23-1.66-.13-.83.09-1.48.63-2.11.46-.53,1.08-.9,1.74-1.16.67-.26,1.55-.29,2.27-.2.72.08,1.24.22,1.92.46.55.2,1.09.42,1.63.66.09.04.16.13.19.23.13.57.24,1.14.33,1.72Z"/><path class="cls-2" d="m39.11,170.56c.16,1.06.21,1.85.13,2.93-.08,1.07-.38,2.33-.96,3.24-.55.87-1.28,1.67-2.17,2.18-1.08.62-2.08.74-3.25.32-1-.36-1.74-1.26-2.07-2.27-.17-.52-.32-1-.4-1.48-.05-.32-.06-.63-.03-.96-.33-.04-.64-.12-.94-.23-.46-.17-.9-.41-1.38-.68-.92-.51-1.67-1.42-1.83-2.46-.18-1.23.13-2.19.94-3.13.68-.78,1.6-1.34,2.57-1.71,1-.39,2.3-.44,3.37-.31,1.06.13,1.83.33,2.84.69.82.3,1.62.62,2.41.98.14.06.25.19.28.34.2.84.36,1.69.49,2.55Z"/><path class="cls-3" d="m111.88,81.32c3.11-1.41,5.74-2.91,8.84-5.08,4.08-2.84,8.39-7,10.65-11.44,2.17-4.26,3.62-9.02,3.56-13.81-.09-5.72-1.99-10-6.39-13.65-3.78-3.12-9.12-3.94-13.91-2.87-2.48.54-4.73,1.07-6.85,1.91-1.36.54-2.66,1.21-3.9,2.12-.92-1.24-1.96-2.27-3.1-3.2-1.76-1.45-3.75-2.61-5.95-3.89-4.24-2.45-9.59-3.28-14.12-1.45-5.31,2.16-8.41,5.68-10.21,11.1-1.5,4.55-1.55,9.52-.76,14.25.81,4.9,3.66,10.17,6.7,14.11,2.94,3.83,5.48,6.38,9.14,9.42.04.03.07.06.11.09"/><path class="cls-3" d="m38.28,176.73c.58-.91.88-2.17.96-3.24.08-1.08.03-1.87-.13-2.93-.13-.86-.29-1.71-.49-2.55-.03-.15-.14-.28-.28-.34-.79-.36-1.59-.68-2.41-.98-1.01-.36-1.78-.56-2.84-.69-1.07-.13-2.37-.08-3.37.31-.97.37-1.89.93-2.57,1.71-.81.94-1.12,1.9-.94,3.13.16,1.04.91,1.95,1.83,2.46.48.27.92.51,1.38.68.3.11.61.19.94.23-.03.33-.02.64.03.96.08.48.23.96.4,1.48.33,1.01,1.07,1.91,2.07,2.27,1.17.42,2.17.3,3.25-.32.89-.51,1.62-1.31,2.17-2.18Z"/><path class="cls-3" d="m72.31,175.39c.49-.78.75-1.85.81-2.77.07-.91.03-1.59-.1-2.5-.12-.73-.25-1.45-.42-2.17-.03-.13-.12-.24-.24-.29-.68-.31-1.36-.58-2.06-.83-.86-.31-1.51-.48-2.43-.59-.91-.12-2.01-.07-2.87.26-.82.32-1.61.79-2.19,1.46-.69.8-.96,1.62-.8,2.67.14.89.77,1.66,1.56,2.1.41.23.78.44,1.18.58.25.1.51.16.8.19-.03.28-.02.55.03.82.06.42.19.82.34,1.27.28.86.91,1.63,1.76,1.94,1,.35,1.86.25,2.77-.27.77-.44,1.39-1.12,1.86-1.87Z"/><path class="cls-3" d="m68.79,147.15c.39-.62.59-1.47.64-2.19.06-.73.03-1.26-.08-1.98-.09-.58-.2-1.15-.33-1.72-.03-.1-.1-.19-.19-.23-.54-.24-1.08-.46-1.63-.66-.68-.25-1.2-.38-1.92-.47s-1.6-.05-2.27.21c-.66.25-1.28.63-1.74,1.16-.54.63-.75,1.28-.63,2.11.11.7.61,1.31,1.23,1.66.33.18.62.35.93.46.21.07.41.13.64.15-.02.22,0,.44.02.65.05.33.16.65.27,1,.22.68.72,1.29,1.4,1.53.78.29,1.46.21,2.19-.21.6-.35,1.09-.88,1.47-1.47Z"/><path class="cls-3" d="m49.19,204.46c.39-.62.59-1.47.64-2.19.06-.73.02-1.26-.08-1.98-.09-.58-.2-1.15-.33-1.72-.03-.1-.1-.19-.19-.23-.54-.24-1.08-.46-1.63-.66-.68-.24-1.2-.38-1.92-.46-.72-.09-1.6-.06-2.27.2-.66.26-1.28.63-1.74,1.16-.54.63-.76,1.28-.63,2.11.11.71.61,1.31,1.23,1.66.33.19.62.35.93.46.21.08.41.13.64.15-.02.23-.01.44.02.65.05.33.15.65.27,1,.22.69.72,1.3,1.4,1.54.78.28,1.46.2,2.19-.22.6-.34,1.09-.88,1.47-1.47Z"/><path class="cls-3" d="m111.88,81.32c5.11,1.64,9.91,4.1,14.02,7.54.92.76,1.88,1.75,1.46,3.05-.23.7-.84,1.22-1.55,1.44-1.52.45-2.96-.21-4.31-.86-4.19-2.01-8.37-4.02-12.56-6.03,1.5,8.77,1.03,17.74.56,26.63-.14,2.73-.32,5.56-1.65,7.94-.3.53-1.72.91-3.79,1.13-1.83.2-4.17.27-6.69.2h-.01c-4.3-.11-9.11-.62-12.8-1.59-2.25-.6-4.09-1.37-5.13-2.31h-.01c-.38-.35-.65-.71-.8-1.1-2.13-5.46-1.73-11.67.15-17.22,1.88-5.56,5.15-10.53,8.72-15.18-1.95,1.06-4.08,1.8-6.28,2.09-5.29.7-10.69.58-15.94-.37-.87-.15-1.77-.35-2.47-.88-.69-.53-1.14-1.51-.79-2.32.39-.92,1.52-1.21,2.5-1.39,7.01-1.28,14.08-2.57,21.18-3.16,3.5-.29,7.01-.41,10.53-.27,5.29.2,10.62,1.03,15.66,2.66Z"/><path class="cls-3" d="m104.06,122.16c.83,1.07,1.73,2.09,2.67,3.06,2.68,2.78,5.64,5.28,8.17,8.2.86.99,1.71,2.31,1.2,3.52-.6,1.44-2.62,1.54-4.11,1.1-4.4-1.29-7.63-4.99-10.26-8.74-1.58-2.23-3.03-4.55-4.36-6.94"/><path class="cls-3" d="m84.56,120.77c-1.7,1.48-3.4,2.95-5.09,4.43-.88.76-1.81,1.55-2.94,1.77-1.86.35-3.6-.9-5.07-2.1-4.05-3.31-8.07-6.77-11.1-11.03-.59-.82-1.15-1.7-1.35-2.69-.21-.99.01-2.12.77-2.79.73-.64,1.83-.72,2.75-.4s1.67.99,2.32,1.72c1.62,1.84,2.64,4.14,3.97,6.21,1.34,2.07,3.17,4.03,5.58,4.55,1.87.41,4.07-.43,5.03-1.98"/></g></svg>