<?xml version="1.0" encoding="UTF-8"?><svg id="Layer_2" xmlns="http://www.w3.org/2000/svg" viewBox="0 0 161.09 234.55"><defs><style>.cls-1{fill:#ecede8;}.cls-1,.cls-2{stroke-width:0px;}.cls-2{fill:#1a1a1a;}.cls-3{fill:none;stroke:#000;stroke-linecap:round;stroke-linejoin:round;stroke-width:.5px;}</style></defs><g id="Layer_2-2"><rect class="cls-1" width="161.09" height="234.55" rx="5" ry="5"/><path class="cls-2" d="m135.62,222.35c-.29,0-.4-.18-.4-.43.32-1.37,1.08-2.84,1.98-3.71l8.13-.9c.5-.07.68-.43.83-1.04l.22-.83c.22-.83-.25-.97-.97-1.04-1.91-.22-5.26-.72-7.34-1.76-2.02-1.01-3.82-3.02-3.82-6.01,0-3.74,2.2-6.16,5.18-7.78s6.73-2.3,9.75-2.38c.54.25.68,1.37.22,1.69-2.59.11-5.51.61-7.2,1.62-2.12,1.26-3.35,2.92-3.35,4.86,0,5.15,5.4,5.69,9,5.98,1.15.07,1.3.4,1.08,1.22l-2.16,8.28c-.25.94-.47.94-1.62,1.08l-9.54,1.15Z"/><path class="cls-2" d="m135.3,180.94c.33,1.01,1.11,2.03,1.88,2.77.77.74,1.4,1.2,2.32,1.74.66.4,1.34.77,2.03,1.12.28.14.6.14.88,0,.69-.35,1.37-.72,2.03-1.12.91-.54,1.55-1.01,2.32-1.74.77-.74,1.55-1.75,1.88-2.77.32-.97.47-2.03.3-3.03-.2-1.21-.74-2.05-1.8-2.68-.9-.54-2.06-.54-3.03-.15-.51.2-.97.38-1.39.63l.38-1.94c.04-.22-.12-.42-.35-.42h-1.57c-.22,0-.39.2-.35.42l.38,1.94c-.42-.25-.88-.43-1.39-.63-.98-.38-2.13-.38-3.03.15-1.05.63-1.59,1.47-1.8,2.68-.17,1.01-.02,2.06.3,3.03Z"/><path class="cls-2" d="m25.48,12.2c.29,0,.4.18.4.43-.32,1.37-1.08,2.84-1.98,3.71l-8.13.9c-.5.07-.68.43-.83,1.04l-.22.83c-.22.83.25.97.97,1.04,1.91.22,5.26.72,7.34,1.76,2.02,1.01,3.82,3.02,3.82,6.01,0,3.74-2.2,6.16-5.18,7.78s-6.73,2.3-9.75,2.38c-.54-.25-.68-1.37-.22-1.69,2.59-.11,5.51-.61,7.2-1.62,2.12-1.26,3.35-2.92,3.35-4.86,0-5.15-5.4-5.69-9-5.98-1.15-.07-1.3-.4-1.08-1.22l2.16-8.28c.25-.94.47-.94,1.62-1.08l9.54-1.15Z"/><path class="cls-2" d="m25.8,53.62c-.33-1.01-1.11-2.03-1.88-2.77-.77-.74-1.4-1.2-2.32-1.74-.66-.4-1.34-.77-2.03-1.12-.28-.14-.6-.14-.88,0-.69.35-1.37.72-2.03,1.12-.91.54-1.55,1.01-2.32,1.74-.77.74-1.55,1.75-1.88,2.77-.32.97-.47,2.03-.3,3.03.2,1.21.74,2.05,1.8,2.68.9.54,2.06.54,3.03.15.51-.2.97-.38,1.39-.63l-.38,1.94c-.04.22.12.42.35.42h1.57c.22,0,.39-.2.35-.42l-.38-1.94c.42.25.88.43,1.39.63.98.38,2.13.38,3.03-.15,1.05-.63,1.59-1.47,1.8-2.68.17-1.01.02-2.06-.3-3.03Z"/><path class="cls-3" d="m105.93,119.02c1.07-2.06,1.71-4.4,2.02-7.07.58-5.07-.46-10.28-2.31-15.05-1.93-4.95-6.06-9.83-10.09-13.29-4.03-3.47-7.31-5.6-12.01-8.08-3.43-1.79-6.9-3.48-10.44-5.03-1.41-.63-3.04-.54-4.38.23-3.35,1.92-6.64,3.96-9.85,6.1-4.42,2.96-7.45,5.43-11.1,9.3-3.65,3.86-7.24,9.15-8.63,14.28-1.34,4.93-1.83,10.22-.72,15.21,1.34,5.97,4.25,10.03,9.66,12.89,3.93,2.07,8.67,2.15,12.93.81"/><path class="cls-3" d="m73.39,117.74c-6.8.36-12.61-4.87-12.97-11.68s4.87-12.61,11.67-12.97c6.81-.36,12.62,4.86,12.98,11.67s-4.87,12.62-11.68,12.98Z"/><polyline class="cls-3" points="43.51 158.38 47.28 157.1 49.32 171.57 32.81 176.85 32.47 173.63"/><polygon class="cls-3" points="43.51 158.38 31.28 162.55 32.47 173.63 25.13 174.3 26.73 160.01 43.53 158.15 43.51 158.38"/><polyline class="cls-3" points="77.63 147.13 80.47 148.59 68.39 159.14 54.09 152 63.32 144.49"/><line class="cls-3" x1="72.3" y1="149.36" x2="72.23" y2="147.01"/><line class="cls-3" x1="72.13" y1="143.4" x2="72.01" y2="139.15"/><path class="cls-3" d="m86.4,158.96c-.35.5-.96.78-1.57.81-.32.01-.61.02-.89-.01l.66.94c.08.11.04.25-.08.31l-.4.18-.43.19c-.12.05-.26-.01-.29-.14l-.26-1.12c-.16.23-.36.44-.58.67-.43.43-1.04.71-1.65.64-.7-.09-1.19-.4-1.59-1-.33-.49-.5-1.08-.56-1.68-.06-.61.11-1.34.34-1.91s.46-.97.81-1.47c.26-.37.53-.73.81-1.08.12-.14.29-.22.47-.21.45.02.9.06,1.34.11.62.07,1.06.16,1.65.37.58.21,1.23.56,1.65,1.02.4.44.73.96.88,1.54.18.68.1,1.26-.31,1.84Z"/><line class="cls-3" x1="84.12" y1="161.19" x2="88.57" y2="170.38"/><path class="cls-3" d="m102,162.41c-.09.59-.28,1.18-.63,1.65-.43.58-.93.87-1.64.92-.61.04-1.2-.26-1.61-.71-.21-.24-.4-.45-.55-.69l-.32,1.1c-.03.13-.17.19-.29.13l-.39-.2-.42-.21c-.12-.06-.15-.21-.07-.31l.7-.91c-.28.02-.57-.01-.88-.04-.61-.06-1.21-.36-1.53-.87-.38-.6-.44-1.18-.23-1.86.18-.57.53-1.08.95-1.5.44-.43,1.11-.76,1.7-.94s1.04-.25,1.66-.29c.45-.03.9-.05,1.35-.05.18,0,.35.09.45.23.27.37.52.74.76,1.12.33.52.54.92.75,1.51.2.58.34,1.31.24,1.92Z"/><line class="cls-3" x1="96.57" y1="164.61" x2="92.22" y2="173.85"/><path class="cls-3" d="m50.6,140.77c-.06.45-.12.89-.2,1.34-.12.6-.24,1.04-.49,1.61-.24.57-.64,1.19-1.13,1.58-.46.37-1,.66-1.59.77-.7.14-1.27.01-1.82-.44-.47-.38-.7-1.01-.69-1.62,0-.31,0-.6.06-.88l-.98.6c-.11.06-.26.01-.3-.11l-.15-.41-.17-.44c-.04-.13.03-.26.16-.28l1.13-.18c-.21-.18-.41-.4-.62-.63-.4-.46-.63-1.09-.52-1.69.13-.7.48-1.16,1.1-1.51.51-.3,1.12-.43,1.71-.45.62-.02,1.33.2,1.89.47.55.27.93.52,1.41.91.35.28.69.58,1.02.88.13.13.2.3.18.48Z"/><line class="cls-3" x1="43.31" y1="143.21" x2="33.83" y2="147.02"/><path class="cls-3" d="m86.95,132.72c.98,4.2-.54,8.89-3.79,11.73-.69.6-1.45,1.12-2.26,1.54"/><path class="cls-3" d="m82.83,130.19c.82,1.88,1.22,3.97.91,5.99-.32,2.03-1.4,3.97-3.11,5.1-2.45,1.63-5.65,1.38-8.5,2.12"/><path class="cls-3" d="m112.1,137.47c0-.66,0-1.33-.02-1.99-.05-2.37-.23-4.75-.48-7.11-.25-2.44-.61-4.98-2.04-6.97-.86-1.19-2.22-2.1-3.63-2.38-1.36,2.65-3.39,4.86-6.24,6.77-4.34,2.91-10.1,3.2-15.08,1.56-2.57-.85-4.92-1.64-7.07-2.76l-7.55.39c-1.39.93-2.89,1.71-4.5,2.47-.15-1.11-.5-2.17-1.15-3.07-1.01-1.39-2.88-2.25-4.51-1.7-.79.26-1.51.93-1.54,1.76-.04.8.55,1.48,1.05,2.11.67.85,1.23,1.78,1.67,2.77.94,2.07,1.34,4.37,1.14,6.63-.15,1.78-.67,3.55-.48,5.33.12,1.22.72,2.49,1.65,3.21l3.54-2.88,4.17,2.14s-.05.02-.08.03c-.65.26-1.36.74-1.34,1.44.01.71.74,1.16,1.41,1.41.39.15.8.28,1.21.38,1.76.45,3.62.48,5.4.12,1.14-.22,2.24-.61,3.27-1.14,7.96.52,15.94.6,23.91.26,1.83-.08,3.79-.23,5.19-1.41.68-.57,1.13-1.31,1.44-2.13"/><path class="cls-3" d="m76.05,136.5c-.12.7-.44,1.19-1.05,1.55-.52.31-1.19.31-1.76.09-.29-.11-.56-.22-.8-.36l.22,1.12c.02.13-.08.25-.21.25h-.91c-.13,0-.23-.12-.2-.25l.22-1.12c-.25.14-.51.25-.81.36-.56.22-1.24.22-1.76-.09-.61-.36-.92-.85-1.04-1.55-.1-.59-.01-1.2.17-1.77.2-.58.65-1.18,1.09-1.6.45-.43.82-.7,1.35-1.02.39-.22.78-.44,1.18-.64.16-.09.35-.09.51,0,.4.2.8.42,1.18.64.54.32.9.59,1.35,1.02.45.42.9,1.02,1.09,1.6.19.57.28,1.18.18,1.77Z"/><path class="cls-3" d="m65.49,127.45c.1.6.12,1.22.11,1.83-.05,1.72-.39,3.42-.51,5.13-.11,1.72.01,3.51.84,5.02"/><path class="cls-3" d="m118.66,136.79c2.91-.53,5.84-1.78,6.92-3.93.84-1.7.37-3.6.67-5.4.34-2.05,1.73-3.99,3.81-5.3,1.43-.91,3.66-1.47,5.04-.52,1.4.97.9,2.77-.06,4.02-1.25,1.63-3.1,3.03-3.77,4.85-.87,2.38.41,5.06-.84,7.33-1.22,2.21-4.42,3.3-7.42,3.9-3.77.76-7.68,1.08-11.57.97.37-.96.53-2.04.6-3.1.02-.27.03-.55.04-.82.01-.44.02-.88.02-1.32,2.1-.21,4.24-.28,6.32-.63.08-.01.16-.03.24-.05Z"/><path class="cls-3" d="m118.66,136.79l.36-.18c1.7-.88,3.46-1.97,4.24-3.72,1.12-2.52-.12-5.61.95-8.16.59-1.4,1.81-2.44,2.74-3.64.94-1.21,1.61-2.88.93-4.24-.8-1.58-3.13-1.85-4.61-.89-1.48.97-2.21,2.76-2.48,4.51-.27,1.74-.18,3.53-.46,5.27-.5,3.07-2.21,5.94-4.67,7.84-1.07.83-2.29,1.47-3.58,1.9"/><path class="cls-2" d="m135.1,121.64c1.4.97.9,2.77-.06,4.02-1.25,1.63-3.1,3.03-3.77,4.85-.87,2.38.41,5.06-.84,7.33-1.22,2.21-4.42,3.3-7.42,3.9-3.77.76-7.68,1.08-11.57.97.37-.96.53-2.04.6-3.1.02-.27.03-.55.04-.82.01-.44.02-.88.02-1.32,2.1-.21,4.24-.28,6.32-.63.08-.01.16-.03.24-.05,2.91-.53,5.84-1.78,6.92-3.93.84-1.7.37-3.6.67-5.4.34-2.05,1.73-3.99,3.81-5.3,1.43-.91,3.66-1.47,5.04-.52Z"/><path class="cls-2" d="m127.88,116.85c.68,1.36.01,3.03-.93,4.24-.93,1.2-2.15,2.24-2.74,3.64-1.07,2.55.17,5.64-.95,8.16-.78,1.75-2.54,2.84-4.24,3.72l-.36.18c-.08.02-.16.04-.24.05-2.08.35-4.22.42-6.32.63,0-.66,0-1.33-.02-1.99,1.29-.43,2.51-1.07,3.58-1.9,2.46-1.9,4.17-4.77,4.67-7.84.28-1.74.19-3.53.46-5.27.27-1.75,1-3.54,2.48-4.51,1.48-.96,3.81-.69,4.61.89Z"/><path class="cls-2" d="m105.64,96.9c1.85,4.77,2.89,9.98,2.31,15.05-.31,2.67-.95,5.01-2.02,7.07-1.36,2.65-3.39,4.86-6.24,6.77-4.34,2.91-10.1,3.2-15.08,1.56-2.57-.85-4.92-1.64-7.07-2.76l-7.55.39c-1.39.93-2.89,1.71-4.5,2.47-.15-1.11-.5-2.17-1.15-3.07-1.01-1.39-2.88-2.25-4.51-1.7-.79.26-1.51.93-1.54,1.76-.04.8.55,1.48,1.05,2.11.67.85,1.23,1.78,1.67,2.77-4.26,1.34-9,1.26-12.93-.81-5.41-2.86-8.32-6.92-9.66-12.89-1.11-4.99-.62-10.28.72-15.21,1.39-5.13,4.98-10.42,8.63-14.28,3.65-3.87,6.68-6.34,11.1-9.3,3.21-2.14,6.5-4.18,9.85-6.1,1.34-.77,2.97-.86,4.38-.23,3.54,1.55,7.01,3.24,10.44,5.03,4.7,2.48,7.98,4.61,12.01,8.08,4.03,3.46,8.16,8.34,10.09,13.29Zm-32.25,20.84c6.81-.36,12.04-6.17,11.68-12.98s-6.17-12.03-12.98-11.67c-6.8.36-12.03,6.16-11.67,12.97s6.17,12.04,12.97,11.68Z"/><path class="cls-2" d="m101.76,160.49c.2.58.34,1.31.24,1.92-.09.59-.28,1.18-.63,1.65-.43.58-.93.87-1.64.92-.61.04-1.2-.26-1.61-.71-.21-.24-.4-.45-.55-.69l-.32,1.1c-.03.13-.17.19-.29.13l-.39-.2-.42-.21c-.12-.06-.15-.21-.07-.31l.7-.91c-.28.02-.57-.01-.88-.04-.61-.06-1.21-.36-1.53-.87-.38-.6-.44-1.18-.23-1.86.18-.57.53-1.08.95-1.5.44-.43,1.11-.76,1.7-.94s1.04-.25,1.66-.29c.45-.03.9-.05,1.35-.05.18,0,.35.09.45.23.27.37.52.74.76,1.12.33.52.54.92.75,1.51Z"/><path class="cls-2" d="m86.71,157.12c.18.68.1,1.26-.31,1.84-.35.5-.96.78-1.57.81-.32.01-.61.02-.89-.01l.66.94c.08.11.04.25-.08.31l-.4.18-.43.19c-.12.05-.26-.01-.29-.14l-.26-1.12c-.16.23-.36.44-.58.67-.43.43-1.04.71-1.65.64-.7-.09-1.19-.4-1.59-1-.33-.49-.5-1.08-.56-1.68-.06-.61.11-1.34.34-1.91s.46-.97.81-1.47c.26-.37.53-.73.81-1.08.12-.14.29-.22.47-.21.45.02.9.06,1.34.11.62.07,1.06.16,1.65.37.58.21,1.23.56,1.65,1.02.4.44.73.96.88,1.54Z"/><path class="cls-2" d="m75.87,134.73c.19.57.28,1.18.18,1.77-.12.7-.44,1.19-1.05,1.55-.52.31-1.19.31-1.76.09-.29-.11-.56-.22-.8-.36l.22,1.12c.02.13-.08.25-.21.25h-.91c-.13,0-.23-.12-.2-.25l.22-1.12c-.25.14-.51.25-.81.36-.56.22-1.24.22-1.76-.09-.61-.36-.92-.85-1.04-1.55-.1-.59-.01-1.2.17-1.77.2-.58.65-1.18,1.09-1.6.45-.43.82-.7,1.35-1.02.39-.22.78-.44,1.18-.64.16-.09.35-.09.51,0,.4.2.8.42,1.18.64.54.32.9.59,1.35,1.02.45.42.9,1.02,1.09,1.6Z"/><path class="cls-2" d="m50.42,140.29c.13.13.2.3.18.48-.06.45-.12.89-.2,1.34-.12.6-.24,1.04-.49,1.61-.24.57-.64,1.19-1.13,1.58-.46.37-1,.66-1.59.77-.7.14-1.27.01-1.82-.44-.47-.38-.7-1.01-.69-1.62,0-.31,0-.6.06-.88l-.98.6c-.11.06-.26.01-.3-.11l-.15-.41-.17-.44c-.04-.13.03-.26.16-.28l1.13-.18c-.21-.18-.41-.4-.62-.63-.4-.46-.63-1.09-.52-1.69.13-.7.48-1.16,1.1-1.51.51-.3,1.12-.43,1.71-.45.62-.02,1.33.2,1.89.47.55.27.93.52,1.41.91.35.28.69.58,1.02.88Z"/></g></svg>