<?xml version="1.0" encoding="UTF-8"?><svg id="Layer_2" xmlns="http://www.w3.org/2000/svg" viewBox="0 0 161.09 234.55"><defs><style>.cls-1{fill:#ecede8;}.cls-1,.cls-2{stroke-width:0px;}.cls-2{fill:#1a1a1a;}.cls-3{fill:none;stroke:#000;stroke-linecap:round;stroke-linejoin:round;stroke-width:.5px;}</style></defs><g id="Layer_2-2"><rect class="cls-1" width="161.09" height="234.55" rx="5" ry="5"/><path class="cls-2" d="m145.34,218.83c-2.77,2.66-7.13,4.72-11.45,4.93-.4-.22-.47-.83-.11-1.26,4.39-1.08,6.3-2.56,8.31-5.04,1.91-2.38,2.7-5.83,2.7-9.18,0-3.82-1.26-8.31-3.96-8.31-2.16,0-2.74,2.38-2.74,4.07,0,2.45,1.01,6.84,4.1,6.84.25.04.5,0,.83-.04.22.14.29.4.25.65-.65.76-2.34,1.58-3.6,1.58-4.46,0-6.48-3.35-6.48-6.8,0-4.72,3.24-7.96,8.24-7.96,5.47,0,8.6,4,8.6,9.65,0,4.07-1.83,8.1-4.71,10.87Z"/><path class="cls-2" d="m137.95,181.2c.43,0,.8-.04,1.12-.11-.51.59-.82,1.36-.82,2.2,0,1.86,1.51,3.37,3.37,3.37s3.37-1.51,3.37-3.37c0-.84-.31-1.61-.82-2.2.32.07.7.11,1.12.11,1.86,0,3.37-1.51,3.37-3.37s-1.51-3.37-3.37-3.37c-1.32,0-2.46.13-3.01.88l.32-1.64c.04-.19-.11-.36-.3-.36h-1.35c-.19,0-.34.18-.3.36l.32,1.64c-.55-.74-1.69-.88-3.01-.88-1.86,0-3.37,1.51-3.37,3.37s1.51,3.37,3.37,3.37Z"/><path class="cls-2" d="m15.76,15.73c2.77-2.66,7.13-4.72,11.45-4.93.4.22.47.83.11,1.26-4.39,1.08-6.3,2.56-8.31,5.04-1.91,2.38-2.7,5.83-2.7,9.18,0,3.82,1.26,8.31,3.96,8.31,2.16,0,2.74-2.38,2.74-4.07,0-2.45-1.01-6.84-4.1-6.84-.25-.04-.5,0-.83.04-.22-.14-.29-.4-.25-.65.65-.76,2.34-1.58,3.6-1.58,4.46,0,6.48,3.35,6.48,6.8,0,4.72-3.24,7.96-8.24,7.96-5.47,0-8.6-4-8.6-9.65,0-4.07,1.83-8.1,4.71-10.87Z"/><path class="cls-2" d="m23.14,53.35c-.43,0-.8.04-1.12.11.51-.59.82-1.36.82-2.2,0-1.86-1.51-3.37-3.37-3.37s-3.37,1.51-3.37,3.37c0,.84.31,1.61.82,2.2-.32-.07-.7-.11-1.12-.11-1.86,0-3.37,1.51-3.37,3.37s1.51,3.37,3.37,3.37c1.32,0,2.46-.13,3.01-.88l-.32,1.64c-.04.19.11.36.3.36h1.35c.19,0,.34-.18.3-.36l-.32-1.64c.55.74,1.69.88,3.01.88,1.86,0,3.37-1.51,3.37-3.37s-1.51-3.37-3.37-3.37Z"/><path class="cls-2" d="m83.76,143.33c.27-1.07,1.28-1.77,2.36-1.66.25.24.54.49.83.73,1.18.98,2.78,1.09,4.06.43h.02c1.19.29,1.9,1.46,1.62,2.65-.28,1.17-1.46,1.89-2.63,1.61-.84-.2-1.54-.46-1.77-1.02l-.05,1.08c-.01.13-.12.22-.25.19l-.85-.21c-.12-.03-.19-.15-.14-.27l.46-.98c-.47.38-1.21.29-2.04.09-1.18-.29-1.89-1.46-1.62-2.64Z"/><path class="cls-2" d="m76.44,135.29c.98-.09,1.79-.34,2.24-.95l-.34,1.81c-.04.2.13.4.34.39h1.33c.09.13.2.25.3.37-.21.29-.5.51-.83.65.22.05.44.14.69.25,1.09.52,1.55,1.82,1.03,2.92-.04.09-.09.17-.14.25-.46-.31-.97-.57-1.46-.83-1.62-.85-3.23-1.69-4.85-2.54-.57-.3-1.17-.63-1.69-1.03.58-.95,1.79-1.32,2.81-.83.24.12.45.25.62.38-.08-.27-.09-.56-.05-.84Z"/><path class="cls-2" d="m80.64,134.78c.53.33,1.24.44,2.05.48,0,.02.01.02.02.02.06.1.12.18.2.25.08.09.17.17.27.24.09.08.19.13.29.19.11.06.21.1.33.14.29.1.62.13.94.1.86-.1,1.58-.28,1.88-.8l-.07,1.08c0,.12.09.23.21.21l.88-.1c.12-.02.2-.14.16-.26l-.33-1.03c.41.43,1.16.43,2.01.33.35-.04.67-.16.94-.35-.38.96-.92,1.85-1.6,2.63-.51.57-1.08,1.1-1.42,1.78-.33.68-.36,1.59.19,2.12.67.65,1.78.41,2.64.03.98-.44,1.89-1,2.72-1.67-.1.62-.36,1.21-.79,1.73-.32.4-.72.7-1.15.93-1.28.66-2.88.55-4.06-.43-.29-.24-.58-.49-.83-.73-.69-.67-1.15-1.36-1.12-2.11l-.87,1.62c-.1.18-.35.23-.51.09l-1.15-.94c-.17-.13-.16-.38,0-.52l1.42-1.17c-.99.25-2.06-.43-3.18-1.36-.14-.11-.27-.23-.4-.37.11-.12.19-.26.26-.41.28-.56.28-1.18.07-1.72Z"/><path class="cls-2" d="m88.25,131.45c.29-.42.42-.93.36-1.48-.04-.34-.16-.65-.33-.91.79-.41,1.71-.52,2.58-.31.31,1.19.4,2.44.27,3.66-.42-.76-1.26-1.23-2.16-1.12-.28.03-.52.09-.72.16Z"/><path class="cls-2" d="m83.18,135.77c-.1-.07-.19-.15-.27-.24-.07-.08-.14-.15-.2-.25-.01,0-.02,0-.02-.02-.06-.06-.1-.14-.13-.22-.05-.08-.09-.15-.11-.23-.07-.16-.11-.34-.14-.52-.14-1.2.73-2.29,1.92-2.43.28-.03.52-.04.73-.02-.25-.23-.46-.53-.57-.87-.06-.15-.1-.32-.12-.48-.11-.87.32-1.68,1.01-2.12.26-.16.57-.27.89-.31.87-.1,1.67.3,2.11,1,.17.26.29.57.33.91.06.55-.07,1.06-.36,1.48.2-.07.44-.13.72-.16.9-.11,1.74.36,2.16,1.12-.09.99-.33,1.96-.71,2.87-.27.19-.59.31-.94.35-.85.1-1.6.1-2.01-.33l.33,1.03c.04.12-.04.24-.16.26l-.88.1c-.12.02-.22-.09-.21-.21l.07-1.08c-.3.52-1.02.7-1.88.8-.32.03-.65,0-.94-.1-.12-.04-.22-.08-.33-.14-.1-.06-.2-.11-.29-.19Z"/><path class="cls-2" d="m75.32,127.93c.46-.01.87.03,1.23.11-.56-.64-.91-1.48-.92-2.41-.01-2.04,1.63-3.72,3.68-3.73,2.04-.02,3.72,1.63,3.73,3.67,0,.93-.32,1.77-.87,2.43.35-.08.76-.13,1.22-.13.69-.01,1.34.17,1.89.5-.69.44-1.12,1.25-1.01,2.12.02.16.06.33.12.48.11.34.32.64.57.87-.21-.02-.45-.01-.73.02-1.19.14-2.06,1.23-1.92,2.43.03.18.07.36.14.52.02.08.06.15.11.23.03.08.07.16.13.22-.81-.04-1.52-.15-2.05-.48-.2-.12-.37-.27-.51-.45l.37,1.8c.04.2-.12.4-.34.4h-1.48c-.21.02-.38-.18-.34-.38l.34-1.81c-.45.61-1.26.86-2.24.95-.33.03-.69.04-1.06.04-1.68.02-3.11-1.09-3.57-2.62-.1-.33-.16-.68-.16-1.05-.02-1.81,1.29-3.34,3.01-3.66.21-.05.43-.07.66-.07Z"/><path class="cls-2" d="m68.79,100.91c0,6.43,5.21,11.63,11.63,11.63s11.63-5.2,11.63-11.63-5.21-11.62-11.63-11.62-11.63,5.2-11.63,11.62Zm31.68-15.03c10.16,0,18.38,8.23,18.38,18.39s-8.22,18.38-18.38,18.38c-1.83,0-3.6-.05-5.26-.19-4.9-.4-8.94-1.57-11.19-4.59h-7.19c-1.43,1.91-3.57,3.09-6.2,3.79-2.93.79-6.46.99-10.26.99-10.15,0-18.38-8.23-18.38-18.38s8.23-18.39,18.38-18.39c2.32,0,4.35.21,6.12.6-2.77-3.21-4.45-7.41-4.45-11.99,0-10.16,8.23-18.38,18.39-18.38s18.38,8.22,18.38,18.38c0,4.58-1.67,8.78-4.46,11.99,1.78-.39,3.8-.6,6.12-.6Z"/><path class="cls-2" d="m119.1,150.46c.02.57-.31,1.09-.62,1.56-1.9,2.9-3.79,5.8-5.81,8.62-1.21,1.68-2.56,3.42-4.51,4.12-2.1.77-4.51.14-6.37-1.12-1.85-1.25-3.26-3.06-4.59-4.86-.25-.33-.5-.67-.76-1.01.88-.41,1.74-.84,2.6-1.29.79-.41,1.58-.86,2.3-1.39.54.63,1.1,1.23,1.69,1.81.81.81,1.76,1.62,2.9,1.67,1.54.08,2.76-1.21,3.75-2.4,1.42-1.7,2.84-3.4,4.26-5.11.73-.87,1.52-1.78,2.61-2.09,1.09-.3,2.52.36,2.55,1.49Z"/><path class="cls-2" d="m78.67,161.93c1.19.19,2.39.22,3.58.13-3.78,4.62-7.57,9.24-11.36,13.85-.99,1.22-2.07,2.49-3.56,2.99-1.48.49-3.47-.17-3.8-1.7-.26-1.2.54-2.34,1.29-3.31,3.41-4.38,6.83-8.75,10.24-13.13,1.13.58,2.36.98,3.61,1.17Z"/><path class="cls-3" d="m95.21,122.46c1.66.14,3.43.19,5.26.19,10.16,0,18.38-8.23,18.38-18.38s-8.22-18.39-18.38-18.39c-2.32,0-4.34.21-6.12.6,2.79-3.21,4.46-7.41,4.46-11.99,0-10.16-8.24-18.38-18.38-18.38s-18.39,8.22-18.39,18.38c0,4.58,1.68,8.78,4.45,11.99-1.77-.39-3.8-.6-6.12-.6-10.15,0-18.38,8.23-18.38,18.39s8.23,18.38,18.38,18.38c3.8,0,7.33-.2,10.26-.99"/><path class="cls-3" d="m92.05,100.91c0,6.43-5.21,11.63-11.63,11.63s-11.63-5.2-11.63-11.63,5.21-11.62,11.63-11.62,11.63,5.2,11.63,11.62Z"/><path class="cls-3" d="m82.91,135.53c-.07-.08-.14-.15-.2-.25"/><line class="cls-3" x1="80.01" y1="136.54" x2="78.68" y2="136.54"/><path class="cls-3" d="m91.13,132.41c-.42-.76-1.26-1.23-2.16-1.12-.28.03-.52.09-.72.16.29-.42.42-.93.36-1.48-.04-.34-.16-.65-.33-.91"/><path class="cls-3" d="m82.69,135.26s.01.02.02.02c.06.1.12.18.2.25.08.09.17.17.27.24.09.08.19.13.29.19.11.06.21.1.33.14.29.1.62.13.94.1.86-.1,1.58-.28,1.88-.8l-.07,1.08c0,.12.09.23.21.21l.88-.1c.12-.02.2-.14.16-.26l-.33-1.03c.41.43,1.16.43,2.01.33.35-.04.67-.16.94-.35"/><path class="cls-3" d="m80.31,136.91c-.1-.12-.21-.24-.3-.37h.13"/><path class="cls-3" d="m80.64,134.78c.21.54.21,1.16-.07,1.72-.07.15-.15.29-.26.41"/><path class="cls-3" d="m73.06,136.58c.58-.95,1.79-1.32,2.81-.83.24.12.45.25.62.38-.08-.27-.09-.56-.05-.84"/><path class="cls-3" d="m86.12,141.67c.25.24.54.49.83.73,1.18.98,2.78,1.09,4.06.43"/><path class="cls-3" d="m85.28,128.37c-.69.44-1.12,1.25-1.01,2.12.02.16.06.33.12.48.11.34.32.64.57.87-.21-.02-.45-.01-.73.02-1.19.14-2.06,1.23-1.92,2.43.03.18.07.36.14.52.02.08.06.15.11.23.03.08.07.16.13.22-.81-.04-1.52-.15-2.05-.48-.2-.12-.37-.27-.51-.45l.37,1.8c.04.2-.12.4-.34.4h-1.48c-.21.02-.38-.18-.34-.38l.34-1.81c-.45.61-1.26.86-2.24.95-.33.03-.69.04-1.06.04-1.68.02-3.11-1.09-3.57-2.62"/><path class="cls-3" d="m90.86,128.75c-.32-1.24-.87-2.41-1.66-3.43"/><path class="cls-3" d="m91.13,132.41c-.09.99-.33,1.96-.71,2.87"/><path class="cls-3" d="m69.95,140.31c-1.51-1.26-3.02-2.67-3.54-4.56-.45-1.63-.07-3.37.4-5,.92-3.16,2.2-6.22,3.82-9.09,2.63-.7,4.77-1.88,6.2-3.79h7.19c2.25,3.02,6.29,4.19,11.19,4.59,1.94,2.6,2.9,5.94,2.52,9.17-.08.68-.22,1.35-.42,2"/><path class="cls-3" d="m92.95,140.17c-.83.67-1.74,1.23-2.72,1.67-.86.38-1.97.62-2.64-.03-.55-.53-.52-1.44-.19-2.12.34-.68.91-1.21,1.42-1.78.68-.78,1.22-1.67,1.6-2.63.67-.43,1.07-1.23.97-2.07-.04-.29-.13-.56-.26-.8.13-1.22.04-2.47-.27-3.66-.87-.21-1.79-.1-2.58.31-.44-.7-1.24-1.1-2.11-1-.32.04-.63.15-.89.31-.55-.33-1.2-.51-1.89-.5-.46,0-.87.05-1.22.13.55-.66.88-1.5.87-2.43-.01-2.04-1.69-3.69-3.73-3.67-2.05.01-3.69,1.69-3.68,3.73,0,.93.36,1.77.92,2.41-.36-.08-.77-.12-1.23-.11-.23,0-.45.02-.66.07-1.72.32-3.03,1.85-3.01,3.66,0,.37.06.72.16,1.05-.24.76-.3,1.53-.02,2.28.24.65.71,1.17,1.27,1.59.52.4,1.12.73,1.69,1.03,1.62.85,3.23,1.69,4.85,2.54.49.26,1,.52,1.46.83"/><path class="cls-3" d="m97.31,133.63c2.71,3.8,5.08,7.81,6.34,12.27.64,2.29.95,4.88-.22,6.95-.51.91-1.25,1.63-2.09,2.24-.72.53-1.51.98-2.3,1.39-.86.45-1.72.88-2.6,1.29-2.48,1.15-5.04,2.14-7.66,2.95-2.12.66-4.32,1.19-6.53,1.34-1.19.09-2.39.06-3.58-.13-1.25-.19-2.48-.59-3.61-1.17-1.94-1-3.57-2.54-4.39-4.55-.78-1.9-.78-4.03-.77-6.09.02-3.27.03-6.54.05-9.81l.21.18c2.09,1.73,4.23,3.42,6.59,4.76,1.02.59,2.13,1.11,3.3,1.12,1.18.02,2.44-.62,2.8-1.74.32-.96-.08-2.04-.76-2.78-.3-.33-.65-.62-1.03-.87.05-.08.1-.16.14-.25.52-1.1.06-2.4-1.03-2.92-.25-.11-.47-.2-.69-.25.33-.14.62-.36.83-.65.13.14.26.26.4.37,1.12.93,2.19,1.61,3.18,1.36l-1.42,1.17c-.16.14-.17.39,0,.52l1.15.94c.16.14.41.09.51-.09l.87-1.62c-.03.75.43,1.44,1.12,2.11-1.08-.11-2.09.59-2.36,1.66-.27,1.18.44,2.35,1.62,2.64.83.2,1.57.29,2.04-.09l-.46.98c-.05.12.02.24.14.27l.85.21c.13.03.24-.06.25-.19l.05-1.08c.23.56.93.82,1.77,1.02,1.17.28,2.35-.44,2.63-1.61.28-1.19-.43-2.36-1.62-2.64h-.02c.43-.24.83-.54,1.15-.94.43-.52.69-1.11.79-1.73,2.07-1.67,3.63-3.99,4.36-6.54Z"/><path class="cls-3" d="m101.33,155.08h0c.54.64,1.1,1.24,1.69,1.82.81.81,1.76,1.62,2.9,1.67,1.54.08,2.76-1.21,3.75-2.4,1.42-1.7,2.84-3.4,4.26-5.11.73-.87,1.52-1.78,2.61-2.09,1.09-.3,2.52.36,2.55,1.49.02.57-.31,1.09-.62,1.56-1.9,2.9-3.79,5.8-5.81,8.62-1.21,1.68-2.56,3.42-4.51,4.12-2.1.77-4.51.14-6.37-1.12-1.85-1.25-3.26-3.06-4.59-4.86-.25-.33-.5-.67-.76-1.01"/><path class="cls-3" d="m82.25,162.06c-3.78,4.62-7.57,9.24-11.36,13.85-.99,1.22-2.07,2.49-3.56,2.99-1.48.49-3.47-.17-3.8-1.7-.26-1.2.54-2.34,1.29-3.31,3.41-4.38,6.83-8.75,10.24-13.13"/></g></svg>