<?xml version="1.0" encoding="UTF-8"?><svg id="Layer_2" xmlns="http://www.w3.org/2000/svg" viewBox="0 0 161.09 234.55"><defs><style>.cls-1{fill:#ecede8;}.cls-1,.cls-2{stroke-width:0px;}.cls-3{fill:none;stroke:#000;stroke-linecap:round;stroke-linejoin:round;stroke-width:.5px;}.cls-2{fill:#8b001b;}</style></defs><g id="Layer_2-2"><rect class="cls-1" width="161.09" height="234.55" rx="5" ry="5"/><path class="cls-2" d="m145.33,218.83c-2.77,2.66-7.13,4.72-11.45,4.93-.4-.22-.47-.83-.11-1.26,4.39-1.08,6.3-2.56,8.31-5.04,1.91-2.38,2.7-5.83,2.7-9.18,0-3.82-1.26-8.31-3.96-8.31-2.16,0-2.74,2.38-2.74,4.07,0,2.45,1.01,6.84,4.1,6.84.25.04.5,0,.83-.04.22.14.29.4.25.65-.65.76-2.34,1.58-3.6,1.58-4.46,0-6.48-3.35-6.48-6.8,0-4.72,3.24-7.96,8.24-7.96,5.47,0,8.6,4,8.6,9.65,0,4.07-1.84,8.1-4.72,10.87Z"/><polygon class="cls-2" points="141.63 189.28 148.67 180 141.63 170.72 134.59 180 141.63 189.28"/><path class="cls-2" d="m15.76,15.73c2.77-2.66,7.13-4.72,11.45-4.93.4.22.47.83.11,1.26-4.39,1.08-6.3,2.56-8.31,5.04-1.91,2.38-2.7,5.83-2.7,9.18,0,3.82,1.26,8.31,3.96,8.31,2.16,0,2.74-2.38,2.74-4.07,0-2.45-1.01-6.84-4.1-6.84-.25-.04-.5,0-.83.04-.22-.14-.29-.4-.25-.65.65-.76,2.34-1.58,3.6-1.58,4.46,0,6.48,3.35,6.48,6.8,0,4.72-3.24,7.96-8.24,7.96-5.47,0-8.6-4-8.6-9.65,0-4.07,1.84-8.1,4.72-10.87Z"/><polygon class="cls-2" points="19.47 45.27 12.43 54.55 19.47 63.84 26.51 54.55 19.47 45.27"/><polygon class="cls-2" points="102.9 37.69 99.47 47.56 89.03 46.92 92.46 37.04 102.9 37.69"/><polygon class="cls-2" points="86.42 73.84 84.59 79.11 79.02 78.77 80.85 73.49 86.42 73.84"/><polygon class="cls-2" points="91.62 54.25 88.56 63.06 79.25 62.48 82.31 53.67 91.62 54.25"/><polygon class="cls-2" points="76.61 66.29 74.34 72.81 67.44 72.39 69.71 65.86 76.61 66.29"/><path class="cls-2" d="m85.73,107l-2.96,6.32h-3.04c.1-.62.08-1.27-.07-1.93-.64-2.77-3.41-4.49-6.18-3.85-2.63.61-4.32,3.14-3.92,5.78h-7.59l-1.16-1,7.66-16.33,1.3-2.76,2.81,2.42,13.15,11.35Z"/><polygon class="cls-2" points="103.09 113.32 118.82 164.73 118.81 164.73 64.78 164.73 49.05 113.32 57.38 113.32 61.97 113.32 69.56 113.32 79.73 113.32 82.77 113.32 93.27 113.32 103.09 113.32"/><polygon class="cls-3" points="102.9 37.69 92.46 37.04 89.03 46.92 99.47 47.56 102.9 37.69"/><polygon class="cls-3" points="91.62 54.25 82.31 53.67 79.25 62.48 88.56 63.06 91.62 54.25"/><polygon class="cls-3" points="76.61 66.29 69.71 65.86 67.44 72.39 74.34 72.81 76.61 66.29"/><polygon class="cls-3" points="86.42 73.84 80.85 73.49 79.02 78.77 84.59 79.11 86.42 73.84"/><polyline class="cls-3" points="96.32 91.2 94.6 91.2 90.32 91.2 69.77 91.2 47.56 91.2 43.59 91.2 42.28 91.2"/><polyline class="cls-3" points="82.77 113.32 93.27 113.32 103.09 113.32 118.82 164.73 118.81 164.73"/><line class="cls-3" x1="69.56" y1="113.32" x2="79.73" y2="113.32"/><polyline class="cls-3" points="49.05 113.32 57.38 113.32 61.97 113.32"/><line class="cls-3" x1="103.09" y1="113.32" x2="96.32" y2="91.2"/><polyline class="cls-3" points="64.78 164.73 118.81 164.73 118.81 176.98 116.95 176.98 112.98 176.98 70.22 176.98 65.93 176.98 64.78 176.98"/><polygon class="cls-3" points="64.78 164.73 64.78 176.98 61.03 164.73 46.23 116.37 45.3 113.32 43.09 106.1 42.28 103.44 42.28 91.2 49.05 113.32 64.78 164.73"/><path class="cls-3" d="m72.58,95.65l13.15,11.35-2.96,6.32h-3.04c.1-.62.08-1.27-.07-1.93-.64-2.77-3.41-4.49-6.18-3.85-2.63.61-4.32,3.14-3.92,5.78h-7.59l-1.16-1,7.66-16.33,1.3-2.76,2.81,2.42Z"/><path class="cls-3" d="m93.27,113.32c-.13-2.08-.88-4.2-1.79-6.11-1.44-3.06-3.3-6.05-3.66-9.42-.11-1.1-.12-2.36-.95-3.1-.84-.76-2.14-.62-3.27-.44-3.69.6-7.35,1.06-11.02,1.4"/><path class="cls-3" d="m68.47,95.99c-4.64.33-9.3.48-14,.47-1.44-.01-2.33,1.54-1.66,2.82,2.3,4.38,3.85,9.15,4.57,14.04"/><path class="cls-3" d="m90.32,91.2c.04-2.46-.03-4.72.02-7.18.01-.68.03-1.38.27-2.03.24-.64.75-1.23,1.42-1.36.88-.18,1.76.47,2.15,1.28.38.81.39,1.74.4,2.64.01,2.2.02,4.4.02,6.6"/><path class="cls-3" d="m47.56,90.9c.12-2.01.25-4.02.37-6.03.05-.81.1-1.64-.05-2.44s-.53-1.59-1.18-2.08c-.66-.49-1.62-.6-2.29-.14-.89.61-.96,1.87-.95,2.95.04,2.67.09,5.33.13,7.99"/><path class="cls-3" d="m70.22,176.96v.02c-.05,2.46.02,4.71-.02,7.16-.02.69-.03,1.39-.27,2.03s-.75,1.23-1.42,1.37c-.88.18-1.76-.47-2.15-1.28s-.4-1.75-.4-2.64c-.01-2.21-.02-4.41-.03-6.61"/><path class="cls-3" d="m46.23,116.37c-.18.14-.39.23-.62.28-.88.18-1.76-.47-2.15-1.28-.38-.81-.4-1.74-.4-2.64-.01-2.2-.02-4.4-.03-6.61"/><path class="cls-3" d="m112.98,177.26c-.13,2.01-.25,4.02-.38,6.03-.05.82-.1,1.64.05,2.44.16.81.53,1.6,1.19,2.08.65.49,1.61.61,2.29.14.89-.61.96-1.87.94-2.95-.04-2.66-.08-5.33-.12-7.99"/></g></svg>