<?xml version="1.0" encoding="UTF-8"?><svg id="Layer_2" xmlns="http://www.w3.org/2000/svg" viewBox="0 0 161.09 234.55"><defs><style>.cls-1,.cls-2{stroke:#000;stroke-linecap:round;stroke-linejoin:round;stroke-width:.5px;}.cls-1,.cls-3{fill:#8b001b;}.cls-4{fill:#ecede8;}.cls-4,.cls-3{stroke-width:0px;}.cls-2{fill:none;}</style></defs><g id="Layer_2-2"><rect class="cls-4" width="161.09" height="234.55" rx="5" ry="5"/><path class="cls-3" d="m145.33,218.83c-2.77,2.66-7.13,4.72-11.45,4.93-.4-.22-.47-.83-.11-1.26,4.39-1.08,6.3-2.56,8.31-5.04,1.91-2.37,2.7-5.83,2.7-9.18,0-3.82-1.26-8.31-3.96-8.31-2.16,0-2.74,2.37-2.74,4.07,0,2.45,1.01,6.84,4.1,6.84.25.04.5,0,.83-.04.22.14.29.4.25.65-.65.76-2.34,1.58-3.6,1.58-4.46,0-6.48-3.35-6.48-6.8,0-4.71,3.24-7.96,8.24-7.96,5.47,0,8.6,4,8.6,9.65,0,4.07-1.84,8.1-4.72,10.87Z"/><path class="cls-3" d="m134.66,182.86c.2,1.21.74,2.05,1.8,2.68.9.54,2.06.54,3.03.15.51-.2.97-.38,1.39-.63.27-.16.52-.34.76-.58.23.23.49.42.76.58.42.25.88.43,1.39.63.98.38,2.13.38,3.03-.15,1.05-.63,1.59-1.47,1.8-2.68.17-1.01.02-2.06-.3-3.03-.33-1.01-1.11-2.03-1.88-2.77-.77-.74-1.4-1.2-2.32-1.74-.74-.44-1.49-.85-2.25-1.23-.14-.07-.3-.07-.44,0-.77.38-1.52.79-2.25,1.23-.91.55-1.55,1.01-2.32,1.74-.77.74-1.54,1.75-1.88,2.77-.32.97-.47,2.03-.3,3.03Z"/><path class="cls-3" d="m15.76,15.73c2.77-2.66,7.13-4.72,11.45-4.93.4.22.47.83.11,1.26-4.39,1.08-6.3,2.56-8.31,5.04-1.91,2.38-2.7,5.83-2.7,9.18,0,3.82,1.26,8.31,3.96,8.31,2.16,0,2.74-2.38,2.74-4.07,0-2.45-1.01-6.84-4.1-6.84-.25-.04-.5,0-.83.04-.22-.14-.29-.4-.25-.65.65-.76,2.34-1.58,3.6-1.58,4.46,0,6.48,3.35,6.48,6.8,0,4.71-3.24,7.96-8.24,7.96-5.47,0-8.6-4-8.6-9.65,0-4.07,1.84-8.1,4.72-10.87Z"/><path class="cls-3" d="m26.44,51.69c-.2-1.21-.74-2.05-1.8-2.68-.9-.54-2.06-.54-3.03-.15-.51.2-.97.38-1.39.63-.27.16-.52.34-.76.58-.23-.23-.49-.42-.76-.58-.42-.25-.88-.43-1.39-.63-.98-.38-2.13-.38-3.03.15-1.05.63-1.59,1.47-1.8,2.68-.17,1.01-.02,2.06.3,3.03.33,1.01,1.11,2.03,1.88,2.77.77.74,1.4,1.2,2.32,1.74.74.44,1.49.85,2.25,1.23.14.07.3.07.44,0,.77-.38,1.52-.79,2.25-1.23.91-.55,1.55-1.01,2.32-1.74.77-.74,1.54-1.75,1.88-2.77.32-.97.47-2.03.3-3.03Z"/><path class="cls-3" d="m138.38,131.45c.86.82,1.25,1.71,1.18,2.9-.05,1.02-.68,1.95-1.52,2.53-.43.3-.83.57-1.26.77-.27.13-.56.24-.87.3.06.31.07.62.05.92-.03.47-.13.94-.25,1.46-.22.99-.85,1.92-1.77,2.36-1.08.5-2.05.48-3.13,0-.91-.42-1.67-1.11-2.28-1.9-.63-.81-1.03-1.99-1.21-3.01-.17-1.02-.2-1.78-.14-2.81.05-.83.12-1.66.23-2.48.02-.15.11-.28.24-.36.73-.41,1.46-.79,2.22-1.15.93-.44,1.65-.7,2.66-.92s2.25-.29,3.24-.01c.96.28,1.89.72,2.61,1.41Z"/><path class="cls-3" d="m121.55,152.59c.6,1.2.8,2.79.75,4.13-.04,1.34-.2,2.31-.54,3.6-.28,1.04-.59,2.07-.95,3.09-.06.18-.21.33-.39.39-1.02.33-2.06.62-3.1.88-1.3.31-2.28.46-3.62.47-1.33.02-2.93-.21-4.12-.83-1.14-.59-2.2-1.4-2.94-2.45-.88-1.27-1.14-2.5-.74-3.99.33-1.27,1.37-2.29,2.58-2.81.63-.27,1.21-.51,1.8-.65.38-.1.77-.15,1.18-.15.01-.42.07-.8.18-1.19.16-.59.41-1.16.69-1.78.54-1.2,1.58-2.22,2.86-2.53,1.49-.36,2.72-.08,3.97.83,1.04.75,1.83,1.83,2.39,2.99Z"/><path class="cls-3" d="m111.22,103.13c.52,1.12.49,2.14-.03,3.26-.44.94-1.17,1.73-1.99,2.36-.86.65-2.09,1.06-3.15,1.23s-1.85.2-2.93.13c-.86-.06-1.72-.15-2.58-.27-.15-.02-.29-.11-.37-.25-.11-.2-.23-.41-.33-.62.42-.41.83-.84,1.22-1.29.9-1.04,1.75-2.46,1.16-3.69-.55-1.15-2.13-1.44-3.33-1-.35.13-.67.3-.98.51-.08-.81-.05-1.65.16-2.38.29-.99.77-1.96,1.49-2.7.86-.89,1.79-1.29,3.03-1.21,1.05.07,2.02.73,2.62,1.6.3.46.58.87.79,1.32.14.29.24.59.3.91.33-.06.65-.07.96-.04.49.03.98.14,1.52.26,1.03.24,2,.91,2.44,1.87Z"/><path class="cls-3" d="m102.76,69.05c1.01,4.48.6,9.24-.58,13.68-1.25,4.62-4.46,9.39-7.72,12.87-3.27,3.5-5.99,5.73-9.95,8.4-1.61,1.08-3.22,2.12-4.88,3.14-.05.03-.11.07-.16.1-1.56.98-3.15,1.92-4.75,2.83-.6.35-1.34.39-1.97.11-2.25-.97-4.47-1.98-6.67-3.05-.78-.38-1.56-.77-2.34-1.17-.48-.23-.95-.46-1.41-.71-.13-.06-.24-.13-.36-.19-4.04-2.13-6.94-4.01-10.46-7.02-3.65-3.1-7.38-7.48-9.12-11.92-1.68-4.28-2.63-8.97-2.13-13.53.61-5.46,2.82-9.38,7.38-12.47,3.89-2.63,9.08-2.91,13.55-1.46,2.32.76,4.42,1.46,6.36,2.47,1.26.64,2.44,1.4,3.55,2.39.99-1.11,2.07-1.99,3.24-2.78,1.82-1.21,3.84-2.15,6.05-3.16,4.29-1.96,9.47-2.25,13.64-.07,4.87,2.54,7.5,6.18,8.73,11.54Zm-29.39,34.66c6.12-.35,10.8-5.59,10.45-11.71-.34-6.12-5.58-10.8-11.7-10.45-6.12.34-10.81,5.58-10.45,11.7.34,6.13,5.58,10.8,11.7,10.46Z"/><path class="cls-3" d="m75.04,166.2c.08,1.49-.7,2.95-1.83,3.94-.59.5-1.13.96-1.72,1.33-.38.23-.78.43-1.23.57.13.45.2.9.22,1.34.03.7-.04,1.4-.13,2.18-.17,1.49-.94,2.95-2.22,3.73-1.5.91-2.93,1.03-4.59.48-1.39-.46-2.62-1.35-3.64-2.41-1.06-1.09-1.83-2.75-2.24-4.22-.42-1.47-.58-2.57-.66-4.1-.06-1.22-.08-2.44-.05-3.67.01-.22.12-.42.3-.55.99-.72,2.01-1.39,3.06-2.03,1.3-.8,2.3-1.29,3.75-1.77,1.44-.48,3.25-.78,4.75-.53,1.44.25,2.88.76,4.04,1.64,1.39,1.07,2.1,2.32,2.19,4.07Z"/><path class="cls-3" d="m37.3,148.48c.25,1.32.3,2.3.24,3.64-.04,1.07-.13,2.15-.26,3.22-.02.19-.13.36-.3.46-.92.54-1.87,1.05-2.84,1.53-1.2.58-2.12.94-3.42,1.24-1.31.31-2.91.42-4.2.08-1.25-.33-2.46-.9-3.41-1.77-1.13-1.04-1.64-2.19-1.58-3.73.05-1.32.85-2.53,1.92-3.3.55-.4,1.06-.76,1.61-1.03.35-.17.72-.31,1.13-.4-.09-.4-.11-.8-.09-1.19.03-.61.15-1.22.29-1.89.27-1.29,1.06-2.51,2.25-3.09,1.38-.67,2.64-.66,4.05-.05,1.18.52,2.18,1.4,2.99,2.41.83,1.04,1.38,2.56,1.62,3.87Z"/><path class="cls-2" d="m79.63,107.14c1.66-1.02,3.27-2.06,4.88-3.14,3.96-2.67,6.68-4.9,9.95-8.4,3.26-3.48,6.47-8.25,7.72-12.87,1.18-4.44,1.59-9.2.58-13.68-1.23-5.36-3.86-9-8.73-11.54-4.17-2.18-9.35-1.89-13.64.07-2.21,1.01-4.23,1.95-6.05,3.16-1.17.79-2.25,1.67-3.24,2.78-1.11-.99-2.29-1.75-3.55-2.39-1.94-1.01-4.04-1.71-6.36-2.47-4.47-1.45-9.66-1.17-13.55,1.46-4.56,3.09-6.77,7.01-7.38,12.47-.5,4.56.45,9.25,2.13,13.53,1.74,4.44,5.47,8.82,9.12,11.92,3.52,3.01,6.42,4.89,10.46,7.02.12.06.23.13.36.19.46.25.93.48,1.41.71.78.4,1.56.79,2.34,1.17"/><path class="cls-2" d="m73.37,103.71c-6.12.34-11.36-4.33-11.7-10.46-.36-6.12,4.33-11.36,10.45-11.7,6.12-.35,11.36,4.33,11.7,10.45.35,6.12-4.33,11.36-10.45,11.71Z"/><path class="cls-2" d="m97.91,103.5c-.08-.81-.05-1.65.16-2.38.29-.99.77-1.96,1.49-2.7.86-.89,1.79-1.29,3.03-1.21,1.05.07,2.02.73,2.62,1.6.3.46.58.87.79,1.32.14.29.24.59.3.91.33-.06.65-.07.96-.04.49.03.98.14,1.52.26,1.03.24,2,.91,2.44,1.87.52,1.12.49,2.14-.03,3.26-.44.94-1.17,1.73-1.99,2.36-.86.65-2.09,1.06-3.15,1.23s-1.85.2-2.93.13c-.86-.06-1.72-.15-2.58-.27-.15-.02-.29-.11-.37-.25-.11-.2-.23-.41-.33-.62"/><path class="cls-2" d="m109.58,164.32c1.19.62,2.79.85,4.12.83,1.34-.01,2.32-.16,3.62-.47,1.04-.26,2.08-.55,3.1-.88.18-.06.33-.21.39-.39.36-1.02.67-2.05.95-3.09.34-1.29.5-2.26.54-3.6.05-1.34-.15-2.93-.75-4.13-.56-1.16-1.35-2.24-2.39-2.99-1.25-.91-2.48-1.19-3.97-.83-1.28.31-2.32,1.33-2.86,2.53-.28.62-.53,1.19-.69,1.78-.11.39-.17.77-.18,1.19-.41,0-.8.05-1.18.15-.59.14-1.17.38-1.8.65-1.21.52-2.25,1.54-2.58,2.81-.4,1.49-.14,2.72.74,3.99.74,1.05,1.8,1.86,2.94,2.45Z"/><path class="cls-2" d="m26.52,158.65c1.29.34,2.89.23,4.2-.08,1.3-.3,2.22-.66,3.42-1.24.97-.48,1.92-.99,2.84-1.53.17-.1.28-.27.3-.46.13-1.07.22-2.15.26-3.22.06-1.34.01-2.32-.24-3.64-.24-1.31-.79-2.83-1.62-3.87-.81-1.01-1.81-1.89-2.99-2.41-1.41-.61-2.67-.62-4.05.05-1.19.58-1.98,1.8-2.25,3.09-.14.67-.26,1.28-.29,1.89-.02.39,0,.79.09,1.19-.41.09-.78.23-1.13.4-.55.27-1.06.63-1.61,1.03-1.07.77-1.87,1.98-1.92,3.3-.06,1.54.45,2.69,1.58,3.73.95.87,2.16,1.44,3.41,1.77Z"/><path class="cls-2" d="m135.77,130.04c-.99-.28-2.23-.21-3.24.01s-1.73.48-2.66.92c-.76.36-1.49.74-2.22,1.15-.13.08-.22.21-.24.36-.11.82-.18,1.65-.23,2.48-.06,1.03-.03,1.79.14,2.81.18,1.02.58,2.2,1.21,3.01.61.79,1.37,1.48,2.28,1.9,1.08.49,2.05.51,3.13,0,.92-.44,1.55-1.37,1.77-2.36.12-.52.22-.99.25-1.46.02-.3.01-.61-.05-.92.31-.06.6-.17.87-.3.43-.2.83-.47,1.26-.77.84-.58,1.47-1.51,1.52-2.53.07-1.19-.32-2.08-1.18-2.9-.72-.69-1.65-1.13-2.61-1.41Z"/><path class="cls-2" d="m68.81,160.49c-1.5-.25-3.31.05-4.75.53-1.45.48-2.45.97-3.75,1.77-1.05.64-2.07,1.31-3.06,2.03-.18.13-.29.33-.3.55-.03,1.23-.01,2.45.05,3.67.08,1.53.24,2.63.66,4.1.41,1.47,1.18,3.13,2.24,4.22,1.02,1.06,2.25,1.95,3.64,2.41,1.66.55,3.09.43,4.59-.48,1.28-.78,2.05-2.24,2.22-3.73.09-.78.16-1.48.13-2.18-.02-.44-.09-.89-.22-1.34.45-.14.85-.34,1.23-.57.59-.37,1.13-.83,1.72-1.33,1.13-.99,1.91-2.45,1.83-3.94-.09-1.75-.8-3-2.19-4.07-1.16-.88-2.6-1.39-4.04-1.64Z"/><path class="cls-2" d="m71.1,113.82c-2.82,1.53-4.54,4.62-5.18,7.77s-.34,6.41-.03,9.61c.16,1.68.1,3.8-1.42,4.53-1.12.53-2.52-.07-3.25-1.07-.72-1-.91-2.29-.97-3.52-.28-6.32,2.36-12.35,4.94-18.12"/><path class="cls-2" d="m97.91,103.5c.31-.21.63-.38.98-.51,1.2-.44,2.78-.15,3.33,1,.59,1.23-.26,2.65-1.16,3.69-.39.45-.8.88-1.22,1.29-4.33,4.29-10.19,6.99-16.25,7.52,2.49,6.44,4.33,13.06,4.22,19.91-.04,2.29-.37,4.75-1.94,6.42-.12.13-.26.26-.39.37-1.56,1.37-3.77,1.8-5.85,2.13-.2.03-.41.06-.61.1-3.28.5-6.62.87-9.89.31-.43-.07-.87-.17-1.29-.28-1.87-.49-3.67-1.33-5.14-2.53-.89-.73-1.66-1.59-2.26-2.6-1.4-2.36-1.69-5.22-1.7-7.97-.03-8.87,2.56-17.74,7.34-25.22,2.2,1.07,4.42,2.08,6.67,3.05.63.28,1.37.24,1.97-.11,1.6-.91,3.19-1.85,4.75-2.83.05-.03.11-.07.16-.1.71,1.59,1.42,3.2,2.12,4.81,5.22-.76,10.23-3.1,14.1-6.69.66-.61,1.31-1.27,2.06-1.76Z"/><path class="cls-1" d="m79.02,145.43c4.53,3.52,9.84,6.07,15.18,8.26.73.3,1.48.6,2.27.65.79.04,1.64-.23,2.11-.86.62-.84.4-2.07-.23-2.89-.63-.83-1.57-1.34-2.48-1.83-3.47-1.86-6.93-3.71-10.39-5.57"/><path class="cls-1" d="m62.7,142.92c-2.36,2.64-4.71,5.29-7.07,7.93-.68.77-1.38,1.56-1.75,2.52s-.35,2.14.32,2.92c.81.94,2.31,1,3.43.48,1.12-.53,1.95-1.51,2.75-2.46,2.49-2.95,4.97-5.91,7.46-8.86"/></g></svg>