<?xml version="1.0" encoding="UTF-8"?><svg id="Layer_2" xmlns="http://www.w3.org/2000/svg" viewBox="0 0 161.09 234.55"><defs><style>.cls-1{fill:#ecede8;}.cls-1,.cls-2{stroke-width:0px;}.cls-2{fill:#1a1a1a;}.cls-3{fill:none;stroke:#000;stroke-linecap:round;stroke-linejoin:round;stroke-width:.5px;}</style></defs><g id="Layer_2-2"><rect class="cls-1" width="161.09" height="234.55" rx="5" ry="5"/><path class="cls-2" d="m145.33,218.83c-2.77,2.66-7.13,4.72-11.45,4.93-.4-.22-.47-.83-.11-1.26,4.39-1.08,6.3-2.56,8.31-5.04,1.91-2.37,2.7-5.83,2.7-9.18,0-3.82-1.26-8.31-3.96-8.31-2.16,0-2.74,2.37-2.74,4.07,0,2.45,1.01,6.84,4.1,6.84.25.04.5,0,.83-.04.22.14.29.4.25.65-.65.76-2.34,1.58-3.6,1.58-4.46,0-6.48-3.35-6.48-6.8,0-4.71,3.24-7.96,8.24-7.96,5.47,0,8.6,4,8.6,9.65,0,4.07-1.84,8.1-4.72,10.87Z"/><path class="cls-2" d="m134.96,180.94c.33,1.01,1.11,2.03,1.88,2.77.77.74,1.4,1.2,2.32,1.74.66.4,1.34.77,2.03,1.12.28.14.6.14.88,0,.69-.35,1.37-.72,2.03-1.12.91-.54,1.55-1.01,2.32-1.74.77-.74,1.55-1.75,1.88-2.77.32-.97.47-2.03.3-3.03-.2-1.21-.74-2.05-1.8-2.68-.9-.54-2.06-.54-3.03-.15-.51.2-.97.38-1.39.63l.38-1.94c.04-.22-.12-.42-.35-.42h-1.57c-.22,0-.39.2-.35.42l.38,1.94c-.42-.25-.88-.43-1.39-.63-.98-.38-2.13-.38-3.03.15-1.05.63-1.59,1.47-1.8,2.68-.17,1.01-.02,2.06.3,3.03Z"/><path class="cls-2" d="m15.76,15.73c2.77-2.66,7.13-4.72,11.45-4.93.4.22.47.83.11,1.26-4.39,1.08-6.3,2.56-8.31,5.04-1.91,2.38-2.7,5.83-2.7,9.18,0,3.82,1.26,8.31,3.96,8.31,2.16,0,2.74-2.38,2.74-4.07,0-2.45-1.01-6.84-4.1-6.84-.25-.04-.5,0-.83.04-.22-.14-.29-.4-.25-.65.65-.76,2.34-1.58,3.6-1.58,4.46,0,6.48,3.35,6.48,6.8,0,4.71-3.24,7.96-8.24,7.96-5.47,0-8.6-4-8.6-9.65,0-4.07,1.84-8.1,4.72-10.87Z"/><path class="cls-2" d="m26.14,53.62c-.33-1.01-1.11-2.03-1.88-2.77-.77-.74-1.4-1.2-2.32-1.74-.66-.4-1.34-.77-2.03-1.12-.28-.14-.6-.14-.88,0-.69.35-1.37.72-2.03,1.12-.91.54-1.55,1.01-2.32,1.74-.77.74-1.55,1.75-1.88,2.77-.32.97-.47,2.03-.3,3.03.2,1.21.74,2.05,1.8,2.68.9.54,2.06.54,3.03.15.51-.2.97-.38,1.39-.63l-.38,1.94c-.04.22.12.42.35.42h1.57c.22,0,.39-.2.35-.42l-.38-1.94c.42.25.88.43,1.39.63.98.38,2.13.38,3.03-.15,1.05-.63,1.59-1.47,1.8-2.68.17-1.01.02-2.06-.3-3.03Z"/><path class="cls-3" d="m132.56,158.58c.51.31,1.1.51,1.7.54,1.46.08,2.55-.4,3.56-1.47.84-.88,1.39-2.03,1.71-3.2.34-1.22.25-2.75-.03-3.99-.27-1.24-.59-2.11-1.14-3.26-.4-.83-.82-1.65-1.27-2.46-.18-.32-.5-.54-.87-.58-.92-.11-1.83-.19-2.76-.24-1.27-.06-2.2-.03-3.45.19s-2.69.72-3.7,1.49c-.68.54-1.3,1.17-1.78,1.88"/><path class="cls-3" d="m134.48,153c-.91,1.36-2.74,1.72-4.09.81-1.36-.9-1.72-2.73-.81-4.09.9-1.35,2.73-1.71,4.09-.81,1.35.91,1.71,2.74.81,4.09Z"/><path class="cls-3" d="m79.89,53.78c.49,0,.99.02,1.48.04"/><path class="cls-3" d="m79.34,71.39c-1.03-.31-2.19-.26-3.11.29-1.2.71-1.81,1.67-2.04,3.05-.19,1.14-.02,2.34.34,3.44.38,1.15,1.26,2.31,2.14,3.15.87.84,1.59,1.36,2.64,1.98.76.45,1.52.87,2.31,1.27.31.16.68.16,1,0,.78-.4,1.56-.82,2.31-1.27,1.04-.62,1.76-1.14,2.64-1.98s1.75-2,2.13-3.15c.37-1.11.54-2.3.34-3.44-.22-1.38-.85-2.34-2.04-3.05-.81-.49-1.81-.58-2.73-.39"/><path class="cls-3" d="m84.93,76.63c0,1.56-1.26,2.81-2.82,2.81s-2.81-1.25-2.81-2.81,1.26-2.81,2.81-2.81,2.82,1.25,2.82,2.81Z"/><path class="cls-3" d="m86.47,66.04c1.5-.14,3.04-.22,4.59-.22,22.39,0,41.02,16.14,44.87,37.41"/><path class="cls-3" d="m84.92,54.06c26.37,2.69,47.47,23.13,51.17,49.17"/><path class="cls-3" d="m61.31,143.06c.3-.07.59-.17.91-.27,1.2-.39,2.26-1.25,2.69-2.43.49-1.38.36-2.56-.36-3.83-.61-1.06-1.55-1.92-2.57-2.57-1.07-.68-2.55-1.04-3.82-1.14s-2.2-.04-3.45.14c-.92.13-1.83.3-2.73.49-.26.06-.49.21-.66.41"/><path class="cls-3" d="m58.7,142.52c-.21.17-.42.31-.66.4-1.19.54-2.64.23-3.49-.82-.85-1.03-.87-2.46-.16-3.52.15-.23.35-.45.58-.64,1.26-1.03,3.12-.84,4.15.42,1.03,1.26.85,3.12-.41,4.15Z"/><path class="cls-3" d="m124.4,147.01c6.16-7.86,10.33-17.33,11.75-27.7"/><path class="cls-3" d="m126.33,140.35c4.89-5.94,8.3-13.14,9.67-21.04"/><path class="cls-3" d="m102.62,155.58c2.73-.71,5.35-1.67,7.85-2.85"/><path class="cls-3" d="m80.76,155.89c3.31.76,6.75,1.17,10.29,1.17,2.48,0,4.93-.2,7.3-.58"/><path class="cls-3" d="m69.44,151.62c1.75.94,3.57,1.78,5.45,2.49"/><path class="cls-3" d="m71.09,70.42c-15.19,7.4-25.65,22.99-25.65,41.02,0,8.15,2.14,15.8,5.88,22.42-.06.07-.12.16-.15.25-.38.85-.72,1.7-1.03,2.57-.44,1.19-.67,2.1-.83,3.35-.16,1.26-.11,2.79.35,3.98.43,1.13,1.09,2.22,2.01,3.03,1.1.96,2.24,1.33,3.69,1.12.66-.1,1.26-.39,1.78-.81"/><path class="cls-3" d="m122.44,149.37c-5.29,6.04-11.81,10.98-19.18,14.41-7.37,3.42-15.59,5.33-24.25,5.33-31.86,0-57.67-25.82-57.67-57.67s24.46-56.29,55.15-57.62"/><path class="cls-3" d="m76.37,156.96c-.42.39-.82.79-1.12,1.27-.36.58-.54,1.3-.34,1.94.11.33.31.63.39.96.09.34.03.76-.27.93-.21.13-.48.09-.68-.04-.21-.12-.36-.31-.49-.53-.59-1-.6-2.29-.1-3.34.36-.77.97-1.4,1.71-1.83"/><path class="cls-3" d="m80.06,156.57c.79,1.34,1.12,2.96.89,4.51-.04.34-.13.69-.33.97-.22.27-.58.45-.91.34-.31-.1-.5-.42-.54-.75-.04-.31.03-.64.1-.95.18-.78.34-1.58.24-2.37-.07-.5-.26-1.01-.58-1.39"/><path class="cls-3" d="m78.76,147.14c.24.1.49.2.76.31,1.12.43,2.43.44,3.45-.17,1.2-.72,1.81-1.67,2.04-3.05.19-1.14.02-2.35-.35-3.44-.38-1.15-1.26-2.31-2.13-3.15s-1.59-1.36-2.64-1.98c-.76-.45-1.53-.87-2.31-1.27-.31-.16-.68-.16-1,0-.78.4-1.56.82-2.31,1.27-1.04.62-1.76,1.14-2.64,1.98s-1.75,2-2.13,3.15c-.37,1.1-.54,2.3-.35,3.44.23,1.38.85,2.33,2.04,3.05,1.03.61,2.34.6,3.45.17.35-.13.68-.27,1-.41"/><path class="cls-3" d="m79.9,142.32c0,1.55-1.26,2.81-2.82,2.81s-2.81-1.26-2.81-2.81,1.26-2.82,2.81-2.82,2.82,1.26,2.82,2.82Z"/><path class="cls-3" d="m102.49,155.08c.05.16.1.33.13.49.48,1.8.78,3.63.94,5.49.04.54.03,1.19-.44,1.47-.12.07-.24.1-.38.1-.35,0-.71-.22-.91-.53-.28-.42-.31-.94-.35-1.44-.1-1.57-.2-3.16-.3-4.73"/><path class="cls-3" d="m101.16,155.5c0,.14.02.28.03.42-.45.1-.9.2-1.35.29"/><path class="cls-3" d="m103.38,145.55c1.28.33,2.68.22,3.8-.44,1.56-.94,2.37-2.19,2.68-3.99.25-1.5.03-3.08-.45-4.52-.5-1.51-1.65-3.02-2.8-4.12-1.15-1.1-2.1-1.79-3.45-2.6-1-.58-2.01-1.14-3.03-1.66-.41-.21-.9-.21-1.31,0-1.03.52-2.04,1.08-3.03,1.66-1.36.81-2.3,1.5-3.45,2.6s-2.3,2.61-2.8,4.12c-.48,1.45-.7,3.02-.45,4.52.31,1.8,1.11,3.06,2.67,3.99,1.08.64,2.4.76,3.63.49"/><path class="cls-3" d="m103.15,138.6c0,2.04-1.65,3.69-3.68,3.69s-3.69-1.65-3.69-3.69,1.65-3.68,3.69-3.68,3.68,1.65,3.68,3.68Z"/><path class="cls-3" d="m102.46,145.25c.06.03.13.05.21.08.23.09.47.16.71.22"/><path class="cls-3" d="m111.84,149.21c-.3-.42-.59-.92-.46-1.41.18-.66.97-.89,1.63-1.12.31-.11.6-.23.88-.39-.77-.21-1.48-.54-1.99-1.15-.54-.67-.73-1.58-.6-2.44.08-.54.28-1.04.56-1.51"/><path class="cls-3" d="m112.96,150.67c-.05-.04-.09-.09-.13-.14h0"/><path class="cls-3" d="m126.09,141.28c.09.58.02,1.18-.2,1.72-.41,1.02-1.33,1.8-2.38,2.12-.39.12-.77.18-1.18.19-.22.82-.63,1.6-1.13,2.28-.96,1.3-2.26,2.32-3.53,3.32-.54.41-1.1.85-1.76.98-.21.04-.42.05-.64.04"/><path class="cls-3" d="m111.84,149.21s0,.03.02.04c.31.44.62.89.97,1.29"/><path class="cls-3" d="m126.33,140.36c.02-.14.04-.29.04-.44.05-1.07-.22-2.14-.67-3.1-.47-1.01-1.39-1.98-2.27-2.64-.89-.67-1.59-1.08-2.61-1.53-.73-.33-1.48-.64-2.23-.93-.31-.11-.64-.07-.91.11-.67.44-1.34.91-1.98,1.39-.88.67-1.48,1.22-2.19,2.07-.71.85-1.39,2-1.62,3.08-.19.93-.24,1.91-.04,2.82.03.12.05.23.09.35.35,1.23,1.01,2.04,2.17,2.56.65.29,1.38.33,2.07.19.38-.07.75-.2,1.09-.38.5-.27.95-.51,1.36-.82l1.57-.18c.46.21.95.35,1.5.49.26.07.54.11.81.12.34.04.67,0,1.01-.06.48-.09.92-.28,1.3-.58.61-.46,1.03-.99,1.26-1.61h0c.12-.3.2-.59.24-.93Z"/><path class="cls-3" d="m119.25,141.55c-1.41.15-2.69-.85-2.84-2.28-.16-1.41.85-2.68,2.27-2.84s2.69.85,2.84,2.27c.16,1.41-.85,2.69-2.27,2.85Z"/><path class="cls-3" d="m132.56,158.58c.04.87-.03,1.72-.34,2.52h0c.27.97.46,1.95.57,2.94.05.47.08.95-.1,1.39-.17.44-.62.8-1.09.73-.57-.08-.86-.71-1.03-1.26-.15-.49-.29-1-.39-1.51-.31.16-.62.29-.95.38h0c-.57.15-1.16.2-1.74.13-.34-.03-.68-.11-1.01-.22-.11-.03-.22-.07-.31-.12-.49-.22-.94-.53-1.32-.92-.67-.66-1.13-1.52-1.27-2.46-.15-1.03.08-2.1.64-2.97-.92-2.45-1.51-5.11-1.76-7.83,0-.03,0-.04,0-.07-.06-.76-.1-1.56.16-2.23s.92-1.11,1.39-.72c.19.15.31.4.4.67.05.14.1.31.13.46,0,.05.03.12.04.17.5,2.17,1,4.33,1.49,6.49.27.13.56.22.85.28.63.14,1.21.27,1.79.3l1.5,1.01c.25.52.58,1.01.95,1.54s.85.99,1.41,1.32Z"/><path class="cls-3" d="m124.83,162.63c-.42,1.49-.67,3.04-.31,4.53.09.38.32.82.71.81.38,0,.58-.44.69-.81.32-1.14.5-2.32.56-3.5"/><path class="cls-3" d="m127.48,163.89c-.37,1.39-.56,2.82-.22,4.2.09.38.31.82.7.81.39,0,.59-.44.7-.81.4-1.4.58-2.87.57-4.33"/><path class="cls-3" d="m111.84,149.21c-.4.17-.84.26-1.26.3-.94.07-1.9-.07-2.83.06-.56.08-1.21.38-1.24.94-.02.35.23.67.56.83.31.16.69.17,1.04.14,1.6-.1,3.15-.85,4.72-.95"/><path class="cls-3" d="m115.26,151.93c-1.16,1.36-2.64,2.44-4.28,3.12-.49.21-1.1.35-1.48,0-.31-.28-.32-.79-.14-1.18.19-.38.53-.66.85-.93.09-.07.18-.14.27-.22h0c.83-.68,1.65-1.37,2.48-2.05.16.18.33.35.52.49l.03.03c.49.4,1.12.69,1.74.74Z"/><path class="cls-3" d="m98.42,155.82c-.33.03-.67.04-1,.04-.69.03-1.47,0-1.98-.49-.4-.36-.54-.91-.58-1.47-.05,0-.12,0-.17,0-.52-.09-.85-.74-.85-1.34,0-.59.22-1.16.41-1.72.6-1.67.98-3.45,1.13-5.25.31-.05.6-.14.89-.26.03,0,.06-.03.09-.04.72-.28,1.38-.55,1.97-.9h2.26c.58.33,1.19.58,1.86.85.49,2.41,1.54,4.76,1.38,7.2-.02.26-.04.53-.11.78-.13.63-.41,1.22-.91,1.63-.11.08-.22.16-.33.22-.4.22-.86.34-1.32.42-.07,0-.14.03-.22.04-.39.06-.77.12-1.16.15"/><path class="cls-3" d="m94.87,153.91c.32-.02.63-.23.84-.52.24-.34.37-.76.49-1.18.44-1.59.77-3.22.99-4.87"/><path class="cls-3" d="m103.73,153.24c.27-.06.52-.2.71-.4.38-.4.52-.97.5-1.51,0-.55-.17-1.08-.32-1.6-.41-1.4-.84-2.79-1.24-4.18"/><path class="cls-3" d="m99.84,156.21c.19,1.86.22,3.73.08,5.59-.04.54-.16,1.19-.67,1.39-.47.18-1.01-.17-1.21-.63-.21-.46-.16-.98-.12-1.48.14-1.54.29-3.08.42-4.61h0c.02-.22.04-.44.05-.66.46-.03.92-.06,1.37-.13.02.18.04.35.05.52Z"/><path class="cls-3" d="m67.04,149.55c-.05.19-.12.37-.2.55-.15.35-.33.68-.54,1-.06.1-.13.2-.21.29-.32.42-.75.78-1.26.83-.55.05-1.05-.26-1.5-.58-1.43-.99-2.78-2.1-4.02-3.32.11,1.86.03,3.75-.24,5.6-.04.31-.1.65-.26.92-.17.28-.48.49-.79.46-.37-.04-.64-.39-.71-.76-.07-.36,0-.74.07-1.1.36-2.01.28-4.11-.25-6.09.24-.18.46-.4.65-.64.19-.22.35-.45.49-.69.31-.57.6-1.08.81-1.63l.24-.2,1.15-.94c.28-.04.56-.11.85-.2.76.59,1.71.95,2.62,1.31,1.14.47,2.33,1.04,2.94,2.11.32.57.44,1.21.4,1.85"/><path class="cls-3" d="m69.44,151.62c.03.58.04,1.15.02,1.73,0,.25-.02.5-.12.74-.11.22-.32.41-.57.42-.35,0-.58-.31-.7-.66h0c-.04-.08-.05-.15-.07-.22-.15-.61-.22-1.25-.18-1.89.02-.34.06-.69.02-1.03-.02-.19-.06-.37-.15-.54-.14-.27-.38-.47-.65-.62.13-.4.22-.81.23-1.21h.07c.59,0,1.25.15,1.61.63.24.32.31.74.35,1.13.06.5.11,1.02.13,1.52Z"/><path class="cls-3" d="m68.07,153.84v-.03"/><path class="cls-3" d="m66.16,151.44c-.11,1.67-.2,3.43.57,4.91.09.16.18.32.33.43.14.11.35.15.51.07.22-.12.27-.4.29-.66l.22-2.35"/><path class="cls-3" d="m78.76,147.14l.54,2c1.48.23,3.08-.14,4.28-1.07.24-.19.48-.4.76-.52s.65-.11.86.12c.26.26.2.73-.04,1.02-.24.28-.61.42-.96.56-1.48.53-3.02.94-4.59,1.07.37,1.33.73,2.67,1.09,4,.14.52.28,1.1.06,1.58,0,.03-.02.05-.04.08-.14.27-.39.46-.67.59-.3.15-.65.24-.97.31-.05,0-.11.03-.16.04-.54.13-1.09.23-1.64.22-.31,0-.64-.06-.93-.17-.28-.11-.54-.25-.75-.46-.05-.05-.11-.12-.15-.18-.47-.59-.56-1.43-.58-2.21v-.12c0-1.04.04-2.1.14-3.14-.74.12-1.48.19-2.22.1-.92-.12-1.83-.49-2.43-1.21-.15-.18-.28-.4-.3-.63s.12-.49.34-.56c.26-.06.5.12.72.27,1.16.83,2.74,1.01,4.07.5.12-.77.26-1.55.44-2.3.2-.09.39-.19.58-.3h1.72c.26.15.53.28.81.4Z"/><path class="cls-3" d="m84.65,55.81c1.08.08,1.83,1.27,2.19,2.29.38,1.04.35,2.19.27,3.29-.12,1.56-.34,3.11-.65,4.65-.09.5-.19,1-.31,1.49,1.88.19,3.7.94,5.15,2.12,1.63,1.33,2.81,3.2,3.3,5.24.09.38.15.79.03,1.16s-.5.68-.89.6c-.29-.05-.49-.31-.67-.54-1.21-1.59-2.33-3.29-3.84-4.6-1.03-.89-2.28-1.58-3.59-1.83-.13.53-.26,1.07-.4,1.59-.24.05-.49.13-.71.22-.58.22-1.1.43-1.57.71h-1.72c-.48-.28-1.01-.49-1.58-.71-.11-.04-.22-.08-.33-.12-.25-.6-.51-1.21-.76-1.82-1.56-.04-3.12.51-4.39,1.44-1.57,1.15-2.71,2.82-3.45,4.63-.13.31-.25.65-.48.91s-.57.45-.91.38c-.63-.13-.77-.96-.69-1.6.22-1.84,1.16-3.53,2.43-4.91.26-.3.55-.58.85-.85,1.56-1.39,3.43-2.4,5.33-3.29-.67-1.74-1.26-3.5-1.74-5.29-.32-1.2-.57-2.6.18-3.6.35-.49.89-.79,1.46-1.01"/><path class="cls-3" d="m80.22,55.8c.42-.04.85-.05,1.29-.05"/><path class="cls-3" d="m80.22,55.8c-.81.06-1.62.18-2.41.39-.22.06-.43.13-.65.21-.29-.67-.49-1.39-.61-2.1-.03-.15-.04-.31-.05-.46-.04-.63.07-1.29.55-1.67.57-.46,1.46-.31,2.01.17.43.38.68.91.85,1.46.04.15.08.31.12.46.11.51.17,1.03.21,1.56Z"/><path class="cls-3" d="m84.92,54.07h0c-.02.3-.07.59-.12.89-.04.29-.09.57-.14.85h-.04c-1.03-.04-2.07-.1-3.1-.07-.06-.4-.11-.8-.13-1.2,0-.24-.02-.48,0-.72.03-.5.13-.99.37-1.43.36-.64,1.11-1.12,1.83-.96.67.14,1.15.79,1.3,1.47.09.39.09.77.05,1.17Z"/><path class="cls-2" d="m80.01,54.24c.11.51.17,1.03.21,1.56-.81.06-1.62.18-2.41.39-.22.06-.43.13-.65.21-.29-.67-.49-1.39-.61-2.1-.03-.15-.04-.31-.05-.46-.04-.63.07-1.29.55-1.67.57-.46,1.46-.31,2.01.17.43.38.68.91.85,1.46.04.15.08.31.12.46Z"/><path class="cls-2" d="m84.87,52.9c.09.39.09.77.05,1.17h0c-.02.3-.07.59-.12.89-.04.29-.09.57-.14.85h-.04c-1.03-.04-2.07-.1-3.1-.07-.06-.4-.11-.8-.13-1.2,0-.24-.02-.48,0-.72.03-.5.13-.99.37-1.43.36-.64,1.11-1.12,1.83-.96.67.14,1.15.79,1.3,1.47Z"/><path class="cls-2" d="m68.07,153.84c-.04-.07-.05-.14-.07-.22-.15-.61-.22-1.25-.18-1.89.02-.34.06-.69.02-1.03-.02-.19-.06-.37-.15-.54-.14-.27-.38-.47-.65-.62.13-.4.22-.81.23-1.21h.07c.59,0,1.25.15,1.61.63.24.32.31.74.35,1.13.06.5.11,1.02.13,1.52.03.58.04,1.15.02,1.73,0,.25-.02.5-.12.74-.11.22-.32.41-.57.42-.35,0-.58-.31-.7-.66h0Z"/><path class="cls-2" d="m68.07,153.84h0c-.07.79-.14,1.57-.22,2.36-.02.25-.07.54-.29.66-.16.08-.37.04-.51-.07-.15-.11-.24-.27-.33-.43-.76-1.48-.67-3.24-.57-4.91l-.06-.05c.07-.09.14-.19.21-.29.21-.31.39-.65.54-1,.08-.18.14-.36.2-.55.27.15.5.35.65.62.09.17.13.35.15.54.04.33,0,.68-.02,1.03-.04.64.03,1.28.18,1.89.02.07.04.14.07.22Z"/><path class="cls-2" d="m75.62,156.5c.21.21.47.35.75.46-.42.39-.82.79-1.12,1.27-.36.58-.54,1.3-.34,1.94.11.33.31.63.39.96.09.34.03.76-.27.93-.21.13-.48.09-.68-.04-.21-.12-.36-.31-.49-.53-.59-1-.6-2.29-.1-3.34.36-.77.97-1.4,1.71-1.83.04.06.1.13.15.18Z"/><path class="cls-2" d="m64.55,136.52c-.61-1.06-1.54-1.91-2.57-2.57-1.07-.68-2.55-1.04-3.82-1.14-1.27-.1-2.21-.05-3.46.14-.91.14-1.82.3-2.72.5-.26.06-.5.2-.66.41-.06.07-.11.16-.15.25-.38.85-.72,1.7-1.03,2.57-.45,1.19-.68,2.1-.83,3.36-.16,1.26-.11,2.79.35,3.97.43,1.14,1.09,2.23,2,3.04,1.1.96,2.24,1.33,3.69,1.11.66-.1,1.26-.39,1.78-.81.25-.18.46-.4.65-.64.19-.21.35-.45.49-.69.31-.57.6-1.08.81-1.63l.24-.2,1.15-.94c.28-.05.56-.11.85-.2.29-.07.59-.17.9-.27,1.2-.38,2.26-1.25,2.69-2.43.5-1.37.36-2.56-.36-3.83Zm-5.84,5.99c-.21.17-.43.31-.66.41-1.19.54-2.64.23-3.49-.82-.84-1.04-.87-2.47-.16-3.52.15-.23.35-.45.57-.64,1.26-1.02,3.13-.83,4.15.43,1.03,1.26.85,3.12-.41,4.14Z"/><path class="cls-2" d="m84.67,140.78c-.37-1.15-1.26-2.31-2.13-3.15-.87-.84-1.59-1.36-2.63-1.98-.76-.45-1.53-.87-2.32-1.27-.31-.16-.68-.16-.99,0-.79.4-1.56.82-2.32,1.27-1.04.62-1.76,1.14-2.63,1.98-.87.84-1.75,2-2.13,3.15-.37,1.09-.54,2.3-.35,3.44.23,1.38.84,2.33,2.04,3.05,1.02.61,2.34.6,3.45.17.35-.13.69-.27,1-.41.2-.09.39-.19.58-.3h1.71c.27.15.53.28.81.41.25.09.5.19.77.3,1.11.43,2.43.44,3.45-.17,1.2-.72,1.81-1.67,2.04-3.05.19-1.14.02-2.35-.35-3.44Zm-7.58,4.34c-1.55,0-2.81-1.26-2.81-2.81s1.26-2.81,2.81-2.81,2.82,1.26,2.82,2.81-1.26,2.81-2.82,2.81Z"/><path class="cls-2" d="m90.04,74.72c-.22-1.37-.84-2.33-2.04-3.05-.81-.48-1.81-.58-2.73-.38-.25.05-.49.12-.71.21-.58.23-1.1.44-1.58.71h-1.72c-.47-.27-1-.48-1.58-.71-.11-.04-.21-.08-.33-.11-1.04-.32-2.19-.26-3.11.28-1.2.72-1.81,1.68-2.05,3.05-.18,1.15-.01,2.34.35,3.45.37,1.15,1.26,2.31,2.14,3.15.87.83,1.59,1.35,2.63,1.97.76.45,1.52.88,2.31,1.27.32.17.69.17,1,0,.78-.39,1.56-.82,2.31-1.27,1.05-.62,1.77-1.14,2.64-1.97.87-.84,1.75-2,2.13-3.15.37-1.11.54-2.3.34-3.45Zm-7.92,4.72c-1.55,0-2.81-1.25-2.81-2.81s1.26-2.81,2.81-2.81,2.81,1.25,2.81,2.81-1.26,2.81-2.81,2.81Z"/><path class="cls-2" d="m139.51,150.45c-.27-1.24-.59-2.11-1.14-3.26-.4-.83-.82-1.65-1.27-2.46-.18-.32-.5-.54-.87-.58-.92-.11-1.84-.19-2.76-.24-1.27-.07-2.21-.03-3.46.19-1.25.21-2.69.71-3.69,1.49-.69.54-1.31,1.17-1.79,1.88.01.05.03.12.04.17.5,2.17,1,4.33,1.49,6.49.27.13.56.22.85.28.63.15,1.21.27,1.79.3l1.5,1.01c.25.52.59,1,.95,1.53.37.53.86.99,1.42,1.33.51.31,1.09.51,1.7.54,1.45.08,2.55-.41,3.56-1.47.83-.88,1.38-2.03,1.71-3.2.34-1.23.25-2.75-.03-4Zm-5.03,2.55c-.91,1.36-2.74,1.72-4.09.81-1.36-.9-1.72-2.74-.81-4.09.9-1.35,2.73-1.71,4.09-.81,1.35.91,1.71,2.74.81,4.09Z"/><path class="cls-2" d="m129.23,163.76c.02,1.46-.17,2.92-.57,4.33-.11.37-.31.81-.7.81-.39,0-.61-.43-.7-.81-.33-1.39-.14-2.81.22-4.2.58.07,1.17.03,1.74-.13h0Z"/><path class="cls-2" d="m125.71,136.81c-.46-1.01-1.38-1.98-2.26-2.64-.89-.68-1.6-1.08-2.61-1.53-.73-.34-1.48-.64-2.23-.93-.31-.11-.64-.07-.91.11-.68.44-1.34.91-1.98,1.39-.88.67-1.48,1.23-2.19,2.07-.71.86-1.4,2-1.62,3.09-.19.92-.25,1.9-.05,2.82.03.12.06.23.09.35.35,1.23,1.01,2.04,2.17,2.56.65.29,1.38.34,2.07.19.38-.07.74-.19,1.09-.37.5-.27.95-.52,1.35-.82l1.58-.18c.46.2.95.35,1.5.49.26.07.54.11.81.12.34.03.67.01,1.01-.06.47-.09.91-.28,1.3-.58.61-.46,1.03-.99,1.26-1.61h0c.12-.3.2-.59.24-.93.02-.14.04-.28.05-.44.05-1.07-.23-2.14-.67-3.1Zm-6.45,4.74c-1.42.15-2.69-.85-2.85-2.28-.16-1.41.86-2.68,2.27-2.84,1.41-.16,2.69.86,2.84,2.27.16,1.41-.85,2.69-2.26,2.85Z"/><path class="cls-2" d="m126.16,163.54c.1.04.21.09.31.12-.05,1.18-.23,2.36-.56,3.5-.11.37-.31.8-.69.81-.39,0-.62-.43-.71-.81-.36-1.49-.11-3.04.31-4.53h0c.39.39.83.7,1.32.92Z"/><path class="cls-2" d="m113.51,151.2c.49.4,1.12.69,1.74.74-1.16,1.36-2.64,2.44-4.28,3.12-.49.21-1.1.35-1.48,0-.31-.28-.32-.79-.14-1.18.19-.38.53-.66.85-.93.09-.07.18-.14.27-.22h0c.83-.68,1.65-1.37,2.48-2.05.16.18.33.35.52.49l.03.03Z"/><path class="cls-2" d="m111.86,149.24c.31.44.62.89.97,1.29-1.57.1-3.12.85-4.72.95-.35.03-.73.02-1.04-.14-.32-.15-.58-.48-.56-.83.04-.57.68-.86,1.24-.94.94-.13,1.89,0,2.83-.06.42-.04.86-.13,1.26-.3,0,0,0,.03.02.04Z"/><path class="cls-2" d="m109.42,136.59c-.51-1.52-1.66-3.03-2.8-4.12-1.15-1.1-2.1-1.79-3.46-2.6-.99-.59-2-1.15-3.03-1.67-.41-.2-.9-.2-1.31,0-1.02.52-2.04,1.08-3.03,1.67-1.36.81-2.3,1.5-3.45,2.6-1.16,1.09-2.31,2.6-2.8,4.12-.48,1.44-.7,3.02-.45,4.52.3,1.8,1.11,3.06,2.67,3.99,1.08.64,2.4.77,3.63.49.31-.06.61-.15.89-.26.03-.01.07-.03.09-.04.72-.28,1.38-.55,1.97-.9h2.26c.58.33,1.19.59,1.86.86.07.02.14.05.21.08.23.09.47.16.71.21,1.28.34,2.68.23,3.81-.44,1.56-.93,2.37-2.19,2.68-3.99.25-1.5.02-3.08-.45-4.52Zm-9.94,5.7c-2.04,0-3.69-1.65-3.69-3.69s1.65-3.68,3.69-3.68,3.68,1.65,3.68,3.68-1.65,3.69-3.68,3.69Z"/><path class="cls-2" d="m103.56,161.06c.04.54.03,1.19-.44,1.47-.12.07-.24.1-.38.1-.35,0-.71-.22-.91-.53-.28-.42-.31-.94-.35-1.44-.1-1.57-.2-3.16-.3-4.73,0-.14-.02-.28-.03-.42.46-.08.92-.2,1.32-.42.05.16.1.33.13.49.48,1.8.78,3.63.94,5.49Z"/><path class="cls-2" d="m99.84,156.21c.19,1.86.22,3.73.08,5.59-.04.54-.16,1.19-.67,1.39-.47.18-1.01-.17-1.21-.63-.21-.46-.16-.98-.12-1.48.14-1.54.29-3.08.42-4.61h0c.02-.22.04-.44.05-.66.46-.03.92-.06,1.37-.13.02.18.04.35.05.52Z"/><path class="cls-2" d="m80.06,156.57c.79,1.34,1.12,2.96.89,4.51-.04.34-.13.69-.33.97-.22.27-.58.45-.91.34-.31-.1-.5-.42-.54-.75-.04-.31.03-.64.1-.95.18-.78.34-1.58.24-2.37-.07-.5-.26-1.01-.58-1.39.05,0,.11-.03.16-.04.32-.07.67-.16.97-.31Z"/></g></svg>