<?xml version="1.0" encoding="UTF-8"?><svg id="Layer_2" xmlns="http://www.w3.org/2000/svg" viewBox="0 0 161.09 234.55"><defs><style>.cls-1{fill:#ecede8;}.cls-1,.cls-2{stroke-width:0px;}.cls-2{fill:#1a1a1a;}.cls-3{fill:none;stroke:#000;stroke-linecap:round;stroke-linejoin:round;stroke-width:.5px;}</style></defs><g id="Layer_2-2"><rect class="cls-1" width="161.09" height="234.55" rx="5" ry="5"/><path class="cls-2" d="m138.1,221.35c-2.27,0-4.75.04-5.22.11-.25-.07-.36-.36-.32-.58.9-1.33,2.05-3.28,3.56-5.94l10.37-18.36c.61-.11,1.66.32,1.73,1.12l-9.47,16.45c-.79,1.4-1.19,2.23-1.19,2.84,0,.47.5.58,1.04.58h7.63c2.09,0,2.45-.25,3.28-1.76.29-.32,1.08-.14,1.22.25-.61,1.76-1.08,4.03-1.4,5.4-1.19-.07-2.05-.11-4.32-.11h-6.91Z"/><path class="cls-2" d="m137.97,181.2c.43,0,.8-.04,1.12-.11-.51.59-.82,1.36-.82,2.2,0,1.86,1.51,3.37,3.37,3.37s3.37-1.51,3.37-3.37c0-.84-.31-1.61-.82-2.2.32.07.7.11,1.12.11,1.86,0,3.37-1.51,3.37-3.37s-1.51-3.37-3.37-3.37c-1.32,0-2.46.13-3.01.88l.32-1.64c.04-.19-.11-.36-.3-.36h-1.35c-.19,0-.34.18-.3.36l.32,1.64c-.55-.74-1.69-.88-3.01-.88-1.86,0-3.37,1.51-3.37,3.37s1.51,3.37,3.37,3.37Z"/><path class="cls-2" d="m22.99,13.21c2.27,0,4.75-.04,5.22-.11.25.07.36.36.32.58-.9,1.33-2.05,3.28-3.56,5.94l-10.37,18.36c-.61.11-1.66-.32-1.73-1.12l9.47-16.45c.79-1.4,1.19-2.23,1.19-2.84,0-.47-.5-.58-1.04-.58h-7.63c-2.09,0-2.45.25-3.28,1.76-.29.32-1.08.14-1.22-.25.61-1.76,1.08-4.03,1.4-5.4,1.19.07,2.05.11,4.32.11h6.91Z"/><path class="cls-2" d="m23.13,53.35c-.43,0-.8.04-1.12.11.51-.59.82-1.36.82-2.2,0-1.86-1.51-3.37-3.37-3.37s-3.37,1.51-3.37,3.37c0,.84.31,1.61.82,2.2-.32-.07-.7-.11-1.12-.11-1.86,0-3.37,1.51-3.37,3.37s1.51,3.37,3.37,3.37c1.32,0,2.46-.13,3.01-.88l-.32,1.64c-.04.19.11.36.3.36h1.35c.19,0,.34-.18.3-.36l-.32-1.64c.55.74,1.69.88,3.01.88,1.86,0,3.37-1.51,3.37-3.37s-1.51-3.37-3.37-3.37Z"/><path class="cls-2" d="m115.41,128.96c-.08-.11-.03-.27.09-.32l1.07-.47c-.64-.02-1.19-.62-1.71-1.37-.75-1.06-.5-2.53.57-3.27s2.53-.49,3.27.58c.17.24.3.46.39.68.14-.52.46-1.01.93-1.35,1.07-.75,2.53-.49,3.28.58.75,1.06.49,2.53-.58,3.27-.48.34-1.04.47-1.58.42.17.15.34.35.52.59.75,1.07.49,2.53-.58,3.27-1.06.75-2.53.49-3.27-.57-.53-.76-.91-1.46-.71-2.08l-.81.84c-.09.09-.25.09-.33-.03l-.32-.46-.22-.32Z"/><path class="cls-2" d="m99.58,117.85l-1.14-.67c.41.61.21,1.5-.13,2.49-.48,1.39-2,2.13-3.39,1.65-1.4-.49-2.13-2.01-1.65-3.4.11-.32.23-.58.37-.82-.57.23-1.23.27-1.86.04-1.39-.48-2.13-2.01-1.65-3.4.49-1.39,2.01-2.13,3.4-1.65.63.22,1.13.65,1.43,1.19.03-.26.09-.55.21-.87.49-1.39,2.01-2.13,3.4-1.65,1.39.49,2.13,2.01,1.65,3.4-.34.99-.74,1.81-1.44,2.03l1.31.19c.15.03.24.18.19.32l-.17.5-.18.52c-.05.14-.21.21-.35.13Z"/><path class="cls-2" d="m123.53,103.91l-1.32.61c-.15.07-.34-.02-.37-.18l-.14-.56-.15-.59c-.04-.16.08-.33.25-.34l1.45-.07c-.74-.31-1.09-1.25-1.37-2.38-.39-1.58.58-3.18,2.16-3.56s3.18.58,3.56,2.16c.09.36.13.69.14.98.4-.56.99-.98,1.7-1.15,1.58-.39,3.18.58,3.56,2.16s-.58,3.18-2.16,3.56c-.71.17-1.43.08-2.04-.24.13.27.23.58.33.94.39,1.58-.58,3.18-2.17,3.56-1.58.39-3.18-.58-3.56-2.16-.27-1.13-.4-2.12.12-2.75Z"/><path class="cls-2" d="m123.14,91.84c-.13.14-.34.12-.45-.03l-.5-.7h0s0,0,0,0l-.23-.33c-.1-.15-.04-.36.12-.43l1.43-.64c-.87-.03-1.59-.83-2.31-1.86-1.01-1.43-.66-3.42.77-4.43,1.43-1.01,3.42-.66,4.43.77.23.33.4.64.52.93.18-.71.6-1.37,1.25-1.82,1.43-1.01,3.42-.67,4.43.77,1.01,1.43.66,3.42-.77,4.43-.65.46-1.41.64-2.14.56.23.21.46.48.69.81,1.01,1.43.67,3.42-.77,4.43-1.43,1.01-3.42.66-4.42-.77-.72-1.02-1.24-1.98-.96-2.81l-1.09,1.13Z"/><path class="cls-2" d="m116.07,70.33l-.99-.74-.34-.25c-.19-.14-.2-.41-.03-.57l1.49-1.37c-1.07.33-2.28-.38-3.56-1.34-1.81-1.35-2.18-3.92-.83-5.72,1.36-1.81,3.92-2.18,5.73-.83.41.31.75.62,1.01.93-.07-.94.19-1.92.8-2.73,1.36-1.81,3.92-2.18,5.73-.83,1.81,1.36,2.18,3.92.82,5.73-.61.82-1.46,1.34-2.39,1.55.37.16.76.4,1.17.7,1.81,1.36,2.18,3.92.83,5.73-1.36,1.81-3.92,2.18-5.73.82-1.28-.95-2.29-1.92-2.29-3.04l-.88,1.82c-.09.21-.37.27-.55.14Z"/><path class="cls-2" d="m93.16,92.71l-1.01-1.2c.21.84-.37,1.76-1.15,2.72-1.11,1.37-3.11,1.58-4.48.47s-1.57-3.11-.46-4.48c.25-.31.5-.56.75-.76-.74.02-1.49-.21-2.1-.71-1.36-1.11-1.57-3.11-.46-4.48,1.11-1.36,3.11-1.57,4.48-.46.62.5,1,1.19,1.13,1.91.15-.28.34-.58.58-.88,1.11-1.37,3.11-1.57,4.48-.46,1.37,1.1,1.57,3.11.46,4.47-.78.97-1.56,1.73-2.43,1.69l1.39.74c.15.09.2.3.09.44l-.17.21-.64.79c-.11.14-.33.14-.45,0Z"/><path class="cls-2" d="m61.27,157.9c.05,5.23.07,10.45.04,15.69,0,.71-.05,1.52-.59,1.99-.72.63-1.94.21-2.47-.59-.52-.81-.55-1.82-.57-2.78-.05-4.79-.1-9.58-.15-14.37.7.03,1.37.05,2.07.07.55.02,1.11.03,1.67,0Z"/><path class="cls-2" d="m51.94,157.47c-.42,4.72-.83,9.45-1.25,14.17-.08.93-.16,1.88-.54,2.68s-1.13,1.39-1.83,1.17c-.58-.19-.99-.86-1.15-1.58-.17-.72-.14-1.49-.1-2.24.22-5,.45-10,.66-15h0c1.13.37,2.33.58,3.51.72.23.03.46.06.7.08Z"/><path class="cls-2" d="m54.58,124.66c5.13,0,9.28-4.16,9.28-9.29s-4.15-9.28-9.28-9.28-9.29,4.15-9.29,9.28,4.16,9.29,9.29,9.29Zm16-21.29c8.1,0,14.67,6.57,14.67,14.67s-6.57,14.68-14.67,14.68c-.29,0-.58,0-.86,0,.42-.94.84-1.86,1.26-2.8.27-.57.52-1.16.59-1.78.07-.63-.09-1.31-.55-1.74-.73-.68-1.97-.45-2.7.22-.74.67-1.09,1.64-1.42,2.58-.4,1.11-.78,2.21-1.17,3.32h0c-1.87-.19-3.56-.54-5.01-1.16-1.35-.56-2.47-1.36-3.28-2.46h-5.74c-.62.82-1.39,1.47-2.3,1.98-.64.36-1.34.65-2.1.89-2.44.76-5.46.94-8.73.94-8.11,0-14.67-6.57-14.67-14.68s6.56-14.67,14.67-14.67c1.86,0,3.47.17,4.88.48-2.22-2.57-3.56-5.91-3.56-9.57,0-8.11,6.57-14.67,14.68-14.67s14.67,6.56,14.67,14.67c0,3.66-1.33,7-3.56,9.57,1.42-.31,3.03-.48,4.89-.48Z"/><path class="cls-3" d="m60.73,131.36c1.44.62,3.14.97,5.01,1.16"/><path class="cls-3" d="m69.72,132.72c.28,0,.57,0,.86,0,8.1,0,14.67-6.57,14.67-14.68s-6.57-14.67-14.67-14.67c-1.86,0-3.47.17-4.89.48,2.22-2.57,3.56-5.91,3.56-9.57,0-8.11-6.57-14.67-14.67-14.67s-14.68,6.56-14.68,14.67c0,3.66,1.34,7,3.56,9.57-1.41-.31-3.02-.48-4.88-.48-8.11,0-14.67,6.57-14.67,14.67s6.56,14.68,14.67,14.68c3.26,0,6.29-.19,8.73-.94"/><path class="cls-3" d="m63.86,115.37c0,5.13-4.15,9.29-9.28,9.29s-9.29-4.16-9.29-9.29,4.16-9.28,9.29-9.28,9.28,4.15,9.28,9.28Z"/><path class="cls-3" d="m122.19,91.1l-.23-.33c-.1-.15-.04-.36.12-.43l1.43-.64c-.87-.03-1.59-.83-2.31-1.86-1.01-1.43-.66-3.42.77-4.43,1.43-1.01,3.42-.66,4.43.77.23.33.4.64.52.93.18-.71.6-1.37,1.25-1.82,1.43-1.01,3.42-.67,4.43.77,1.01,1.43.66,3.42-.77,4.43-.65.46-1.41.64-2.14.56.23.21.46.48.69.81,1.01,1.43.67,3.42-.77,4.43-1.43,1.01-3.42.66-4.42-.77-.72-1.02-1.24-1.98-.96-2.81l-1.09,1.13c-.13.14-.34.12-.45-.03l-.5-.7h0"/><path class="cls-3" d="m122.71,127.28c-.48.34-1.04.47-1.58.42.17.15.34.35.52.59.75,1.07.49,2.53-.58,3.27-1.06.75-2.53.49-3.27-.57-.53-.76-.91-1.46-.71-2.08l-.81.84c-.09.09-.25.09-.33-.03l-.32-.46-.22-.32c-.08-.11-.03-.27.09-.32l1.07-.47c-.64-.02-1.19-.62-1.71-1.37-.75-1.06-.5-2.53.57-3.27s2.53-.49,3.27.58c.17.24.3.46.39.68.14-.52.46-1.01.93-1.35,1.07-.75,2.53-.49,3.28.58.75,1.06.49,2.53-.58,3.27Z"/><path class="cls-3" d="m100.28,116.7l-.17.5-.18.52c-.05.14-.21.21-.35.13l-1.14-.67c.41.61.21,1.5-.13,2.49-.48,1.39-2,2.13-3.39,1.65-1.4-.49-2.13-2.01-1.65-3.4.11-.32.23-.58.37-.82-.57.23-1.23.27-1.86.04-1.39-.48-2.13-2.01-1.65-3.4.49-1.39,2.01-2.13,3.4-1.65.63.22,1.13.65,1.43,1.19.03-.26.09-.55.21-.87.49-1.39,2.01-2.13,3.4-1.65,1.39.49,2.13,2.01,1.65,3.4-.34.99-.74,1.81-1.44,2.03l1.31.19c.15.03.24.18.19.32Z"/><path class="cls-3" d="m130.85,104.56c-.71.17-1.43.08-2.04-.24.13.27.23.58.33.94.39,1.58-.58,3.18-2.17,3.56-1.58.39-3.18-.58-3.56-2.16-.27-1.13-.4-2.12.12-2.75l-1.32.61c-.15.07-.34-.02-.37-.18l-.14-.56-.15-.59c-.04-.16.08-.33.25-.34l1.45-.07c-.74-.31-1.09-1.25-1.37-2.38-.39-1.58.58-3.18,2.16-3.56s3.18.58,3.56,2.16c.09.36.13.69.14.98.4-.56.99-.98,1.7-1.15,1.58-.39,3.18.58,3.56,2.16s-.58,3.18-2.16,3.56Z"/><path class="cls-3" d="m95.37,88.85c-.78.97-1.56,1.73-2.43,1.69l1.39.74c.15.09.2.3.09.44l-.17.21-.64.79c-.11.14-.33.14-.45,0l-1.01-1.2c.21.84-.37,1.76-1.15,2.72-1.11,1.37-3.11,1.58-4.48.47s-1.57-3.11-.46-4.48c.25-.31.5-.56.75-.76-.74.02-1.49-.21-2.1-.71-1.36-1.11-1.57-3.11-.46-4.48,1.11-1.36,3.11-1.57,4.48-.46.62.5,1,1.19,1.13,1.91.15-.28.34-.58.58-.88,1.11-1.37,3.11-1.57,4.48-.46,1.37,1.1,1.57,3.11.46,4.47Z"/><path class="cls-3" d="m125.53,70.59c-1.36,1.81-3.92,2.18-5.73.82-1.28-.95-2.29-1.92-2.29-3.04l-.88,1.82c-.09.21-.37.27-.55.14l-.99-.74-.34-.25c-.19-.14-.2-.41-.03-.57l1.49-1.37c-1.07.33-2.28-.38-3.56-1.34-1.81-1.35-2.18-3.92-.83-5.72,1.36-1.81,3.92-2.18,5.73-.83.41.31.75.62,1.01.93-.07-.94.19-1.92.8-2.73,1.36-1.81,3.92-2.18,5.73-.83,1.81,1.36,2.18,3.92.82,5.73-.61.82-1.46,1.34-2.39,1.55.37.16.76.4,1.17.7,1.81,1.36,2.18,3.92.83,5.73Z"/><path class="cls-3" d="m98.39,158.26c-1.28,0-2.31-1.04-2.31-2.32,0-.64.26-1.22.68-1.63.41-.42.99-.68,1.63-.68h21.72c1.28,0,2.31,1.03,2.31,2.31,0,.64-.26,1.22-.68,1.64-.41.42-.99.68-1.63.68"/><path class="cls-3" d="m120.11,158.26h.89l-1.94,17.88c-.11,1.05-.99,1.84-2.04,1.84h-15.54c-1.06,0-1.93-.79-2.04-1.84l-1.94-17.88h22.61Z"/><path class="cls-3" d="m107.66,144.92c.23,3.26.47,6.2.7,8.71"/><path class="cls-3" d="m107.44,141.74c.07,1.09.14,2.15.21,3.18"/><path class="cls-3" d="m106.71,125.66c.02.68.03,1.35.06,2.02.15,4.97.4,9.72.68,14.05"/><path class="cls-3" d="m115.08,69.6c-5.37,6.48-7.6,20.6-8.26,35.92-.1,2.37-.17,4.77-.2,7.17-.07,4.35-.03,8.71.09,12.95"/><path class="cls-3" d="m115.63,129.28c-6.33,4.69-7.92,9.42-8.19,12.44v.02"/><path class="cls-3" d="m107.66,144.92h0"/><path class="cls-3" d="m100.11,117.19c4.96,2.49,6.28,6.18,6.6,8.45"/><path class="cls-3" d="m106.71,125.66h0c.04-.54,1.55-17.67,14.99-21.88"/><path class="cls-3" d="m106.62,112.69s3.26-16.22,15.57-21.6h0"/><path class="cls-3" d="m106.82,105.52s-1.51-8.09-12.58-13.6"/><path class="cls-3" d="m65.74,132.52h0c.39-1.11.77-2.21,1.17-3.32.33-.94.68-1.91,1.42-2.58.73-.67,1.97-.9,2.7-.22.46.42.62,1.11.55,1.74-.07.62-.33,1.21-.59,1.78-.42.94-.84,1.86-1.26,2.8-.88,1.95-1.76,3.9-2.64,5.85-.46,1.03-1.01,2.14-2.04,2.62-.51.23-1.05.27-1.58.16.62,2.26,1.25,4.53,1.86,6.79.44,1.59.88,3.21.78,4.85-.09,1.64-.8,3.34-2.2,4.2-.8.48-1.71.66-2.65.71-.56.03-1.12.02-1.67,0-.7-.02-1.37-.04-2.07-.07h0c-1.86-.06-3.73-.15-5.58-.37-.23-.02-.46-.05-.7-.08-1.19-.15-2.38-.35-3.51-.72h0c-.95-.31-1.86-.72-2.67-1.32-1.04-.76-1.91-1.86-2.06-3.14-.15-1.31.46-2.57,1.03-3.75,1.67-3.4,3.28-6.96,4.3-10.62-1.84,3.11-3.72,6.2-5.63,9.29-.56.89-1.42,1.92-2.43,1.65-.73-.2-1.13-1.03-1.1-1.79.04-.76.42-1.44.79-2.1,2.46-4.37,4.9-8.74,7.35-13.11.76-.24,1.47-.53,2.1-.89.91-.52,1.68-1.17,2.3-1.98h5.74c.82,1.1,1.93,1.9,3.28,2.46.42,1.53.84,3.05,1.25,4.58h0c.45.44.98.71,1.56.57.79-.21,1.17-1.07,1.43-1.84.25-.71.51-1.43.76-2.15Z"/><path class="cls-3" d="m47.73,156.67c-.21,5-.44,10-.66,15-.03.76-.07,1.52.1,2.24.16.72.58,1.39,1.15,1.58.7.22,1.45-.37,1.83-1.17s.46-1.75.54-2.68c.42-4.72.83-9.45,1.25-14.17"/><path class="cls-3" d="m57.54,157.83c.05,4.79.1,9.58.15,14.37.02.96.04,1.98.57,2.78.52.8,1.74,1.22,2.47.59.54-.47.58-1.28.59-1.99.03-5.23,0-10.45-.04-15.69"/></g></svg>