<?xml version="1.0" encoding="UTF-8"?><svg id="Layer_2" xmlns="http://www.w3.org/2000/svg" viewBox="0 0 161.09 234.55"><defs><style>.cls-1{fill:#ecede8;}.cls-1,.cls-2{stroke-width:0px;}.cls-3{fill:none;stroke:#000;stroke-linecap:round;stroke-linejoin:round;stroke-width:.5px;}.cls-2{fill:#8b001b;}</style></defs><g id="Layer_2-2"><rect class="cls-1" width="161.09" height="234.55" rx="5" ry="5"/><path class="cls-2" d="m138.1,221.35c-2.27,0-4.75.04-5.22.11-.25-.07-.36-.36-.32-.58.9-1.33,2.05-3.28,3.56-5.94l10.37-18.36c.61-.11,1.66.32,1.73,1.12l-9.47,16.45c-.79,1.4-1.19,2.23-1.19,2.84,0,.47.5.58,1.04.58h7.63c2.09,0,2.45-.25,3.28-1.76.29-.32,1.08-.14,1.22.25-.61,1.76-1.08,4.03-1.4,5.4-1.19-.07-2.05-.11-4.32-.11h-6.91Z"/><polygon class="cls-2" points="141.64 189.28 148.68 180 141.64 170.72 134.6 180 141.64 189.28"/><path class="cls-2" d="m22.99,13.21c2.27,0,4.75-.04,5.22-.11.25.07.36.36.32.58-.9,1.33-2.05,3.28-3.56,5.94l-10.37,18.36c-.61.11-1.66-.32-1.73-1.12l9.47-16.45c.79-1.4,1.19-2.23,1.19-2.84,0-.47-.5-.58-1.04-.58h-7.63c-2.09,0-2.45.25-3.28,1.76-.29.32-1.08.14-1.22-.25.61-1.76,1.08-4.03,1.4-5.4,1.19.07,2.05.11,4.32.11h6.91Z"/><polygon class="cls-2" points="19.45 45.27 12.41 54.55 19.45 63.84 26.49 54.55 19.45 45.27"/><polygon class="cls-2" points="95.65 85.09 96.41 90.62 91.28 92.84 90.53 87.31 95.65 85.09"/><polygon class="cls-2" points="97.48 69.64 98.42 76.48 92.08 79.23 91.14 72.39 97.48 69.64"/><polygon class="cls-2" points="111.16 58.42 112.42 67.66 103.87 71.37 102.6 62.13 111.16 58.42"/><polygon class="cls-2" points="113.71 38.55 115.13 48.91 105.53 53.07 104.11 42.71 113.71 38.55"/><polygon class="cls-2" points="95.04 50.01 96.2 58.49 88.35 61.89 87.19 53.41 95.04 50.01"/><path class="cls-2" d="m75.76,127.92c5.27,0,9.54-4.27,9.54-9.53s-4.27-9.54-9.54-9.54-9.53,4.27-9.53,9.54,4.27,9.53,9.53,9.53Zm-.73-46.46l23.07,31.54-12.41,15.81-1.69,2.15-4.73,6.02-5.31,6.75-6.7-9.16h0s-.78-1.07-.78-1.07l-15.6-21.31,24.15-30.73Z"/><polygon class="cls-2" points="73.76 182.15 77.84 182.26 75.36 190.32 66.93 190.11 69.41 182.04 73.76 182.15"/><path class="cls-2" d="m87.25,180.96c.28.75.25,1.68-.29,2.28-.55.63-1.52.76-2.33.52-.8-.23-1.49-.77-2.13-1.31-2.04-1.7-3.96-3.57-5.72-5.56h0s2.94-5.11,2.94-5.11c2.06,2.4,4.12,4.79,6.19,7.18.52.61,1.06,1.24,1.34,2Z"/><path class="cls-2" d="m71.21,166.49c1.17.02,2.37-.15,3.47-.56l5.04,5.85-2.94,5.1c-2.83-3.21-5.27-6.75-7.25-10.54.55.08,1.11.14,1.68.15Z"/><path class="cls-2" d="m63.58,164.62c-.67,3.08-2.1,6-3.88,8.62-2.3,3.39-5.17,6.34-8.03,9.26-.68.7-1.38,1.41-2.27,1.8-.88.39-2.01.39-2.74-.25-.83-.74-.85-2.08-.37-3.09.49-1,1.36-1.75,2.17-2.5,4.86-4.48,8.62-10.12,10.91-16.31,1.13,1.12,2.66,1.88,4.21,2.47Z"/><polyline class="cls-3" points="79.27 136.98 84 130.96 85.69 128.81 98.1 113 75.03 81.46 50.88 112.19 66.48 133.5"/><polygon class="cls-3" points="113.71 38.55 104.11 42.71 105.53 53.07 115.13 48.91 113.71 38.55"/><polygon class="cls-3" points="111.16 58.42 102.6 62.13 103.87 71.37 112.42 67.66 111.16 58.42"/><polygon class="cls-3" points="95.04 50.01 87.19 53.41 88.35 61.89 96.2 58.49 95.04 50.01"/><polygon class="cls-3" points="97.48 69.64 91.14 72.39 92.08 79.23 98.42 76.48 97.48 69.64"/><polygon class="cls-3" points="95.65 85.09 90.53 87.31 91.28 92.84 96.41 90.62 95.65 85.09"/><polygon class="cls-3" points="77.84 182.26 73.76 182.15 69.41 182.04 66.93 190.11 75.36 190.32 77.84 182.26"/><path class="cls-3" d="m75.76,127.92c-5.26,0-9.53-4.27-9.53-9.53s4.27-9.54,9.53-9.54,9.54,4.27,9.54,9.54-4.27,9.53-9.54,9.53Z"/><polyline class="cls-3" points="76.78 176.88 79.72 171.78 91.38 151.52"/><polyline class="cls-3" points="71.32 186.39 73.76 182.15 73.84 182.01 76.78 176.89"/><line class="cls-3" x1="97.02" y1="141.71" x2="93.48" y2="147.86"/><path class="cls-3" d="m92.79,136.3c1.87.98,3.74,1.98,5.62,2.98,1.16.61,2.33,1.23,3.5,1.85.49.26.99.53,1.34.96s.51,1.07.24,1.55c-.24.42-.75.62-1.23.62-.49-.01-.95-.19-1.39-.38-1.36-.6-2.62-1.36-3.85-2.17-1.76-1.18-3.46-2.47-5.25-3.62"/><path class="cls-3" d="m93.48,147.86c.87.23,1.83.71,1.9,1.59.08,1.13-1.34,1.7-2.46,1.87-.51.08-1.03.14-1.54.2-3.74.43-7.53.41-11.26-.05.05,2.35-.03,4.69-.39,7.02-.32,2.08-.92,4.23-2.37,5.75-.75.77-1.67,1.33-2.68,1.69-1.1.41-2.3.58-3.47.56-.57-.01-1.13-.07-1.68-.15-1.66-.25-3.28-.77-4.87-1.32-.36-.12-.72-.25-1.08-.4-1.55-.59-3.08-1.35-4.21-2.47-.53-.5-.97-1.1-1.28-1.79-.86-1.89-.54-4.1-.11-6.13,1.56-7.35,4.45-14.4,8.5-20.73l.78,1.06h0s6.7,9.17,6.7,9.17l5.31-6.75c.02,1.4.09,2.8.18,4.2.15,2.07.33,4.13.48,6.19,1.36.05,2.73.02,4.09-.03,3.14-.11,6.33-.26,9.38.5.03,0,.05,0,.08.02Z"/><path class="cls-3" d="m89.39,131.76c1.95.1,3.5,1.72,3.5,3.69,0,.29-.03.58-.1.85-.16.7-.52,1.32-1.02,1.79-.66.66-1.57,1.06-2.58,1.06-2.05,0-3.7-1.65-3.7-3.7,0-.21.02-.42.05-.62.3-1.75,1.81-3.08,3.65-3.08.07,0,.13,0,.2.01Z"/><path class="cls-3" d="m79.45,141.18c1.83-2.29,3.87-4.42,6.09-6.35"/><path class="cls-3" d="m89.39,131.76c2.69-1.94,5.58-3.61,8.61-4.98,1.01-.46,2.07-.91,2.82-1.73s1.08-2.14.45-3.05c-.52-.74-1.55-1-2.45-.85-.89.14-1.7.61-2.49,1.08-3.3,1.95-7.04,4.34-10.64,6.58"/><path class="cls-3" d="m80.12,151.47c-5.03-.61-9.96-2.01-14.54-4.15"/><path class="cls-3" d="m67.89,140.52c.97,2.99,3.77,5.1,6.77,6.04,1.7.53,3.48.75,5.27.81"/><path class="cls-3" d="m59.37,162.15c-2.29,6.19-6.05,11.83-10.91,16.31-.81.75-1.68,1.5-2.17,2.5-.48,1.01-.46,2.35.37,3.09.73.64,1.86.64,2.74.25.89-.39,1.59-1.1,2.27-1.8,2.86-2.92,5.73-5.87,8.03-9.26,1.78-2.62,3.21-5.54,3.88-8.62"/><path class="cls-3" d="m69.53,166.34c1.98,3.79,4.42,7.33,7.25,10.54h0c1.76,2,3.68,3.87,5.72,5.57.64.54,1.33,1.08,2.13,1.31.81.24,1.78.11,2.33-.52.54-.6.57-1.53.29-2.28-.28-.76-.82-1.39-1.34-2-2.07-2.39-4.13-4.78-6.19-7.18l-5.04-5.85"/></g></svg>