<?xml version="1.0" encoding="UTF-8"?><svg id="Layer_2" xmlns="http://www.w3.org/2000/svg" viewBox="0 0 161.09 234.55"><defs><style>.cls-1{fill:#ecede8;}.cls-1,.cls-2{stroke-width:0px;}.cls-3{fill:none;stroke:#000;stroke-linecap:round;stroke-linejoin:round;stroke-width:.5px;}.cls-2{fill:#8b001b;}</style></defs><g id="Layer_2-2"><rect class="cls-1" width="161.09" height="234.55" rx="5" ry="5"/><path class="cls-2" d="m138.1,221.35c-2.27,0-4.75.04-5.22.11-.25-.07-.36-.36-.32-.58.9-1.33,2.05-3.28,3.56-5.94l10.37-18.36c.61-.11,1.66.32,1.73,1.12l-9.47,16.45c-.79,1.4-1.19,2.23-1.19,2.84,0,.47.5.58,1.04.58h7.63c2.09,0,2.45-.25,3.28-1.76.29-.32,1.08-.14,1.22.25-.61,1.76-1.08,4.03-1.4,5.4-1.19-.07-2.05-.11-4.32-.11h-6.91Z"/><path class="cls-2" d="m134.67,182.86c.2,1.21.74,2.05,1.8,2.68.9.54,2.06.54,3.03.15.51-.2.97-.38,1.39-.63.27-.16.52-.34.76-.58.23.23.49.42.76.58.42.25.88.43,1.39.63.98.38,2.13.38,3.03-.15,1.05-.63,1.59-1.47,1.8-2.68.17-1.01.02-2.06-.3-3.03-.33-1.01-1.11-2.03-1.88-2.77-.77-.74-1.4-1.2-2.32-1.74-.74-.44-1.49-.85-2.25-1.23-.14-.07-.3-.07-.44,0-.77.38-1.52.79-2.25,1.23-.91.55-1.55,1.01-2.32,1.74-.77.74-1.54,1.75-1.88,2.77-.32.97-.47,2.03-.3,3.03Z"/><path class="cls-2" d="m22.99,13.21c2.27,0,4.75-.04,5.22-.11.25.07.36.36.32.58-.9,1.33-2.05,3.28-3.56,5.94l-10.37,18.36c-.61.11-1.66-.32-1.73-1.12l9.47-16.45c.79-1.4,1.19-2.23,1.19-2.84,0-.47-.5-.58-1.04-.58h-7.63c-2.09,0-2.45.25-3.28,1.76-.29.32-1.08.14-1.22-.25.61-1.76,1.08-4.03,1.4-5.4,1.19.07,2.05.11,4.32.11h6.91Z"/><path class="cls-2" d="m26.42,51.69c-.2-1.21-.74-2.05-1.8-2.68-.9-.54-2.06-.54-3.03-.15-.51.2-.97.38-1.39.63-.27.16-.52.34-.76.58-.23-.23-.49-.42-.76-.58-.42-.25-.88-.43-1.39-.63-.98-.38-2.13-.38-3.03.15-1.05.63-1.59,1.47-1.8,2.68-.17,1.01-.02,2.06.3,3.03.33,1.01,1.11,2.03,1.88,2.77.77.74,1.4,1.2,2.32,1.74.74.44,1.49.85,2.25,1.23.14.07.3.07.44,0,.77-.38,1.52-.79,2.25-1.23.91-.55,1.55-1.01,2.32-1.74.77-.74,1.54-1.75,1.88-2.77.32-.97.47-2.03.3-3.03Z"/><path class="cls-2" d="m138.17,60.08c.13.67.03,1.37-.18,2.02-.21.67-.72,1.35-1.23,1.85s-.92.81-1.52,1.18c-.49.29-.98.57-1.49.84-.1.04-.2.05-.29,0-.52-.24-1.02-.52-1.51-.8-.61-.35-1.04-.65-1.56-1.14-.52-.48-1.04-1.15-1.27-1.82-.22-.64-.33-1.34-.23-2.02.13-.8.48-1.37,1.18-1.79.59-.37,1.36-.38,2.02-.13.33.13.64.24.92.4.18.11.35.22.51.38.16-.16.32-.28.5-.39.27-.17.58-.29.92-.43.64-.26,1.41-.27,2.02.08.71.41,1.07.96,1.22,1.76Z"/><path class="cls-2" d="m135.9,94.87c.15.8.04,1.65-.21,2.42-.25.81-.86,1.63-1.47,2.22-.6.59-1.1.97-1.83,1.41-.57.36-1.18.69-1.78,1-.11.06-.24.06-.35,0-.61-.3-1.22-.62-1.81-.96-.73-.42-1.25-.79-1.86-1.36-.62-.57-1.26-1.38-1.53-2.19-.26-.77-.4-1.61-.27-2.41.16-.96.57-1.64,1.41-2.15.71-.44,1.63-.45,2.41-.16.4.16.77.29,1.11.49.21.13.42.27.6.46.18-.19.39-.34.6-.47.33-.2.69-.35,1.1-.52.77-.31,1.69-.33,2.41.09.85.5,1.29,1.16,1.46,2.12Z"/><path class="cls-2" d="m132.13,77.27c.12.66.03,1.37-.18,2.02-.21.67-.72,1.36-1.23,1.86-.51.49-.92.8-1.53,1.17-.48.3-.97.58-1.48.84-.1.05-.2.05-.3,0-.51-.25-1.01-.52-1.5-.8-.61-.36-1.04-.66-1.56-1.14-.52-.49-1.04-1.16-1.28-1.82-.21-.65-.33-1.34-.22-2.02.13-.81.48-1.37,1.17-1.8.59-.36,1.36-.37,2.02-.13.34.13.65.24.93.41.18.1.34.22.51.37.15-.16.32-.27.5-.39.27-.17.58-.29.92-.43.64-.25,1.41-.26,2.02.08.7.41,1.07.97,1.22,1.77Z"/><path class="cls-2" d="m124.31,54.89c.15.8.04,1.65-.21,2.42-.25.81-.86,1.63-1.47,2.22-.6.59-1.1.96-1.83,1.41-.57.36-1.18.69-1.78,1-.11.06-.24.06-.35,0-.61-.29-1.22-.61-1.81-.95-.73-.43-1.25-.79-1.86-1.36-.62-.58-1.26-1.38-1.53-2.19-.26-.77-.4-1.61-.27-2.41.16-.96.57-1.65,1.4-2.15.72-.44,1.64-.45,2.42-.16.4.16.77.29,1.11.49.21.13.42.27.6.45.18-.18.39-.33.6-.46.33-.2.69-.36,1.1-.52.77-.31,1.69-.33,2.41.09.85.5,1.29,1.16,1.46,2.12Z"/><path class="cls-2" d="m121.55,125.31c.43,2.69,0,5.48-.87,8.05-.1.29-.21.59-.35.89-1,2.32-2.78,4.6-4.59,6.29-.04.05-.09.09-.13.13-.88.83-1.68,1.52-2.52,2.14-.33.26-.67.51-1.02.75-.81.56-1.66,1.1-2.65,1.67-.12-.21-.25-.42-.41-.6-.1-.12-.19-.22-.3-.33-1.63-1.58-4.28-1.41-6.41-.63-1.89.68-3.63,1.18-5.08,2.02l-.15-.09c-.27-.16-.55-.31-.81-.48-.07-.04-.14-.08-.2-.13-2.31-1.41-3.94-2.64-5.91-4.55-.32-.31-.64-.64-.94-.99-1.69-1.85-3.25-4.14-3.97-6.41-.71-2.22-1.09-4.6-.88-6.93.03-.38.08-.76.15-1.14.13-.72.3-1.4.54-2.02.76-2.15,2.13-3.77,4.3-5.04,2.34-1.37,5.33-1.37,7.88-.41.06.02.12.05.18.07.6.24,1.18.48,1.73.72.68.3,1.32.61,1.94.98.71.43,1.38.92,2,1.55.62-.61,1.3-1.09,2.02-1.51,1.12-.64,2.35-1.13,3.7-1.64,1.04-.4,2.16-.63,3.28-.67,1.67-.07,3.35.29,4.77,1.16,2.69,1.64,4.1,3.8,4.64,6.85.03.1.04.2.06.3Z"/><path class="cls-2" d="m118.22,85.04c.09,6.22-1.81,12.4-4.61,17.94-.94,1.84-2.15,3.64-3.54,5.36-1.73,2.16-3.73,4.19-5.82,6.01h0c-1.47,1.29-2.98,2.45-4.47,3.49-.21.15-.42.29-.62.43-.55-.24-1.13-.48-1.73-.72-.06-.02-.12-.05-.18-.07-2.54-.96-5.54-.96-7.88.41-2.17,1.28-3.54,2.89-4.3,5.04-.23.62-.41,1.3-.54,2.02-.07.38-.12.76-.15,1.14-.05.02-.09.04-.14.06-2.51,1-5.03,1.97-7.58,2.88-2.27.82-4.55,1.6-6.83,2.33-.08.03-.17.05-.24.08-.68.22-1.4.18-2.04-.09-.21-.08-.41-.18-.59-.32-3.68-2.59-7.26-5.28-10.75-8.13-.56-.43-1.12-.88-1.65-1.33-.16-.12-.29-.23-.43-.35-4.75-3.95-8.05-7.26-11.88-12.24-.75-.97-1.49-2.01-2.2-3.09-.87-1.29-1.68-2.67-2.44-4.08-1.94-3.59-3.45-7.46-4.06-11.18-.28-1.72-.49-3.48-.58-5.24-.25-4.49.17-9.02,1.57-13.27,2.35-7.05,6.37-11.62,13.27-14.43,5.89-2.38,12.84-1.3,18.34,1.89,2.87,1.65,5.45,3.17,7.74,5.05,1.48,1.2,2.82,2.54,4.02,4.16,1.62-1.18,3.3-2.05,5.06-2.76,2.76-1.09,5.69-1.77,8.91-2.47,6.23-1.39,13.16-.32,18.07,3.73,5.72,4.74,8.19,10.3,8.3,17.74Z"/><path class="cls-2" d="m109.34,46.97c.12.67.02,1.37-.18,2.02-.2.67-.71,1.35-1.22,1.85s-.92.81-1.53,1.18c-.49.29-.98.57-1.49.84-.09.05-.19.05-.29,0-.52-.24-1.01-.52-1.51-.8-.61-.35-1.03-.65-1.56-1.14-.52-.48-1.03-1.15-1.27-1.82-.22-.64-.33-1.34-.22-2.02.13-.8.48-1.36,1.17-1.79.59-.37,1.36-.38,2.02-.13.34.13.64.24.92.4.18.11.35.22.51.38.16-.16.32-.28.5-.39.28-.17.58-.29.92-.43.65-.26,1.42-.27,2.02.08.7.41,1.07.96,1.22,1.76Z"/><path class="cls-2" d="m102.09,171.67v7.5c-.14-.06-.26-.15-.38-.24-.4-.33-.65-.81-.85-1.29-.81-1.95-.9-4.11-.95-6.22.68.12,1.41.2,2.18.25Z"/><path class="cls-2" d="m98.35,167.09l-.22.4c-1,0-1.89.72-2.38,1.6-.13.24-.23.5-.32.76-.22.68-.31,1.42-.38,2.15-.2,2.24-.26,4.49-.17,6.74.04.92-.04,2.08-.89,2.43-.49.2-1.05.04-1.45-.3-.4-.33-.64-.81-.85-1.29-.84-2.03-.91-4.29-.96-6.49-.02-.86-.03-1.74.03-2.61.1-1.35.38-2.66,1.12-3.77,1.05-1.58,2.78-2.44,4.61-3.07.05.55.17,1.09.36,1.6.2.57.53,1.1,1,1.51.16.13.31.24.49.34Z"/><path class="cls-3" d="m32.94,85.41c-.25-4.49.17-9.02,1.57-13.27,2.35-7.05,6.37-11.62,13.27-14.43,5.89-2.38,12.84-1.3,18.34,1.89,2.87,1.65,5.45,3.17,7.74,5.05,1.48,1.2,2.82,2.54,4.02,4.16,1.62-1.18,3.3-2.05,5.06-2.76,2.76-1.09,5.69-1.77,8.91-2.47,6.23-1.39,13.16-.32,18.07,3.73,5.72,4.74,8.19,10.3,8.3,17.74.09,6.22-1.81,12.4-4.61,17.94-.94,1.84-2.15,3.64-3.54,5.36-1.73,2.16-3.73,4.19-5.82,6.01h0c-1.47,1.29-2.98,2.45-4.47,3.49-.21.15-.42.29-.62.43"/><path class="cls-3" d="m100.3,49.1c.23.67.75,1.34,1.27,1.82.53.49.94.79,1.56,1.14.5.28.99.55,1.51.8.1.05.2.05.29,0,.51-.26,1-.55,1.49-.84.6-.37,1.02-.68,1.53-1.18s1.01-1.18,1.22-1.85c.2-.65.3-1.35.18-2.02-.15-.8-.52-1.35-1.22-1.76-.6-.35-1.37-.34-2.02-.08-.33.14-.63.26-.92.43-.18.11-.34.23-.5.39-.16-.16-.32-.27-.51-.38-.28-.16-.58-.27-.92-.4-.65-.25-1.42-.24-2.02.13-.69.43-1.04.99-1.17,1.79-.11.67,0,1.37.22,2.02Z"/><path class="cls-3" d="m113.47,57.44c.27.81.91,1.61,1.53,2.19.61.57,1.13.93,1.86,1.36.59.34,1.2.66,1.81.95.11.06.24.06.35,0,.6-.31,1.21-.64,1.78-1,.73-.45,1.23-.82,1.83-1.41.61-.59,1.22-1.41,1.47-2.22.25-.78.36-1.63.21-2.42-.18-.96-.61-1.63-1.46-2.12-.72-.42-1.65-.4-2.41-.09-.41.16-.77.31-1.1.52-.21.13-.42.27-.6.46-.18-.18-.39-.32-.6-.45-.34-.19-.71-.33-1.11-.49-.79-.29-1.7-.28-2.42.16-.83.51-1.25,1.19-1.4,2.15-.13.81,0,1.65.27,2.41Z"/><path class="cls-3" d="m125.05,97.42c.27.81.91,1.62,1.53,2.19.61.57,1.13.94,1.86,1.36.59.34,1.2.66,1.81.96.11.05.24.05.35,0,.6-.31,1.21-.64,1.78-1,.73-.44,1.23-.82,1.83-1.41.61-.59,1.22-1.41,1.47-2.22.25-.78.36-1.63.21-2.42-.18-.96-.61-1.63-1.46-2.12-.72-.42-1.65-.4-2.41-.09-.41.17-.77.31-1.1.52-.21.13-.42.27-.6.47-.18-.18-.39-.33-.6-.46-.34-.19-.71-.33-1.11-.49-.79-.29-1.7-.28-2.41.16-.84.52-1.26,1.19-1.41,2.15-.13.81,0,1.65.27,2.41Z"/><path class="cls-3" d="m123.09,79.41c.23.66.76,1.33,1.28,1.82.52.48.94.78,1.56,1.14.49.28.99.55,1.5.8.1.04.2.04.3,0,.51-.25,1-.54,1.48-.84.6-.37,1.02-.68,1.53-1.17.51-.5,1.01-1.19,1.23-1.86.2-.64.29-1.35.18-2.02-.15-.8-.52-1.36-1.22-1.77-.6-.34-1.37-.33-2.02-.08-.33.14-.64.26-.92.43-.18.12-.35.23-.5.39-.17-.15-.33-.27-.51-.37-.28-.17-.59-.28-.93-.41-.65-.24-1.42-.23-2.02.13-.69.43-1.04.99-1.17,1.8-.11.67,0,1.36.22,2.02Z"/><path class="cls-3" d="m129.13,62.21c.22.67.75,1.34,1.27,1.82.52.49.94.79,1.56,1.14.49.28.99.55,1.51.8.09.05.19.04.29,0,.51-.26,1-.55,1.49-.84.6-.37,1.01-.68,1.52-1.18s1.01-1.18,1.23-1.85c.2-.65.3-1.35.18-2.02-.15-.8-.51-1.35-1.22-1.76-.6-.35-1.37-.34-2.02-.08-.33.14-.64.26-.92.43-.18.11-.34.23-.5.39-.16-.16-.33-.27-.51-.38-.28-.16-.59-.27-.92-.4-.65-.25-1.42-.24-2.02.13-.7.42-1.05.99-1.18,1.79-.1.67,0,1.37.23,2.02Z"/><path class="cls-3" d="m105.32,181c1.57.25,2.68.87,2.68,1.58,0,.94-1.92,1.7-4.29,1.7s-4.3-.76-4.3-1.7c0-.71,1.11-1.32,2.69-1.58"/><path class="cls-3" d="m109.43,145.23c.5.83.76,1.82.98,2.77,1,4.23,1.61,8.55,1.79,12.89.03.42.05.84.06,1.26.04,1.24,0,2.57-.69,3.57"/><path class="cls-3" d="m96.5,163.64c-.05-.35-.07-.7-.08-1.04-.12-4.1.77-8.23,2.57-11.92-1.87,2.17-3.57,2.78-6.98,2.78-.33,0-.82-.22-1.38-.62-2.18-1.51-5.53-5.44-5.47-7.7.02-.68.37-1.62,1-1.95.21-.11.46-.16.74-.09,1.14.25,6.56,4.82,7.33,5.7.76-1.5,1.78-2.44,3-3.14"/><path class="cls-3" d="m102.09,171.67c-.77-.05-1.5-.14-2.18-.25-1.88-.32-3.45-.87-4.48-1.57-.22.68-.31,1.42-.38,2.15-.2,2.24-.26,4.49-.17,6.74.04.92-.04,2.08-.89,2.43-.49.2-1.05.04-1.45-.3-.4-.33-.64-.81-.85-1.29-.84-2.03-.91-4.29-.96-6.49-.02-.86-.03-1.74.03-2.61.1-1.35.38-2.66,1.12-3.77,1.05-1.58,2.78-2.44,4.61-3.07.05.55.17,1.09.36,1.6.2.57.53,1.1,1,1.51.16.13.31.24.49.34.95.55,2.15.62,3.27.64,2.02.03,4.03-.08,6.03-.29,1.38-.16,2.88-.44,3.77-1.51.06-.07.11-.14.16-.21,1.1.62,1.74,1.37,1.74,2.19,0,1.89-3.46,3.46-7.99,3.76"/><path class="cls-3" d="m95.43,169.85c.09-.26.19-.52.32-.76.49-.88,1.37-1.6,2.38-1.6h.02"/><path class="cls-3" d="m105.32,171.67v10.48h-3.23v-10.48c.53.04,1.06.06,1.62.06.13,0,.25,0,.38,0,.42,0,.84-.02,1.24-.05Z"/><path class="cls-3" d="m99.91,171.41c.06,2.11.15,4.27.95,6.22.19.48.45.95.85,1.29.12.1.24.18.38.24"/><polyline class="cls-3" points="66.93 149.41 69.82 152.99 75.25 159.73"/><line class="cls-3" x1="66.93" y1="181.14" x2="62.28" y2="175.37"/><polyline class="cls-3" points="115.74 151.46 115.75 151.47 120.39 157.23"/><line class="cls-3" x1="37.58" y1="144.71" x2="32.94" y2="138.95"/><path class="cls-3" d="m84.37,126.11c.03-.38.08-.76.15-1.14.13-.72.3-1.4.54-2.02.76-2.15,2.13-3.77,4.3-5.04,2.34-1.37,5.33-1.37,7.88-.41.06.02.12.05.18.07.6.24,1.18.48,1.73.72.68.3,1.32.61,1.94.98.71.43,1.38.92,2,1.55.62-.61,1.3-1.09,2.02-1.51,1.12-.64,2.35-1.13,3.7-1.64,1.04-.4,2.16-.63,3.28-.67,1.67-.07,3.35.29,4.77,1.16,2.69,1.64,4.1,3.8,4.64,6.85.03.1.04.2.06.3.43,2.69,0,5.48-.87,8.05-.1.29-.21.59-.35.89-1,2.32-2.78,4.6-4.59,6.29-.04.05-.09.09-.13.13-.88.83-1.68,1.52-2.52,2.14-.33.26-.67.51-1.02.75-.81.56-1.66,1.1-2.65,1.67-.12-.21-.25-.42-.41-.6-.1-.12-.19-.22-.3-.33-1.63-1.58-4.28-1.41-6.41-.63-1.89.68-3.63,1.18-5.08,2.02l-.15-.09c-.27-.16-.55-.31-.81-.48-.07-.04-.14-.08-.2-.13-2.31-1.41-3.94-2.64-5.91-4.55-.32-.31-.64-.64-.94-.99"/><line class="cls-3" x1="110.06" y1="108.35" x2="112.08" y2="110.85"/><polyline class="cls-3" points="120.39 134.27 123.27 137.86 123.51 138.15"/><path class="cls-3" d="m66.93,149.41l-4.65-5.77-22.25-27.63-2.44-3.04-4.64-5.76v-21.8c.1,1.76.3,3.51.58,5.24.61,3.72,2.12,7.58,4.06,11.18.76,1.41,1.58,2.78,2.44,4.08.71,1.08,1.45,2.11,2.2,3.09,3.83,4.97,7.13,8.28,11.88,12.24.14.12.27.23.43.35.54.46,1.09.91,1.65,1.33,3.49,2.85,7.07,5.54,10.75,8.13"/><line class="cls-3" x1="32.94" y1="138.95" x2="32.94" y2="107.21"/><line class="cls-3" x1="37.58" y1="144.71" x2="37.58" y2="112.97"/><line class="cls-3" x1="40.03" y1="143.62" x2="40.03" y2="116.01"/><line class="cls-3" x1="62.28" y1="143.64" x2="62.28" y2="175.37"/><polyline class="cls-3" points="66.93 149.41 66.93 163.45 66.93 181.14 66.93 181.15"/><polyline class="cls-3" points="69.82 179.85 69.82 162.17 69.82 152.99"/><polyline class="cls-3" points="115.75 151.47 115.75 141.62 115.75 140.53"/><polyline class="cls-3" points="120.39 157.24 120.39 157.23 120.39 139.55"/><polyline class="cls-3" points="123.27 137.86 123.27 138.26 123.27 155.94"/><line class="cls-3" x1="112.08" y1="116.99" x2="112.08" y2="110.85"/><line class="cls-3" x1="112.08" y1="110.85" x2="104.24" y2="114.36"/><path class="cls-3" d="m89.22,139.44l-3.95,1.77-7.2,3.22-8.25,3.69-2.88,1.29v-18.37c.18.14.38.24.59.32.64.27,1.36.31,2.04.09.08-.03.17-.05.24-.08,2.29-.73,4.57-1.51,6.83-2.33,2.55-.92,5.07-1.88,7.58-2.88.05-.02.09-.04.14-.06-.21,2.33.17,4.71.88,6.93.72,2.27,2.28,4.56,3.97,6.41Z"/><polyline class="cls-3" points="90.63 152.85 86.37 154.76 75.25 159.73"/><line class="cls-3" x1="40.03" y1="143.62" x2="37.58" y2="144.71"/><polyline class="cls-3" points="113.1 142.81 115.75 141.62 120.39 139.55 123.27 138.26 123.51 138.15"/><line class="cls-3" x1="69.82" y1="179.85" x2="66.93" y2="181.14"/><line class="cls-3" x1="123.27" y1="155.94" x2="120.39" y2="157.24"/></g></svg>