<?xml version="1.0" encoding="UTF-8"?><svg id="Layer_2" xmlns="http://www.w3.org/2000/svg" viewBox="0 0 161.09 234.55"><defs><style>.cls-1{fill:#ecede8;}.cls-1,.cls-2{stroke-width:0px;}.cls-2{fill:#1a1a1a;}.cls-3{fill:none;stroke:#000;stroke-linecap:round;stroke-linejoin:round;stroke-width:.5px;}</style></defs><g id="Layer_2-2"><rect class="cls-1" width="161.09" height="234.55" rx="5" ry="5"/><path class="cls-2" d="m138.1,221.35c-2.27,0-4.75.04-5.22.11-.25-.07-.36-.36-.32-.58.9-1.33,2.05-3.28,3.56-5.94l10.37-18.36c.61-.11,1.66.32,1.73,1.12l-9.47,16.45c-.79,1.4-1.19,2.23-1.19,2.84,0,.47.5.58,1.04.58h7.63c2.09,0,2.45-.25,3.28-1.76.29-.32,1.08-.14,1.22.25-.61,1.76-1.08,4.03-1.4,5.4-1.19-.07-2.05-.11-4.32-.11h-6.91Z"/><path class="cls-2" d="m134.97,180.94c.33,1.01,1.11,2.03,1.88,2.77.77.74,1.4,1.2,2.32,1.74.66.4,1.34.77,2.03,1.12.28.14.6.14.88,0,.69-.35,1.37-.72,2.03-1.12.91-.54,1.55-1.01,2.32-1.74.77-.74,1.55-1.75,1.88-2.77.32-.97.47-2.03.3-3.03-.2-1.21-.74-2.05-1.8-2.68-.9-.54-2.06-.54-3.03-.15-.51.2-.97.38-1.39.63l.38-1.94c.04-.22-.12-.42-.35-.42h-1.57c-.22,0-.39.2-.35.42l.38,1.94c-.42-.25-.88-.43-1.39-.63-.98-.38-2.13-.38-3.03.15-1.05.63-1.59,1.47-1.8,2.68-.17,1.01-.02,2.06.3,3.03Z"/><path class="cls-2" d="m22.99,13.21c2.27,0,4.75-.04,5.22-.11.25.07.36.36.32.58-.9,1.33-2.05,3.28-3.56,5.94l-10.37,18.36c-.61.11-1.66-.32-1.73-1.12l9.47-16.45c.79-1.4,1.19-2.23,1.19-2.84,0-.47-.5-.58-1.04-.58h-7.63c-2.09,0-2.45.25-3.28,1.76-.29.32-1.08.14-1.22-.25.61-1.76,1.08-4.03,1.4-5.4,1.19.07,2.05.11,4.32.11h6.91Z"/><path class="cls-2" d="m26.12,53.62c-.33-1.01-1.11-2.03-1.88-2.77-.77-.74-1.4-1.2-2.32-1.74-.66-.4-1.34-.77-2.03-1.12-.28-.14-.6-.14-.88,0-.69.35-1.37.72-2.03,1.12-.91.54-1.55,1.01-2.32,1.74-.77.74-1.55,1.75-1.88,2.77-.32.97-.47,2.03-.3,3.03.2,1.21.74,2.05,1.8,2.68.9.54,2.06.54,3.03.15.51-.2.97-.38,1.39-.63l-.38,1.94c-.04.22.12.42.35.42h1.57c.22,0,.39-.2.35-.42l-.38-1.94c.42.25.88.43,1.39.63.98.38,2.13.38,3.03-.15,1.05-.63,1.59-1.47,1.8-2.68.17-1.01.02-2.06-.3-3.03Z"/><path class="cls-3" d="m124.64,86.83c-.66-.83-1.35-1.63-2.07-2.41"/><path class="cls-3" d="m54.97,72.33c-6.71,3.21-12.6,7.67-17.27,13.02-.44.49-.86,1-1.27,1.51"/><path class="cls-3" d="m122.56,84.42c-4.53-4.94-10.11-9.06-16.43-12.09"/><path class="cls-3" d="m124.64,86.83c-5.47,2.56-10.65,6.19-16.58,7.37-10.37,2.05-20.66-3.72-31.22-4.11-1.03-.03-2.07-.03-3.09.03-4.36.23-8.69,1.18-13.01,1.9-5.34.89-10.9,1.45-16.11-.05-3.12-.89-6.09-2.68-8.2-5.12-6.6,8.15-10.5,18.21-10.5,29.1,0,17.81,10.44,33.43,26.1,42.11.62,4.78,4.72,8.48,9.67,8.48h37.7c4.95,0,9.04-3.7,9.66-8.48,15.66-8.68,26.1-24.29,26.1-42.11,0-10.9-3.9-20.96-10.52-29.12Z"/><path class="cls-3" d="m106.36,143.36c-.33.66-.69,1.3-1.06,1.94-.52.87-.96,1.47-1.66,2.21-.08.09-.16.16-.25.25-.67.65-1.54,1.26-2.39,1.54-.93.31-1.93.45-2.89.29-1.16-.2-1.96-.71-2.56-1.71-.18-.3-.3-.63-.35-.97-.12-.64-.03-1.31.2-1.92.19-.49.37-.93.6-1.33l-1.85.37c-.21.03-.41-.12-.41-.33v-1.5c0-.21.2-.37.41-.33l1.85.36c-.24-.4-.42-.83-.6-1.32-.36-.93-.36-2.04.15-2.9.6-1,1.4-1.52,2.56-1.71.96-.16,1.96-.02,2.89.29.96.32,1.94,1.06,2.64,1.79.7.74,1.14,1.34,1.66,2.21.37.63.73,1.28,1.06,1.94.13.26.13.57,0,.83Z"/><path class="cls-3" d="m95.2,122.2c.26-.05.51.15.51.43v1.91c0,.27-.25.48-.51.43l-2.36-.46c.3.51.52,1.07.76,1.69.47,1.18.47,2.6-.19,3.69-.76,1.28-1.79,1.94-3.25,2.19-1.24.2-2.51.02-3.7-.37-1.23-.4-2.47-1.35-3.36-2.28s-1.46-1.7-2.12-2.82c-.48-.81-.93-1.64-1.35-2.47-.17-.34-.17-.74,0-1.07.43-.84.88-1.66,1.35-2.47.66-1.12,1.23-1.89,2.12-2.83s2.14-1.87,3.36-2.28c1.18-.38,2.46-.57,3.7-.37,1.47.25,2.5.9,3.25,2.19.66,1.09.66,2.5.19,3.69-.24.61-.46,1.18-.76,1.69l2.36-.46Z"/><path class="cls-3" d="m81.32,99.72c.2-.04.4.12.4.32v1.5c0,.21-.2.37-.4.33l-1.86-.36c.24.4.42.84.6,1.32.36.94.37,2.04-.15,2.9-.6,1.01-1.4,1.52-2.55,1.71-.96.16-1.97.02-2.9-.29-.96-.32-1.93-1.06-2.64-1.79-.7-.73-1.14-1.34-1.66-2.21-.37-.63-.73-1.28-1.06-1.93-.13-.26-.13-.58,0-.84.33-.66.69-1.3,1.06-1.93.52-.88.96-1.48,1.66-2.21.71-.73,1.68-1.47,2.64-1.79.93-.31,1.93-.45,2.9-.29,1.15.2,1.95.71,2.55,1.71.52.86.51,1.96.15,2.9-.19.48-.37.92-.6,1.32l1.86-.36Z"/><path class="cls-3" d="m50.16,124.69v1.54c0,.22-.2.38-.42.34l-1.9-.37c.25.41.43.86.61,1.35.37.95.37,2.09-.14,2.97-.62,1.03-1.45,1.56-2.63,1.76-.99.16-2.02.02-2.97-.3-.99-.32-1.99-1.09-2.71-1.84-.72-.76-1.18-1.38-1.71-2.27-.38-.65-.75-1.32-1.09-1.99-.14-.27-.14-.6,0-.86.34-.68.71-1.35,1.09-1.99.54-.9.99-1.52,1.71-2.27.72-.76,1.72-1.52,2.71-1.84.95-.32,1.98-.47,2.97-.3,1.18.2,2.01.73,2.63,1.76.52.88.52,2.01.14,2.97-.19.49-.37.95-.61,1.35l1.9-.37c.21-.04.42.12.42.34Z"/><path class="cls-3" d="m51.66,110.18c-.76.25-1.58.37-2.38.24-.95-.16-1.61-.59-2.1-1.41-.42-.7-.42-1.61-.12-2.38.15-.39.3-.76.49-1.08l-1.52.29c-.17.03-.33-.09-.33-.27v-1.23c0-.18.16-.31.33-.27l1.52.29c-.2-.32-.34-.69-.49-1.08-.3-.77-.3-1.68.12-2.38.49-.83,1.16-1.25,2.1-1.41.79-.13,1.62,0,2.38.24.79.26,1.59.87,2.17,1.47s.94,1.1,1.36,1.81c.32.53.6,1.06.88,1.6.11.21.11.47,0,.69-.27.54-.56,1.06-.88,1.59-.43.72-.78,1.21-1.36,1.81s-1.38,1.21-2.17,1.47Z"/><path class="cls-3" d="m120.19,114.05c-.38.76-.79,1.5-1.23,2.23-.6,1.01-1.11,1.7-1.92,2.55s-1.93,1.7-3.04,2.06c-1.06.36-2.22.52-3.33.33-1.33-.22-2.26-.82-2.95-1.97-.59-.99-.59-2.26-.17-3.34.22-.55.42-1.06.69-1.52l-2.13.41c-.24.05-.46-.14-.46-.38v-1.72c0-.25.22-.43.46-.38l2.13.41c-.27-.46-.47-.96-.69-1.52-.42-1.07-.42-2.34.17-3.33.69-1.16,1.62-1.75,2.95-1.98,1.11-.19,2.27-.02,3.33.33,1.12.37,2.23,1.22,3.04,2.06s1.31,1.54,1.92,2.55c.43.73.84,1.47,1.23,2.23.15.31.15.66,0,.97Z"/><path class="cls-3" d="m57.5,139.64c.38-.76.79-1.51,1.23-2.23.6-1.01,1.11-1.7,1.92-2.56.8-.84,1.93-1.7,3.03-2.06,1.07-.35,2.23-.52,3.34-.33,1.33.23,2.25.82,2.94,1.98.6.99.59,2.26.17,3.33-.21.56-.42,1.06-.69,1.52l2.13-.42c.25-.04.47.14.47.38v1.73c0,.25-.22.43-.47.38l-2.13-.42c.27.46.48.97.69,1.52.42,1.07.43,2.34-.17,3.33-.26.45-.57.81-.92,1.1-.55.47-1.2.74-2.02.88-1.11.19-2.27.02-3.34-.33-.39-.13-.78-.32-1.16-.55-.7-.42-1.35-.97-1.87-1.52-.81-.85-1.32-1.54-1.92-2.55-.43-.73-.84-1.48-1.23-2.24-.15-.3-.15-.66,0-.96Z"/><path class="cls-3" d="m54.97,72.33c-3.35-.58-5.31-1.27-5.31-2.02,0-1.8,11.34-3.28,26.14-3.54h.04c1.53-.03,3.1-.04,4.7-.04s3.17.02,4.7.04h.04c14.81.26,26.13,1.75,26.13,3.54,0,.75-1.96,1.44-5.3,2.02-5.55.95-14.94,1.57-25.58,1.57s-20.03-.62-25.58-1.57Z"/><path class="cls-3" d="m37.7,85.34c2.41,1.78,5.71,2.28,8.77,2.15,3.64-.15,7.24-1.03,10.88-.87,3.34.15,6.58,1.17,9.91,1.52,2.11.22,4.24.16,6.37,0,4.74-.33,9.5-1.15,14.19-.44,5.09.78,10.15,3.31,15.15,2.12,2.86-.68,5.3-2.51,7.96-3.75,3.6-1.68,7.7-2.24,11.63-1.66h0"/><path class="cls-3" d="m62.99,159.81c11.07,1.78,22.42,1.85,33.51.2"/><path class="cls-2" d="m72.03,139.26v1.73c0,.25-.22.43-.47.38l-2.13-.42c.27.46.48.97.69,1.52.42,1.07.43,2.34-.17,3.33-.26.45-.57.81-.92,1.1-.55.47-1.2.74-2.02.88-1.11.19-2.27.02-3.34-.33-.39-.13-.78-.32-1.16-.55-.7-.42-1.35-.97-1.87-1.52-.81-.85-1.32-1.54-1.92-2.55-.43-.73-.84-1.48-1.23-2.24-.15-.3-.15-.66,0-.96.38-.76.79-1.51,1.23-2.23.6-1.01,1.11-1.7,1.92-2.56.8-.84,1.93-1.7,3.03-2.06,1.07-.35,2.23-.52,3.34-.33,1.33.23,2.25.82,2.94,1.98.6.99.59,2.26.17,3.33-.21.56-.42,1.06-.69,1.52l2.13-.42c.25-.04.47.14.47.38Z"/><path class="cls-2" d="m50.16,124.69v1.54c0,.22-.2.38-.42.34l-1.9-.37c.25.41.43.86.61,1.35.37.95.37,2.09-.14,2.97-.62,1.03-1.45,1.56-2.63,1.76-.99.16-2.02.02-2.97-.3-.99-.32-1.99-1.09-2.71-1.84-.72-.76-1.18-1.38-1.71-2.27-.38-.65-.75-1.32-1.09-1.99-.14-.27-.14-.6,0-.86.34-.68.71-1.35,1.09-1.99.54-.9.99-1.52,1.71-2.27.72-.76,1.72-1.52,2.71-1.84.95-.32,1.98-.47,2.97-.3,1.18.2,2.01.73,2.63,1.76.52.88.52,2.01.14,2.97-.19.49-.37.95-.61,1.35l1.9-.37c.21-.04.42.12.42.34Z"/><path class="cls-2" d="m56.07,104.61c.11.21.11.47,0,.69-.27.54-.56,1.06-.88,1.59-.43.72-.78,1.21-1.36,1.81s-1.38,1.21-2.17,1.47c-.76.25-1.58.37-2.38.24-.95-.16-1.61-.59-2.1-1.41-.42-.7-.42-1.61-.12-2.38.15-.39.3-.76.49-1.08l-1.52.29c-.17.03-.33-.09-.33-.27v-1.23c0-.18.16-.31.33-.27l1.52.29c-.2-.32-.34-.69-.49-1.08-.3-.77-.3-1.68.12-2.38.49-.83,1.16-1.25,2.1-1.41.79-.13,1.62,0,2.38.24.79.26,1.59.87,2.17,1.47s.94,1.1,1.36,1.81c.32.53.6,1.06.88,1.6Z"/><path class="cls-2" d="m120.19,113.08c.15.31.15.66,0,.97-.38.76-.79,1.5-1.23,2.23-.6,1.01-1.11,1.7-1.92,2.55s-1.93,1.7-3.04,2.06c-1.06.36-2.22.52-3.33.33-1.33-.22-2.26-.82-2.95-1.97-.59-.99-.59-2.26-.17-3.34.22-.55.42-1.06.69-1.52l-2.13.41c-.24.05-.46-.14-.46-.38v-1.72c0-.25.22-.43.46-.38l2.13.41c-.27-.46-.47-.96-.69-1.52-.42-1.07-.42-2.34.17-3.33.69-1.16,1.62-1.75,2.95-1.98,1.11-.19,2.27-.02,3.33.33,1.12.37,2.23,1.22,3.04,2.06s1.31,1.54,1.92,2.55c.43.73.84,1.47,1.23,2.23Z"/><path class="cls-2" d="m81.72,100.04v1.5c0,.21-.2.37-.4.33l-1.86-.36c.24.4.42.84.6,1.32.36.94.37,2.04-.15,2.9-.6,1.01-1.4,1.52-2.55,1.71-.96.16-1.97.02-2.9-.29-.96-.32-1.93-1.06-2.64-1.79-.7-.73-1.14-1.34-1.66-2.21-.37-.63-.73-1.28-1.06-1.93-.13-.26-.13-.58,0-.84.33-.66.69-1.3,1.06-1.93.52-.88.96-1.48,1.66-2.21.71-.73,1.68-1.47,2.64-1.79.93-.31,1.93-.45,2.9-.29,1.15.2,1.95.71,2.55,1.71.52.86.51,1.96.15,2.9-.19.48-.37.92-.6,1.32l1.86-.36c.2-.04.4.12.4.32Z"/><path class="cls-2" d="m95.71,122.62v1.91c0,.27-.25.48-.51.43l-2.36-.46c.3.51.52,1.07.76,1.69.47,1.18.47,2.6-.19,3.69-.76,1.28-1.79,1.94-3.25,2.19-1.24.2-2.51.02-3.7-.37-1.23-.4-2.47-1.35-3.36-2.28s-1.46-1.7-2.12-2.82c-.48-.81-.93-1.64-1.35-2.47-.17-.34-.17-.74,0-1.07.43-.84.88-1.66,1.35-2.47.66-1.12,1.23-1.89,2.12-2.83s2.14-1.87,3.36-2.28c1.18-.38,2.46-.57,3.7-.37,1.47.25,2.5.9,3.25,2.19.66,1.09.66,2.5.19,3.69-.24.61-.46,1.18-.76,1.69l2.36-.46c.26-.05.51.15.51.43Z"/><path class="cls-2" d="m106.36,142.53c.13.26.13.57,0,.83-.33.66-.69,1.3-1.06,1.94-.52.87-.96,1.47-1.66,2.21-.08.09-.16.16-.25.25-.67.65-1.54,1.26-2.39,1.54-.93.31-1.93.45-2.89.29-1.16-.2-1.96-.71-2.56-1.71-.18-.3-.3-.63-.35-.97-.12-.64-.03-1.31.2-1.92.19-.49.37-.93.6-1.33l-1.85.37c-.21.03-.41-.12-.41-.33v-1.5c0-.21.2-.37.41-.33l1.85.36c-.24-.4-.42-.83-.6-1.32-.36-.93-.36-2.04.15-2.9.6-1,1.4-1.52,2.56-1.71.96-.16,1.96-.02,2.89.29.96.32,1.94,1.06,2.64,1.79.7.74,1.14,1.34,1.66,2.21.37.63.73,1.28,1.06,1.94Z"/></g></svg>