<?xml version="1.0" encoding="UTF-8"?><svg id="Layer_2" xmlns="http://www.w3.org/2000/svg" viewBox="0 0 161.09 234.55"><defs><style>.cls-1{fill:#ecede8;}.cls-1,.cls-2{stroke-width:0px;}.cls-2{fill:#1a1a1a;}.cls-3{fill:none;stroke:#000;stroke-linecap:round;stroke-linejoin:round;stroke-width:.5px;}</style></defs><g id="Layer_2-2"><rect class="cls-1" width="161.09" height="234.55" rx="5" ry="5"/><path class="cls-2" d="m149.8,204.14c0,2.7-1.91,4.54-4.75,5.98,2.23,1.22,3.82,2.99,3.82,5.54,0,3.53-2.92,6.19-7.38,6.19-4.07,0-6.95-2.2-6.95-5.62,0-2.56,2.02-3.89,3.92-4.97-2.7-1.37-4.82-3.28-4.82-6.73s2.63-6.23,8.28-6.23c4.21,0,7.88,1.91,7.88,5.83Zm-11.45-.79c0,2.84,1.98,4.36,4.97,5.76,1.3-1.3,1.83-2.84,1.83-4.57,0-2.52-1.48-4.57-3.82-4.57-1.58,0-2.99,1.22-2.99,3.38Zm6.12,13.5c0-1.69-1.22-3.2-4.18-4.46-1.12.68-1.73,2.2-1.73,3.92,0,2.48,1.55,3.89,2.99,3.89,1.66,0,2.92-1.4,2.92-3.35Z"/><path class="cls-2" d="m138.04,181.2c.43,0,.8-.04,1.12-.11-.51.59-.82,1.36-.82,2.2,0,1.86,1.51,3.37,3.37,3.37s3.37-1.51,3.37-3.37c0-.84-.31-1.61-.82-2.2.32.07.7.11,1.12.11,1.86,0,3.37-1.51,3.37-3.37s-1.51-3.37-3.37-3.37c-1.32,0-2.46.13-3.01.88l.32-1.64c.04-.19-.11-.36-.3-.36h-1.35c-.19,0-.34.18-.3.36l.32,1.64c-.55-.74-1.69-.88-3.01-.88-1.86,0-3.37,1.51-3.37,3.37s1.51,3.37,3.37,3.37Z"/><path class="cls-2" d="m11.3,30.41c0-2.7,1.91-4.54,4.75-5.98-2.23-1.22-3.82-2.99-3.82-5.54,0-3.53,2.92-6.19,7.38-6.19,4.07,0,6.95,2.2,6.95,5.62,0,2.56-2.02,3.89-3.92,4.97,2.7,1.37,4.82,3.28,4.82,6.73s-2.63,6.23-8.28,6.23c-4.21,0-7.88-1.91-7.88-5.83Zm11.45.79c0-2.84-1.98-4.36-4.97-5.76-1.3,1.3-1.83,2.84-1.83,4.57,0,2.52,1.48,4.57,3.82,4.57,1.58,0,2.99-1.22,2.99-3.38Zm-6.12-13.5c0,1.69,1.22,3.2,4.18,4.46,1.12-.68,1.73-2.2,1.73-3.92,0-2.48-1.55-3.89-2.99-3.89-1.66,0-2.92,1.4-2.92,3.35Z"/><path class="cls-2" d="m23.05,53.35c-.43,0-.8.04-1.12.11.51-.59.82-1.36.82-2.2,0-1.86-1.51-3.37-3.37-3.37s-3.37,1.51-3.37,3.37c0,.84.31,1.61.82,2.2-.32-.07-.7-.11-1.12-.11-1.86,0-3.37,1.51-3.37,3.37s1.51,3.37,3.37,3.37c1.32,0,2.46-.13,3.01-.88l-.32,1.64c-.04.19.11.36.3.36h1.35c.19,0,.34-.18.3-.36l-.32-1.64c.55.74,1.69.88,3.01.88,1.86,0,3.37-1.51,3.37-3.37s-1.51-3.37-3.37-3.37Z"/><path class="cls-2" d="m101.88,81.37l.5,2.56c.05.3-.17.57-.47.57h-2.12c-.3,0-.53-.27-.47-.57l.5-2.56c-.62.83-1.7,1.18-3.02,1.3h0c-.53.06-1.11.08-1.7.08-2.91,0-5.26-2.36-5.26-5.27s2.35-5.27,5.26-5.27c.67,0,1.25.06,1.76.17-.8-.92-1.28-2.12-1.28-3.43,0-1.88.99-3.54,2.48-4.46.81-.52,1.76-.81,2.79-.81,1.1,0,2.11.33,2.95.9,1.4.95,2.32,2.55,2.32,4.37,0,1.31-.48,2.51-1.28,3.43.51-.11,1.09-.17,1.75-.17,1.31,0,2.5.47,3.42,1.26,1.13.97,1.85,2.4,1.85,4.01,0,2.91-2.36,5.27-5.27,5.27-2.06,0-3.85-.21-4.71-1.38Z"/><path class="cls-2" d="m113.91,53.81c1.93,0,3.63,1,4.6,2.52.55.85.86,1.86.86,2.94,0,1.36-.5,2.61-1.32,3.56.52-.11,1.12-.18,1.81-.18,3.02,0,5.47,2.45,5.47,5.47s-2.45,5.46-5.47,5.46c-2.14,0-3.99-.22-4.88-1.42l.51,2.65c.06.31-.17.59-.49.59h-2.19c-.31,0-.55-.28-.49-.59l.52-2.65c-.59.79-1.6,1.16-2.83,1.31-.92-.79-2.11-1.26-3.42-1.26-.66,0-1.24.06-1.75.17.8-.92,1.28-2.12,1.28-3.43,0-1.82-.92-3.42-2.32-4.37.99-1.18,2.48-1.93,4.15-1.93.69,0,1.29.07,1.82.18-.83-.95-1.33-2.2-1.33-3.56,0-.06,0-.12.01-.18.09-2.94,2.5-5.28,5.46-5.28Z"/><path class="cls-2" d="m75.51,75.07c-.95,1.28-2.93,1.51-5.2,1.51-3.22,0-5.82-2.6-5.82-5.82s2.6-5.82,5.82-5.82c.73,0,1.37.07,1.93.19-.88-1.01-1.41-2.34-1.41-3.79,0-2.41,1.46-4.47,3.54-5.35.27-.12.54-.21.83-.28-.02.1-.02.21-.02.31,0,3.01,2.44,5.46,5.46,5.46.64,0,1.26-.02,1.83-.08-.01,1.43-.54,2.73-1.41,3.73.56-.12,1.2-.19,1.94-.19,1.97,0,3.72.98,4.76,2.49.67.94,1.06,2.09,1.06,3.33s-.36,2.3-.98,3.22c-1.03,1.57-2.82,2.6-4.84,2.6-2.28,0-4.26-.23-5.21-1.51l.55,2.83c.05.29-.15.56-.43.61-.03.01-.06.01-.09.01h-2.34c-.33,0-.58-.3-.52-.62l.55-2.83Z"/><path class="cls-2" d="m85.53,60.06c-.63.84-1.73,1.2-3.06,1.34-.57.06-1.19.08-1.83.08-3.02,0-5.46-2.45-5.46-5.46,0-.1,0-.21.02-.31.15-2.88,2.52-5.16,5.44-5.16.69,0,1.29.07,1.82.18-.56-.64-.97-1.42-1.17-2.28-.11-.41-.16-.84-.16-1.28,0-3.02,2.45-5.46,5.47-5.46.94,0,1.81.23,2.58.65,1.71.92,2.88,2.73,2.88,4.81,0,1.36-.5,2.61-1.32,3.56.52-.11,1.12-.18,1.81-.18,3.02,0,5.47,2.45,5.47,5.47,0,.19-.01.38-.03.56-.28,2.75-2.61,4.9-5.44,4.9-2.14,0-3.99-.22-4.88-1.42l.51,2.65c.06.3-.16.58-.47.59h-2.21c-.31,0-.55-.28-.49-.59l.52-2.65Z"/><path class="cls-2" d="m113.91,53.81c-2.96,0-5.37,2.34-5.46,5.28h-.06c-.31,0-.55-.28-.49-.59l.52-2.65c-.9,1.2-2.75,1.42-4.89,1.42s-3.86-1.14-4.78-2.83c-.44-.78-.68-1.68-.68-2.63,0-1.22.4-2.35,1.08-3.26.99-1.34,2.58-2.21,4.38-2.21.69,0,1.29.07,1.82.18-.83-.95-1.33-2.2-1.33-3.56,0-.77.16-1.5.44-2.16.18.01.36.01.54.01,2.29,0,4.28-1.32,5.22-3.25,2.67.34,4.73,2.63,4.73,5.4,0,1.36-.5,2.61-1.32,3.56.52-.11,1.12-.18,1.81-.18,3.02,0,5.47,2.45,5.47,5.47,0,1.88-.95,3.54-2.4,4.52-.97-1.52-2.67-2.52-4.6-2.52Z"/><path class="cls-2" d="m104.46,40.8c-2.05-.03-3.8-.32-4.67-1.5l.55,2.83c.06.32-.19.63-.52.63h-2.34c-.33,0-.58-.31-.52-.63l.55-2.83c-.95,1.28-2.93,1.51-5.21,1.51-1.18,0-2.28-.35-3.19-.95-1.4-.92-2.38-2.42-2.58-4.16-.04-.23-.05-.46-.05-.7,0-3.22,2.61-5.82,5.82-5.82.74,0,1.38.06,1.94.19-.88-1.02-1.41-2.35-1.41-3.8,0-3.21,2.61-5.82,5.82-5.82s5.82,2.61,5.82,5.82c0,1.45-.53,2.78-1.41,3.8.56-.13,1.2-.19,1.94-.19,3.21,0,5.82,2.6,5.82,5.82,0,.92-.21,1.79-.6,2.56-.94,1.93-2.93,3.25-5.22,3.25-.18,0-.36,0-.54-.01Z"/><path class="cls-2" d="m75.73,46.61l.68,3.47c.08.4-.23.77-.64.77h-2.87c-.41,0-.72-.37-.64-.77l.68-3.47c-1.17,1.57-3.6,1.86-6.39,1.86-3.95,0-7.15-3.2-7.15-7.14s3.2-7.15,7.15-7.15c.9,0,1.68.08,2.37.24-1.08-1.25-1.73-2.88-1.73-4.66,0-3.95,3.2-7.15,7.15-7.15s7.14,3.2,7.14,7.15c0,1.78-.65,3.41-1.73,4.66.69-.16,1.47-.24,2.38-.24,1.66,0,3.19.57,4.4,1.52.2,1.74,1.18,3.24,2.58,4.16.11.47.16.96.16,1.47,0,.35-.03.69-.09,1.03-.77-.42-1.64-.65-2.58-.65-3.02,0-5.47,2.44-5.47,5.46,0,.44.05.87.16,1.28-2.44-.05-4.51-.43-5.56-1.84Z"/><path class="cls-2" d="m59.64,184.83c1.11.18,2.29.15,3.43.1.08,0,.17-.01.25-.01-.09,4.61-.17,9.22-.25,13.83-.01.71-.03,1.44-.32,2.09-.28.65-.91,1.2-1.62,1.18-.72-.02-1.31-.64-1.55-1.32-.23-.68-.19-1.42-.15-2.15.28-4.56.35-9.15.21-13.72Z"/><path class="cls-2" d="m73.62,184.23c.55,4.84.84,9.7.09,14.49-.13.8-.3,1.62-.78,2.27s-1.36,1.08-2.11.79c-1.08-.41-1.25-1.84-1.24-2.99.03-4.74.06-9.48.09-14.22.85-.06,1.7-.12,2.55-.19.46-.03.93-.08,1.4-.15Z"/><path class="cls-2" d="m67.02,151.32c5.22,0,9.46-4.23,9.46-9.46s-4.24-9.45-9.46-9.45-9.46,4.23-9.46,9.45,4.24,9.46,9.46,9.46Zm31.25-6.73c0,5.16-2.61,9.71-6.59,12.4-.15.1-.31.2-.47.3-.28.18-.57.34-.86.5-.11.06-.22.11-.33.17-.03.02-.07.04-.11.05-.33.17-.67.32-1.02.46-1.72.69-3.6,1.07-5.57,1.07-4.03,0-7.68-.28-10.38-1.54-1.21-.56-2.23-1.33-2.99-2.35h-5.86c-.54.73-1.21,1.32-1.99,1.8-.86.55-1.84.95-2.94,1.25-2.4.67-5.31.84-8.44.84-8.26,0-14.95-6.69-14.95-14.95s6.69-14.95,14.95-14.95c1.88,0,3.53.17,4.97.49-2.26-2.62-3.62-6.03-3.62-9.76,0-8.25,6.69-14.95,14.95-14.95s14.95,6.7,14.95,14.95c0,3.73-1.36,7.14-3.62,9.76,1.44-.32,3.09-.49,4.97-.49.78,0,1.55.06,2.3.17.33.06.67.12.99.2.66.14,1.31.33,1.93.57,1.78.66,3.39,1.65,4.77,2.89.15.14.3.27.44.42.99.95,1.84,2.05,2.53,3.25,1.27,2.19,1.99,4.74,1.99,7.45Z"/><path class="cls-3" d="m104.46,40.8c-2.05-.03-3.8-.32-4.67-1.5l.55,2.83c.06.32-.19.63-.52.63h-2.34c-.33,0-.58-.31-.52-.63l.55-2.83c-.95,1.28-2.93,1.51-5.21,1.51-1.18,0-2.28-.35-3.19-.95"/><path class="cls-3" d="m86.53,35.7c-.04-.23-.05-.46-.05-.7,0-3.22,2.61-5.82,5.82-5.82.74,0,1.38.06,1.94.19-.88-1.02-1.41-2.35-1.41-3.8,0-3.21,2.61-5.82,5.82-5.82s5.82,2.61,5.82,5.82c0,1.45-.53,2.78-1.41,3.8.56-.13,1.2-.19,1.94-.19,3.21,0,5.82,2.6,5.82,5.82,0,.92-.21,1.79-.6,2.56"/><path class="cls-3" d="m103.8,64.58c.99-1.18,2.48-1.93,4.15-1.93.69,0,1.29.07,1.82.18-.83-.95-1.33-2.2-1.33-3.56,0-.06,0-.12.01-.18"/><path class="cls-3" d="m118.51,56.33c.55.85.86,1.86.86,2.94,0,1.36-.5,2.61-1.32,3.56.52-.11,1.12-.18,1.81-.18,3.02,0,5.47,2.45,5.47,5.47s-2.45,5.46-5.47,5.46c-2.14,0-3.99-.22-4.88-1.42l.51,2.65c.06.31-.17.59-.49.59h-2.19c-.31,0-.55-.28-.49-.59l.52-2.65c-.59.79-1.6,1.16-2.83,1.31"/><path class="cls-3" d="m110.22,37.56c2.67.34,4.73,2.63,4.73,5.4,0,1.36-.5,2.61-1.32,3.56.52-.11,1.12-.18,1.81-.18,3.02,0,5.47,2.45,5.47,5.47,0,1.88-.95,3.54-2.4,4.52-.97-1.52-2.67-2.52-4.6-2.52-2.96,0-5.37,2.34-5.46,5.28h-.06c-.31,0-.55-.28-.49-.59l.52-2.65c-.9,1.2-2.75,1.42-4.89,1.42s-3.86-1.14-4.78-2.83c-.44-.78-.68-1.68-.68-2.63,0-1.22.4-2.35,1.08-3.26.99-1.34,2.58-2.21,4.38-2.21.69,0,1.29.07,1.82.18-.83-.95-1.33-2.2-1.33-3.56,0-.77.16-1.5.44-2.16.18.01.36.01.54.01,2.29,0,4.28-1.32,5.22-3.25Z"/><path class="cls-3" d="m81.29,48.45c-2.44-.05-4.51-.43-5.56-1.84l.68,3.47c.08.4-.23.77-.64.77h-2.87c-.41,0-.72-.37-.64-.77l.68-3.47c-1.17,1.57-3.6,1.86-6.39,1.86-3.95,0-7.15-3.2-7.15-7.14s3.2-7.15,7.15-7.15c.9,0,1.68.08,2.37.24-1.08-1.25-1.73-2.88-1.73-4.66,0-3.95,3.2-7.15,7.15-7.15s7.14,3.2,7.14,7.15c0,1.78-.65,3.41-1.73,4.66.69-.16,1.47-.24,2.38-.24,1.66,0,3.19.57,4.4,1.52.2,1.74,1.18,3.24,2.58,4.16.11.47.16.96.16,1.47,0,.35-.03.69-.09,1.03"/><path class="cls-3" d="m72.94,158c.3.92.6,1.85.88,2.78,1.29,1.42,2.68,2.75,4.37,3.64,2.19,1.16,5.02,1.45,7.08.07,1.06-.71,1.82-1.79,2.67-2.74.3-.34.63-.67.98-.95.22-.19.46-.36.7-.5.01-.01.03-.02.04-.02.18-.11.37-.2.56-.28.29-.12.6-.2.92-.23.12-.01.23-.01.35,0,.05,0,.09,0,.14,0,1.12.11,2.21.99,2.15,2.11-.05.88-.74,1.55-1.44,2.11-.07.06-.13.11-.2.16-.33.26-.66.51-1,.75l-.15.12c-.66.49-1.33.96-2.01,1.42-.1.07-.19.14-.3.2h-.01c-.35.25-.71.49-1.07.72l-1.14.72c-1.32.81-2.72,1.59-4.26,1.75-2,.21-4-.69-5.53-1.99-.43-.36-.82-.75-1.2-1.17.94,3.7,1.69,7.45,2.27,11.22.23,1.52.4,3.19-.46,4.46-.79,1.19-2.2,1.65-3.66,1.87-.47.07-.94.12-1.4.15-.85.07-1.7.13-2.55.19-2.12.14-4.23.26-6.35.35-.08,0-.17.01-.25.01-1.14.05-2.32.08-3.43-.1-.95-.14-1.86-.43-2.65-.98-1.06-.73-1.72-1.78-2.08-2.98-.62.37-1.37.52-2.02.24-.78-.33-1.24-1.19-1.33-2.04-.08-.84.14-1.68.37-2.5,1.73-6.2,4.17-12.21,7.23-17.87"/><path class="cls-3" d="m54.91,180.87c.17-.09.32-.2.46-.33.67-.59,1.08-1.41,1.47-2.22,1.53-3.22,2.81-6.55,3.83-9.96"/><path class="cls-3" d="m59.64,184.83c.14,4.57.07,9.16-.21,13.72-.04.73-.08,1.47.15,2.15.24.68.83,1.3,1.55,1.32.71.02,1.34-.53,1.62-1.18.29-.65.31-1.38.32-2.09.08-4.61.16-9.22.25-13.83"/><path class="cls-3" d="m69.67,184.57c-.03,4.74-.06,9.48-.09,14.22-.01,1.15.16,2.58,1.24,2.99.75.29,1.63-.14,2.11-.79s.65-1.47.78-2.27c.75-4.79.46-9.65-.09-14.49"/><polyline class="cls-3" points="91.63 159.78 91.53 159.19 91.21 157.29"/><line class="cls-3" x1="86.61" y1="130.01" x2="77.91" y2="78.51"/><line class="cls-3" x1="93.6" y1="171.42" x2="92.34" y2="164"/><line class="cls-3" x1="87.76" y1="67.43" x2="87.71" y2="63.3"/><line class="cls-3" x1="88.92" y1="160.8" x2="88.89" y2="158.47"/><line class="cls-3" x1="89.05" y1="171.42" x2="88.98" y2="166.45"/><polyline class="cls-3" points="88.54 130.58 87.88 77.5 87.84 73.98"/><polyline class="cls-3" points="89.66 160.28 89.7 160.03 89.96 158.34 90.02 157.96"/><line class="cls-3" x1="101.4" y1="84.5" x2="93.75" y2="133.89"/><line class="cls-3" x1="88.67" y1="166.65" x2="87.94" y2="171.42"/><path class="cls-3" d="m110.01,73.47c1.13.97,1.85,2.4,1.85,4.01,0,2.91-2.36,5.27-5.27,5.27-2.06,0-3.85-.21-4.71-1.38l.5,2.56c.05.3-.17.57-.47.57h-2.12c-.3,0-.53-.27-.47-.57l.5-2.56c-.62.83-1.7,1.18-3.02,1.3h0c-.53.06-1.11.08-1.7.08-2.91,0-5.26-2.36-5.26-5.27s2.35-5.27,5.26-5.27c.67,0,1.25.06,1.76.17-.8-.92-1.28-2.12-1.28-3.43,0-1.88.99-3.54,2.48-4.46.81-.52,1.76-.81,2.79-.81,1.1,0,2.11.33,2.95.9,1.4.95,2.32,2.55,2.32,4.37,0,1.31-.48,2.51-1.28,3.43.51-.11,1.09-.17,1.75-.17,1.31,0,2.5.47,3.42,1.26Z"/><line class="cls-3" x1="87.6" y1="167.37" x2="86.43" y2="171.42"/><path class="cls-3" d="m96.28,137.14c-.69-1.2-1.54-2.3-2.53-3.25-.14-.15-.29-.28-.44-.42-1.38-1.24-2.99-2.23-4.77-2.89-.62-.24-1.27-.43-1.93-.57-.32-.08-.66-.14-.99-.2-.75-.11-1.52-.17-2.3-.17-1.88,0-3.53.17-4.97.49,2.26-2.62,3.62-6.03,3.62-9.76,0-8.25-6.69-14.95-14.95-14.95s-14.95,6.7-14.95,14.95c0,3.73,1.36,7.14,3.62,9.76-1.44-.32-3.09-.49-4.97-.49-8.26,0-14.95,6.69-14.95,14.95s6.69,14.95,14.95,14.95c3.13,0,6.04-.17,8.44-.84,1.1-.3,2.08-.7,2.94-1.25.78-.48,1.45-1.07,1.99-1.8h5.86c.76,1.02,1.78,1.79,2.99,2.35,2.7,1.26,6.35,1.54,10.38,1.54,1.97,0,3.85-.38,5.57-1.07.35-.14.69-.29,1.02-.46.04-.01.08-.03.11-.05.11-.06.22-.11.33-.17.29-.16.58-.32.86-.5.16-.1.32-.2.47-.3,3.98-2.69,6.59-7.24,6.59-12.4,0-2.71-.72-5.26-1.99-7.45Z"/><path class="cls-3" d="m76.48,141.86c0,5.23-4.24,9.46-9.46,9.46s-9.46-4.23-9.46-9.46,4.24-9.45,9.46-9.45,9.46,4.23,9.46,9.45Z"/><polyline class="cls-3" points="89.62 160.3 89.7 160.03 90.04 158.85 90.35 157.79"/><line class="cls-3" x1="114.05" y1="75.4" x2="96.28" y2="137.14"/><line class="cls-3" x1="99.55" y1="42.76" x2="99.15" y2="48.55"/><polyline class="cls-3" points="91.49 159.77 91.53 159.19 91.68 156.99"/><line class="cls-3" x1="96.8" y1="82.68" x2="93.31" y2="133.47"/><polyline class="cls-3" points="91.14 164.91 91.09 165.7 90.69 171.42"/><polyline class="cls-3" points="98.75 54.44 98.6 56.62 98.06 64.49"/><path class="cls-3" d="m75.2,55.71c.15-2.88,2.52-5.16,5.44-5.16.69,0,1.29.07,1.82.18-.56-.64-.97-1.42-1.17-2.28-.11-.41-.16-.84-.16-1.28,0-3.02,2.45-5.46,5.47-5.46.94,0,1.81.23,2.58.65,1.71.92,2.88,2.73,2.88,4.81,0,1.36-.5,2.61-1.32,3.56.52-.11,1.12-.18,1.81-.18,3.02,0,5.47,2.45,5.47,5.47,0,.19-.01.38-.03.56-.28,2.75-2.61,4.9-5.44,4.9-2.14,0-3.99-.22-4.88-1.42l.51,2.65c.06.3-.16.58-.47.59h-2.21c-.31,0-.55-.28-.49-.59l.52-2.65c-.63.84-1.73,1.2-3.06,1.34"/><path class="cls-3" d="m87.76,67.43c.67.94,1.06,2.09,1.06,3.33s-.36,2.3-.98,3.22c-1.03,1.57-2.82,2.6-4.84,2.6-2.28,0-4.26-.23-5.21-1.51l.55,2.83c.05.29-.15.56-.43.61-.03.01-.06.01-.09.01h-2.34c-.33,0-.58-.3-.52-.62l.55-2.83c-.95,1.28-2.93,1.51-5.2,1.51-3.22,0-5.82-2.6-5.82-5.82s2.6-5.82,5.82-5.82c.73,0,1.37.07,1.93.19-.88-1.01-1.41-2.34-1.41-3.79,0-2.41,1.46-4.47,3.54-5.35.27-.12.54-.21.83-.28-.02.1-.02.21-.02.31,0,3.01,2.44,5.46,5.46,5.46.64,0,1.26-.02,1.83-.08-.01,1.43-.54,2.73-1.41,3.73.56-.12,1.2-.19,1.94-.19,1.97,0,3.72.98,4.76,2.49Z"/><line class="cls-3" x1="74.37" y1="55.99" x2="73.59" y2="50.85"/><line class="cls-3" x1="85.62" y1="129.81" x2="77.8" y2="78.52"/><polyline class="cls-3" points="91.96 171.42 91.09 165.7 90.99 165.03"/><polyline class="cls-3" points="89.91 158.01 89.96 158.34 90.04 158.85 90.22 160"/></g></svg>