<?xml version="1.0" encoding="UTF-8"?><svg id="Layer_2" xmlns="http://www.w3.org/2000/svg" viewBox="0 0 161.09 234.55"><defs><style>.cls-1{fill:#ecede8;}.cls-1,.cls-2,.cls-3{stroke-width:0px;}.cls-2{fill:#1a1a1a;}.cls-4{fill:none;stroke:#000;stroke-linecap:round;stroke-linejoin:round;stroke-width:.5px;}.cls-3{fill:#8b001b;}</style></defs><g id="Layer_2-2"><rect class="cls-1" width="161.09" height="234.55" rx="5" ry="5"/><path class="cls-3" d="m149.8,204.14c0,2.7-1.91,4.54-4.75,5.98,2.23,1.22,3.82,2.99,3.82,5.54,0,3.53-2.92,6.19-7.38,6.19-4.07,0-6.95-2.2-6.95-5.62,0-2.56,2.02-3.89,3.92-4.97-2.7-1.37-4.82-3.28-4.82-6.73s2.63-6.23,8.28-6.23c4.21,0,7.88,1.91,7.88,5.83Zm-11.45-.79c0,2.84,1.98,4.36,4.97,5.76,1.3-1.3,1.84-2.84,1.84-4.57,0-2.52-1.48-4.57-3.82-4.57-1.58,0-2.99,1.22-2.99,3.38Zm6.12,13.5c0-1.69-1.22-3.2-4.18-4.46-1.12.68-1.73,2.2-1.73,3.92,0,2.48,1.55,3.89,2.99,3.89,1.66,0,2.92-1.4,2.92-3.35Z"/><polygon class="cls-3" points="141.72 189.28 148.76 180 141.72 170.72 134.68 180 141.72 189.28"/><path class="cls-3" d="m11.3,30.41c0-2.7,1.91-4.54,4.75-5.98-2.23-1.22-3.82-2.99-3.82-5.54,0-3.53,2.92-6.19,7.38-6.19,4.07,0,6.95,2.2,6.95,5.62,0,2.56-2.02,3.89-3.92,4.97,2.7,1.37,4.82,3.28,4.82,6.73s-2.63,6.23-8.28,6.23c-4.21,0-7.88-1.91-7.88-5.83Zm11.45.79c0-2.84-1.98-4.36-4.97-5.76-1.3,1.3-1.84,2.84-1.84,4.57,0,2.52,1.48,4.57,3.82,4.57,1.58,0,2.99-1.22,2.99-3.38Zm-6.12-13.5c0,1.69,1.22,3.2,4.18,4.46,1.12-.68,1.73-2.2,1.73-3.92,0-2.48-1.55-3.89-2.99-3.89-1.66,0-2.92,1.4-2.92,3.35Z"/><polygon class="cls-3" points="19.38 45.27 12.34 54.55 19.38 63.84 26.42 54.55 19.38 45.27"/><ellipse class="cls-2" cx="71.83" cy="174.43" rx="12.64" ry="2.68"/><polygon class="cls-3" points="102.45 141.89 105.33 145.69 105.03 146.09 99.34 146.09 99.3 146.04 100.91 143.91 102.45 141.89"/><polygon class="cls-3" points="105.33 145.69 102.45 141.89 100.91 143.91 99.87 142.54 102.09 139.61 103.8 137.36 107.27 141.94 107.72 142.54 107.64 142.65 106.98 143.51 105.33 145.69"/><polygon class="cls-3" points="114.84 140.56 117.27 143.77 115.52 146.09 114.16 146.09 113.6 145.35 113.81 145.23 113.16 142.77 114.84 140.56"/><polygon class="cls-3" points="113.81 145.23 113.6 145.35 112.35 146.09 107.67 146.09 106.98 143.51 107.64 142.65 107.72 142.54 107.27 141.94 108.1 141.45 108.9 140.98 112.17 139.05 112.63 140.79 113.16 142.77 113.81 145.23"/><polygon class="cls-3" points="110.69 133 114.62 138.17 112.63 140.79 112.17 139.05 108.9 140.98 108.22 140.09 106.77 138.17 108.2 136.29 110.69 133"/><polygon class="cls-3" points="107.27 141.94 103.8 137.36 102.09 139.61 102.58 134.15 108.2 136.29 106.77 138.17 108.22 140.09 108.1 141.45 107.27 141.94"/><path class="cls-3" d="m70.51,125.55c-.06-3.72-.18-7.22-.36-10.5,1.71,1.21,3.8,1.93,6.06,1.93,5.78,0,10.47-4.68,10.47-10.47s-4.69-10.46-10.47-10.46c-2.94,0-5.59,1.21-7.48,3.15-1.24-9.32-3.01-16.18-4.96-21.23l12.24-16.14,26.91,35.49-19.61,25.86-7.3,9.63-5.5-7.26Z"/><path class="cls-3" d="m63.77,77.97c1.95,5.05,3.72,11.91,4.96,21.23-1.86,1.89-2.99,4.47-2.99,7.31,0,3.53,1.74,6.64,4.41,8.54.18,3.28.3,6.78.36,10.5l-2.33-3.07-17.38-22.91v-4.5l12.97-17.1Z"/><polygon class="cls-3" points="50.8 95.07 50.8 99.57 49.09 97.32 50.8 95.07"/><path class="cls-3" d="m66.96,159.71c.37.15.75.27,1.12.38-5.13,4.28-10.54,8.41-16.95,10.17-.71.2-1.48.36-2.19.15-.71-.2-1.33-.91-1.19-1.64.11-.54.58-.92,1.03-1.26,4.64-3.53,9.29-7.05,13.93-10.58,1.16,1.22,2.67,2.17,4.25,2.78Z"/><path class="cls-3" d="m98.49,171.42c.64.66,1.32,1.51,1.09,2.41-.2.76-1.04,1.21-1.83,1.21-.79.01-1.53-.34-2.24-.69-6.29-3.17-11.9-7.69-16.34-13.16,2.72-.08,5.39-.59,7.43-2.26,3.96,4.16,7.93,8.33,11.89,12.49Z"/><polygon class="cls-3" points="50.8 136.4 57.12 144.73 50.8 153.07 44.48 144.73 50.8 136.4"/><polyline class="cls-4" points="63.77 77.97 76.01 61.83 102.92 97.32 83.31 123.18"/><path class="cls-4" d="m70.15,115.05c.18,3.28.3,6.78.36,10.5"/><path class="cls-4" d="m50.8,95.07l12.97-17.1c1.95,5.05,3.72,11.91,4.96,21.23"/><line class="cls-4" x1="68.18" y1="122.48" x2="50.8" y2="99.57"/><polygon class="cls-4" points="50.8 99.57 49.09 97.32 50.8 95.07 50.8 99.57"/><polygon class="cls-4" points="50.8 136.4 44.48 144.73 50.8 153.07 57.12 144.73 50.8 136.4"/><line class="cls-4" x1="108.9" y1="140.98" x2="108.22" y2="140.09"/><polyline class="cls-4" points="108.2 136.29 110.69 133 114.62 138.17 112.63 140.79"/><polyline class="cls-4" points="99.34 146.09 99.3 146.04 100.91 143.91"/><polyline class="cls-4" points="105.03 146.09 105.33 145.69 105.6 146.04 105.56 146.09"/><line class="cls-4" x1="114.16" y1="146.09" x2="113.6" y2="145.35"/><polyline class="cls-4" points="113.16 142.77 114.84 140.56 117.27 143.77 115.52 146.09"/><polyline class="cls-4" points="108.1 141.45 108.9 140.98 112.17 139.05 112.63 140.79 113.16 142.77 113.81 145.23 113.6 145.35 112.35 146.09"/><line class="cls-4" x1="107.67" y1="146.09" x2="106.98" y2="143.51"/><polyline class="cls-4" points="107.27 141.94 107.72 142.54 107.64 142.65 106.98 143.51 105.33 145.69 102.45 141.89 100.91 143.91 99.87 142.54 102.09 139.61"/><polygon class="cls-4" points="108.22 140.09 108.1 141.45 107.27 141.94 103.8 137.36 102.09 139.61 102.58 134.15 108.2 136.29 106.77 138.17 108.22 140.09"/><path class="cls-4" d="m68.73,99.2c1.89-1.94,4.54-3.15,7.48-3.15,5.78,0,10.47,4.68,10.47,10.46s-4.69,10.47-10.47,10.47c-2.26,0-4.35-.72-6.06-1.93-2.67-1.9-4.41-5.01-4.41-8.54,0-2.84,1.13-5.42,2.99-7.31Z"/><polygon class="cls-4" points="115.52 146.09 118.21 146.09 118.06 146.99 115.98 159.4 115.02 165.11 102.06 165.11 97.75 146.09 99.34 146.09 105.03 146.09 105.56 146.09 107.67 146.09 112.35 146.09 114.16 146.09 115.52 146.09"/><ellipse class="cls-4" cx="71.83" cy="174.43" rx="12.64" ry="2.68"/><path class="cls-4" d="m101.63,149.94c2.51,4.49,6.93,7.88,11.93,9.15.79.2,1.61.34,2.42.31.54,0,1.07-.09,1.59-.28,2.16-.82,3.22-3.41,3.02-5.71s-1.36-4.4-2.5-6.41"/><path class="cls-4" d="m83.31,123.18c1.74,6.46,3.47,12.92,5.21,19.37.74,2.76,1.49,5.56,1.45,8.42s-.96,5.83-3.1,7.73c-.09.08-.18.16-.27.23-2.04,1.67-4.71,2.18-7.43,2.26h-.01c-1.18.05-2.37.01-3.52-.05-2.54-.14-5.13-.31-7.56-1.05-.37-.11-.75-.23-1.12-.38-1.58-.61-3.09-1.56-4.25-2.78-.85-.9-1.52-1.95-1.91-3.13-1-3.09.08-6.42,1.09-9.5.19-.56.37-1.12.55-1.69.24.49.49.99.79,1.44.75,1.13,2.12,2.06,3.4,1.61.99-.35,3.72-3.78,3.71-5.51,0-.09-.01-.18-.03-.27-.21-.95-1.49-1.33-2.18-.54-.01,0-.02,0-.02.02-.54.63-1.14,1.35-1.97,1.41-.66.04-1.28-.39-1.65-.94-.33-.49-.5-1.08-.65-1.66,1.59-5.19,3.04-10.42,4.34-15.69l2.33,3.07,5.5,7.26,7.3-9.63Z"/><path class="cls-4" d="m63.84,138.17c-.46,1.48-.92,2.97-1.4,4.44"/><path class="cls-4" d="m84.17,138.4c-1.45,2.3-3.02,4.53-4.7,6.66-.82,1.04-1.92,2.16-3.23,1.94-1.04-.17-1.74-1.14-2.3-2.04-1.1-1.74-2.18-3.52-3.12-5.35-1.02-1.96-1.88-3.99-2.47-6.12-.21-.75-.38-1.57-.09-2.3.01,0,.01-.01.01-.02.41-.95,1.77-.95,2.28-.05,1.3,2.29,2.62,4.56,3.97,6.82.41.7.87,1.43,1.63,1.71,1.36.51,2.76-.78,3.27-2.14.52-1.36.56-2.89,1.3-4.14"/><path class="cls-4" d="m70.55,131.12c0-1.91-.02-3.77-.04-5.57"/><path class="cls-4" d="m70.15,115.05c-.31-5.95-.8-11.2-1.42-15.85"/><line class="cls-4" x1="50.8" y1="136.4" x2="50.8" y2="99.57"/><path class="cls-4" d="m50.8,95.07v-31.19s7.26-.75,12.97,14.09"/><path class="cls-4" d="m62.71,156.93c-4.64,3.53-9.29,7.05-13.93,10.58-.45.34-.92.72-1.03,1.26-.14.73.48,1.44,1.19,1.64.71.21,1.48.05,2.19-.15,6.41-1.76,11.82-5.89,16.95-10.17"/><path class="cls-4" d="m86.6,158.93c3.96,4.16,7.93,8.33,11.89,12.49.64.66,1.32,1.51,1.09,2.41-.2.76-1.04,1.21-1.83,1.21-.79.01-1.53-.34-2.24-.69-6.29-3.17-11.9-7.69-16.34-13.16"/></g></svg>