<?xml version="1.0" encoding="UTF-8"?><svg id="Layer_2" xmlns="http://www.w3.org/2000/svg" viewBox="0 0 161.09 234.55"><defs><style>.cls-1{fill:#ecede8;}.cls-1,.cls-2{stroke-width:0px;}.cls-3{fill:none;stroke:#000;stroke-linecap:round;stroke-linejoin:round;stroke-width:.5px;}.cls-2{fill:#8b001b;}</style></defs><g id="Layer_2-2"><rect class="cls-1" width="161.09" height="234.55" rx="5" ry="5"/><path class="cls-2" d="m149.8,204.14c0,2.7-1.91,4.54-4.75,5.98,2.23,1.22,3.82,2.99,3.82,5.54,0,3.53-2.92,6.19-7.38,6.19-4.07,0-6.95-2.2-6.95-5.62,0-2.56,2.02-3.89,3.92-4.97-2.7-1.37-4.82-3.28-4.82-6.73s2.63-6.23,8.28-6.23c4.21,0,7.88,1.91,7.88,5.83Zm-11.45-.79c0,2.84,1.98,4.36,4.97,5.76,1.3-1.3,1.83-2.84,1.83-4.57,0-2.52-1.48-4.57-3.82-4.57-1.58,0-2.99,1.22-2.99,3.38Zm6.12,13.5c0-1.69-1.22-3.2-4.18-4.46-1.12.68-1.73,2.2-1.73,3.92,0,2.48,1.55,3.89,2.99,3.89,1.66,0,2.92-1.4,2.92-3.35Z"/><path class="cls-2" d="m134.75,182.86c.2,1.21.74,2.05,1.8,2.68.9.54,2.06.54,3.03.15.51-.2.97-.38,1.39-.63.27-.16.52-.34.76-.58.23.23.49.42.76.58.42.25.88.43,1.39.63.98.38,2.13.38,3.03-.15,1.05-.63,1.59-1.47,1.8-2.68.17-1.01.02-2.06-.3-3.03-.33-1.01-1.11-2.03-1.88-2.77-.77-.74-1.4-1.2-2.32-1.74-.74-.44-1.49-.85-2.25-1.23-.14-.07-.3-.07-.44,0-.77.38-1.52.79-2.25,1.23-.91.55-1.55,1.01-2.32,1.74-.77.74-1.54,1.75-1.88,2.77-.32.97-.47,2.03-.3,3.03Z"/><path class="cls-2" d="m11.3,30.41c0-2.7,1.91-4.54,4.75-5.98-2.23-1.22-3.82-2.99-3.82-5.54,0-3.53,2.92-6.19,7.38-6.19,4.07,0,6.95,2.2,6.95,5.62,0,2.56-2.02,3.89-3.92,4.97,2.7,1.37,4.82,3.28,4.82,6.73s-2.63,6.23-8.28,6.23c-4.21,0-7.88-1.91-7.88-5.83Zm11.45.79c0-2.84-1.98-4.36-4.97-5.76-1.3,1.3-1.83,2.84-1.83,4.57,0,2.52,1.48,4.57,3.82,4.57,1.58,0,2.99-1.22,2.99-3.38Zm-6.12-13.5c0,1.69,1.22,3.2,4.18,4.46,1.12-.68,1.73-2.2,1.73-3.92,0-2.48-1.55-3.89-2.99-3.89-1.66,0-2.92,1.4-2.92,3.35Z"/><path class="cls-2" d="m26.35,51.69c-.2-1.21-.74-2.05-1.8-2.68-.9-.54-2.06-.54-3.03-.15-.51.2-.97.38-1.39.63-.27.16-.52.34-.76.58-.23-.23-.49-.42-.76-.58-.42-.25-.88-.43-1.39-.63-.98-.38-2.13-.38-3.03.15-1.05.63-1.59,1.47-1.8,2.68-.17,1.01-.02,2.06.3,3.03.33,1.01,1.11,2.03,1.88,2.77.77.74,1.4,1.2,2.32,1.74.74.44,1.49.85,2.25,1.23.14.07.3.07.44,0,.77-.38,1.52-.79,2.25-1.23.91-.55,1.55-1.01,2.32-1.74.77-.74,1.54-1.75,1.88-2.77.32-.97.47-2.03.3-3.03Z"/><path class="cls-2" d="m132.59,72.36c.96,3.8.71,7.87-.2,11.69-.96,3.97-3.6,8.11-6.31,11.15-2.55,2.88-4.71,4.79-7.73,6.97-4.76-.01-9.57-.21-13.81,1.94-.93.47-1.88.93-2.83,1.36-.54-.25-1.08-.5-1.62-.76-.41-.19-.82-.37-1.21-.58-.12-.05-.21-.1-.32-.15-3.49-1.73-6.01-3.27-9.07-5.76-3.19-2.57-6.47-6.23-8.05-9.98-1.52-3.61-2.44-7.59-2.11-11.5.4-4.67,2.2-8.06,6.03-10.8,3.26-2.33,7.68-2.68,11.53-1.54,1.99.6,3.8,1.15,5.48,1.97,1.09.52,2.11,1.14,3.08,1.96.82-.97,1.72-1.74,2.7-2.44,1.53-1.08,3.24-1.92,5.1-2.83,3.62-1.77,8.03-2.13,11.64-.36,4.21,2.06,6.53,5.11,7.7,9.66Z"/><path class="cls-2" d="m115.39,142.52c.94,6.31,1.19,12.73.74,19.09-.03.43-.07.88-.31,1.24-.56.85-1.95.67-2.64-.08-.68-.75-.85-1.82-.97-2.83-.68-5.45-1.12-10.93-1.32-16.42h.01c1.56-.08,3.12-.34,4.47-1,.01,0,.01-.01.02-.01h0Z"/><path class="cls-2" d="m102.83,142.74v.08c-.25,6.01-.95,12.01-2.09,17.91-.21,1.11-.55,2.36-1.57,2.86-1.35.66-2.99-.61-3.33-2.08-.33-1.46.21-2.97.69-4.4,1.7-5.11,2.63-10.48,2.75-15.86,1.09.67,2.29,1.15,3.55,1.49Z"/><path class="cls-2" d="m81.33,109.55c.06.32.07.65.04.98-.02.31-.08.61-.17.91-.9.14-1.79.25-2.69.34-.91.09-1.79.44-2.46,1.06-.09.08-.17.16-.24.25h0c-.22.27-.37.55-.39.84-.01.37.07.73.22,1.06,0,.05-.01.11-.03.16-.22-.12-.44-.24-.66-.37-.63-.36-1.07-.67-1.6-1.17-.53-.49-1.07-1.18-1.3-1.87-.13-.39-.23-.8-.26-1.21-.03-.29-.02-.58.02-.86.04-.22.09-.43.16-.62.19-.51.53-.9,1.05-1.22.61-.37,1.4-.38,2.07-.13.34.13.66.25.95.41.18.11.36.24.52.39.16-.16.33-.29.51-.4.28-.17.6-.3.94-.44.66-.27,1.45-.28,2.07.08.73.42,1.1.99,1.25,1.81Z"/><path class="cls-2" d="m74.95,114.78c.22.13.44.25.66.37-.04.2-.1.4-.16.6-.21.67-.6,1.36-1.05,1.97l-4.39,2.18h-6s.03-.07.04-.11c.21-.67.3-1.39.18-2.08-.15-.82-.53-1.39-1.25-1.81-.62-.36-1.41-.35-2.07-.08-.07.03-.13.05-.2.08-.34-1.03-.51-2.15-.36-3.22.13-.87.42-1.57.93-2.15.26-.31.6-.59,1-.84.98-.61,2.26-.63,3.34-.23.56.2,1.07.4,1.54.66.21.12.41.25.6.41.08.06.17.13.25.21.07-.08.15-.15.23-.21.18-.17.38-.31.59-.44.45-.28.96-.49,1.51-.72.51-.21,1.08-.33,1.63-.32-.07.19-.12.4-.16.62-.04.28-.05.57-.02.86.03.41.13.82.26,1.21.23.69.77,1.38,1.3,1.87.53.5.97.81,1.6,1.17Z"/><path class="cls-2" d="m64.23,117.71c.12.69.03,1.41-.18,2.08-.01.04-.02.07-.04.11h-9.07c-.22-.66-.34-1.38-.23-2.07.13-.82.49-1.41,1.2-1.84.61-.38,1.4-.39,2.07-.13.35.13.67.25.95.41.19.11.36.23.53.39.15-.16.32-.29.51-.4.23-.14.47-.25.74-.36.07-.03.13-.05.2-.08.66-.27,1.45-.28,2.07.08.72.42,1.1.99,1.25,1.81Z"/><path class="cls-2" d="m58.66,108.6c.12.64.04,1.3-.14,1.93-.01.05-.02.1-.04.15-.22.69-.74,1.39-1.26,1.9s-.95.83-1.57,1.21c-.49.3-1,.59-1.52.86-.1.05-.21.05-.3,0-.53-.25-1.05-.53-1.55-.82-.63-.36-1.07-.67-1.6-1.17-.53-.49-1.07-1.18-1.31-1.87-.03-.09-.05-.17-.08-.26-.17-.59-.25-1.21-.15-1.81.13-.82.49-1.41,1.21-1.84.61-.38,1.39-.39,2.06-.13.35.13.67.25.96.41.18.11.36.23.52.39.15-.16.33-.29.51-.4.28-.17.6-.3.94-.44.66-.27,1.45-.28,2.07.08.73.42,1.1.99,1.25,1.81Z"/><path class="cls-2" d="m52.33,116.31c.15.83.03,1.69-.22,2.49-.12.37-.31.74-.54,1.1h-9.9c-.2-.31-.37-.64-.48-.96-.17-.51-.29-1.05-.32-1.59-.02-.3,0-.6.04-.89.15-.99.59-1.69,1.44-2.22.73-.44,1.68-.46,2.48-.15.42.15.8.3,1.15.5.17.09.33.2.48.34.05.03.1.08.14.12.19-.19.39-.35.62-.48.34-.21.71-.36,1.12-.53.8-.32,1.75-.33,2.49.1.87.5,1.32,1.19,1.5,2.17Z"/><path class="cls-2" d="m47.13,110.73c.51,1,.51,1.92.08,2.96-.19.45-.45.86-.75,1.24-.15-.14-.31-.25-.48-.34-.35-.2-.73-.35-1.15-.5-.8-.31-1.75-.29-2.48.15-.85.53-1.29,1.23-1.44,2.22-.05.29-.06.59-.04.89-.27,0-.54,0-.84,0-.4-.01-.79-.02-1.19-.05h-.04c-.16-.01-.33-.03-.5-.04-.21-.02-.42-.03-.63-.05-.14-.02-.27-.1-.34-.22-.26-.43-.51-.86-.75-1.3-.08-.16-.17-.31-.25-.47-.05-.1-.1-.19-.15-.29-.02-.02-.03-.05-.04-.07-.07-.15-.14-.29-.21-.43-.3-.65-.51-1.22-.7-1.98l-.03-.15c-.22-.92-.31-2.03-.08-2.92.23-.92.62-1.81,1.25-2.51.75-.84,1.58-1.23,2.71-1.21.96.02,1.86.59,2.43,1.37.3.4.57.76.77,1.16.13.26.24.52.31.82.3-.07.58-.09.87-.08.45.02.89.1,1.38.19.87.17,1.7.66,2.17,1.41.05.06.08.13.12.2Z"/><path class="cls-2" d="m37.67,117.21c.21.02.42.03.63.05-.27.83-.89,1.66-1.51,2.27-.13.13-.26.25-.39.37h-7.15c-.1-.08-.2-.17-.31-.27-.37-.35-.74-.77-1.04-1.22-.22-.33-.4-.68-.52-1.03-.28-.79-.41-1.65-.28-2.48.15-.99.59-1.69,1.44-2.21.73-.45,1.68-.46,2.48-.16.42.16.8.3,1.14.5.23.13.44.28.63.46.19-.19.39-.34.61-.48.34-.2.72-.36,1.13-.52.22-.09.44-.16.67-.19l.03.15c.19.76.4,1.33.7,1.98.07.14.14.28.21.43.01.02.02.05.04.07.05.1.1.19.15.29.08.16.17.31.25.47.24.44.49.87.75,1.3.07.12.2.2.34.22Z"/><path class="cls-3" d="m101.71,105.47c-.54-.25-1.08-.5-1.62-.76-.41-.19-.82-.37-1.21-.58-.12-.05-.21-.1-.32-.15-3.49-1.73-6.01-3.27-9.07-5.76-3.19-2.57-6.47-6.23-8.05-9.98-1.52-3.61-2.44-7.59-2.11-11.5.4-4.67,2.2-8.06,6.03-10.8,3.26-2.33,7.68-2.68,11.53-1.54,1.99.6,3.8,1.15,5.48,1.97,1.09.52,2.11,1.14,3.08,1.96.82-.97,1.72-1.74,2.7-2.44,1.53-1.08,3.24-1.92,5.1-2.83,3.62-1.77,8.03-2.13,11.64-.36,4.21,2.06,6.53,5.11,7.7,9.66.96,3.8.71,7.87-.2,11.69-.96,3.97-3.6,8.11-6.31,11.15-2.55,2.88-4.71,4.79-7.73,6.97"/><path class="cls-3" d="m35.2,112.3c-.22-.92-.31-2.03-.08-2.92.23-.92.62-1.81,1.25-2.51.75-.84,1.58-1.23,2.71-1.21.96.02,1.86.59,2.43,1.37.3.4.57.76.77,1.16.13.26.24.52.31.82.3-.07.58-.09.87-.08.45.02.89.1,1.38.19.87.17,1.7.66,2.17,1.41.05.06.08.13.12.2.51,1,.51,1.92.08,2.96-.19.45-.45.86-.75,1.24"/><path class="cls-3" d="m40.87,117.35c-.27,0-.54,0-.84,0-.4-.01-.79-.02-1.19-.05h-.04c-.16-.01-.33-.03-.5-.04"/><path class="cls-3" d="m71.97,109.05c.19-.51.53-.9,1.05-1.22.61-.37,1.4-.38,2.07-.13.34.13.66.25.95.41.18.11.36.24.52.39.16-.16.33-.29.51-.4.28-.17.6-.3.94-.44.66-.27,1.45-.28,2.07.08.73.42,1.1.99,1.25,1.81.06.32.07.65.04.98-.02.31-.08.61-.17.91"/><path class="cls-3" d="m75.76,115.23c-.05-.02-.1-.05-.15-.08.02-.05.03-.11.03-.16"/><path class="cls-3" d="m58.52,110.53c-.01.05-.02.1-.04.15-.22.69-.74,1.39-1.26,1.9s-.95.83-1.57,1.21c-.49.3-1,.59-1.52.86-.1.05-.21.05-.3,0-.53-.25-1.05-.53-1.55-.82-.63-.36-1.07-.67-1.6-1.17-.53-.49-1.07-1.18-1.31-1.87-.03-.09-.05-.17-.08-.26-.17-.59-.25-1.21-.15-1.81.13-.82.49-1.41,1.21-1.84.61-.38,1.39-.39,2.06-.13.35.13.67.25.96.41.18.11.36.23.52.39.15-.16.33-.29.51-.4.28-.17.6-.3.94-.44.66-.27,1.45-.28,2.07.08.73.42,1.1.99,1.25,1.81.12.64.04,1.3-.14,1.93Z"/><line class="cls-3" x1="51.57" y1="119.9" x2="54.94" y2="119.9"/><line class="cls-3" x1="36.4" y1="119.9" x2="41.67" y2="119.9"/><polyline class="cls-3" points="66.33 138.44 66.09 139.64 49.29 139.64 28.81 139.64 24.9 119.9 29.25 119.9"/><path class="cls-3" d="m64.01,119.9s-.01.04-.02.06c-.02-.02-.05-.04-.08-.06"/><path class="cls-3" d="m60.71,115.9c-.34-1.03-.51-2.15-.36-3.22.13-.87.42-1.57.93-2.15.26-.31.6-.59,1-.84.98-.61,2.26-.63,3.34-.23.56.2,1.07.4,1.54.66.21.12.41.25.6.41.08.06.17.13.25.21.07-.08.15-.15.23-.21.18-.17.38-.31.59-.44.45-.28.96-.49,1.51-.72.51-.21,1.08-.33,1.63-.32-.07.19-.12.4-.16.62-.04.28-.05.57-.02.86.03.41.13.82.26,1.21.23.69.77,1.38,1.3,1.87.53.5.97.81,1.6,1.17.22.13.44.25.66.37-.04.2-.1.4-.16.6-.21.67-.6,1.36-1.05,1.97"/><line class="cls-3" x1="70.01" y1="119.9" x2="64.01" y2="119.9"/><line class="cls-3" x1="68.24" y1="110.53" x2="67.76" y2="110.53"/><path class="cls-3" d="m38.3,117.26c-.27.83-.89,1.66-1.51,2.27-.13.13-.26.25-.39.37h-7.15c-.1-.08-.2-.17-.31-.27-.37-.35-.74-.77-1.04-1.22-.22-.33-.4-.68-.52-1.03-.28-.79-.41-1.65-.28-2.48.15-.99.59-1.69,1.44-2.21.73-.45,1.68-.46,2.48-.16.42.16.8.3,1.14.5.23.13.44.28.63.46.19-.19.39-.34.61-.48.34-.2.72-.36,1.13-.52.22-.09.44-.16.67-.19l.03.15c.19.76.4,1.33.7,1.98.07.14.14.28.21.43.01.02.02.05.04.07.05.1.1.19.15.29.08.16.17.31.25.47.24.44.49.87.75,1.3.07.12.2.2.34.22.21.02.42.03.63.05Z"/><path class="cls-3" d="m46.46,114.93c.05.03.1.08.14.12.19-.19.39-.35.62-.48.34-.21.71-.36,1.12-.53.8-.32,1.75-.33,2.49.1.87.5,1.32,1.19,1.5,2.17.15.83.03,1.69-.22,2.49-.12.37-.31.74-.54,1.1h-9.9c-.2-.31-.37-.64-.48-.96-.17-.51-.29-1.05-.32-1.59-.02-.3,0-.6.04-.89.15-.99.59-1.69,1.44-2.22.73-.44,1.68-.46,2.48-.15.42.15.8.3,1.15.5.17.09.33.2.48.34Z"/><line class="cls-3" x1="49.29" y1="110.53" x2="47.01" y2="110.53"/><path class="cls-3" d="m60.71,115.9c.07-.03.13-.05.2-.08.66-.27,1.45-.28,2.07.08.72.42,1.1.99,1.25,1.81.12.69.03,1.41-.18,2.08-.01.04-.02.07-.04.11h-9.07c-.22-.66-.34-1.38-.23-2.07.13-.82.49-1.41,1.2-1.84.61-.38,1.4-.39,2.07-.13.35.13.67.25.95.41.19.11.36.23.53.39.15-.16.32-.29.51-.4.23-.14.47-.25.74-.36Z"/><line class="cls-3" x1="61.28" y1="110.53" x2="58.52" y2="110.53"/><line class="cls-3" x1="27.9" y1="118.41" x2="24.9" y2="119.9"/><line class="cls-3" x1="86.36" y1="110.53" x2="81.37" y2="110.53"/><path class="cls-3" d="m86.58,116.66l-5.98,15.79-8.86,4.39-5.65,2.8c.15-.39.24-.8.24-1.2v-.02l.48-2.43,2.88-14.47.32-1.62,4.39-2.18,2.59-1.28"/><line class="cls-3" x1="47.27" y1="151.85" x2="72.44" y2="151.85"/><line class="cls-3" x1="62.91" y1="159.02" x2="37.75" y2="159.02"/><polyline class="cls-3" points="47.27 151.85 47.26 151.85 37.75 159.02 37.74 159.02"/><line class="cls-3" x1="60.44" y1="160.88" x2="61.12" y2="160.37"/><line class="cls-3" x1="72.44" y1="151.85" x2="62.91" y2="159.02"/><path class="cls-3" d="m66.09,139.64c-.69,1.75-2.66,2.61-4.5,3.01-4.27.92-8.71.35-13.05.77-.64.06-1.29.15-1.93.28-3.74.72-7.37,2.52-8.96,5.89-.42.89-.71,1.62-.89,2.26-.7,2.37.03,3.59.98,7.17"/><path class="cls-3" d="m80.6,132.45c-.68,1.75-2.66,3.61-4.5,4.01-1.42.31-2.85.45-4.3.51"/><path class="cls-3" d="m49.29,139.64c-.88.76-1.61,1.69-2.12,2.78-.22.47-.4.89-.56,1.28-1.21,3.08-.42,4.11.65,8.15"/><path class="cls-3" d="m61.12,160.37c.42-.22.89-.35,1.4-.35,1.62,0,2.93,1.32,2.93,2.94s-1.31,2.94-2.93,2.94-2.94-1.32-2.94-2.94c0-.81.33-1.53.85-2.07h.01c.2-.21.43-.38.68-.52Z"/><path class="cls-3" d="m35.76,160.52c.47-.31,1.04-.5,1.65-.5,1.62,0,2.94,1.32,2.94,2.94s-1.32,2.94-2.94,2.94-2.94-1.32-2.94-2.94c0-.91.42-1.73,1.07-2.27.07-.06.15-.12.22-.17Z"/><path class="cls-3" d="m118.35,102.17c4.13.01,8.21-.12,11.86-2.05.39-.21.79-.43,1.19-.62.59-.29,1.19-.53,1.84-.63,1.08-.15,2.35.27,2.79,1.27.4.92-.02,2.03-.74,2.73-.47.45-1.04.76-1.63,1.01-.33.15-.67.27-1,.39-5.99,2.18-12.09,4.04-18.27,5.58,4.01,6.86,5.88,16.19,5.35,24.12-.18,2.7-.74,5.59-2.72,7.43-.49.45-1.04.82-1.63,1.11-.01,0-.01.01-.02.01-1.35.66-2.91.92-4.47,1h-.01c-.7.03-1.39.02-2.07,0-1.99-.06-4.06-.26-5.99-.78-1.26-.34-2.46-.82-3.55-1.49-.6-.35-1.17-.77-1.7-1.26-3.74-3.42-4.34-9.18-3.27-14.13s3.32-9.47,4.84-14.3c-3.77,2.57-8.09,4.3-12.57,5.1-2.02.36-4.07.53-6.12.5-1.11-.02-2.26-.1-3.26-.6-.07-.04-.14-.07-.21-.12-.5-.29-.94-.71-1.23-1.2h0c-.04-.09-.08-.16-.12-.25-.15-.33-.23-.69-.22-1.06.02-.29.17-.57.39-.83h0c.07-.1.15-.18.24-.26.67-.62,1.55-.97,2.46-1.06.9-.09,1.79-.2,2.69-.34,1.73-.23,3.45-.54,5.16-.91,5.28-1.12,10.44-2.82,15.35-5.06.95-.43,1.9-.89,2.83-1.36,4.24-2.15,9.05-1.95,13.81-1.94Z"/><path class="cls-3" d="m99.28,141.25c-.12,5.38-1.05,10.75-2.75,15.86-.48,1.43-1.02,2.94-.69,4.4.34,1.47,1.98,2.74,3.33,2.08,1.02-.5,1.36-1.75,1.57-2.86,1.14-5.9,1.84-11.9,2.09-17.91"/><path class="cls-3" d="m110.89,143.52c.2,5.49.64,10.97,1.32,16.42.12,1.01.29,2.08.97,2.83.69.75,2.08.93,2.64.08.24-.36.28-.81.31-1.24.45-6.36.2-12.78-.74-19.09"/></g></svg>