<?xml version="1.0" encoding="UTF-8"?><svg id="Layer_2" xmlns="http://www.w3.org/2000/svg" viewBox="0 0 161.09 234.55"><defs><style>.cls-1{fill:#ecede8;}.cls-1,.cls-2{stroke-width:0px;}.cls-2{fill:#1a1a1a;}.cls-3{stroke-linecap:round;stroke-linejoin:round;}.cls-3,.cls-4{fill:none;stroke:#000;stroke-width:.5px;}.cls-4{stroke-miterlimit:10;}</style></defs><g id="Layer_2-2"><rect class="cls-1" width="161.09" height="234.55" rx="5" ry="5"/><path class="cls-2" d="m149.8,204.14c0,2.7-1.91,4.54-4.75,5.98,2.23,1.22,3.82,2.99,3.82,5.54,0,3.53-2.92,6.19-7.38,6.19-4.07,0-6.95-2.2-6.95-5.62,0-2.56,2.02-3.89,3.92-4.97-2.7-1.37-4.82-3.28-4.82-6.73s2.63-6.23,8.28-6.23c4.21,0,7.88,1.91,7.88,5.83Zm-11.45-.79c0,2.84,1.98,4.36,4.97,5.76,1.3-1.3,1.84-2.84,1.84-4.57,0-2.52-1.48-4.57-3.82-4.57-1.58,0-2.99,1.22-2.99,3.38Zm6.12,13.5c0-1.69-1.22-3.2-4.18-4.46-1.12.68-1.73,2.2-1.73,3.92,0,2.48,1.55,3.89,2.99,3.89,1.66,0,2.92-1.4,2.92-3.35Z"/><path class="cls-2" d="m135.05,180.94c.33,1.01,1.11,2.03,1.88,2.77.77.74,1.4,1.2,2.32,1.74.66.4,1.34.77,2.03,1.12.28.14.6.14.88,0,.69-.35,1.37-.72,2.03-1.12.91-.54,1.55-1.01,2.32-1.74.77-.74,1.55-1.75,1.88-2.77.32-.97.47-2.03.3-3.03-.2-1.21-.74-2.05-1.8-2.68-.9-.54-2.06-.54-3.03-.15-.51.2-.97.38-1.39.63l.38-1.94c.04-.22-.12-.42-.35-.42h-1.57c-.22,0-.39.2-.35.42l.38,1.94c-.42-.25-.88-.43-1.39-.63-.98-.38-2.13-.38-3.03.15-1.05.63-1.59,1.47-1.8,2.68-.17,1.01-.02,2.06.3,3.03Z"/><path class="cls-2" d="m11.3,30.41c0-2.7,1.91-4.54,4.75-5.98-2.23-1.22-3.82-2.99-3.82-5.54,0-3.53,2.92-6.19,7.38-6.19,4.07,0,6.95,2.2,6.95,5.62,0,2.56-2.02,3.89-3.92,4.97,2.7,1.37,4.82,3.28,4.82,6.73s-2.63,6.23-8.28,6.23c-4.21,0-7.88-1.91-7.88-5.83Zm11.45.79c0-2.84-1.98-4.36-4.97-5.76-1.3,1.3-1.84,2.84-1.84,4.57,0,2.52,1.48,4.57,3.82,4.57,1.58,0,2.99-1.22,2.99-3.38Zm-6.12-13.5c0,1.69,1.22,3.2,4.18,4.46,1.12-.68,1.73-2.2,1.73-3.92,0-2.48-1.55-3.89-2.99-3.89-1.66,0-2.92,1.4-2.92,3.35Z"/><path class="cls-2" d="m26.05,53.62c-.33-1.01-1.11-2.03-1.88-2.77-.77-.74-1.4-1.2-2.32-1.74-.66-.4-1.34-.77-2.03-1.12-.28-.14-.6-.14-.88,0-.69.35-1.37.72-2.03,1.12-.91.54-1.55,1.01-2.32,1.74-.77.74-1.55,1.75-1.88,2.77-.32.97-.47,2.03-.3,3.03.2,1.21.74,2.05,1.8,2.68.9.54,2.06.54,3.03.15.51-.2.97-.38,1.39-.63l-.38,1.94c-.04.22.12.42.35.42h1.57c.22,0,.39-.2.35-.42l-.38-1.94c.42.25.88.43,1.39.63.98.38,2.13.38,3.03-.15,1.05-.63,1.59-1.47,1.8-2.68.17-1.01.02-2.06-.3-3.03Z"/><path class="cls-3" d="m64.76,106.22c0-5.15-4.17-9.32-9.32-9.32s-9.32,4.17-9.32,9.32,4.17,9.32,9.32,9.32,9.32-4.17,9.32-9.32Z"/><path class="cls-3" d="m45.07,123.92c-3.11.67-6.43.35-9.15-1.27-3.96-2.37-6-5.54-6.77-10.1-.64-3.8-.06-7.78,1.15-11.43,1.25-3.82,4.17-7.66,7.07-10.43,2.9-2.78,5.29-4.52,8.74-6.57,2.51-1.49,5.07-2.9,7.67-4.22,1.04-.52,2.28-.52,3.32,0,2.6,1.32,5.15,2.72,7.66,4.22,3.45,2.05,5.84,3.79,8.75,6.57,2.9,2.77,5.82,6.61,7.07,10.43,1.2,3.66,1.78,7.63,1.14,11.43-.77,4.56-2.8,7.73-6.77,10.1-2.39,1.43-5.27,1.85-8.04,1.46"/><path class="cls-3" d="m132.13,90.73c-.12,1.22-.5,2.63-1.17,3.66-.66.97-1.49,1.85-2.54,2.41-1.24.67-2.38.77-3.69.27-1.12-.44-1.93-1.49-2.28-2.63-.18-.6-.34-1.15-.41-1.7l-1.49,1.71c-.17.2-.47.19-.63-.02l-.62-.79-.49-.63c-.15-.2-.09-.49.14-.61l2.02-1.02c-.52-.2-1.01-.49-1.55-.81-1.03-.61-1.85-1.66-2-2.86-.17-1.4.21-2.48,1.16-3.51.79-.86,1.86-1.47,2.96-1.87,1.15-.41,2.62-.43,3.83-.25,1.21.17,2.07.42,3.21.86.83.32,1.65.68,2.45,1.05.32.15.55.45.62.8.17.87.31,1.74.43,2.62.15,1.21.18,2.11.05,3.33Z"/><path class="cls-3" d="m97.7,87.07c0,.26-.22.45-.47.42l-2.24-.36c.3.47.52,1,.77,1.57.47,1.1.52,2.44-.07,3.49-.68,1.23-1.63,1.88-3.01,2.15-1.15.23-2.37.1-3.49-.23-1.17-.35-2.38-1.2-3.24-2.06-.87-.85-1.43-1.57-2.08-2.6-.48-.75-.93-1.51-1.36-2.29-.17-.31-.18-.69-.03-1.01.37-.8.77-1.59,1.2-2.38.6-1.07,1.1-1.81,1.91-2.72.82-.91,1.96-1.83,3.11-2.25,1.1-.4,2.3-.61,3.47-.45,1.4.19,2.38.77,3.14,1.96.65,1.01.69,2.34.28,3.48-.2.58-.39,1.11-.66,1.59,0,0,0,0,0,.02h.05s2.16-.51,2.16-.51c.25-.05.49.13.49.39l.04,1.01.03.79Z"/><path class="cls-3" d="m124,70.08c-.11,1.01-.41,2.01-.97,2.85-.69,1-1.51,1.53-2.71,1.65-1.02.12-2.06-.36-2.78-1.1-.37-.38-.71-.74-.99-1.13l-.45,1.89c-.05.21-.28.33-.49.24l-.92-.42-.49-.23c-.2-.09-.27-.34-.13-.52l1.13-1.58c-.48.04-.96.03-1.49,0-1.03-.06-2.07-.53-2.66-1.38-.68-1-.82-1.98-.51-3.14.27-.97.84-1.85,1.52-2.59.71-.77,1.82-1.37,2.82-1.71.99-.35,1.74-.5,2.78-.6.76-.08,1.52-.14,2.28-.17.31,0,.6.12.79.36.47.6.93,1.2,1.36,1.83.6.86.97,1.54,1.36,2.51.38.98.66,2.21.54,3.25Z"/><path class="cls-3" d="m97.17,106.47l-.2.31-.6.92c-.12.18-.36.2-.51.06l-1.33-1.27c-.02.45-.11.91-.2,1.41-.2.95-.77,1.86-1.65,2.3-1.01.51-1.95.51-3,.06-.87-.37-1.62-1.02-2.22-1.76-.62-.77-1.03-1.89-1.22-2.86-.19-.97-.23-1.7-.2-2.69.03-.72.08-1.44.15-2.15.03-.28.2-.54.44-.69.61-.36,1.25-.71,1.9-1.03.88-.44,1.57-.71,2.53-.94s2.14-.33,3.11-.08c.93.24,1.82.65,2.53,1.29.85.77,1.24,1.61,1.19,2.75-.03.98-.6,1.88-1.4,2.46-.41.29-.78.56-1.19.77l1.71.68c.2.08.27.31.16.49Z"/><path class="cls-3" d="m131.41,114.22c-.12.85-.41,1.82-.91,2.51-.48.67-1.09,1.25-1.82,1.62-.87.44-1.67.48-2.57.1-.77-.34-1.31-1.09-1.52-1.9-.11-.42-.2-.8-.24-1.18l-1.08,1.15c-.12.13-.34.12-.44-.03l-.53-.74-.2-.28c-.11-.14-.05-.35.11-.43l1.43-.66c-.36-.16-.69-.37-1.06-.6-.7-.45-1.25-1.2-1.32-2.03-.09-.98.2-1.73.89-2.42.57-.58,1.33-.98,2.1-1.23.81-.26,1.83-.23,2.67-.08s1.43.35,2.22.69c.56.24,1.12.51,1.67.79.22.11.37.32.41.56.1.61.18,1.23.23,1.84.08.85.08,1.47-.04,2.31Z"/><path class="cls-3" d="m96.25,117.65c.76.13,1.28.47,1.67,1.13.34.56.34,1.28.1,1.89-.12.32-.24.6-.39.87l1.21-.24c.13-.03.26.08.26.21v.99c0,.13-.12.24-.26.21l-1.21-.23c.15.26.27.54.39.86.24.6.24,1.33-.1,1.9-.39.66-.92.99-1.67,1.12-.63.11-1.29,0-1.9-.2-.63-.2-1.26-.69-1.73-1.17s-.75-.88-1.09-1.45c-.25-.42-.48-.84-.7-1.27-.08-.17-.08-.37,0-.54.22-.44.45-.85.7-1.27.34-.57.62-.97,1.09-1.45s1.09-.96,1.73-1.17c.6-.2,1.26-.29,1.9-.2Z"/><path class="cls-3" d="m125.25,134.33c-.17.49-.43.96-.81,1.32-.44.42-.93.6-1.54.52-.52-.05-1-.41-1.27-.86-.14-.23-.28-.44-.36-.68l-.44.9c-.04.1-.18.13-.27.06l-.6-.45-.04-.03c-.09-.06-.1-.2-.02-.28l.75-.67c-.24-.03-.48-.1-.75-.17-.52-.14-.98-.5-1.17-.99-.24-.58-.2-1.09.09-1.64.24-.45.62-.84,1.05-1.13.44-.3,1.07-.48,1.6-.54.54-.06.93-.05,1.47,0,.39.04.78.1,1.17.17.15.03.28.13.36.28.17.35.33.7.48,1.07.2.5.31.88.4,1.41s.09,1.17-.09,1.69Z"/><path class="cls-3" d="m40.68,145.6c.67.36,1.47.39,2.07-.07.68-.52.96-1.46,1.21-2.34,1.4-4.95,2.79-9.9,4.19-14.86"/><path class="cls-3" d="m83.94,134.6c.04.08.06.16.08.25.16.66-.21,1.35-.77,1.75-.54.4-1.23.55-1.9.64-.44.06-.87.1-1.3.11-3.97.2-7.94-1.32-11.25-3.55-2.07-1.4-3.92-3.07-5.68-4.86.5,4.5,1.32,8.98,2.43,13.37.32,1.25.67,2.51.69,3.81.02,1.29-.33,2.64-1.22,3.58-.77.79-1.81,1.18-2.92,1.4-.55.12-1.11.19-1.66.24-.78.07-1.57.13-2.35.18h0c-2.36.14-4.73.15-7.09.04-1.34-.06-2.69-.17-4.03-.32h0c-.13,0-.27-.03-.4-.04-1.29-.15-2.62-.36-3.69-1.09-1.42-.98-2.12-2.76-2.19-4.49-.3-.17-.57-.4-.79-.69-.69-.92-.85-2.22-.69-3.42s.61-2.31,1.05-3.41c1.83-4.62,3.45-9.35,4.82-14.17.78-.16,1.55-.39,2.3-.69,1.9-.75,3.64-1.43,5.22-2.37h5.7c1.57.93,3.32,1.62,5.22,2.37,1.09.43,2.23.72,3.39.87,1.21,1.94,2.54,3.8,4.16,5.39,2.48,2.42,5.81,4.2,9.27,4.07.71-.03,1.43-.13,2.13,0,.6.12,1.22.48,1.48,1.03Z"/><path class="cls-3" d="m46.97,151.23c-.33,5.21-.45,10.44-.36,15.66.02.81.04,1.63.34,2.38.29.75.93,1.41,1.73,1.51.97.13,1.89-.62,2.28-1.52s.38-1.91.36-2.9c-.11-4.93-.2-9.87-.3-14.8"/><path class="cls-3" d="m58.1,151.52c.06,5.19.33,10.36.81,15.53.08.8.16,1.62.52,2.34.35.73,1.03,1.34,1.83,1.39.98.05,1.84-.77,2.16-1.69s.23-1.94.14-2.92c-.48-5.02-.97-10.04-1.45-15.06"/><path class="cls-3" d="m85.6,136.06l.62-1.3,9.29,4.43-2.06,4.33c2.52-.12,4.99-.92,7.06-2.35l1.3,1.01c-2.65,2.76-6.31,4.48-10.09,4.88-.93,1.44-2.83,2-4.44,1.25l-2.97-1.42c-1.71-.81-2.46-2.83-1.7-4.56,0-.04.03-.07.04-.11l2.94-6.17Z"/><path class="cls-3" d="m82.61,142.34c-.77-.51-1.44-1.15-1.92-1.94-.55-.91-.8-2.02-.63-3.05"/><path class="cls-3" d="m85.6,136.06c-.33-.69-.93-1.25-1.66-1.46"/><path class="cls-4" d="m111.73,112.06c-.12,13.58.17,27.24.38,35.09"/><path class="cls-4" d="m114.7,74.06c-2.11,5.92-2.82,21.86-2.96,37.95"/><path class="cls-4" d="m123.88,151.94h.93l-2.01,18.51c-.12,1.09-1.02,1.9-2.11,1.9h-16.09c-1.09,0-2-.82-2.12-1.9l-2.01-18.51h.93"/><path class="cls-4" d="m119.96,135.14c-2.62,2.1-3.75,7.25-4.22,12.01"/><path class="cls-4" d="m99.1,121.86c7.67.8,9.61,15.2,10.02,25.28"/><path class="cls-4" d="m96.97,106.78c10.37,5.44,13.18,25.99,13.83,40.37"/><path class="cls-4" d="m115.74,147.15h8.14c1.33,0,2.39,1.07,2.39,2.39,0,.66-.27,1.26-.7,1.7-.43.44-1.02.7-1.69.7h-22.49c-1.33,0-2.39-1.08-2.39-2.4,0-.66.27-1.26.7-1.69.43-.44,1.02-.7,1.69-.7h14.35Z"/><path class="cls-4" d="m122.29,115.75c-6.48,4.64-8.14,19.38-8.35,31.4"/><path class="cls-4" d="m97.68,86.27c12.79,5.53,13.93,23.94,14.03,27.04"/><path class="cls-4" d="m111.72,113.76s0-.16,0-.44,0-.72.03-1.25v-.05c.16-4.07,1.22-14.13,7.56-18.37"/><path class="cls-2" d="m51.31,166.36c.02.99.03,2-.36,2.9s-1.31,1.65-2.28,1.52c-.8-.1-1.43-.77-1.73-1.51-.3-.75-.32-1.57-.34-2.38-.09-5.22.04-10.44.36-15.66h0c1.34.15,2.69.26,4.03.32.1,4.94.2,9.88.3,14.8Z"/><path class="cls-2" d="m63.57,166.16c.09.98.18,1.99-.14,2.92s-1.18,1.74-2.16,1.69c-.8-.04-1.49-.66-1.83-1.39-.36-.72-.44-1.54-.52-2.34-.48-5.16-.75-10.34-.81-15.53.78-.04,1.57-.11,2.35-.18.55-.05,1.11-.12,1.66-.24.48,5.02.97,10.04,1.45,15.06Z"/><path class="cls-2" d="m99.1,121.86v.64c0,.13-.12.24-.26.21l-1.21-.23c.15.26.27.54.39.86.24.6.24,1.33-.1,1.9-.39.66-.92.99-1.67,1.12-.63.11-1.29,0-1.9-.2-.63-.2-1.26-.69-1.73-1.17s-.75-.88-1.09-1.45c-.25-.42-.48-.84-.7-1.27-.08-.17-.08-.37,0-.54.22-.44.45-.85.7-1.27.34-.57.62-.97,1.09-1.45s1.09-.96,1.73-1.17c.6-.2,1.26-.29,1.9-.2.76.13,1.28.47,1.67,1.13.34.56.34,1.28.1,1.89-.12.32-.24.6-.39.87l1.21-.24c.13-.03.26.08.26.21v.35Z"/><path class="cls-2" d="m125.34,132.64c.09.53.09,1.17-.09,1.69-.17.49-.43.96-.81,1.32-.44.42-.93.6-1.54.52-.52-.05-1-.41-1.27-.86-.14-.23-.28-.44-.36-.68l-.44.9c-.04.1-.18.13-.27.06l-.6-.45-.04-.03c-.09-.06-.1-.2-.02-.28l.75-.67c-.24-.03-.48-.1-.75-.17-.52-.14-.98-.5-1.17-.99-.24-.58-.2-1.09.09-1.64.24-.45.62-.84,1.05-1.13.44-.3,1.07-.48,1.6-.54.54-.06.93-.05,1.47,0,.39.04.78.1,1.17.17.15.03.28.13.36.28.17.35.33.7.48,1.07.2.5.31.88.4,1.41Z"/><path class="cls-2" d="m131.44,111.91c.08.85.08,1.47-.04,2.31s-.41,1.82-.91,2.51c-.48.67-1.09,1.25-1.82,1.62-.87.44-1.67.48-2.57.1-.77-.34-1.31-1.09-1.52-1.9-.11-.42-.2-.8-.24-1.18l-1.08,1.15c-.12.13-.34.12-.44-.03l-.53-.74-.2-.28c-.11-.14-.05-.35.11-.43l1.43-.66c-.36-.16-.69-.37-1.06-.6-.7-.45-1.25-1.2-1.32-2.03-.09-.98.2-1.73.89-2.42.57-.58,1.33-.98,2.1-1.23.81-.26,1.83-.23,2.67-.08s1.43.35,2.22.69c.56.24,1.12.51,1.67.79.22.11.37.32.41.56.1.61.18,1.23.23,1.84Z"/><path class="cls-2" d="m96.7,99.33c.85.77,1.24,1.61,1.19,2.75-.03.98-.6,1.88-1.4,2.46-.41.29-.78.56-1.19.77l1.71.68c.2.08.27.31.16.49l-.2.31-.6.92c-.12.18-.36.2-.51.06l-1.33-1.27c-.02.45-.11.91-.2,1.41-.2.95-.77,1.86-1.65,2.3-1.01.51-1.95.51-3,.06-.87-.37-1.62-1.02-2.22-1.76-.62-.77-1.03-1.89-1.22-2.86-.19-.97-.23-1.7-.2-2.69.03-.72.08-1.44.15-2.15.03-.28.2-.54.44-.69.61-.36,1.25-.71,1.9-1.03.88-.44,1.57-.71,2.53-.94s2.14-.33,3.11-.08c.93.24,1.82.65,2.53,1.29Z"/><path class="cls-2" d="m80.58,101.11c1.2,3.66,1.78,7.63,1.14,11.43-.77,4.56-2.8,7.73-6.77,10.1-2.39,1.43-5.27,1.85-8.04,1.46-1.16-.15-2.3-.44-3.39-.87-1.9-.75-3.65-1.43-5.22-2.37h-5.7c-1.58.93-3.32,1.62-5.22,2.37-.75.29-1.51.52-2.3.69-3.11.67-6.43.35-9.15-1.27-3.96-2.37-6-5.54-6.77-10.1-.64-3.8-.06-7.78,1.15-11.43,1.25-3.82,4.17-7.66,7.07-10.43,2.9-2.78,5.29-4.52,8.74-6.57,2.51-1.49,5.07-2.9,7.67-4.22,1.04-.52,2.28-.52,3.32,0,2.6,1.32,5.15,2.72,7.66,4.22,3.45,2.05,5.84,3.79,8.75,6.57,2.9,2.77,5.82,6.61,7.07,10.43Zm-15.82,5.11c0-5.15-4.17-9.32-9.32-9.32s-9.32,4.17-9.32,9.32,4.17,9.32,9.32,9.32,9.32-4.17,9.32-9.32Z"/><path class="cls-2" d="m97.7,87.07c0,.26-.22.45-.47.42l-2.24-.36c.3.47.52,1,.77,1.57.47,1.1.52,2.44-.07,3.49-.68,1.23-1.63,1.88-3.01,2.15-1.15.23-2.37.1-3.49-.23-1.17-.35-2.38-1.2-3.24-2.06-.87-.85-1.43-1.57-2.08-2.6-.48-.75-.93-1.51-1.36-2.29-.17-.31-.18-.69-.03-1.01.37-.8.77-1.59,1.2-2.38.6-1.07,1.1-1.81,1.91-2.72.82-.91,1.96-1.83,3.11-2.25,1.1-.4,2.3-.61,3.47-.45,1.4.19,2.38.77,3.14,1.96.65,1.01.69,2.34.28,3.48-.2.58-.39,1.11-.66,1.59,0,0,0,0,0,.02h.05s2.16-.51,2.16-.51c.25-.05.49.13.49.39l.04,1.01.03.79Z"/><path class="cls-2" d="m132.07,87.4c.15,1.21.18,2.11.05,3.33-.12,1.22-.5,2.63-1.17,3.66-.66.97-1.49,1.85-2.54,2.41-1.24.67-2.38.77-3.69.27-1.12-.44-1.93-1.49-2.28-2.63-.18-.6-.34-1.15-.41-1.7l-1.49,1.71c-.17.2-.47.19-.63-.02l-.62-.79-.49-.63c-.15-.2-.09-.49.14-.61l2.02-1.02c-.52-.2-1.01-.49-1.55-.81-1.03-.61-1.85-1.66-2-2.86-.17-1.4.21-2.48,1.16-3.51.79-.86,1.86-1.47,2.96-1.87,1.15-.41,2.62-.43,3.83-.25,1.21.17,2.07.42,3.21.86.83.32,1.65.68,2.45,1.05.32.15.55.45.62.8.17.87.31,1.74.43,2.62Z"/><path class="cls-2" d="m123.46,66.83c.38.98.66,2.21.54,3.25-.11,1.01-.41,2.01-.97,2.85-.69,1-1.51,1.53-2.71,1.65-1.02.12-2.06-.36-2.78-1.1-.37-.38-.71-.74-.99-1.13l-.45,1.89c-.05.21-.28.33-.49.24l-.92-.42-.49-.23c-.2-.09-.27-.34-.13-.52l1.13-1.58c-.48.04-.96.03-1.49,0-1.03-.06-2.07-.53-2.66-1.38-.68-1-.82-1.98-.51-3.14.27-.97.84-1.85,1.52-2.59.71-.77,1.82-1.37,2.82-1.71.99-.35,1.74-.5,2.78-.6.76-.08,1.52-.14,2.28-.17.31,0,.6.12.79.36.47.6.93,1.2,1.36,1.83.6.86.97,1.54,1.36,2.51Z"/></g></svg>