<?xml version="1.0" encoding="UTF-8"?><svg id="Layer_2" xmlns="http://www.w3.org/2000/svg" viewBox="0 0 161.09 234.55"><defs><style>.cls-1{fill:#ecede8;}.cls-1,.cls-2{stroke-width:0px;}.cls-2{fill:#1a1a1a;}.cls-3{fill:none;stroke:#000;stroke-linecap:round;stroke-linejoin:round;stroke-width:.5px;}</style></defs><g id="Layer_2-2"><rect class="cls-1" width="161.09" height="234.55" rx="5" ry="5"/><path class="cls-2" d="m133.53,212.6c0-4.36,1.91-8.13,4.97-10.94,2.99-2.77,7.78-4.9,10.8-5,.43.18.47.94.14,1.19-7.02,1.73-10.65,7.77-10.65,14.4,0,2.74.79,7.96,3.82,7.96,1.69,0,2.66-2.05,2.66-4.21,0-2.95-1.19-6.05-3.64-6.48-.47-.07-.68-.07-1.01-.07-.18-.11-.25-.47-.22-.76.61-.65,2.09-1.12,3.56-1.12,3.38,0,6.12,2.77,6.12,6.41,0,4.61-3.53,7.88-7.99,7.88-5.51,0-8.57-4.25-8.57-9.25Z"/><path class="cls-2" d="m138.13,181.2c.43,0,.8-.04,1.12-.11-.51.59-.82,1.36-.82,2.2,0,1.86,1.51,3.37,3.37,3.37s3.37-1.51,3.37-3.37c0-.84-.31-1.61-.82-2.2.32.07.7.11,1.12.11,1.86,0,3.37-1.51,3.37-3.37s-1.51-3.37-3.37-3.37c-1.32,0-2.46.13-3.01.88l.32-1.64c.04-.19-.11-.36-.3-.36h-1.35c-.19,0-.34.18-.3.36l.32,1.64c-.55-.74-1.69-.88-3.01-.88-1.86,0-3.37,1.51-3.37,3.37s1.51,3.37,3.37,3.37Z"/><path class="cls-2" d="m27.57,21.95c0,4.36-1.91,8.13-4.97,10.94-2.99,2.77-7.78,4.9-10.8,5-.43-.18-.47-.94-.14-1.19,7.02-1.73,10.65-7.77,10.65-14.4,0-2.74-.79-7.96-3.82-7.96-1.69,0-2.66,2.05-2.66,4.21,0,2.95,1.19,6.05,3.64,6.48.47.07.68.07,1.01.07.18.11.25.47.22.76-.61.65-2.09,1.12-3.56,1.12-3.38,0-6.12-2.77-6.12-6.41,0-4.61,3.53-7.88,7.99-7.88,5.51,0,8.57,4.25,8.57,9.25Z"/><path class="cls-2" d="m22.96,53.35c-.43,0-.8.04-1.12.11.51-.59.82-1.36.82-2.2,0-1.86-1.51-3.37-3.37-3.37s-3.37,1.51-3.37,3.37c0,.84.31,1.61.82,2.2-.32-.07-.7-.11-1.12-.11-1.86,0-3.37,1.51-3.37,3.37s1.51,3.37,3.37,3.37c1.32,0,2.46-.13,3.01-.88l-.32,1.64c-.04.19.11.36.3.36h1.35c.19,0,.34-.18.3-.36l-.32-1.64c.55.74,1.69.88,3.01.88,1.86,0,3.37-1.51,3.37-3.37s-1.51-3.37-3.37-3.37Z"/><path class="cls-2" d="m119.13,169.74c.33,0,.66-.02.99-.04.82,4.14.99,8.41.51,12.6-.09.83-.34,1.84-1.15,2.07-.66.2-1.37-.27-1.68-.89-.31-.62-.31-1.34-.31-2.03.02-3.9.04-7.8.04-11.7.53,0,1.06,0,1.59-.02Z"/><path class="cls-2" d="m110.65,181.91c.04-4.19.08-8.39.12-12.58.73.19,1.51.25,2.26.3.11,0,.21,0,.31.02.64,4.19.44,8.48.23,12.72-.02.46-.04.93-.22,1.36s-.52.82-.98.91c-.61.13-1.22-.33-1.48-.9s-.26-1.2-.25-1.83Z"/><path class="cls-2" d="m109.04,156.14c.14-.09.3-.16.45-.21.97-.36,2.08,0,2.66.9.15.23.26.46.34.66.15-.49.47-.94.94-1.25.04-.03.08-.05.13-.07.05.19.13.37.23.54.29.48.73.82,1.23.98-.22.07-.44.18-.68.32-.94.56-1.33,1.7-.97,2.7-.27.13-.49.33-.58.63-.22.73.55,1.36,1.25,1.64.28.11.56.21.84.27-.17.32-.43.61-.76.82-1.05.67-2.44.37-3.11-.68-.47-.74-.81-1.43-.59-2.02l-.81.77c-.09.09-.24.07-.31-.04l-.48-.76c-.07-.11-.03-.26.09-.3l1.04-.41c-.62-.04-1.1-.64-1.58-1.38-.67-1.04-.37-2.44.68-3.11Z"/><path class="cls-2" d="m114.57,153.63c1.07-.64,2.45-.29,3.08.78.3.48.38,1.03.29,1.54.16-.15.37-.3.61-.45.73-.44,1.62-.41,2.31,0-.24.91-.73,1.76-1.37,2.44-1.32,1.37-3.18,2.11-5.06,2.46-.35.06-.74.14-1.06.31-.36-.99.03-2.13.97-2.7.24-.14.47-.25.68-.32-.5-.16-.94-.49-1.23-.98-.1-.17-.18-.35-.23-.54-.27-.96.12-2.02,1.01-2.55Z"/><path class="cls-2" d="m97.87,141.45c.16,3.06,1.7,6.01,3.9,8.2.09.09.18.18.28.26-6.45-.13-11.64-5.39-11.64-11.88s5.32-11.88,11.89-11.88c1.5,0,2.8.13,3.95.39-1.79-2.08-2.88-4.79-2.88-7.75,0-6.57,5.32-11.89,11.88-11.89s11.89,5.32,11.89,11.89c0,2.97-1.08,5.67-2.89,7.75,1.15-.25,2.46-.39,3.96-.39,6.56,0,11.88,5.31,11.88,11.88s-5.32,11.89-11.88,11.89c-2.82,0-5.41-.17-7.46-.91-1.33-.47-2.42-1.16-3.18-2.2h-4.65c-.38.5-.83.93-1.35,1.29-1.35.93-3.17,1.41-5.25,1.63-.29-.16-.57-.32-.85-.5-2.18-1.4-3.92-3.58-4.46-6.1-.2-.9-.26-1.87-.81-2.62,0,0,0,0-.02-.02-.76-.99-2.39-.3-2.32.95Zm24.9-5.59c0-4.15-3.36-7.52-7.52-7.52s-7.52,3.37-7.52,7.52,3.37,7.52,7.52,7.52,7.52-3.36,7.52-7.52Z"/><path class="cls-2" d="m77.1,120.05c.03-.13.16-.19.28-.13l1.02.45c-.4-.47-.31-1.24-.12-2.09.28-1.21,1.49-1.96,2.71-1.68,1.21.28,1.96,1.49,1.68,2.71-.06.27-.14.51-.24.71.47-.24,1.01-.32,1.56-.2,1.21.28,1.96,1.49,1.68,2.71-.28,1.21-1.49,1.96-2.7,1.68-.55-.13-1-.44-1.31-.86,0,.22-.04.47-.1.74-.29,1.21-1.5,1.96-2.71,1.68-1.21-.29-1.96-1.5-1.68-2.71.2-.86.46-1.58,1.02-1.83l-1.11-.04c-.13,0-.22-.12-.19-.24l.21-.89Z"/><path class="cls-2" d="m45.49,145.45c.16-3.75.33-7.5.49-11.25.46.15.92.27,1.38.35.67.13,1.35.22,2.04.28h0c.27,4.04.06,8.11-.6,12.11-.12.69-.3,1.47-.92,1.8-.73.39-1.68-.11-2.08-.84-.39-.73-.36-1.61-.32-2.44Z"/><path class="cls-2" d="m53.49,147.3c-.47-1.46-.49-3.01-.5-4.53-.02-2.66,0-5.31.04-7.98.71-.07,1.42-.18,2.11-.32.22-.04.45-.1.67-.15.19,1.57.4,3.14.55,4.71.26,2.81.3,5.69-.41,8.42-.13.48-.34,1.03-.82,1.2-.37.13-.81-.03-1.08-.31-.28-.28-.44-.66-.56-1.04Z"/><path class="cls-2" d="m51.79,108.2c4.16,0,7.52-3.37,7.52-7.53s-3.36-7.52-7.52-7.52-7.52,3.37-7.52,7.52,3.37,7.53,7.52,7.53Zm12.96,2.67c.29-.8.34-1.9-.42-2.27-.51-.24-1.15.02-1.51.45s-.55.99-.74,1.51c-.53,1.4-1.27,2.71-2.2,3.88-1.48-.22-2.8-.58-3.88-1.19-.74-.41-1.38-.94-1.87-1.61h-4.65c-.72.97-1.72,1.64-2.94,2.1-1.3.51-2.84.77-4.53.89-1.16-1.29-2.17-2.72-2.98-4.25-.2-.38-.4-.78-.73-1.06-.32-.28-.82-.41-1.19-.18-.62.38-.41,1.31-.13,1.96.52,1.23,1.08,2.45,1.71,3.62-6.49-.08-11.72-5.37-11.72-11.88s5.32-11.88,11.89-11.88c1.5,0,2.8.13,3.95.39-1.79-2.08-2.88-4.79-2.88-7.75,0-6.57,5.32-11.89,11.89-11.89s11.88,5.32,11.88,11.89c0,2.97-1.08,5.67-2.89,7.75,1.15-.25,2.46-.39,3.96-.39,6.57,0,11.88,5.32,11.88,11.88s-5.31,11.89-11.88,11.89c-.75,0-1.5,0-2.21-.04.86-1.2,1.69-2.44,2.2-3.82Z"/><path class="cls-2" d="m76.62,79.51c-.28,1.21-1.49,1.96-2.7,1.68-.55-.13-1-.45-1.31-.87,0,.22-.04.47-.1.74-.29,1.22-1.49,1.97-2.71,1.68-1.21-.28-1.96-1.49-1.68-2.7.2-.86.46-1.59,1.02-1.83l-1.11-.04c-.13,0-.22-.13-.19-.25l.21-.88c.03-.13.16-.2.28-.14l1.02.46c-.4-.47-.31-1.24-.12-2.1.28-1.21,1.49-1.96,2.71-1.68,1.21.29,1.96,1.5,1.68,2.71-.06.28-.14.51-.24.72.47-.24,1.01-.33,1.56-.21,1.21.29,1.96,1.5,1.68,2.71Z"/><path class="cls-2" d="m50.84,66.58l.9-.66c-.6.12-1.23-.33-1.87-.93-.91-.84-.98-2.26-.13-3.18.84-.91,2.27-.97,3.18-.13.21.19.38.38.5.56.02-.52.22-1.03.59-1.44.84-.91,2.27-.98,3.18-.13s.98,2.27.13,3.18c-.39.41-.88.65-1.4.71.19.12.39.26.6.46.91.84.98,2.27.13,3.18s-2.27.97-3.18.13c-.65-.59-1.15-1.17-1.08-1.79l-.58.95c-.07.11-.22.13-.31.04l-.67-.62c-.09-.08-.08-.23.02-.31Z"/><path class="cls-2" d="m32.28,67.23c-.04-.13.04-.25.16-.28l.9-.13c.13-.02.24.08.23.21l-.04,1.11c.29-.54,1.03-.74,1.91-.87,1.23-.18,2.37.66,2.55,1.89.18,1.24-.67,2.37-1.9,2.56-.28.04-.53.05-.75.04.39.34.67.82.75,1.37.19,1.23-.66,2.37-1.89,2.55s-2.37-.66-2.55-1.89c-.09-.56.04-1.09.32-1.53-.21.07-.45.13-.73.18-1.23.18-2.37-.67-2.55-1.9s.66-2.37,1.9-2.55c.87-.13,1.64-.15,2.08.29l-.38-1.05Z"/><path class="cls-2" d="m29.81,84.46c.1.08.1.23,0,.31l-.86.71c.6-.14,1.25.27,1.94.82.96.79,1.1,2.2.31,3.17-.79.96-2.21,1.1-3.17.31-.22-.19-.39-.36-.53-.54,0,.52-.15,1.05-.51,1.49-.79.96-2.2,1.09-3.17.31-.96-.79-1.09-2.21-.31-3.17.36-.43.84-.7,1.35-.79-.2-.1-.4-.24-.62-.42-.97-.79-1.1-2.2-.31-3.16.78-.96,2.2-1.1,3.16-.31.68.56,1.22,1.11,1.18,1.73l.53-.98c.06-.12.22-.14.31-.06l.7.57Z"/><path class="cls-3" d="m55.99,113.26c1.08.61,2.4.98,3.88,1.19"/><path class="cls-3" d="m42,114.63c1.69-.12,3.23-.38,4.53-.89"/><path class="cls-3" d="m62.54,114.69c.72.04,1.46.04,2.21.04,6.57,0,11.88-5.32,11.88-11.89s-5.31-11.88-11.88-11.88c-1.51,0-2.81.13-3.96.39,1.8-2.08,2.89-4.79,2.89-7.75,0-6.57-5.32-11.89-11.88-11.89s-11.89,5.32-11.89,11.89c0,2.97,1.08,5.67,2.88,7.75-1.15-.25-2.46-.39-3.95-.39-6.57,0-11.89,5.32-11.89,11.88s5.23,11.8,11.72,11.88"/><path class="cls-3" d="m59.31,100.68c0,4.16-3.36,7.53-7.52,7.53s-7.52-3.37-7.52-7.53,3.37-7.52,7.52-7.52,7.52,3.37,7.52,7.52Z"/><circle class="cls-3" cx="115.25" cy="135.86" r="7.52"/><path class="cls-3" d="m111.58,148.11c-1.35.93-3.17,1.41-5.25,1.63"/><path class="cls-3" d="m102.04,149.91c-6.45-.13-11.64-5.39-11.64-11.88s5.32-11.88,11.89-11.88c1.5,0,2.8.13,3.95.39-1.79-2.08-2.88-4.79-2.88-7.75,0-6.57,5.32-11.89,11.88-11.89s11.89,5.32,11.89,11.89c0,2.97-1.08,5.67-2.89,7.75,1.15-.25,2.46-.39,3.96-.39,6.56,0,11.88,5.31,11.88,11.88s-5.32,11.89-11.88,11.89c-2.82,0-5.41-.17-7.46-.91"/><path class="cls-3" d="m56.66,68.18c-.84.91-2.27.97-3.18.13-.65-.59-1.15-1.17-1.08-1.79l-.58.95c-.07.11-.22.13-.31.04l-.67-.62c-.09-.08-.08-.23.02-.31l.9-.66c-.6.12-1.23-.33-1.87-.93-.91-.84-.98-2.26-.13-3.18.84-.91,2.27-.97,3.18-.13.21.19.38.38.5.56.02-.52.22-1.03.59-1.44.84-.91,2.27-.98,3.18-.13s.98,2.27.13,3.18c-.39.41-.88.65-1.4.71.19.12.39.26.6.46.91.84.98,2.27.13,3.18Z"/><path class="cls-3" d="m69.81,82.75c-1.21-.28-1.96-1.49-1.68-2.7.2-.86.46-1.59,1.02-1.83l-1.11-.04c-.13,0-.22-.13-.19-.25l.21-.88c.03-.13.16-.2.28-.14l1.02.46c-.4-.47-.31-1.24-.12-2.1.28-1.21,1.49-1.96,2.71-1.68,1.21.29,1.96,1.5,1.68,2.71-.06.28-.14.51-.24.72.47-.24,1.01-.33,1.56-.21,1.21.29,1.96,1.5,1.68,2.71-.28,1.21-1.49,1.96-2.7,1.68-.55-.13-1-.45-1.31-.87,0,.22-.04.47-.1.74-.29,1.22-1.49,1.97-2.71,1.68Z"/><path class="cls-3" d="m78.85,125.76c-1.21-.29-1.96-1.5-1.68-2.71.2-.86.46-1.58,1.02-1.83l-1.11-.04c-.13,0-.22-.12-.19-.24l.21-.89c.03-.13.16-.19.28-.13l1.02.45c-.4-.47-.31-1.24-.12-2.09.28-1.21,1.49-1.96,2.71-1.68,1.21.28,1.96,1.49,1.68,2.71-.06.27-.14.51-.24.71.47-.24,1.01-.32,1.56-.2,1.21.28,1.96,1.49,1.68,2.71-.28,1.21-1.49,1.96-2.7,1.68-.55-.13-1-.44-1.31-.86,0,.22-.04.47-.1.74-.29,1.21-1.5,1.96-2.71,1.68Z"/><path class="cls-3" d="m28.68,70.54c-.18-1.23.66-2.37,1.9-2.55.87-.13,1.64-.15,2.08.29l-.38-1.05c-.04-.13.04-.25.16-.28l.9-.13c.13-.02.24.08.23.21l-.04,1.11c.29-.54,1.03-.74,1.91-.87,1.23-.18,2.37.66,2.55,1.89.18,1.24-.67,2.37-1.9,2.56-.28.04-.53.05-.75.04.39.34.67.82.75,1.37.19,1.23-.66,2.37-1.89,2.55s-2.37-.66-2.55-1.89c-.09-.56.04-1.09.32-1.53-.21.07-.45.13-.73.18-1.23.18-2.37-.67-2.55-1.9Z"/><path class="cls-3" d="m23.92,83.51c.78-.96,2.2-1.1,3.16-.31.68.56,1.22,1.11,1.18,1.73l.53-.98c.06-.12.22-.14.31-.06l.7.57c.1.08.1.23,0,.31l-.86.71c.6-.14,1.25.27,1.94.82.96.79,1.1,2.2.31,3.17-.79.96-2.21,1.1-3.17.31-.22-.19-.39-.36-.53-.54,0,.52-.15,1.05-.51,1.49-.79.96-2.2,1.09-3.17.31-.96-.79-1.09-2.21-.31-3.17.36-.43.84-.7,1.35-.79-.2-.1-.4-.24-.62-.42-.97-.79-1.1-2.2-.31-3.16Z"/><path class="cls-3" d="m109.49,155.94c.17-.49.35-.99.51-1.48-2.92-.99-5.73-2.43-7.96-4.55-.1-.08-.19-.17-.28-.26-2.2-2.19-3.74-5.13-3.9-8.2-.07-1.25,1.56-1.94,2.32-.95,0,0,0,.02.02.02.55.74.61,1.72.81,2.62.55,2.53,2.29,4.7,4.46,6.1.28.18.56.34.85.5,1.45.77,3.04,1.25,4.66,1.52.27-1.04.48-2.09.59-3.15.52-.36.98-.79,1.35-1.29h4.65c.76,1.03,1.85,1.73,3.18,2.2.68,2.46,1.78,4.81,2.67,7.21.3.82.58,1.65.81,2.5.7,2.56.95,5.23.08,7.71-.36,1.04-.95,2.04-1.89,2.63-.69.43-1.49.58-2.3.65-.33.02-.66.03-.99.04-.53,0-1.06.02-1.59.02-1.41,0-2.8-.04-4.2-.12-.11,0-.21,0-.31-.02-.75-.04-1.53-.11-2.26-.3-.56-.14-1.1-.37-1.58-.71-1.06-.75-1.65-2.03-1.82-3.32-.16-1.29.06-2.6.37-3.86.18-.73.39-1.46.62-2.18"/><path class="cls-3" d="m113.37,160.71c.31-.17.71-.25,1.06-.31,1.88-.35,3.75-1.08,5.06-2.46.65-.68,1.13-1.53,1.37-2.44-.69-.42-1.58-.45-2.31,0-.24.14-.45.3-.61.45.09-.51,0-1.06-.29-1.54-.64-1.07-2.02-1.42-3.08-.78-.9.54-1.28,1.6-1.01,2.55"/><path class="cls-3" d="m113.37,160.71c-.27.13-.49.33-.58.63-.22.73.55,1.36,1.25,1.64.28.11.56.21.84.27-.17.32-.43.61-.76.82-1.05.67-2.44.37-3.11-.68-.47-.74-.81-1.43-.59-2.02l-.81.77c-.09.09-.24.07-.31-.04l-.48-.76c-.07-.11-.03-.26.09-.3l1.04-.41c-.62-.04-1.1-.64-1.58-1.38-.67-1.04-.37-2.44.68-3.11.14-.09.3-.16.45-.21.97-.36,2.08,0,2.66.9.15.23.26.46.34.66.15-.49.47-.94.94-1.25.04-.03.08-.05.13-.07.05.19.13.37.23.54.29.48.73.82,1.23.98-.22.07-.44.18-.68.32-.94.56-1.33,1.7-.97,2.7Z"/><path class="cls-3" d="m114.87,163.25c1.53.4,3.2.26,4.64-.4,1.71-.78,3.07-2.29,3.67-4.08"/><path class="cls-3" d="m120.75,152.68c.36.91.37,1.89.11,2.83"/><path class="cls-3" d="m117.54,169.76c0,3.9-.03,7.8-.04,11.7,0,.69,0,1.41.31,2.03.3.62,1.01,1.08,1.68.89.81-.23,1.06-1.24,1.15-2.07.48-4.19.3-8.46-.51-12.6"/><path class="cls-3" d="m110.77,169.33c-.04,4.19-.08,8.39-.12,12.58,0,.63,0,1.26.25,1.83s.87,1.02,1.48.9c.46-.09.81-.47.98-.91s.2-.91.22-1.36c.21-4.25.4-8.53-.23-12.72"/><path class="cls-3" d="m59.87,114.45c.92-1.17,1.67-2.48,2.2-3.88.2-.53.38-1.08.74-1.51s1-.69,1.51-.45c.76.37.71,1.47.42,2.27-.51,1.38-1.34,2.62-2.2,3.82-.09.12-.17.22-.25.34-1.31,1.8-2.7,3.68-4.47,4.97.55,2.02,1.08,4.02,1.63,6.04s1.05,4.33-.09,6.08c-.78,1.18-2.14,1.82-3.54,2.19h0c-.22.05-.45.11-.67.15-.69.14-1.4.25-2.11.32-1.21.12-2.42.13-3.62.03h0c-.69-.06-1.37-.15-2.04-.28-.46-.08-.92-.2-1.38-.35-1.67-.54-3.21-1.52-3.65-3.16-.31-1.16.02-2.38.34-3.54.6-2.15,1.21-4.31,1.81-6.46-1.52-.8-2.85-2-3.92-3.35-.73-.92-1.35-1.92-1.91-2.95-.64-1.17-1.19-2.39-1.71-3.62-.28-.65-.48-1.59.13-1.96.37-.23.87-.1,1.19.18.33.28.54.68.73,1.06.82,1.53,1.82,2.96,2.98,4.25,1.02,1.15,2.17,2.19,3.41,3.09.38-1.33.74-2.65,1.12-3.98,1.22-.46,2.22-1.13,2.94-2.1h4.65c.49.67,1.13,1.2,1.87,1.61.36,1.3.71,2.61,1.06,3.91,1.06-.77,2.01-1.69,2.82-2.72Z"/><path class="cls-3" d="m45.98,134.19c-.16,3.75-.33,7.5-.49,11.25-.04.82-.06,1.7.32,2.44.39.73,1.34,1.24,2.08.84.62-.33.81-1.11.92-1.8.66-4,.87-8.06.6-12.11"/><path class="cls-3" d="m53.04,134.79c-.04,2.66-.06,5.31-.04,7.98,0,1.52.04,3.07.5,4.53.12.38.28.76.56,1.04.28.29.72.45,1.08.31.47-.17.69-.72.82-1.2.72-2.73.67-5.61.41-8.42-.14-1.58-.36-3.15-.55-4.71"/></g></svg>