<?xml version="1.0" encoding="UTF-8"?><svg id="Layer_2" xmlns="http://www.w3.org/2000/svg" viewBox="0 0 161.09 234.55"><defs><style>.cls-1{fill:#ecede8;}.cls-1,.cls-2{stroke-width:0px;}.cls-3{fill:none;stroke:#000;stroke-linecap:round;stroke-linejoin:round;stroke-width:.5px;}.cls-2{fill:#8b001b;}</style></defs><g id="Layer_2-2"><rect class="cls-1" width="161.09" height="234.55" rx="5" ry="5"/><path class="cls-2" d="m133.53,212.6c0-4.36,1.91-8.13,4.97-10.94,2.99-2.77,7.78-4.9,10.8-5,.43.18.47.94.14,1.19-7.02,1.73-10.66,7.77-10.66,14.4,0,2.74.79,7.96,3.82,7.96,1.69,0,2.66-2.05,2.66-4.21,0-2.95-1.19-6.05-3.64-6.48-.47-.07-.68-.07-1.01-.07-.18-.11-.25-.47-.22-.76.61-.65,2.09-1.12,3.56-1.12,3.38,0,6.12,2.77,6.12,6.41,0,4.61-3.53,7.88-7.99,7.88-5.51,0-8.57-4.25-8.57-9.25Z"/><polygon class="cls-2" points="141.81 189.28 148.85 180 141.81 170.72 134.77 180 141.81 189.28"/><path class="cls-2" d="m27.57,21.95c0,4.36-1.91,8.13-4.97,10.94-2.99,2.77-7.78,4.9-10.8,5-.43-.18-.47-.94-.14-1.19,7.02-1.73,10.66-7.77,10.66-14.4,0-2.74-.79-7.96-3.82-7.96-1.69,0-2.66,2.05-2.66,4.21,0,2.95,1.19,6.05,3.64,6.48.47.07.68.07,1.01.07.18.11.25.47.22.76-.61.65-2.09,1.12-3.56,1.12-3.38,0-6.12-2.77-6.12-6.41,0-4.61,3.53-7.88,7.99-7.88,5.51,0,8.57,4.25,8.57,9.25Z"/><polygon class="cls-2" points="19.29 45.27 12.25 54.55 19.29 63.84 26.33 54.55 19.29 45.27"/><polygon class="cls-2" points="51.98 183.99 50.07 190.89 43.94 187.19 45.85 180.29 51.98 183.99"/><polygon class="cls-2" points="55.13 167.64 56.67 171.77 55.28 173.65 55.74 174.25 51.42 177.41 48.91 170.7 54.01 166.97 54.69 166.48 55.13 167.64"/><polygon class="cls-2" points="52.9 166.3 54.24 161.47 58.53 164.06 57.19 168.89 55.13 167.64 54.69 166.48 54.01 166.97 52.9 166.3"/><polygon class="cls-2" points="59.54 167.9 63.93 173.56 59.67 179.31 55.74 174.25 55.28 173.65 56.67 171.77 59.54 167.9"/><polygon class="cls-2" points="73.08 175.08 73.08 175.09 71.79 179.76 65.66 176.07 67.18 170.53 70.37 172.62 71.44 171.5 73.7 172.86 73.6 173.22 72.74 173.71 73.08 175.08"/><polygon class="cls-2" points="77.1 171.23 77.49 172.79 78.31 176.09 73.95 178.57 73.08 175.09 73.08 175.08 72.74 173.71 73.6 173.22 75.67 172.04 77.1 171.23"/><polygon class="cls-2" points="79.96 165.26 83.2 171.65 77.49 172.79 77.1 171.23 75.67 172.04 74.02 168.78 76.76 165.9 79.96 165.26"/><polygon class="cls-2" points="72.59 156.43 78.18 160.09 70.37 168.31 60.88 162.1 68.69 153.88 72.59 156.43"/><path class="cls-2" d="m92.76,136.09h.01c-3.84,6.39-8.19,12.46-13.02,18.12-.48.56-1.06,1.16-1.79,1.15-.87-.01-1.5-.92-1.51-1.79-.02-.86.39-1.67.8-2.43,3.08-5.79,6.17-11.58,9.25-17.38.99.74,2.11,1.31,3.29,1.7.97.31,1.96.51,2.97.63Z"/><path class="cls-2" d="m106.57,132.61c.91,5.65,3.75,11,8,14.83.94.85,1.99,1.68,2.43,2.87.44,1.18-.06,2.82-1.3,3.06-.74.14-1.47-.25-2.12-.64-2.85-1.72-5.51-3.75-7.93-6.05-1.92-1.83-3.73-3.9-4.55-6.42-.5-1.53-.61-3.12-.51-4.73,1.38-.33,2.71-.81,3.95-1.5.72-.4,1.4-.87,2.03-1.42Z"/><path class="cls-2" d="m83.66,48.53l27.05,28.2-11.6,19.67-8.25,13.99-7.86-8.19h0s-19.2-20.01-19.2-20.01l19.86-33.66Zm13.7,39.52c0-5.27-4.27-9.54-9.53-9.54s-9.53,4.27-9.53,9.54,4.27,9.53,9.53,9.53,9.53-4.27,9.53-9.53Z"/><polyline class="cls-3" points="83 102.2 83 102.19 63.8 82.19 83.66 48.53 110.71 76.73 99.11 96.4"/><polygon class="cls-3" points="45.85 180.29 43.94 187.19 50.07 190.89 51.98 183.99 45.85 180.29"/><polyline class="cls-3" points="56.67 171.77 59.54 167.9 63.93 173.56 59.67 179.31 55.74 174.25"/><polyline class="cls-3" points="71.44 171.5 73.7 172.86 73.6 173.22"/><polyline class="cls-3" points="73.08 175.09 71.79 179.76 65.66 176.07 67.18 170.53"/><polyline class="cls-3" points="54.01 166.97 52.9 166.3 54.24 161.47 58.53 164.06 57.19 168.89 55.13 167.64"/><polygon class="cls-3" points="56.67 171.77 55.28 173.65 55.74 174.25 51.42 177.41 48.91 170.7 54.01 166.97 54.69 166.48 55.13 167.64 56.67 171.77"/><polyline class="cls-3" points="77.49 172.79 78.31 176.09 73.95 178.57 73.08 175.09 73.08 175.08 72.74 173.71 73.6 173.22 75.67 172.04"/><polyline class="cls-3" points="76.76 165.9 79.96 165.26 83.2 171.65 77.49 172.79 77.1 171.23 75.67 172.04 74.02 168.78"/><polyline class="cls-3" points="60.88 162.1 68.69 153.88 72.59 156.43 78.18 160.09"/><path class="cls-3" d="m97.36,88.05c0,5.26-4.27,9.53-9.53,9.53s-9.53-4.27-9.53-9.53,4.27-9.54,9.53-9.54,9.53,4.27,9.53,9.54Z"/><polyline class="cls-3" points="90.13 114.51 87.97 119.67 87.92 119.8 83.6 130.13 72.59 156.43 70.85 160.6"/><polyline class="cls-3" points="70.37 168.31 78.18 160.09 78.18 164.4 76.76 165.9 74.02 168.78 71.44 171.5 70.37 172.62"/><polygon class="cls-3" points="70.37 168.31 70.37 172.62 67.18 170.53 60.88 166.41 60.88 162.1 70.37 168.31"/><path class="cls-3" d="m104.01,106.16c1.82,4.08,3.39,8.26,4.72,12.52.98,3.15,1.82,6.56.78,9.69-.56,1.66-1.62,3.1-2.94,4.24-.63.55-1.31,1.02-2.03,1.42-1.24.69-2.57,1.17-3.95,1.5-1.13.28-2.28.46-3.43.56-1.46.13-2.93.16-4.39,0h-.01c-1.01-.12-2-.32-2.97-.63-1.18-.39-2.3-.96-3.29-1.7-1-.75-1.85-1.67-2.47-2.75-.16-.29-.31-.58-.43-.88-1.29-2.96-.91-6.47-.63-9.74.03-.4.07-.81.09-1.21.09.07.17.15.26.22.92.78,2.14,1.6,3.24,1.11.45-.2.76-.59.93-1.04.19-.51.2-1.1.04-1.62-.32-.99-1.11-1.74-1.92-2.37-.8-.62-1.66-1.19-2.27-1.99.06-3.04.01-6.08-.18-9.11-.05-.73-.1-1.45-.16-2.18l7.86,8.19,8.25-13.99c1.79,3.17,3.43,6.43,4.9,9.76Z"/><path class="cls-3" d="m100.46,103.21c.78,1.16,1.53,2.34,2.09,3.6.18.42.35.85.48,1.29.54,1.77.57,3.76-.27,5.41-.98,1.9-2.95,3.05-4.81,4.11-2.2,1.24-4.39,2.48-6.59,3.72-.9.5-2.12.98-2.86.25-.42-.41-.46-1.09-.25-1.65.02-.07.05-.13.09-.2.3-.6.85-1.02,1.4-1.4,1.48-1.01,3.08-1.83,4.54-2.87s2.8-2.35,3.48-4.01c.67-1.66.56-3.72-.63-5.07"/><path class="cls-3" d="m83.34,113.49s-.03-.04-.05-.06"/><path class="cls-3" d="m83.06,119.18c-1.43-1.23-2.84-2.52-3.82-4.12-1.04-1.71-1.55-3.83-.92-5.73.73-2.21,2.8-3.65,4.75-4.94"/><path class="cls-3" d="m92.77,136.09c-3.84,6.39-8.19,12.46-13.02,18.12-.48.56-1.06,1.16-1.79,1.15-.87-.01-1.5-.92-1.51-1.79-.02-.86.39-1.67.8-2.43,3.08-5.79,6.17-11.58,9.25-17.38"/><path class="cls-3" d="m100.59,135.53c-.1,1.61.01,3.2.51,4.73.82,2.52,2.63,4.59,4.55,6.42,2.42,2.3,5.08,4.33,7.93,6.05.65.39,1.38.78,2.12.64,1.24-.24,1.74-1.88,1.3-3.06-.44-1.19-1.49-2.02-2.43-2.87-4.25-3.83-7.09-9.18-8-14.83"/></g></svg>