<?xml version="1.0" encoding="UTF-8"?><svg id="Layer_2" xmlns="http://www.w3.org/2000/svg" viewBox="0 0 161.09 234.55"><defs><style>.cls-1{fill:#ecede8;}.cls-1,.cls-2{stroke-width:0px;}.cls-3{fill:none;stroke:#000;stroke-linecap:round;stroke-linejoin:round;stroke-width:.5px;}.cls-2{fill:#8b001b;}</style></defs><g id="Layer_2-2"><rect class="cls-1" width="161.09" height="234.55" rx="5" ry="5"/><path class="cls-2" d="m133.53,212.6c0-4.36,1.91-8.13,4.97-10.94,2.99-2.77,7.78-4.9,10.8-5,.43.18.47.94.14,1.19-7.02,1.73-10.65,7.78-10.65,14.4,0,2.74.79,7.96,3.82,7.96,1.69,0,2.66-2.05,2.66-4.21,0-2.95-1.19-6.05-3.64-6.48-.47-.07-.68-.07-1.01-.07-.18-.11-.25-.47-.22-.76.61-.65,2.09-1.12,3.56-1.12,3.38,0,6.12,2.77,6.12,6.41,0,4.61-3.53,7.88-7.99,7.88-5.51,0-8.57-4.25-8.57-9.25Z"/><path class="cls-2" d="m134.84,182.86c.2,1.21.74,2.05,1.8,2.68.9.54,2.06.54,3.03.15.51-.2.97-.38,1.39-.63.27-.16.52-.34.76-.58.23.23.49.42.76.58.42.25.88.43,1.39.63.98.38,2.13.38,3.03-.15,1.05-.63,1.59-1.47,1.8-2.68.17-1.01.02-2.06-.3-3.03-.33-1.01-1.11-2.03-1.88-2.77-.77-.74-1.4-1.2-2.32-1.74-.74-.44-1.49-.85-2.25-1.23-.14-.07-.3-.07-.44,0-.77.38-1.52.79-2.25,1.23-.91.55-1.55,1.01-2.32,1.74-.77.74-1.54,1.75-1.88,2.77-.32.97-.47,2.03-.3,3.03Z"/><path class="cls-2" d="m27.57,21.95c0,4.36-1.91,8.13-4.97,10.94-2.99,2.77-7.78,4.9-10.8,5-.43-.18-.47-.94-.14-1.19,7.02-1.73,10.65-7.78,10.65-14.4,0-2.74-.79-7.96-3.82-7.96-1.69,0-2.66,2.05-2.66,4.21,0,2.95,1.19,6.05,3.64,6.48.47.07.68.07,1.01.07.18.11.25.47.22.76-.61.65-2.09,1.12-3.56,1.12-3.38,0-6.12-2.77-6.12-6.41,0-4.61,3.53-7.88,7.99-7.88,5.51,0,8.57,4.25,8.57,9.25Z"/><path class="cls-2" d="m26.26,51.69c-.2-1.21-.74-2.05-1.8-2.68-.9-.54-2.06-.54-3.03-.15-.51.2-.97.38-1.39.63-.27.16-.52.34-.76.58-.23-.23-.49-.42-.76-.58-.42-.25-.88-.43-1.39-.63-.98-.38-2.13-.38-3.03.15-1.05.63-1.59,1.47-1.8,2.68-.17,1.01-.02,2.06.3,3.03.33,1.01,1.11,2.03,1.88,2.77.77.74,1.4,1.2,2.32,1.74.74.44,1.49.85,2.25,1.23.14.07.3.07.44,0,.77-.38,1.52-.79,2.25-1.23.91-.55,1.55-1.01,2.32-1.74.77-.74,1.54-1.75,1.88-2.77.32-.97.47-2.03.3-3.03Z"/><path class="cls-2" d="m118.24,116.79c.48.54.76,1.28.63,2-.15.83-.56,1.38-1.29,1.81-.61.35-1.33.51-2.03.54-.74.03-1.58-.22-2.25-.54-.11-.05-.22-.11-.32-.16-.5-.26-.89-.53-1.37-.91-.23-.19-.45-.38-.68-.57l-.02-.02c-.22-.18-.43-.37-.64-.57-.07-.07-.11-.18-.1-.28.04-.38.08-.75.14-1.12.02-.13.04-.26.06-.4.01-.08.03-.16.04-.24,0-.02.01-.04.01-.06.04-.21.08-.4.12-.58.03-.13.07-.25.1-.37.61.12,1.15.18,1.83.19.85.01,1.87-.15,2.63-.54.73-.38,1.4-.9,1.87-1.58.04-.06.08-.11.11-.17.08.26.11.53.11.8,0,.38-.01.72-.07,1.05-.03.21-.09.42-.18.63.2.09.38.21.55.35.26.21.5.46.75.74Z"/><path class="cls-2" d="m117.42,168.71c.83.81,1.71,1.99,1.15,3-.55,1-2.01.88-3.11.57-5.37-1.54-10.23-4.53-14.54-8.09-3.44-2.85-6.56-6.06-9.6-9.33l.09-.03c2.18-.69,4.4-1.72,5.94-3.34h.01c7.02,5.32,13.72,11.08,20.06,17.22Z"/><path class="cls-2" d="m117.43,110.85c.24.88.12,1.63-.35,2.37-.03.06-.07.11-.11.17-.47.68-1.14,1.2-1.87,1.58-.76.39-1.78.55-2.63.54-.68-.01-1.22-.07-1.83-.19-.15-.04-.31-.07-.47-.11-.03-.01-.07-.02-.1-.02-.31-.08-.6-.15-.91-.24-.01,0-.02-.01-.03-.01-.32-.09-.63-.18-.95-.28-.11-.04-.21-.13-.25-.25-.06-.18-.12-.37-.19-.55.1-.03.2-.06.3-.1.18-.08.36-.16.53-.26.45-.24.86-.56,1.19-.95.54-.66.73-1.32.58-2.15-.12-.71-.64-1.32-1.28-1.65-.33-.18-.64-.34-.96-.44-.2-.07-.41-.12-.64-.14.02-.23,0-.43-.04-.64h0s0-.02,0-.02c0-.01.01-.01.01-.02.16-.1.31-.21.47-.33l.02-.02c.25-.18.48-.36.71-.54.58-.46.97-.83,1.43-1.41.05-.06.09-.12.14-.18.4-.07.82-.06,1.28.05.81.2,1.48.85,1.83,1.61.18.4.34.76.44,1.13.07.25.11.49.11.76.27,0,.52.03.76.09.38.09.75.25,1.15.41.77.33,1.44.98,1.65,1.79Z"/><path class="cls-2" d="m112.98,120.44c-.14.16-.3.31-.46.45-.25.21-.56.39-.88.54-2.69-.29-4.99-1.66-6.95-3.46-.12-.62-.15-1.31-.02-1.89.17-.69.46-1.37.92-1.9.05-.05.09-.1.14-.15h.02c.63.06,1.36.02,1.99-.17.07.18.13.37.19.55.04.12.14.21.25.25.32.1.63.19.95.28.01,0,.02.01.03.01.31.09.6.16.91.24.03,0,.07.01.1.02.16.04.32.07.47.11-.03.12-.07.24-.1.37-.04.18-.08.37-.12.58,0,.02-.01.04-.01.06-.01.08-.03.16-.04.24-.02.14-.04.27-.06.4-.06.37-.1.74-.14,1.12-.01.1.03.21.1.28.21.2.42.39.64.57l.02.02c.23.19.45.38.68.57.48.38.87.65,1.37.91Z"/><path class="cls-2" d="m111.02,62.39c1.61,4.85,1.68,10.16.86,15.21-.87,5.25-3.9,10.89-7.13,15.1-.9,1.18-1.77,2.25-2.64,3.25-.12-.49-.37-.93-.76-1.24-.66-.52-1.34-.67-2.17-.5-.69.13-1.33.49-1.88.93-.57.46-1.04,1.21-1.33,1.89-.22.5-.35.92-.46,1.41-.51-.56-1.22-.94-1.96-.95-.98-.01-1.7.34-2.35,1.08-.54.62-.88,1.4-1.06,2.2-.2.83-.1,1.86.12,2.68.03.1.05.2.08.29-.32-.06-.64-.07-.96-.06-3.6.13-4.84,3.27-5.79,6.06-.18.54-.37,1.08-.55,1.62-.25,0-.49-.04-.73-.12-2.59-.83-5.16-1.7-7.72-2.64-.9-.34-1.81-.68-2.72-1.04-.06-.02-.11-.04-.17-.06-.5-.18-.99-.37-1.47-.57-.15-.05-.28-.12-.42-.17-4.71-1.92-8.13-3.68-12.36-6.63-4.38-3.03-8.99-7.47-11.41-12.19-2.33-4.56-3.9-9.65-3.85-14.75.08-6.12,2.09-10.7,6.8-14.62,4.02-3.35,9.74-4.23,14.85-3.11,2.65.58,5.05,1.13,7.31,2.03,1.47.57,2.86,1.28,4.2,2.26.97-1.34,2.07-2.43,3.28-3.44,1.88-1.54,4.02-2.8,6.35-4.16,4.54-2.65,10.24-3.54,15.1-1.58,5.67,2.27,8.99,6.02,10.94,11.82Zm-28.73,41.62c6.74-1.06,11.34-7.38,10.28-14.12-1.05-6.74-7.37-11.35-14.11-10.29-6.74,1.05-11.35,7.37-10.28,14.11,1.05,6.75,7.37,11.35,14.11,10.3Z"/><path class="cls-2" d="m111.03,101.03c.2.67.2,1.4.07,2.1-.13.65-.49,1.33-.89,1.88-.05.06-.09.12-.14.18-.46.58-.85.95-1.43,1.41-.23.18-.46.36-.71.54l-.02.02c-.16.12-.31.23-.47.33,0,.01-.01.01-.01.02h0c-.06-.34-.17-.65-.3-1-.24-.68-.76-1.29-1.45-1.51-.8-.27-1.49-.17-2.21.27-.05.03-.1.06-.14.1-.11-.04-.22-.08-.33-.11-.15-.04-.3-.07-.45-.08-.23-.26-.42-.54-.56-.82-.12-.25-.23-.51-.3-.78-.13-.41-.2-.84-.19-1.27.03-.84.32-1.47.98-2,.32-.25.7-.39,1.1-.44.32-.04.65-.02.96.06.37.09.7.17,1.01.3.2.08.39.19.57.32.14-.18.29-.33.46-.46.27-.21.56-.38.89-.56.64-.35,1.43-.45,2.09-.17.78.33,1.22.86,1.48,1.67Z"/><path class="cls-2" d="m110.34,110.4c.15.83-.04,1.49-.58,2.15-.33.39-.74.71-1.19.95-.17.1-.35.18-.53.26-.1.04-.2.07-.3.1-.63.19-1.36.23-1.99.17h-.02c-.73-.07-1.25-.19-1.94-.42.3-.37.56-.74.84-1.21.47-.79.88-1.82.92-2.74.04-.88-.07-1.79-.45-2.59-.02-.04-.04-.07-.06-.11h0c-.4-.8-.93-1.3-1.72-1.59.04-.04.09-.07.14-.1.72-.44,1.41-.54,2.21-.27.69.22,1.21.83,1.45,1.51.13.35.24.66.3,1h0v.02c.04.21.06.41.04.64.23.02.44.07.64.14.32.1.63.26.96.44.64.33,1.16.94,1.28,1.65Z"/><path class="cls-2" d="m105.1,107.07c.38.8.49,1.71.45,2.59-.04.92-.45,1.95-.92,2.74-.28.47-.54.84-.84,1.21-.2.25-.42.5-.68.77s-.52.54-.79.79l-.12.12c-.1-.12-.19-.24-.29-.36-1.91-2.42-3.55-5.08-5.64-7.35.17-.03.35-.07.54-.11.44-.09.9-.24,1.34-.44h.01c.27.06.52.16.77.3.14-.25.31-.46.49-.66.3-.3.64-.56,1.01-.84.61-.45,1.37-.71,2.11-.65.15,0,.3.04.45.08.11.03.22.07.33.11.79.29,1.32.79,1.72,1.58h0c.02.05.04.08.06.12Z"/><path class="cls-2" d="m103.23,99.4c.13.14.25.3.34.47-.4.05-.78.19-1.1.44-.66.53-.95,1.16-.98,2-.01.43.06.86.19,1.27-.25.07-.5.12-.75.14.13-.64.03-1.25-.3-1.89-.39-.74-1.18-1.23-2.01-1.38-.27-.04-.53-.09-.78-.12-.14-.01-.29-.03-.43-.03-.25,0-.5.02-.76.08-.06-.26-.16-.49-.28-.71-.18-.35-.42-.67-.68-1.01-.06-.08-.12-.15-.18-.22.11-.49.24-.91.46-1.41.29-.68.76-1.43,1.33-1.89.55-.44,1.19-.8,1.88-.93.83-.17,1.51-.02,2.17.5.39.31.64.75.76,1.24.06.23.08.46.08.69,0,.37-.01.71-.07,1.04-.03.22-.09.42-.19.63.21.1.39.21.56.35.26.21.49.46.74.74Z"/><path class="cls-2" d="m100.63,101.83c.33.64.43,1.25.3,1.89-.04.23-.11.46-.2.69-.3.76-.85,1.42-1.47,1.95-.31.26-.69.49-1.1.67h-.01c-.44.2-.9.35-1.34.44-.19.04-.37.08-.54.11-.2-.23-.41-.45-.62-.66h-.01c-.62-.64-1.3-1.24-2.03-1.78-.26-.19-.53-.37-.81-.53-.76-.45-1.6-.76-2.46-.87-.03-.09-.05-.19-.08-.29-.22-.82-.32-1.85-.12-2.68.18-.8.52-1.58,1.06-2.2.65-.74,1.37-1.09,2.35-1.08.74.01,1.45.39,1.96.95.06.07.12.14.18.22.26.34.5.66.68,1.01.12.22.22.45.28.71.26-.06.51-.08.76-.08.14,0,.29.02.43.03.25.03.51.08.78.12.83.15,1.62.64,2.01,1.38Z"/><path class="cls-2" d="m79.44,156.29c.77,9-2.69,18.34-9.32,24.5-.6.56-1.24,1.1-2.02,1.32s-1.73.02-2.18-.65c-.72-1.09.22-2.48,1.05-3.49,5.12-6.23,7.52-14.59,6.67-22.6.64.2,1.29.34,1.94.46,1.28.23,2.57.39,3.86.46Z"/><path class="cls-3" d="m102.11,95.95c.87-1,1.74-2.07,2.64-3.25,3.23-4.21,6.26-9.85,7.13-15.1.82-5.05.75-10.36-.86-15.21-1.95-5.8-5.27-9.55-10.94-11.82-4.86-1.96-10.56-1.07-15.1,1.58-2.33,1.36-4.47,2.62-6.35,4.16-1.21,1.01-2.31,2.1-3.28,3.44-1.34-.98-2.73-1.69-4.2-2.26-2.26-.9-4.66-1.45-7.31-2.03-5.11-1.12-10.83-.24-14.85,3.11-4.71,3.92-6.72,8.5-6.8,14.62-.05,5.1,1.52,10.19,3.85,14.75,2.42,4.72,7.03,9.16,11.41,12.19,4.23,2.95,7.65,4.71,12.36,6.63.14.05.27.12.42.17.48.2.97.39,1.47.57"/><path class="cls-3" d="m82.29,104.01c-6.74,1.05-13.06-3.55-14.11-10.3-1.07-6.74,3.54-13.06,10.28-14.11,6.74-1.06,13.06,3.55,14.11,10.29,1.06,6.74-3.54,13.06-10.28,14.12Z"/><path class="cls-3" d="m104.69,117.97c-.12-.62-.15-1.31-.02-1.89.17-.69.46-1.37.92-1.9.05-.05.09-.1.14-.15"/><path class="cls-3" d="m112.98,120.44c-.14.16-.3.31-.46.45-.25.21-.56.39-.88.54"/><path class="cls-3" d="m102.54,105.18c-.23-.26-.42-.54-.56-.82-.12-.25-.23-.51-.3-.78"/><path class="cls-3" d="m107.43,107.51h0"/><path class="cls-3" d="m103.57,99.87c.32-.04.65-.02.96.06.37.09.7.17,1.01.3.2.08.39.19.57.32.14-.18.29-.33.46-.46.27-.21.56-.38.89-.56.64-.35,1.43-.45,2.09-.17.78.33,1.22.86,1.48,1.67.2.67.2,1.4.07,2.1-.13.65-.49,1.33-.89,1.88"/><path class="cls-3" d="m103.32,105.37s.09-.07.14-.1c.72-.44,1.41-.54,2.21-.27.69.22,1.21.83,1.45,1.51.13.35.24.66.3,1h0"/><path class="cls-3" d="m107.74,113.86c-.63.19-1.36.23-1.99.17h-.02c-.73-.07-1.25-.19-1.94-.42"/><path class="cls-3" d="m117.08,113.22c.08.26.11.53.11.8,0,.38-.01.72-.07,1.05-.03.21-.09.42-.18.63.2.09.38.21.55.35.26.21.5.46.75.74.48.54.76,1.28.63,2-.15.83-.56,1.38-1.29,1.81-.61.35-1.33.51-2.03.54-.74.03-1.58-.22-2.25-.54-.11-.05-.22-.11-.32-.16-.5-.26-.89-.53-1.37-.91-.23-.19-.45-.38-.68-.57l-.02-.02c-.22-.18-.43-.37-.64-.57-.07-.07-.11-.18-.1-.28.04-.38.08-.75.14-1.12.02-.13.04-.26.06-.4.01-.08.03-.16.04-.24,0-.02.01-.04.01-.06.04-.21.08-.4.12-.58.03-.13.07-.25.1-.37"/><path class="cls-3" d="m95.51,98.44c.11-.49.24-.91.46-1.41.29-.68.76-1.43,1.33-1.89.55-.44,1.19-.8,1.88-.93.83-.17,1.51-.02,2.17.5.39.31.64.75.76,1.24.06.23.08.46.08.69,0,.37-.01.71-.07,1.04-.03.22-.09.42-.19.63.21.1.39.21.56.35.26.21.49.46.74.74.13.14.25.3.34.47-.4.05-.78.19-1.1.44-.66.53-.95,1.16-.98,2-.01.43.06.86.19,1.27-.25.07-.5.12-.75.14"/><path class="cls-3" d="m90.34,103.74c-.03-.09-.05-.19-.08-.29-.22-.82-.32-1.85-.12-2.68.18-.8.52-1.58,1.06-2.2.65-.74,1.37-1.09,2.35-1.08.74.01,1.45.39,1.96.95.06.07.12.14.18.22.26.34.5.66.68,1.01.12.22.22.45.28.71.26-.06.51-.08.76-.08.14,0,.29.02.43.03.25.03.51.08.78.12.83.15,1.62.64,2.01,1.38.33.64.43,1.25.3,1.89-.04.23-.11.46-.2.69-.3.76-.85,1.42-1.47,1.95-.31.26-.69.49-1.1.67"/><path class="cls-3" d="m117.08,113.22c-.03.06-.07.11-.11.17-.47.68-1.14,1.2-1.87,1.58-.76.39-1.78.55-2.63.54-.68-.01-1.22-.07-1.83-.19-.15-.04-.31-.07-.47-.11-.03-.01-.07-.02-.1-.02-.31-.08-.6-.15-.91-.24-.01,0-.02-.01-.03-.01-.32-.09-.63-.18-.95-.28-.11-.04-.21-.13-.25-.25-.06-.18-.12-.37-.19-.55.1-.03.2-.06.3-.1.18-.08.36-.16.53-.26.45-.24.86-.56,1.19-.95.54-.66.73-1.32.58-2.15-.12-.71-.64-1.32-1.28-1.65-.33-.18-.64-.34-.96-.44-.2-.07-.41-.12-.64-.14.02-.23,0-.43-.04-.64h0s0-.02,0-.02c0-.01.01-.01.01-.02.16-.1.31-.21.47-.33l.02-.02c.25-.18.48-.36.71-.54.58-.46.97-.83,1.43-1.41.05-.06.09-.12.14-.18.4-.07.82-.06,1.28.05.81.2,1.48.85,1.83,1.61.18.4.34.76.44,1.13.07.25.11.49.11.76.27,0,.52.03.76.09.38.09.75.25,1.15.41.77.33,1.44.98,1.65,1.79.24.88.12,1.63-.35,2.37Z"/><path class="cls-3" d="m96.27,107.58c.17-.03.35-.07.54-.11.44-.09.9-.24,1.34-.44h.01c.27.06.52.16.77.3.14-.25.31-.46.49-.66.3-.3.64-.56,1.01-.84.61-.45,1.37-.71,2.11-.65.15,0,.3.04.45.08.11.03.22.07.33.11.79.29,1.32.79,1.72,1.58h0c.02.05.04.08.06.12.38.8.49,1.71.45,2.59-.04.92-.45,1.95-.92,2.74-.28.47-.54.84-.84,1.21-.2.25-.42.5-.68.77s-.52.54-.79.79l-.12.12"/><path class="cls-3" d="m82.88,139.63c-.86.29-1.73.56-2.6.82-1.18.36-2.38-.5-2.43-1.73-.04-.96-.08-2.02-.12-2.87"/><path class="cls-3" d="m83.04,111.36c.18-.54.37-1.08.55-1.62.95-2.79,2.19-5.93,5.79-6.06.32-.01.64,0,.96.06.86.11,1.7.42,2.46.87.28.16.55.34.81.53.73.54,1.41,1.14,2.03,1.78h.01c.21.21.42.43.62.66,2.09,2.27,3.73,4.93,5.64,7.35.1.12.19.24.29.36.77.94,1.59,1.86,2.49,2.68,1.96,1.8,4.26,3.17,6.95,3.46.06,0,.12,0,.18.02.83.08,1.62.54,2.04,1.27.9,1.57-.62,2.87-1.95,3.67-4.59,2.77-9.34,5.26-14.21,7.48-2.84,1.3-5.72,2.5-8.64,3.6"/><path class="cls-3" d="m89.06,137.47c.44.87.75,1.83.64,2.79-.14,1.09-.99,2.15-2.09,2.19-.82.04-1.54-.47-2.2-.96-.84-.62-1.69-1.24-2.53-1.86-1.72-1.26-3.44-2.52-5.15-3.78-3.16-2.31-6.31-4.63-9.46-6.94-.3-.22-.61-.45-.91-.68-.95-.75-1.83-1.58-2.33-2.67-1.02-2.2-.2-4.79.77-7.02,1.67-3.82,3.76-7.46,5.9-11.04.06.02.11.04.17.06.91.36,1.82.7,2.72,1.04,2.56.94,5.13,1.81,7.72,2.64.24.08.48.12.73.12-2.03,6-3.99,12.07-4.91,18.3,1.23.33,2.46.65,3.63,1.13,3.01,1.22,5.56,3.49,7.12,6.34.06.11.12.22.18.34Z"/><path class="cls-3" d="m73.59,116.23c-1.84,2.27-3.79,5-3.12,7.84.53,2.23,2.59,3.8,4.72,4.65.96.39,1.95.67,2.94.94"/><path class="cls-3" d="m97.7,133.87c.75,3.09,1.28,6.23,1.59,9.4.21,2.08.3,4.27-.56,6.18-.34.77-.81,1.44-1.37,2.03h-.01c-1.54,1.63-3.76,2.66-5.94,3.35l-.09.03c-3.83,1.2-7.88,1.68-11.88,1.43-1.29-.07-2.58-.23-3.86-.46-.65-.12-1.3-.26-1.94-.46-1.26-.37-2.45-.91-3.4-1.81-2.33-2.2-2.54-5.78-2.6-8.99-.09-5.45-.18-10.9-.28-16.34"/><path class="cls-3" d="m73.64,155.37c.85,8.01-1.55,16.37-6.67,22.6-.83,1.01-1.77,2.4-1.05,3.49.45.67,1.4.87,2.18.65s1.42-.76,2.02-1.32c6.63-6.16,10.09-15.5,9.32-24.5"/><path class="cls-3" d="m91.32,154.86c3.04,3.27,6.16,6.48,9.6,9.33,4.31,3.56,9.17,6.55,14.54,8.09,1.1.31,2.56.43,3.11-.57.56-1.01-.32-2.19-1.15-3-6.34-6.14-13.04-11.9-20.06-17.23"/></g></svg>