<?xml version="1.0" encoding="UTF-8"?><svg id="Layer_2" xmlns="http://www.w3.org/2000/svg" viewBox="0 0 161.09 234.55"><defs><style>.cls-1{fill:#ecede8;}.cls-1,.cls-2{stroke-width:0px;}.cls-2{fill:#1a1a1a;}.cls-3{fill:none;stroke:#000;stroke-linecap:round;stroke-linejoin:round;stroke-width:.5px;}</style></defs><g id="Layer_2-2"><rect class="cls-1" width="161.09" height="234.55" rx="5" ry="5"/><path class="cls-2" d="m133.53,212.6c0-4.36,1.91-8.13,4.97-10.94,2.99-2.77,7.78-4.9,10.8-5,.43.18.47.94.14,1.19-7.02,1.73-10.65,7.78-10.65,14.4,0,2.74.79,7.96,3.82,7.96,1.69,0,2.66-2.05,2.66-4.21,0-2.95-1.19-6.05-3.64-6.48-.47-.07-.68-.07-1.01-.07-.18-.11-.25-.47-.22-.76.61-.65,2.09-1.12,3.56-1.12,3.38,0,6.12,2.77,6.12,6.41,0,4.61-3.53,7.88-7.99,7.88-5.51,0-8.57-4.25-8.57-9.25Z"/><path class="cls-2" d="m135.14,180.94c.33,1.01,1.11,2.03,1.88,2.77.77.74,1.4,1.2,2.32,1.74.66.4,1.34.77,2.03,1.12.28.14.6.14.88,0,.69-.35,1.37-.72,2.03-1.12.91-.54,1.55-1.01,2.32-1.74.77-.74,1.55-1.75,1.88-2.77.32-.97.47-2.03.3-3.03-.2-1.21-.74-2.05-1.8-2.68-.9-.54-2.06-.54-3.03-.15-.51.2-.97.38-1.39.63l.38-1.94c.04-.22-.12-.42-.35-.42h-1.57c-.22,0-.39.2-.35.42l.38,1.94c-.42-.25-.88-.43-1.39-.63-.98-.38-2.13-.38-3.03.15-1.05.63-1.59,1.47-1.8,2.68-.17,1.01-.02,2.06.3,3.03Z"/><path class="cls-2" d="m27.57,21.95c0,4.36-1.91,8.13-4.97,10.94-2.99,2.77-7.78,4.9-10.8,5-.43-.18-.47-.94-.14-1.19,7.02-1.73,10.65-7.78,10.65-14.4,0-2.74-.79-7.96-3.82-7.96-1.69,0-2.66,2.05-2.66,4.21,0,2.95,1.19,6.05,3.64,6.48.47.07.68.07,1.01.07.18.11.25.47.22.76-.61.65-2.09,1.12-3.56,1.12-3.38,0-6.12-2.77-6.12-6.41,0-4.61,3.53-7.88,7.99-7.88,5.51,0,8.57,4.25,8.57,9.25Z"/><path class="cls-2" d="m25.96,53.62c-.33-1.01-1.11-2.03-1.88-2.77-.77-.74-1.4-1.2-2.32-1.74-.66-.4-1.34-.77-2.03-1.12-.28-.14-.6-.14-.88,0-.69.35-1.37.72-2.03,1.12-.91.54-1.55,1.01-2.32,1.74-.77.74-1.55,1.75-1.88,2.77-.32.97-.47,2.03-.3,3.03.2,1.21.74,2.05,1.8,2.68.9.54,2.06.54,3.03.15.51-.2.97-.38,1.39-.63l-.38,1.94c-.04.22.12.42.35.42h1.57c.22,0,.39-.2.35-.42l-.38-1.94c.42.25.88.43,1.39.63.98.38,2.13.38,3.03-.15,1.05-.63,1.59-1.47,1.8-2.68.17-1.01.02-2.06-.3-3.03Z"/><path class="cls-3" d="m93.66,112.79c1.03.44,2.09.86,3.21,1.29,5.07,1.98,11.06,1.99,15.72-.8,5.45-3.25,8.26-7.63,9.32-13.89.88-5.23.09-10.69-1.57-15.73-1.73-5.24-5.74-10.53-9.74-14.34-3.99-3.81-7.28-6.21-12.02-9.03-3.45-2.05-6.96-3.99-10.54-5.8-1.43-.72-3.13-.72-4.57,0-3.58,1.81-7.09,3.75-10.54,5.8-4.74,2.82-8.03,5.22-12.02,9.03-3.99,3.81-8.01,9.1-9.74,14.34-1.66,5.04-2.45,10.5-1.57,15.73,1.06,6.26,3.86,10.64,9.32,13.89.55.33,1.12.62,1.7.87"/><path class="cls-3" d="m98.58,90.68c0,7.08-5.74,12.82-12.82,12.82-4.24,0-8-2.06-10.33-5.23-1.57-2.12-2.49-4.74-2.49-7.58,0-7.07,5.74-12.81,12.82-12.81s12.82,5.74,12.82,12.81Z"/><path class="cls-3" d="m58.56,132.93c.06.04.12.06.18.1l-.18-.97"/><polyline class="cls-3" points="75.44 113.78 75.44 110.68 60.63 114.15 58.57 114.64 58.56 114.64 42.42 110.84 42.42 123.82"/><path class="cls-3" d="m73.09,134.92c.1.42.13.85.06,1.28-.12.67-.42,1.13-1,1.47-.49.3-1.13.29-1.67.08-.28-.11-.54-.21-.77-.34l.2,1.06c.03.12-.07.24-.19.24h-.86c-.12,0-.22-.12-.19-.24l.21-1.07c-.23.13-.48.24-.77.34-.54.2-1.18.2-1.67-.09-.58-.35-.87-.82-.99-1.49-.09-.55,0-1.13.18-1.67.18-.56.62-1.12,1.05-1.52.21-.2.4-.37.61-.52"/><polyline class="cls-3" points="42.42 132.94 42.42 150.12 58.56 153.92 72.49 150.65"/><path class="cls-3" d="m58.56,127.33c-.11.05-.22.1-.34.14-.54.2-1.18.2-1.67-.09-.58-.35-.88-.82-.99-1.49-.09-.55,0-1.13.18-1.67.18-.56.62-1.12,1.05-1.52.42-.4.77-.66,1.28-.95l.5-.29c.2-.11.41-.22.62-.33.16-.08.33-.08.48,0,.38.2.76.4,1.12.62.51.3.85.56,1.28.97s.84.97,1.03,1.53c.1.28.16.58.18.88.03.26.02.53-.03.79-.11.67-.41,1.13-.99,1.47-.5.3-1.13.29-1.67.08-.28-.11-.54-.21-.77-.34l.2,1.06c.02.12-.07.24-.19.24h-.87c-.11,0-.21-.11-.18-.24l.21-1.07c-.13.08-.27.14-.42.2Z"/><path class="cls-3" d="m52.84,125.68c-.18.56-.61,1.13-1.04,1.52-.42.4-.77.66-1.28.96-.37.21-.74.42-1.13.61-.15.08-.33.08-.48,0-.38-.19-.75-.4-1.12-.62-.5-.3-.85-.56-1.28-.97s-.84-.97-1.03-1.53c-.18-.54-.26-1.12-.16-1.67.11-.67.41-1.13,1-1.47.49-.3,1.13-.29,1.67-.08.27.11.53.21.77.34l-.21-1.06c-.02-.12.07-.24.19-.24h.87c.12,0,.21.12.18.24l-.21,1.07c.24-.13.48-.24.77-.34.55-.2,1.18-.2,1.68.09.57.35.87.82.99,1.49.09.55,0,1.13-.18,1.67Z"/><path class="cls-3" d="m53.11,135.41c.02.26.02.53-.03.78-.12.67-.42,1.13-1,1.47-.49.3-1.13.29-1.67.08-.28-.11-.54-.21-.77-.34l.2,1.06c.03.12-.07.24-.19.24h-.86c-.12,0-.22-.12-.19-.24l.21-1.07c-.23.13-.48.24-.77.34-.54.2-1.18.2-1.67-.09-.57-.35-.87-.82-.99-1.49-.09-.55,0-1.13.18-1.67.18-.56.62-1.12,1.05-1.52.21-.2.4-.37.61-.52.21-.15.42-.29.68-.43.36-.22.74-.43,1.12-.62.16-.08.34-.08.49,0,.38.19.75.4,1.12.62.5.3.84.56,1.28.97.41.4.84.97,1.02,1.53.1.28.17.58.19.89Z"/><path class="cls-3" d="m57.18,145.82c-.18.56-.62,1.13-1.04,1.52-.43.4-.78.66-1.28.96-.37.21-.75.42-1.13.61-.16.08-.33.08-.48,0-.38-.19-.75-.4-1.12-.62-.5-.3-.85-.55-1.28-.96-.42-.41-.84-.98-1.03-1.53-.18-.55-.26-1.13-.16-1.68.11-.67.41-1.13,1-1.47.49-.3,1.13-.29,1.66-.08.28.11.54.21.77.34l-.2-1.06c-.02-.12.07-.23.19-.24h.56s.31,0,.31,0c.12,0,.21.11.18.24l-.21,1.06c.24-.13.48-.24.77-.34.55-.2,1.18-.2,1.68.09.57.35.87.82.98,1.49.09.55,0,1.14-.18,1.67Z"/><path class="cls-3" d="m58.56,131.83c.03-.06.1-.11.18-.11h.86c.12,0,.22.12.19.24l-.21,1.07c.23-.13.48-.24.76-.34.55-.2,1.19-.2,1.68.09.57.35.87.82.99,1.49.09.55,0,1.13-.18,1.67-.18.56-.62,1.12-1.05,1.52-.42.4-.77.66-1.28.95-.36.22-.74.43-1.12.62-.16.08-.34.08-.49,0-.11-.06-.22-.11-.33-.18-.26-.14-.53-.29-.79-.45-.5-.3-.85-.56-1.28-.97s-.84-.97-1.02-1.53c-.06-.19-.11-.39-.16-.58-.06-.36-.07-.73,0-1.09.12-.67.42-1.13,1-1.47.49-.3,1.13-.29,1.67-.08.21.08.4.16.58.25v-.87l-.02-.1s0-.09.02-.13Z"/><path class="cls-3" d="m67.5,146.08c-.11.67-.41,1.13-.99,1.48-.5.29-1.13.28-1.67.08-.28-.11-.54-.22-.77-.35l.2,1.06c.02.12-.07.24-.19.24h-.87c-.11,0-.21-.11-.18-.24l.21-1.07c-.24.14-.48.24-.77.34-.55.21-1.18.21-1.68-.09-.57-.35-.87-.82-.98-1.49-.09-.55,0-1.13.18-1.67.18-.55.62-1.12,1.05-1.52.42-.4.77-.66,1.28-.95.37-.22.75-.42,1.13-.62.16-.08.33-.07.48,0,.38.19.75.4,1.12.62.51.3.85.56,1.28.97.42.41.84.97,1.03,1.53.18.54.26,1.12.16,1.67Z"/><path class="cls-3" d="m65.49,125.06c-.06-.36-.07-.73,0-1.09.11-.67.41-1.13,1-1.47.49-.3,1.13-.29,1.67-.08.27.11.53.21.76.34l-.2-1.06c-.02-.12.07-.24.19-.24h.87c.12,0,.21.12.18.24l-.21,1.07c.24-.13.48-.24.77-.34.55-.2,1.18-.2,1.68.09.57.35.87.82.98,1.49.09.55,0,1.13-.18,1.67-.18.56-.62,1.13-1.04,1.52-.43.4-.78.66-1.28.96-.37.21-.75.42-1.13.61-.04.02-.08.04-.12.04-.12.03-.25.02-.36-.04-.38-.19-.75-.4-1.12-.62-.5-.3-.85-.56-1.28-.97s-.84-.97-1.03-1.53c-.06-.18-.11-.39-.15-.58Z"/><polyline class="cls-3" points="58.56 114.64 58.56 121.46 58.56 127.33 58.56 131.83 58.56 132.06"/><polyline class="cls-3" points="58.56 132.93 58.56 138.85 58.56 153.92"/><path class="cls-3" d="m75.44,134.49c1.5-.44,2.93-1.15,4.29-1.92,4.91-2.76,9.38-6.32,13.17-10.49"/><path class="cls-3" d="m75.44,128.38c5.89-1.84,11.01-6.11,13.73-11.66"/><path class="cls-3" d="m93.66,112.79c1.95,9.25,7.06,17.81,8.58,27.2.48,2.96.48,6.33-1.48,8.6-1.25,1.46-3.07,2.21-4.97,2.68-.62.16-1.25.28-1.87.4-1.05.19-2.08.37-3.14.51h0c-2.45.36-4.93.61-7.41.74-.58.03-1.17.05-1.75.07-1.11.04-2.23.04-3.34-.05-1.46-.13-2.89-.45-4.2-1.13-.57-.3-1.11-.69-1.58-1.15l2.95-.69v-15.47c-.36.11-.73.2-1.1.27-.41.08-.83.13-1.25.16-1.54.1-3.1-.18-4.41-.98-.59-.35-1.14-.88-1.4-1.5-.14-.32-.19-.65-.15-.99.11-.82.81-1.46,1.57-1.76.28-.11.57-.19.87-.26.51-.09,1.04-.12,1.56-.18,1.46-.15,2.9-.45,4.3-.89v-14.59c2.32-.91,4.45-1.8,6.4-2.96h7.85c1.25.74,2.58,1.37,3.98,1.96Z"/><path class="cls-3" d="m42.42,123.82v3.99c.68.25,1.34.56,1.86,1.06.79.74,1.22,1.99.7,2.94-.05.1-.11.19-.18.28-.54.66-1.49.91-2.38.86-.18,0-.34-.02-.5-.05-.75-.13-1.48-.43-2.04-.95-1.38-1.28-1.31-3.59-.35-5.22.69-1.19,1.76-2.09,2.89-2.9Z"/><path class="cls-3" d="m90.78,152.18c.92,7.3-1.28,15.25.76,22.39.27.96.64,1.92,1.29,2.62.64.69,1.63,1.08,2.47.72,1.35-.59,1.61-2.59,1.63-4.21.08-7.5-.3-14.99-1.13-22.42"/><path class="cls-3" d="m83.36,152.92c.23,6.99.04,14.01-.55,21.01-.13,1.63-.54,3.6-1.93,4.08-.86.3-1.82-.15-2.42-.9-.59-.75-.89-1.73-1.09-2.71-1.45-6.96,1.03-14.39.89-21.46"/><path class="cls-2" d="m67.34,144.4c.18.54.26,1.12.16,1.67-.11.67-.41,1.13-.99,1.48-.5.29-1.13.28-1.67.08-.28-.11-.54-.22-.77-.35l.2,1.06c.02.12-.07.24-.19.24h-.87c-.11,0-.21-.11-.18-.24l.21-1.07c-.24.14-.48.24-.77.34-.55.21-1.18.21-1.68-.09-.57-.35-.87-.82-.98-1.49-.09-.55,0-1.13.18-1.67.18-.55.62-1.12,1.05-1.52.42-.4.77-.66,1.28-.95.37-.22.75-.42,1.13-.62.16-.08.33-.07.48,0,.38.19.75.4,1.12.62.51.3.85.56,1.28.97.42.41.84.97,1.03,1.53Z"/><path class="cls-2" d="m57.36,144.15c.09.55,0,1.14-.18,1.67-.18.56-.62,1.13-1.04,1.52-.43.4-.78.66-1.28.96-.37.21-.75.42-1.13.61-.16.08-.33.08-.48,0-.38-.19-.75-.4-1.12-.62-.5-.3-.85-.55-1.28-.96-.42-.41-.84-.98-1.03-1.53-.18-.55-.26-1.13-.16-1.68.11-.67.41-1.13,1-1.47.49-.3,1.13-.29,1.66-.08.28.11.54.21.77.34l-.2-1.06c-.02-.12.07-.23.19-.24h.56s.31,0,.31,0c.12,0,.21.11.18.24l-.21,1.06c.24-.13.48-.24.77-.34.55-.2,1.18-.2,1.68.09.57.35.87.82.98,1.49Z"/><path class="cls-2" d="m53.11,135.41c.02.26.02.53-.03.78-.12.67-.42,1.13-1,1.47-.49.3-1.13.29-1.67.08-.28-.11-.54-.21-.77-.34l.2,1.06c.03.12-.07.24-.19.24h-.86c-.12,0-.22-.12-.19-.24l.21-1.07c-.23.13-.48.24-.77.34-.54.2-1.18.2-1.67-.09-.57-.35-.87-.82-.99-1.49-.09-.55,0-1.13.18-1.67.18-.56.62-1.12,1.05-1.52.21-.2.4-.37.61-.52.21-.15.42-.29.68-.43.36-.22.74-.43,1.12-.62.16-.08.34-.08.49,0,.38.19.75.4,1.12.62.5.3.84.56,1.28.97.41.4.84.97,1.02,1.53.1.28.17.58.19.89Z"/><path class="cls-2" d="m58.56,132.93v5.92c-.26-.14-.53-.29-.79-.45-.5-.3-.85-.56-1.28-.97s-.84-.97-1.02-1.53c-.06-.19-.11-.39-.16-.58-.06-.36-.07-.73,0-1.09.12-.67.42-1.13,1-1.47.49-.3,1.13-.29,1.67-.08.21.08.4.16.58.25Z"/><path class="cls-2" d="m63,134.27c.09.55,0,1.13-.18,1.67-.18.56-.62,1.12-1.05,1.52-.42.4-.77.66-1.28.95-.36.22-.74.43-1.12.62-.16.08-.34.08-.49,0-.11-.06-.22-.11-.33-.18v-5.92c.06.04.12.06.18.1l-.18-.97v-.23c.03-.06.1-.11.18-.11h.86c.12,0,.22.12.19.24l-.21,1.07c.23-.13.48-.24.76-.34.55-.2,1.19-.2,1.68.09.57.35.87.82.99,1.49Z"/><path class="cls-2" d="m73.09,134.92c.1.42.13.85.06,1.28-.12.67-.42,1.13-1,1.47-.49.3-1.13.29-1.67.08-.28-.11-.54-.21-.77-.34l.2,1.06c.03.12-.07.24-.19.24h-.86c-.12,0-.22-.12-.19-.24l.21-1.07c-.23.13-.48.24-.77.34-.54.2-1.18.2-1.67-.09-.58-.35-.87-.82-.99-1.49-.09-.55,0-1.13.18-1.67.18-.56.62-1.12,1.05-1.52.21-.2.4-.37.61-.52.26.62.81,1.14,1.4,1.5,1.31.8,2.87,1.07,4.41.98Z"/><path class="cls-2" d="m73.17,124c.09.55,0,1.13-.18,1.67-.18.56-.62,1.13-1.04,1.52-.43.4-.78.66-1.28.96-.37.21-.75.42-1.13.61-.04.02-.08.04-.12.04-.12.03-.25.02-.36-.04-.38-.19-.75-.4-1.12-.62-.5-.3-.85-.56-1.28-.97s-.84-.97-1.03-1.53c-.06-.18-.11-.39-.15-.58-.06-.36-.07-.73,0-1.09.11-.67.41-1.13,1-1.47.49-.3,1.13-.29,1.67-.08.27.11.53.21.76.34l-.2-1.06c-.02-.12.07-.24.19-.24h.87c.12,0,.21.12.18.24l-.21,1.07c.24-.13.48-.24.77-.34.55-.2,1.18-.2,1.68.09.57.35.87.82.98,1.49Z"/><path class="cls-2" d="m58.56,121.46v5.87c-.11.05-.22.1-.34.14-.54.2-1.18.2-1.67-.09-.58-.35-.88-.82-.99-1.49-.09-.55,0-1.13.18-1.67.18-.56.62-1.12,1.05-1.52.42-.4.77-.66,1.28-.95l.5-.29Z"/><path class="cls-2" d="m63.28,125.14c.03.26.02.53-.03.79-.11.67-.41,1.13-.99,1.47-.5.3-1.13.29-1.67.08-.28-.11-.54-.21-.77-.34l.2,1.06c.02.12-.07.24-.19.24h-.87c-.11,0-.21-.11-.18-.24l.21-1.07c-.13.08-.27.14-.42.2v-5.87c.2-.11.41-.22.62-.33.16-.08.33-.08.48,0,.38.2.76.4,1.12.62.51.3.85.56,1.28.97s.84.97,1.03,1.53c.1.28.16.58.18.88Z"/><path class="cls-2" d="m53.02,124c.09.55,0,1.13-.18,1.67-.18.56-.61,1.13-1.04,1.52-.42.4-.77.66-1.28.96-.37.21-.74.42-1.13.61-.15.08-.33.08-.48,0-.38-.19-.75-.4-1.12-.62-.5-.3-.85-.56-1.28-.97s-.84-.97-1.03-1.53c-.18-.54-.26-1.12-.16-1.67.11-.67.41-1.13,1-1.47.49-.3,1.13-.29,1.67-.08.27.11.53.21.77.34l-.21-1.06c-.02-.12.07-.24.19-.24h.87c.12,0,.21.12.18.24l-.21,1.07c.24-.13.48-.24.77-.34.55-.2,1.18-.2,1.68.09.57.35.87.82.99,1.49Z"/><path class="cls-2" d="m83.36,152.92c.23,6.99.04,14.01-.55,21.01-.13,1.63-.54,3.6-1.93,4.08-.86.3-1.82-.15-2.42-.9-.59-.75-.89-1.73-1.09-2.71-1.45-6.96,1.03-14.39.89-21.46,1.11.1,2.23.09,3.34.05.58-.02,1.17-.04,1.75-.07Z"/><path class="cls-2" d="m95.79,151.27c.84,7.43,1.21,14.93,1.13,22.42-.02,1.63-.27,3.62-1.63,4.21-.84.36-1.83-.03-2.47-.72-.65-.7-1.02-1.66-1.29-2.62-2.03-7.13.17-15.09-.76-22.39,1.06-.14,2.09-.32,3.14-.51.62-.11,1.26-.24,1.87-.4Z"/><path class="cls-2" d="m120.34,83.66c1.65,5.04,2.45,10.5,1.57,15.73-1.06,6.26-3.86,10.64-9.32,13.89-4.66,2.79-10.65,2.78-15.72.8-1.12-.43-2.18-.85-3.21-1.29-1.4-.59-2.73-1.22-3.98-1.96h-7.85c-1.95,1.15-4.08,2.04-6.4,2.96v-3.11l-14.81,3.47c-.58-.26-1.14-.55-1.7-.87-5.45-3.25-8.25-7.63-9.32-13.89-.88-5.23-.09-10.69,1.57-15.73,1.72-5.24,5.74-10.53,9.74-14.34,3.99-3.81,7.28-6.21,12.02-9.03,3.45-2.05,6.96-3.99,10.54-5.8,1.43-.72,3.13-.72,4.57,0,3.58,1.81,7.09,3.75,10.54,5.8,4.74,2.82,8.02,5.22,12.02,9.03,3.99,3.81,8.01,9.1,9.74,14.34Zm-21.76,7.02c0-7.07-5.74-12.81-12.82-12.81s-12.82,5.74-12.82,12.81c0,2.84.92,5.46,2.49,7.58,2.33,3.18,6.09,5.23,10.33,5.23,7.08,0,12.82-5.74,12.82-12.82Z"/></g></svg>