<?xml version="1.0" encoding="UTF-8"?><svg id="Layer_2" xmlns="http://www.w3.org/2000/svg" viewBox="0 0 161.09 234.55"><defs><style>.cls-1{fill:#ecede8;}.cls-1,.cls-2{stroke-width:0px;}.cls-2{fill:#1a1a1a;}.cls-3{fill:none;stroke:#000;stroke-linecap:round;stroke-linejoin:round;stroke-width:.5px;}</style></defs><g id="Layer_2-2"><rect class="cls-1" width="161.09" height="234.55" rx="5" ry="5"/><path class="cls-2" d="m143.72,206.95c.86,0,.97-.04,1.19-.72l1.4-4.18c.22-.72.25-1.01.25-1.3,0-.22-.47-.43-1.47-.61l-1.08-.18c-.22-.25-.29-1.08.07-1.26,1.26.07,2.55.07,4.07.11,1.22,0,2.05-.11,3.71-.11.4.22.36.97.11,1.26l-.97.11c-.86.11-1.58.4-2.2,1.8-.61,1.44-1.3,3.17-2.27,5.76l-3.28,8.78c-.83,2.27-1.44,3.53-1.33,4.57-1.73.4-3.06,2.16-3.13,2.16-.47,0-.68-.18-.83-.72-.29-1.04-.72-2.38-1.62-4.93l-4.89-14.11c-.76-2.16-1.08-2.99-2.41-3.2l-1.37-.22c-.22-.18-.29-1.04.04-1.26,1.73.07,3.67.11,5.54.11s3.2-.04,4.86-.11c.4.22.47.97.07,1.26l-1.15.18c-.83.14-.97.4-.97.61,0,.25.25,1.12.68,2.45l.97,3.1c.18.58.47.65,1.73.65h4.28Zm-4.1,1.91c-.83,0-1.01.11-.72,1.04l.94,2.92c.5,1.55,1.15,3.49,1.48,4.25.29-.83,1.01-2.77,1.55-4.43l.9-2.7c.32-.97.14-1.08-.76-1.08h-3.38Z"/><path class="cls-2" d="m136.14,181.2c.43,0,.8-.04,1.12-.11-.51.59-.82,1.36-.82,2.2,0,1.86,1.51,3.37,3.37,3.37s3.37-1.51,3.37-3.37c0-.84-.31-1.61-.82-2.2.32.07.7.11,1.12.11,1.86,0,3.37-1.51,3.37-3.37s-1.51-3.37-3.37-3.37c-1.32,0-2.46.13-3.01.88l.32-1.64c.04-.19-.11-.36-.3-.36h-1.35c-.19,0-.34.18-.3.36l.32,1.64c-.55-.74-1.69-.88-3.01-.88-1.86,0-3.37,1.51-3.37,3.37s1.51,3.37,3.37,3.37Z"/><path class="cls-2" d="m17.38,27.61c-.86,0-.97.04-1.19.72l-1.4,4.18c-.22.72-.25,1.01-.25,1.3,0,.22.47.43,1.47.61l1.08.18c.22.25.29,1.08-.07,1.26-1.26-.07-2.55-.07-4.07-.11-1.22,0-2.05.11-3.71.11-.4-.22-.36-.97-.11-1.26l.97-.11c.86-.11,1.58-.4,2.2-1.8.61-1.44,1.3-3.17,2.27-5.76l3.28-8.78c.83-2.27,1.44-3.53,1.33-4.57,1.73-.4,3.06-2.16,3.13-2.16.47,0,.68.18.83.72.29,1.04.72,2.38,1.62,4.93l4.89,14.11c.76,2.16,1.08,2.99,2.41,3.2l1.37.22c.22.18.29,1.04-.04,1.26-1.73-.07-3.67-.11-5.54-.11s-3.2.04-4.86.11c-.4-.22-.47-.97-.07-1.26l1.15-.18c.83-.14.97-.4.97-.61,0-.25-.25-1.12-.68-2.45l-.97-3.1c-.18-.58-.47-.65-1.73-.65h-4.28Zm4.1-1.91c.83,0,1.01-.11.72-1.04l-.94-2.92c-.5-1.55-1.15-3.49-1.48-4.25-.29.83-1.01,2.77-1.55,4.43l-.9,2.7c-.32.97-.14,1.08.76,1.08h3.38Z"/><path class="cls-2" d="m24.96,53.35c-.43,0-.8.04-1.12.11.51-.59.82-1.36.82-2.2,0-1.86-1.51-3.37-3.37-3.37s-3.37,1.51-3.37,3.37c0,.84.31,1.61.82,2.2-.32-.07-.7-.11-1.12-.11-1.86,0-3.37,1.51-3.37,3.37s1.51,3.37,3.37,3.37c1.32,0,2.46-.13,3.01-.88l-.32,1.64c-.04.19.11.36.3.36h1.35c.19,0,.34-.18.3-.36l-.32-1.64c.55.74,1.69.88,3.01.88,1.86,0,3.37-1.51,3.37-3.37s-1.51-3.37-3.37-3.37Z"/><path class="cls-2" d="m74.7,156.84c-4.9,6.58-15.03,7.77-26.73,7.77-16.5,0-29.87-13.37-29.87-29.87s13.37-29.87,29.87-29.87c3.77,0,7.06.34,9.94.98-4.51-5.23-7.24-12.04-7.24-19.49,0-16.5,13.38-29.87,29.88-29.87s29.87,13.37,29.87,29.87c0,7.45-2.72,14.26-7.24,19.49,2.88-.64,6.17-.98,9.94-.98,16.5,0,29.87,13.37,29.87,29.87s-13.37,29.87-29.87,29.87c-11.7,0-21.83-1.19-26.73-7.77l2.82,14.51c.33,1.67-.95,3.23-2.66,3.23h-12.01c-1.71,0-2.99-1.56-2.66-3.23l2.82-14.51Zm24.74-27.54c0-10.44-8.45-18.9-18.89-18.9s-18.89,8.46-18.89,18.9,8.46,18.89,18.89,18.89,18.89-8.46,18.89-18.89Z"/><path class="cls-3" d="m61.66,129.3c0-10.44,8.46-18.9,18.89-18.9s18.89,8.46,18.89,18.9-8.45,18.89-18.89,18.89-18.89-8.46-18.89-18.89Z"/><line class="cls-3" x1="74.76" y1="156.53" x2="74.7" y2="156.84"/><line class="cls-3" x1="86.39" y1="156.84" x2="86.33" y2="156.53"/><path class="cls-3" d="m74.7,156.84c-4.9,6.58-15.03,7.77-26.73,7.77-16.5,0-29.87-13.37-29.87-29.87s13.37-29.87,29.87-29.87c3.77,0,7.06.34,9.94.98-4.51-5.23-7.24-12.04-7.24-19.49,0-16.5,13.38-29.87,29.88-29.87s29.87,13.37,29.87,29.87c0,7.45-2.72,14.26-7.24,19.49,2.88-.64,6.17-.98,9.94-.98,16.5,0,29.87,13.37,29.87,29.87s-13.37,29.87-29.87,29.87c-11.7,0-21.83-1.19-26.73-7.77l2.82,14.51c.33,1.67-.95,3.23-2.66,3.23h-12.01c-1.71,0-2.99-1.56-2.66-3.23l2.82-14.51Z"/><path class="cls-3" d="m86.67,131.05c-.11.14-.21.28-.28.43"/><path class="cls-3" d="m87.43,133.97c.72.44,1.7.71,2.78.71,2.21,0,4-1.11,4-2.47s-1.79-2.47-4-2.47c-1.44,0-2.71.47-3.41,1.18"/><path class="cls-3" d="m86.21,132.24c0,.08.01.15.02.22.1.57.51,1.09,1.12,1.47"/><path class="cls-3" d="m86.21,132.24c0,.08,0,.15.02.22.08.66.51,1.21,1.12,1.47.03.02.06.03.08.04.24.1.5.15.78.15,1.1,0,2-.84,2-1.88s-.9-1.87-2-1.87c-.55,0-1.05.21-1.41.55-.05.04-.09.09-.13.13-.12.13-.21.27-.28.43-.12.23-.18.49-.18.76Z"/><path class="cls-3" d="m65.84,133.97c.72.44,1.7.71,2.78.71,2.21,0,4-1.11,4-2.47s-1.79-2.47-4-2.47c-1.44,0-2.7.47-3.41,1.18"/><path class="cls-3" d="m64.62,132.24c0,.08.01.15.02.22.1.57.51,1.09,1.12,1.47"/><path class="cls-3" d="m64.62,132.24c0,.08,0,.15.02.22.08.66.51,1.21,1.12,1.47.03.02.06.03.08.04.24.1.51.15.78.15,1.11,0,2-.84,2-1.88s-.89-1.87-2-1.87c-.55,0-1.05.21-1.41.55s-.59.81-.59,1.32Z"/><path class="cls-3" d="m75.94,139.5c0,2.26,1.83,4.09,4.09,4.09s4.08-1.83,4.08-4.09"/></g></svg>