<?xml version="1.0" encoding="UTF-8"?><svg id="Layer_2" xmlns="http://www.w3.org/2000/svg" viewBox="0 0 161.09 234.55"><defs><style>.cls-1{fill:#ecede8;}.cls-1,.cls-2{stroke-width:0px;}.cls-3{fill:none;stroke:#000;stroke-linecap:round;stroke-linejoin:round;stroke-width:.5px;}.cls-2{fill:#8b001b;}</style></defs><g id="Layer_2-2"><rect class="cls-1" width="161.09" height="234.55" rx="5" ry="5"/><path class="cls-2" d="m143.72,206.95c.86,0,.97-.04,1.19-.72l1.4-4.17c.22-.72.25-1.01.25-1.3,0-.22-.47-.43-1.48-.61l-1.08-.18c-.22-.25-.29-1.08.07-1.26,1.26.07,2.56.07,4.07.11,1.22,0,2.05-.11,3.71-.11.4.22.36.97.11,1.26l-.97.11c-.86.11-1.58.4-2.2,1.8-.61,1.44-1.3,3.17-2.27,5.76l-3.28,8.78c-.83,2.27-1.44,3.53-1.33,4.57-1.73.4-3.06,2.16-3.13,2.16-.47,0-.68-.18-.83-.72-.29-1.04-.72-2.38-1.62-4.93l-4.89-14.11c-.76-2.16-1.08-2.99-2.41-3.2l-1.37-.22c-.22-.18-.29-1.04.04-1.26,1.73.07,3.67.11,5.54.11s3.2-.04,4.86-.11c.4.22.47.97.07,1.26l-1.15.18c-.83.14-.97.4-.97.61,0,.25.25,1.12.68,2.45l.97,3.1c.18.58.47.65,1.73.65h4.28Zm-4.1,1.91c-.83,0-1.01.11-.72,1.04l.94,2.92c.5,1.55,1.15,3.49,1.48,4.25.29-.83,1.01-2.77,1.55-4.43l.9-2.7c.32-.97.14-1.08-.76-1.08h-3.38Z"/><path class="cls-2" d="m132.84,182.86c.2,1.21.74,2.05,1.8,2.68.9.54,2.06.54,3.03.15.51-.2.97-.38,1.39-.63.27-.16.52-.34.76-.58.23.23.49.42.76.58.42.25.88.43,1.39.63.98.38,2.13.38,3.03-.15,1.05-.63,1.59-1.47,1.8-2.68.17-1.01.02-2.06-.3-3.03-.33-1.01-1.11-2.03-1.88-2.77-.77-.74-1.4-1.2-2.32-1.74-.74-.44-1.49-.85-2.25-1.23-.14-.07-.3-.07-.44,0-.77.38-1.52.79-2.25,1.23-.91.55-1.55,1.01-2.32,1.74-.77.74-1.54,1.75-1.88,2.77-.32.97-.47,2.03-.3,3.03Z"/><path class="cls-2" d="m17.38,27.61c-.86,0-.97.04-1.19.72l-1.4,4.17c-.22.72-.25,1.01-.25,1.3,0,.22.47.43,1.48.61l1.08.18c.22.25.29,1.08-.07,1.26-1.26-.07-2.56-.07-4.07-.11-1.22,0-2.05.11-3.71.11-.4-.22-.36-.97-.11-1.26l.97-.11c.86-.11,1.58-.4,2.2-1.8.61-1.44,1.3-3.17,2.27-5.76l3.28-8.78c.83-2.27,1.44-3.53,1.33-4.57,1.73-.4,3.06-2.16,3.13-2.16.47,0,.68.18.83.72.29,1.04.72,2.38,1.62,4.93l4.89,14.11c.76,2.16,1.08,2.99,2.41,3.2l1.37.22c.22.18.29,1.04-.04,1.26-1.73-.07-3.67-.11-5.54-.11s-3.2.04-4.86.11c-.4-.22-.47-.97-.07-1.26l1.15-.18c.83-.14.97-.4.97-.61,0-.25-.25-1.12-.68-2.45l-.97-3.1c-.18-.58-.47-.65-1.73-.65h-4.28Zm4.1-1.91c.83,0,1.01-.11.72-1.04l-.94-2.92c-.5-1.55-1.15-3.49-1.48-4.25-.29.83-1.01,2.77-1.55,4.43l-.9,2.7c-.32.97-.14,1.08.76,1.08h3.38Z"/><path class="cls-2" d="m28.25,51.69c-.2-1.21-.74-2.05-1.8-2.68-.9-.54-2.06-.54-3.03-.15-.51.2-.97.38-1.39.63-.27.16-.52.34-.76.58-.23-.23-.49-.42-.76-.58-.42-.25-.88-.43-1.39-.63-.98-.38-2.13-.38-3.03.15-1.05.63-1.59,1.47-1.8,2.68-.17,1.01-.02,2.06.3,3.03.33,1.01,1.11,2.03,1.88,2.77.77.74,1.4,1.2,2.32,1.74.74.44,1.49.85,2.25,1.23.14.07.3.07.44,0,.77-.38,1.52-.79,2.25-1.23.91-.55,1.55-1.01,2.32-1.74.77-.74,1.54-1.75,1.88-2.77.32-.97.47-2.03.3-3.03Z"/><path class="cls-2" d="m133.83,94.72c1.3,7.71.13,15.76-2.31,23.19-2.55,7.73-8.47,15.52-14.35,21.14-5.89,5.62-10.73,9.14-17.72,13.31-5.62,3.34-11.36,6.47-17.21,9.38-1.06.53-2.31.53-3.37,0-5.85-2.91-11.6-6.04-17.23-9.38-6.99-4.17-11.83-7.69-17.71-13.31-5.89-5.62-11.81-13.41-14.35-21.14-2.45-7.43-3.62-15.48-2.32-23.19,1.56-9.23,5.69-15.68,13.73-20.48,6.88-4.1,15.72-4.09,23.18-1.18,3.87,1.51,7.39,2.91,10.59,4.8,2.07,1.21,4,2.63,5.79,4.4,1.79-1.77,3.72-3.19,5.78-4.4,3.2-1.89,6.72-3.29,10.59-4.8,7.47-2.91,16.3-2.92,23.18,1.18,8.04,4.8,12.17,11.25,13.73,20.48Zm-34.39,37.18c0-10.44-8.45-18.9-18.89-18.9s-18.89,8.46-18.89,18.9,8.46,18.89,18.89,18.89,18.89-8.46,18.89-18.89Z"/><path class="cls-3" d="m61.66,131.9c0-10.44,8.46-18.9,18.89-18.9s18.89,8.46,18.89,18.9-8.45,18.89-18.89,18.89-18.89-8.46-18.89-18.89Z"/><path class="cls-3" d="m131.52,117.91c-2.55,7.73-8.47,15.52-14.35,21.14-5.89,5.62-10.73,9.14-17.72,13.31-5.62,3.34-11.36,6.47-17.21,9.38-1.06.53-2.31.53-3.37,0-5.85-2.91-11.6-6.04-17.23-9.38-6.99-4.17-11.83-7.69-17.71-13.31-5.89-5.62-11.81-13.41-14.35-21.14-2.45-7.43-3.62-15.48-2.32-23.19,1.56-9.23,5.69-15.68,13.73-20.48,6.88-4.1,15.72-4.09,23.18-1.18,3.87,1.51,7.39,2.91,10.59,4.8,2.07,1.21,4,2.63,5.79,4.4,1.79-1.77,3.72-3.19,5.78-4.4,3.2-1.89,6.72-3.29,10.59-4.8,7.47-2.91,16.3-2.92,23.18,1.18,8.04,4.8,12.17,11.25,13.73,20.48,1.3,7.71.13,15.76-2.31,23.19Z"/><path class="cls-3" d="m86.67,133.65c-.11.14-.21.28-.28.43"/><path class="cls-3" d="m86.21,134.84c0,.08.01.15.02.22.09.56.48,1.06,1.07,1.45.73.47,1.76.77,2.91.77,2.21,0,4-1.11,4-2.47s-1.79-2.47-4-2.47c-1.44,0-2.71.47-3.41,1.18"/><path class="cls-3" d="m86.21,134.84c0,.08,0,.15.02.22.07.64.49,1.17,1.07,1.45.27.14.58.21.91.21,1.1,0,2-.84,2-1.88s-.9-1.87-2-1.87c-.55,0-1.05.21-1.41.55-.05.04-.09.09-.13.13-.12.13-.21.28-.28.43-.12.23-.18.49-.18.76Z"/><path class="cls-3" d="m64.62,134.84c0,.08.01.15.02.22.09.56.48,1.06,1.07,1.45.73.47,1.77.77,2.91.77,2.21,0,4-1.11,4-2.47s-1.79-2.47-4-2.47c-1.44,0-2.7.47-3.41,1.18"/><path class="cls-3" d="m64.62,134.84c0,.08,0,.15.02.22.07.64.49,1.17,1.07,1.45.27.14.58.21.91.21,1.11,0,2-.84,2-1.88s-.89-1.87-2-1.87c-.55,0-1.05.21-1.41.55s-.59.8-.59,1.32Z"/><path class="cls-3" d="m75.94,142.1c0,2.26,1.83,4.09,4.09,4.09s4.08-1.83,4.08-4.09"/></g></svg>