<?xml version="1.0" encoding="UTF-8"?><svg id="Layer_2" xmlns="http://www.w3.org/2000/svg" viewBox="0 0 161.09 234.55"><defs><style>.cls-1{fill:#ecede8;}.cls-1,.cls-2{stroke-width:0px;}.cls-2{fill:#1a1a1a;}.cls-3{fill:none;stroke:#000;stroke-linecap:round;stroke-linejoin:round;stroke-width:.5px;}</style></defs><g id="Layer_2-2"><rect class="cls-1" width="161.09" height="234.55" rx="5" ry="5"/><path class="cls-2" d="m143.72,206.95c.86,0,.97-.04,1.19-.72l1.4-4.17c.22-.72.25-1.01.25-1.3,0-.22-.47-.43-1.48-.61l-1.08-.18c-.22-.25-.29-1.08.07-1.26,1.26.07,2.56.07,4.07.11,1.22,0,2.05-.11,3.71-.11.4.22.36.97.11,1.26l-.97.11c-.86.11-1.58.4-2.2,1.8-.61,1.44-1.3,3.17-2.27,5.76l-3.28,8.78c-.83,2.27-1.44,3.53-1.33,4.57-1.73.4-3.06,2.16-3.13,2.16-.47,0-.68-.18-.83-.72-.29-1.04-.72-2.38-1.62-4.93l-4.89-14.11c-.76-2.16-1.08-2.99-2.41-3.2l-1.37-.22c-.22-.18-.29-1.04.04-1.26,1.73.07,3.67.11,5.54.11s3.2-.04,4.86-.11c.4.22.47.97.07,1.26l-1.15.18c-.83.14-.97.4-.97.61,0,.25.25,1.12.68,2.45l.97,3.1c.18.58.47.65,1.73.65h4.28Zm-4.1,1.91c-.83,0-1.01.11-.72,1.04l.94,2.92c.5,1.55,1.15,3.49,1.48,4.25.29-.83,1.01-2.77,1.55-4.43l.9-2.7c.32-.97.14-1.08-.76-1.08h-3.38Z"/><path class="cls-2" d="m133.14,180.94c.33,1.01,1.11,2.03,1.88,2.77.77.74,1.4,1.2,2.32,1.74.66.4,1.34.77,2.03,1.12.28.14.6.14.88,0,.69-.35,1.37-.72,2.03-1.12.91-.54,1.55-1.01,2.32-1.74.77-.74,1.55-1.75,1.88-2.77.32-.97.47-2.03.3-3.03-.2-1.21-.74-2.05-1.8-2.68-.9-.54-2.06-.54-3.03-.15-.51.2-.97.38-1.39.63l.38-1.94c.04-.22-.12-.42-.35-.42h-1.57c-.22,0-.39.2-.35.42l.38,1.94c-.42-.25-.88-.43-1.39-.63-.98-.38-2.13-.38-3.03.15-1.05.63-1.59,1.47-1.8,2.68-.17,1.01-.02,2.06.3,3.03Z"/><path class="cls-2" d="m17.38,27.61c-.86,0-.97.04-1.19.72l-1.4,4.17c-.22.72-.25,1.01-.25,1.3,0,.22.47.43,1.48.61l1.08.18c.22.25.29,1.08-.07,1.26-1.26-.07-2.56-.07-4.07-.11-1.22,0-2.05.11-3.71.11-.4-.22-.36-.97-.11-1.26l.97-.11c.86-.11,1.58-.4,2.2-1.8.61-1.44,1.3-3.17,2.27-5.76l3.28-8.78c.83-2.27,1.44-3.53,1.33-4.57,1.73-.4,3.06-2.16,3.13-2.16.47,0,.68.18.83.72.29,1.04.72,2.38,1.62,4.93l4.89,14.11c.76,2.16,1.08,2.99,2.41,3.2l1.37.22c.22.18.29,1.04-.04,1.26-1.73-.07-3.67-.11-5.54-.11s-3.2.04-4.86.11c-.4-.22-.47-.97-.07-1.26l1.15-.18c.83-.14.97-.4.97-.61,0-.25-.25-1.12-.68-2.45l-.97-3.1c-.18-.58-.47-.65-1.73-.65h-4.28Zm4.1-1.91c.83,0,1.01-.11.72-1.04l-.94-2.92c-.5-1.55-1.15-3.49-1.48-4.25-.29.83-1.01,2.77-1.55,4.43l-.9,2.7c-.32.97-.14,1.08.76,1.08h3.38Z"/><path class="cls-2" d="m27.95,53.62c-.33-1.01-1.11-2.03-1.88-2.77-.77-.74-1.4-1.2-2.32-1.74-.66-.4-1.34-.77-2.03-1.12-.28-.14-.6-.14-.88,0-.69.35-1.37.72-2.03,1.12-.91.54-1.55,1.01-2.32,1.74-.77.74-1.55,1.75-1.88,2.77-.32.97-.47,2.03-.3,3.03.2,1.21.74,2.05,1.8,2.68.9.54,2.06.54,3.03.15.51-.2.97-.38,1.39-.63l-.38,1.94c-.04.22.12.42.35.42h1.57c.22,0,.39-.2.35-.42l-.38-1.94c.42.25.88.43,1.39.63.98.38,2.13.38,3.03-.15,1.05-.63,1.59-1.47,1.8-2.68.17-1.01.02-2.06-.3-3.03Z"/><path class="cls-2" d="m131.52,116.62c2.44,7.43,3.61,15.48,2.31,23.19-1.56,9.23-5.69,15.68-13.73,20.48-6.88,4.1-15.71,4.09-23.18,1.18-3.87-1.51-7.39-2.91-10.59-4.8l2.89,14.82c.32,1.67-.96,3.23-2.66,3.23h-12.02c-1.7,0-2.98-1.56-2.66-3.23l2.88-14.82c-3.2,1.89-6.72,3.29-10.59,4.8-7.46,2.91-16.3,2.92-23.18-1.18-8.04-4.8-12.17-11.25-13.73-20.48-1.3-7.71-.13-15.76,2.32-23.19,2.54-7.73,8.46-15.52,14.35-21.14,5.88-5.62,10.72-9.15,17.71-13.31,5.09-3.02,10.28-5.87,15.55-8.54,2.11-1.07,4.62-1.07,6.73,0,5.27,2.67,10.45,5.52,15.53,8.54,6.99,4.16,11.83,7.69,17.72,13.31,5.88,5.62,11.8,13.41,14.35,21.14Zm-32.08,10.35c0-10.43-8.45-18.89-18.89-18.89s-18.89,8.46-18.89,18.89,8.46,18.9,18.89,18.9,18.89-8.46,18.89-18.9Z"/><path class="cls-3" d="m61.66,126.97c0-10.43,8.46-18.89,18.89-18.89s18.89,8.46,18.89,18.89-8.45,18.9-18.89,18.9-18.89-8.46-18.89-18.9Z"/><path class="cls-3" d="m133.83,139.81c-1.56,9.23-5.69,15.68-13.73,20.48-6.88,4.1-15.71,4.09-23.18,1.18-3.87-1.51-7.39-2.91-10.59-4.8l2.89,14.82c.32,1.67-.96,3.23-2.66,3.23h-12.02c-1.7,0-2.98-1.56-2.66-3.23l2.88-14.82c-3.2,1.89-6.72,3.29-10.59,4.8-7.46,2.91-16.3,2.92-23.18-1.18-8.04-4.8-12.17-11.25-13.73-20.48-1.3-7.71-.13-15.76,2.32-23.19,2.54-7.73,8.46-15.52,14.35-21.14,5.88-5.62,10.72-9.15,17.71-13.31,5.09-3.02,10.28-5.87,15.55-8.54,2.11-1.07,4.62-1.07,6.73,0,5.27,2.67,10.45,5.52,15.53,8.54,6.99,4.16,11.83,7.69,17.72,13.31,5.88,5.62,11.8,13.41,14.35,21.14,2.44,7.43,3.61,15.48,2.31,23.19Z"/><path class="cls-3" d="m86.67,128.73c-.11.14-.21.28-.28.43"/><path class="cls-3" d="m86.21,129.92c0,.08.01.15.02.22.09.56.48,1.06,1.07,1.45.73.47,1.76.77,2.91.77,2.21,0,4-1.11,4-2.47s-1.79-2.47-4-2.47c-1.44,0-2.71.47-3.41,1.18"/><path class="cls-3" d="m86.21,129.92c0,.08,0,.15.02.22.07.64.49,1.17,1.07,1.45.27.14.58.21.91.21,1.1,0,2-.84,2-1.88s-.9-1.87-2-1.87c-.55,0-1.05.21-1.41.55-.05.04-.09.09-.13.13-.12.13-.21.28-.28.43-.12.23-.18.49-.18.76Z"/><path class="cls-3" d="m64.62,129.92c0,.08.01.15.02.22.09.56.48,1.06,1.07,1.45.73.47,1.77.77,2.91.77,2.21,0,4-1.11,4-2.47s-1.79-2.47-4-2.47c-1.44,0-2.7.47-3.41,1.18"/><path class="cls-3" d="m64.62,129.92c0,.08,0,.15.02.22.07.64.49,1.17,1.07,1.45.27.14.58.21.91.21,1.11,0,2-.84,2-1.88s-.89-1.87-2-1.87c-.55,0-1.05.21-1.41.55s-.59.8-.59,1.32Z"/><path class="cls-3" d="m75.94,137.18c0,2.26,1.83,4.09,4.09,4.09s4.08-1.83,4.08-4.09"/></g></svg>