<?xml version="1.0" encoding="UTF-8"?><svg id="Layer_2" xmlns="http://www.w3.org/2000/svg" viewBox="0 0 161.09 234.55"><defs><style>.cls-1{fill:#ecede8;}.cls-1,.cls-2{stroke-width:0px;}.cls-2{fill:#1a1a1a;}.cls-3{fill:none;stroke:#000;stroke-linecap:round;stroke-linejoin:round;stroke-width:.5px;}</style></defs><g id="Layer_2-2"><rect class="cls-1" width="161.09" height="234.55" rx="5" ry="5"/><path class="cls-2" d="m146.27,217.31c0,3.38.22,3.64,1.87,3.89l1.37.22c.29.22.29,1.04,0,1.26-2.3-.07-4.1-.11-5.79-.11s-3.53.04-5.4.11c-.29-.22-.29-1.04,0-1.26l.94-.18c1.66-.32,1.87-.54,1.87-3.92v-13.03c0-2.84.22-5.33.83-6.95,1.22-3.17,3.85-5.58,8.42-5.76,1.01-.04,2.74.22,2.74,1.44,0,.68-.43,1.58-.94,2.09-.29.29-.61.47-1.01.47-.58,0-1.22-.43-1.83-.9-.61-.47-1.19-.9-1.58-.9-.83,0-1.01,1.69-1.15,2.95-.07.61-.32,3.24-.32,7.06v13.53Z"/><path class="cls-2" d="m141.93,181.2c.43,0,.8-.04,1.12-.11-.51.59-.82,1.36-.82,2.2,0,1.86,1.51,3.37,3.37,3.37s3.37-1.51,3.37-3.37c0-.84-.31-1.61-.82-2.2.32.07.7.11,1.12.11,1.86,0,3.37-1.51,3.37-3.37s-1.51-3.37-3.37-3.37c-1.32,0-2.46.13-3.01.88l.32-1.64c.04-.19-.11-.36-.3-.36h-1.35c-.19,0-.34.18-.3.36l.32,1.64c-.55-.74-1.69-.88-3.01-.88-1.86,0-3.37,1.51-3.37,3.37s1.51,3.37,3.37,3.37Z"/><path class="cls-2" d="m14.82,17.24c0-3.38-.22-3.64-1.87-3.89l-1.37-.22c-.29-.22-.29-1.04,0-1.26,2.3.07,4.1.11,5.79.11s3.53-.04,5.4-.11c.29.22.29,1.04,0,1.26l-.94.18c-1.66.32-1.87.54-1.87,3.92v13.03c0,2.84-.22,5.33-.83,6.95-1.22,3.17-3.85,5.58-8.42,5.76-1.01.04-2.74-.22-2.74-1.44,0-.68.43-1.58.94-2.09.29-.29.61-.47,1.01-.47.58,0,1.22.43,1.83.9.61.47,1.19.9,1.58.9.83,0,1.01-1.69,1.15-2.95.07-.61.32-3.24.32-7.06v-13.53Z"/><path class="cls-2" d="m19.16,53.35c-.43,0-.8.04-1.12.11.51-.59.82-1.36.82-2.2,0-1.86-1.51-3.37-3.37-3.37s-3.37,1.51-3.37,3.37c0,.84.31,1.61.82,2.2-.32-.07-.7-.11-1.12-.11-1.86,0-3.37,1.51-3.37,3.37s1.51,3.37,3.37,3.37c1.32,0,2.46-.13,3.01-.88l-.32,1.64c-.04.19.11.36.3.36h1.35c.19,0,.34-.18.3-.36l-.32-1.64c.55.74,1.69.88,3.01.88,1.86,0,3.37-1.51,3.37-3.37s-1.51-3.37-3.37-3.37Z"/><path class="cls-2" d="m74.7,156.84c-4.9,6.58-15.03,7.77-26.73,7.77-16.5,0-29.87-13.37-29.87-29.87s13.37-29.87,29.87-29.87c3.77,0,7.06.34,9.94.98-4.51-5.23-7.24-12.04-7.24-19.49,0-16.5,13.38-29.87,29.88-29.87s29.87,13.37,29.87,29.87c0,7.45-2.72,14.26-7.24,19.49,2.88-.64,6.17-.98,9.94-.98,16.5,0,29.87,13.37,29.87,29.87s-13.37,29.87-29.87,29.87c-11.7,0-21.83-1.19-26.73-7.77l2.82,14.51c.33,1.67-.95,3.23-2.66,3.23h-12.01c-1.71,0-2.99-1.56-2.66-3.23l2.82-14.51Zm5.85-8.65c10.43,0,18.89-8.46,18.89-18.89s-8.46-18.9-18.89-18.9-18.9,8.46-18.9,18.9,8.46,18.89,18.9,18.89Z"/><path class="cls-3" d="m99.44,129.3c0-10.44-8.46-18.9-18.89-18.9s-18.9,8.46-18.9,18.9,8.46,18.89,18.9,18.89,18.89-8.46,18.89-18.89Z"/><line class="cls-3" x1="74.76" y1="156.53" x2="74.7" y2="156.84"/><line class="cls-3" x1="86.39" y1="156.84" x2="86.33" y2="156.53"/><path class="cls-3" d="m74.7,156.84c-4.9,6.58-15.03,7.77-26.73,7.77-16.5,0-29.87-13.37-29.87-29.87s13.37-29.87,29.87-29.87c3.77,0,7.06.34,9.94.98-4.51-5.23-7.24-12.04-7.24-19.49,0-16.5,13.38-29.87,29.88-29.87s29.87,13.37,29.87,29.87c0,7.45-2.72,14.26-7.24,19.49,2.88-.64,6.17-.98,9.94-.98,16.5,0,29.87,13.37,29.87,29.87s-13.37,29.87-29.87,29.87c-11.7,0-21.83-1.19-26.73-7.77l2.82,14.51c.33,1.67-.95,3.23-2.66,3.23h-12.01c-1.71,0-2.99-1.56-2.66-3.23l2.82-14.51Z"/><path class="cls-3" d="m73.72,133.95c-.72.45-1.72.73-2.83.73-2.21,0-4-1.11-4-2.47s1.79-2.47,4-2.47c1.44,0,2.71.47,3.41,1.18"/><path class="cls-3" d="m74.89,132.24c0,.08-.01.15-.02.22-.09.57-.5,1.09-1.12,1.47"/><path class="cls-3" d="m74.89,132.24c0,.08,0,.15-.02.22-.08.66-.51,1.21-1.12,1.47-.01.01-.02.02-.03.02-.25.11-.53.17-.83.17-1.11,0-2-.84-2-1.88s.89-1.87,2-1.87c.55,0,1.05.21,1.41.55s.59.81.59,1.32Z"/><path class="cls-3" d="m96.16,131.25c.09.13.16.28.21.42"/><path class="cls-3" d="m95.3,133.95c-.72.45-1.72.73-2.83.73-2.21,0-4-1.11-4-2.47s1.79-2.47,4-2.47c1.42,0,2.67.46,3.38,1.15.05.05.09.1.14.14.04.06.09.11.14.17"/><path class="cls-3" d="m96.47,132.24c0,.08-.01.15-.02.22-.09.57-.5,1.09-1.12,1.47"/><path class="cls-3" d="m96.47,132.24c0,.08,0,.15-.02.22-.07.66-.51,1.21-1.12,1.47-.01.01-.02.02-.03.02-.25.11-.53.17-.83.17-1.1,0-2-.84-2-1.88s.9-1.87,2-1.87c.53,0,1.02.2,1.38.52.05.04.09.08.14.14.05.05.1.11.14.17.01.01.03.03.03.05.09.13.16.27.21.42.07.18.1.37.1.57Z"/><path class="cls-3" d="m85.15,139.5c0,2.26-1.83,4.09-4.08,4.09s-4.09-1.83-4.09-4.09"/></g></svg>