<?xml version="1.0" encoding="UTF-8"?><svg id="Layer_2" xmlns="http://www.w3.org/2000/svg" viewBox="0 0 161.09 234.55"><defs><style>.cls-1{fill:#ecede8;}.cls-1,.cls-2{stroke-width:0px;}.cls-3{fill:none;stroke:#000;stroke-linecap:round;stroke-linejoin:round;stroke-width:.5px;}.cls-2{fill:#8b001b;}</style></defs><g id="Layer_2-2"><rect class="cls-1" width="161.09" height="234.55" rx="5" ry="5"/><path class="cls-2" d="m146.27,217.31c0,3.38.21,3.64,1.87,3.89l1.37.22c.29.22.29,1.04,0,1.26-2.3-.07-4.1-.11-5.79-.11s-3.53.04-5.4.11c-.29-.22-.29-1.04,0-1.26l.94-.18c1.66-.32,1.87-.54,1.87-3.92v-13.03c0-2.84.22-5.33.83-6.95,1.22-3.17,3.85-5.58,8.42-5.76,1.01-.04,2.73.22,2.73,1.44,0,.68-.43,1.58-.94,2.09-.29.29-.61.47-1.01.47-.58,0-1.22-.43-1.84-.9-.61-.47-1.19-.9-1.58-.9-.83,0-1.01,1.69-1.15,2.95-.07.61-.32,3.24-.32,7.06v13.53Z"/><polygon class="cls-2" points="145.6 189.28 152.65 180 145.6 170.72 138.56 180 145.6 189.28"/><path class="cls-2" d="m14.82,17.24c0-3.38-.21-3.64-1.87-3.89l-1.37-.22c-.29-.22-.29-1.04,0-1.26,2.3.07,4.1.11,5.79.11s3.53-.04,5.4-.11c.29.22.29,1.04,0,1.26l-.94.18c-1.66.32-1.87.54-1.87,3.92v13.03c0,2.84-.22,5.33-.83,6.95-1.22,3.17-3.85,5.58-8.42,5.76-1.01.04-2.73-.22-2.73-1.44,0-.68.43-1.58.94-2.09.29-.29.61-.47,1.01-.47.58,0,1.22.43,1.84.9.61.47,1.19.9,1.58.9.83,0,1.01-1.69,1.15-2.95.07-.61.32-3.24.32-7.06v-13.53Z"/><polygon class="cls-2" points="15.49 45.27 8.45 54.55 15.49 63.84 22.53 54.55 15.49 45.27"/><path class="cls-2" d="m80.55,56.13l47.25,62.3-47.25,62.3-47.25-62.3,47.25-62.3Zm.45,94.3c10.43,0,18.89-8.46,18.89-18.89s-8.46-18.9-18.89-18.9-18.9,8.46-18.9,18.9,8.46,18.89,18.9,18.89Z"/><polygon class="cls-3" points="80.55 56.13 33.3 118.43 80.55 180.73 127.8 118.43 80.55 56.13"/><path class="cls-3" d="m99.89,131.54c0-10.44-8.46-18.9-18.89-18.9s-18.9,8.46-18.9,18.9,8.46,18.89,18.9,18.89,18.89-8.46,18.89-18.89Z"/><path class="cls-3" d="m74.17,136.19c-.72.45-1.72.73-2.83.73-2.21,0-4-1.11-4-2.47s1.79-2.47,4-2.47c1.44,0,2.71.47,3.41,1.18"/><path class="cls-3" d="m75.34,134.48c0,.08-.01.15-.02.22-.09.57-.5,1.09-1.12,1.47"/><path class="cls-3" d="m75.34,134.48c0,.08,0,.15-.02.22-.08.66-.51,1.21-1.12,1.47-.01,0-.02.02-.03.02-.25.11-.53.17-.83.17-1.11,0-2-.84-2-1.88s.89-1.87,2-1.87c.55,0,1.05.21,1.41.55s.59.81.59,1.32Z"/><path class="cls-3" d="m96.61,133.49c.09.13.16.28.21.42"/><path class="cls-3" d="m95.75,136.19c-.72.45-1.72.73-2.83.73-2.21,0-4-1.11-4-2.47s1.79-2.47,4-2.47c1.42,0,2.67.46,3.38,1.15.05.05.09.1.14.14.04.06.09.11.14.17"/><path class="cls-3" d="m96.92,134.48c0,.08-.01.15-.02.22-.09.57-.5,1.09-1.12,1.47"/><path class="cls-3" d="m96.92,134.48c0,.08,0,.15-.02.22-.07.66-.51,1.21-1.12,1.47-.01,0-.02.02-.03.02-.25.11-.53.17-.83.17-1.1,0-2-.84-2-1.88s.9-1.87,2-1.87c.53,0,1.02.2,1.38.52.05.04.09.08.14.14.05.05.1.11.14.17.01.01.03.03.03.05.09.13.16.27.21.42.07.18.1.37.1.57Z"/><path class="cls-3" d="m85.6,141.74c0,2.26-1.83,4.09-4.08,4.09s-4.09-1.83-4.09-4.09"/></g></svg>