<?xml version="1.0" encoding="UTF-8"?><svg id="Layer_2" xmlns="http://www.w3.org/2000/svg" viewBox="0 0 161.09 234.55"><defs><style>.cls-1{fill:#ecede8;}.cls-1,.cls-2{stroke-width:0px;}.cls-2{fill:#1a1a1a;}.cls-3{fill:none;stroke:#000;stroke-linecap:round;stroke-linejoin:round;stroke-width:.5px;}</style></defs><g id="Layer_2-2"><rect class="cls-1" width="161.09" height="234.55" rx="5" ry="5"/><path class="cls-2" d="m146.27,217.31c0,3.38.22,3.64,1.87,3.89l1.37.22c.29.22.29,1.04,0,1.26-2.3-.07-4.1-.11-5.79-.11s-3.53.04-5.4.11c-.29-.22-.29-1.04,0-1.26l.94-.18c1.66-.32,1.87-.54,1.87-3.92v-13.03c0-2.84.22-5.33.83-6.95,1.22-3.17,3.85-5.58,8.42-5.76,1.01-.04,2.74.22,2.74,1.44,0,.68-.43,1.58-.94,2.09-.29.29-.61.47-1.01.47-.58,0-1.22-.43-1.83-.9-.61-.47-1.19-.9-1.58-.9-.83,0-1.01,1.69-1.15,2.95-.07.61-.32,3.24-.32,7.06v13.53Z"/><path class="cls-2" d="m138.94,180.94c.33,1.01,1.11,2.03,1.88,2.77.77.74,1.4,1.2,2.32,1.74.66.4,1.34.77,2.03,1.12.28.14.6.14.88,0,.69-.35,1.37-.72,2.03-1.12.91-.54,1.55-1.01,2.32-1.74.77-.74,1.55-1.75,1.88-2.77.32-.97.47-2.03.3-3.03-.2-1.21-.74-2.05-1.8-2.68-.9-.54-2.06-.54-3.03-.15-.51.2-.97.38-1.39.63l.38-1.94c.04-.22-.12-.42-.35-.42h-1.57c-.22,0-.39.2-.35.42l.38,1.94c-.42-.25-.88-.43-1.39-.63-.98-.38-2.13-.38-3.03.15-1.05.63-1.59,1.47-1.8,2.68-.17,1.01-.02,2.06.3,3.03Z"/><path class="cls-2" d="m14.82,17.24c0-3.38-.22-3.64-1.87-3.89l-1.37-.22c-.29-.22-.29-1.04,0-1.26,2.3.07,4.1.11,5.79.11s3.53-.04,5.4-.11c.29.22.29,1.04,0,1.26l-.94.18c-1.66.32-1.87.54-1.87,3.92v13.03c0,2.84-.22,5.33-.83,6.95-1.22,3.17-3.85,5.58-8.42,5.76-1.01.04-2.74-.22-2.74-1.44,0-.68.43-1.58.94-2.09.29-.29.61-.47,1.01-.47.58,0,1.22.43,1.83.9.61.47,1.19.9,1.58.9.83,0,1.01-1.69,1.15-2.95.07-.61.32-3.24.32-7.06v-13.53Z"/><path class="cls-2" d="m22.16,53.62c-.33-1.01-1.11-2.03-1.88-2.77-.77-.74-1.4-1.2-2.32-1.74-.66-.4-1.34-.77-2.03-1.12-.28-.14-.6-.14-.88,0-.69.35-1.37.72-2.03,1.12-.91.54-1.55,1.01-2.32,1.74-.77.74-1.55,1.75-1.88,2.77-.32.97-.47,2.03-.3,3.03.2,1.21.74,2.05,1.8,2.68.9.54,2.06.54,3.03.15.51-.2.97-.38,1.39-.63l-.38,1.94c-.04.22.12.42.35.42h1.57c.22,0,.39-.2.35-.42l-.38-1.94c.42.25.88.43,1.39.63.98.38,2.13.38,3.03-.15,1.05-.63,1.59-1.47,1.8-2.68.17-1.01.02-2.06-.3-3.03Z"/><path class="cls-2" d="m131.52,116.62c2.44,7.43,3.61,15.48,2.31,23.19-1.56,9.23-5.69,15.68-13.73,20.48-6.88,4.1-15.71,4.09-23.18,1.18-3.87-1.51-7.39-2.91-10.59-4.8l2.88,14.82c.33,1.67-.95,3.23-2.66,3.23h-12.01c-1.71,0-2.99-1.56-2.66-3.23l2.88-14.82c-3.2,1.89-6.72,3.29-10.59,4.8-7.46,2.91-16.3,2.92-23.18-1.18-8.04-4.8-12.17-11.25-13.73-20.48-1.3-7.71-.13-15.76,2.32-23.19,2.54-7.73,8.46-15.52,14.35-21.14,5.88-5.62,10.72-9.15,17.71-13.31,5.08-3.02,10.27-5.87,15.55-8.54,2.11-1.07,4.61-1.07,6.72,0,5.28,2.67,10.46,5.52,15.54,8.54,6.99,4.16,11.83,7.69,17.72,13.31,5.88,5.62,11.8,13.41,14.35,21.14Zm-32.08,10.35c0-10.43-8.46-18.89-18.89-18.89s-18.9,8.46-18.9,18.89,8.46,18.9,18.9,18.9,18.89-8.46,18.89-18.9Z"/><path class="cls-3" d="m99.44,126.97c0-10.43-8.46-18.89-18.89-18.89s-18.9,8.46-18.9,18.89,8.46,18.9,18.9,18.9,18.89-8.46,18.89-18.9Z"/><path class="cls-3" d="m133.83,139.81c-1.56,9.23-5.69,15.68-13.73,20.48-6.88,4.1-15.71,4.09-23.18,1.18-3.87-1.51-7.39-2.91-10.59-4.8l2.88,14.82c.33,1.67-.95,3.23-2.66,3.23h-12.01c-1.71,0-2.99-1.56-2.66-3.23l2.88-14.82c-3.2,1.89-6.72,3.29-10.59,4.8-7.46,2.91-16.3,2.92-23.18-1.18-8.04-4.8-12.17-11.25-13.73-20.48-1.3-7.71-.13-15.76,2.32-23.19,2.54-7.73,8.46-15.52,14.35-21.14,5.88-5.62,10.72-9.15,17.71-13.31,5.08-3.02,10.27-5.87,15.55-8.54,2.11-1.07,4.61-1.07,6.72,0,5.28,2.67,10.46,5.52,15.54,8.54,6.99,4.16,11.83,7.69,17.72,13.31,5.88,5.62,11.8,13.41,14.35,21.14,2.44,7.43,3.61,15.48,2.31,23.19Z"/><path class="cls-3" d="m74.89,129.92c0,.08-.01.15-.02.22-.09.56-.48,1.06-1.07,1.45-.73.47-1.76.77-2.91.77-2.21,0-4-1.11-4-2.47s1.79-2.47,4-2.47c1.44,0,2.71.47,3.41,1.18"/><path class="cls-3" d="m74.89,129.92c0,.08,0,.15-.02.22-.07.64-.49,1.17-1.07,1.45-.27.14-.58.21-.91.21-1.11,0-2-.84-2-1.88s.89-1.87,2-1.87c.55,0,1.05.21,1.41.55s.59.8.59,1.32Z"/><path class="cls-3" d="m96.16,128.93c.09.14.16.28.22.43"/><path class="cls-3" d="m96.47,129.92c0,.08-.01.15-.02.22-.09.56-.48,1.06-1.07,1.45-.73.47-1.76.77-2.91.77-2.21,0-4-1.11-4-2.47s1.79-2.47,4-2.47c1.42,0,2.67.46,3.38,1.15.05.04.09.09.14.14.04.06.09.11.14.17"/><path class="cls-3" d="m96.47,129.92c0,.08,0,.15-.02.22-.07.64-.49,1.17-1.07,1.45-.27.14-.58.21-.91.21-1.1,0-2-.84-2-1.88s.9-1.87,2-1.87c.53,0,1.02.2,1.38.52.05.04.09.08.14.14.05.05.1.11.14.17.01.01.03.03.03.05.1.13.17.28.22.43.06.18.09.37.09.56Z"/><path class="cls-3" d="m85.15,137.18c0,2.26-1.83,4.09-4.08,4.09s-4.09-1.83-4.09-4.09"/></g></svg>