<?xml version="1.0" encoding="UTF-8"?><svg id="Layer_2" xmlns="http://www.w3.org/2000/svg" viewBox="0 0 161.09 234.55"><defs><style>.cls-1{fill:#ecede8;}.cls-1,.cls-2{stroke-width:0px;}.cls-2{fill:#1a1a1a;}.cls-3{fill:none;stroke:#000;stroke-linecap:round;stroke-linejoin:round;stroke-width:.5px;}</style></defs><g id="Layer_2-2"><rect class="cls-1" width="161.09" height="234.55" rx="5" ry="5"/><path class="cls-2" d="m141.84,213c0-1.19-.22-1.33-.65-1.33-.76,0-2.27,1.4-2.88,2.09-1.91,2.12-4,4.36-5.15,6.05-.32.47-.47.79-.47.94,0,.14.14.4.61.47l1.26.22c.4.25.32,1.12-.14,1.26-1.84-.07-3.17-.11-4.46-.11s-2.92.04-4.36.11c-.43-.14-.47-.97-.18-1.26,1.26-.14,2.34-.32,3.1-.65,1.44-.58,2.99-1.94,5.33-4.61l1.66-1.87c.36-.4.47-.68.47-.83,0-.18-.22-.61-1.3-2.23-1.8-2.7-3.92-6.16-6.37-9.39-.97-1.3-1.66-1.55-2.66-1.69l-1.15-.18c-.22-.32-.22-1.08.11-1.26,1.8.07,3.53.11,5.18.11,1.84,0,3.64-.04,5.65-.11.47.14.47,1.04.07,1.26l-.9.22c-.4.11-.61.22-.61.36s.07.4.29.72l2.09,3.2,1.91,2.92c1.3,1.98,1.91,2.84,2.7,2.84s.86-.5.86-2.45v-3.78c0-3.35-.22-3.67-1.84-3.89l-1.01-.14c-.29-.25-.29-1.04,0-1.26,1.91.07,3.71.11,5.44.11,1.62,0,3.49-.04,5.4-.11.29.22.29,1.04,0,1.26l-1.01.14c-1.62.22-1.84.54-1.84,3.89v13.39c0,3.35.22,3.67,1.84,3.89l1.01.14c.4.22.4,1.04,0,1.26-1.8-.07-3.6-.11-5.4-.11s-3.53.04-5.44.11c-.32-.22-.32-1.04,0-1.26l1.01-.14c1.62-.22,1.84-.54,1.84-3.89v-4.39Z"/><path class="cls-2" d="m133.56,182.5c.43,0,.8-.04,1.12-.11-.51.59-.82,1.36-.82,2.2,0,1.86,1.51,3.37,3.37,3.37s3.37-1.51,3.37-3.37c0-.84-.31-1.61-.82-2.2.32.07.7.11,1.12.11,1.86,0,3.37-1.51,3.37-3.37s-1.51-3.37-3.37-3.37c-1.32,0-2.46.13-3.01.88l.32-1.64c.04-.19-.11-.36-.3-.36h-1.35c-.19,0-.34.18-.3.36l.32,1.64c-.55-.74-1.69-.88-3.01-.88-1.86,0-3.37,1.51-3.37,3.37s1.51,3.37,3.37,3.37Z"/><path class="cls-2" d="m19.25,21.56c0,1.19.22,1.33.65,1.33.76,0,2.27-1.4,2.88-2.09,1.91-2.12,4-4.36,5.15-6.05.32-.47.47-.79.47-.94s-.14-.4-.61-.47l-1.26-.22c-.4-.25-.32-1.12.14-1.26,1.84.07,3.17.11,4.46.11s2.92-.04,4.36-.11c.43.14.47.97.18,1.26-1.26.14-2.34.32-3.1.65-1.44.58-2.99,1.94-5.33,4.61l-1.66,1.87c-.36.4-.47.68-.47.83,0,.18.22.61,1.3,2.23,1.8,2.7,3.92,6.16,6.37,9.39.97,1.3,1.66,1.55,2.66,1.69l1.15.18c.22.32.22,1.08-.11,1.26-1.8-.07-3.53-.11-5.18-.11-1.84,0-3.64.04-5.65.11-.47-.14-.47-1.04-.07-1.26l.9-.22c.4-.11.61-.22.61-.36s-.07-.4-.29-.72l-2.09-3.2-1.91-2.92c-1.3-1.98-1.91-2.84-2.7-2.84s-.86.5-.86,2.45v3.78c0,3.35.22,3.67,1.84,3.89l1.01.14c.29.25.29,1.04,0,1.26-1.91-.07-3.71-.11-5.44-.11-1.62,0-3.49.04-5.4.11-.29-.22-.29-1.04,0-1.26l1.01-.14c1.62-.22,1.84-.54,1.84-3.89v-13.39c0-3.35-.22-3.67-1.84-3.89l-1.01-.14c-.4-.22-.4-1.04,0-1.26,1.8.07,3.6.11,5.4.11s3.53-.04,5.44-.11c.32.22.32,1.04,0,1.26l-1.01.14c-1.62.22-1.84.54-1.84,3.89v4.39Z"/><path class="cls-2" d="m27.53,52.05c-.43,0-.8.04-1.12.11.51-.59.82-1.36.82-2.2,0-1.86-1.51-3.37-3.37-3.37s-3.37,1.51-3.37,3.37c0,.84.31,1.61.82,2.2-.32-.07-.7-.11-1.12-.11-1.86,0-3.37,1.51-3.37,3.37s1.51,3.37,3.37,3.37c1.32,0,2.46-.13,3.01-.88l-.32,1.64c-.04.19.11.36.3.36h1.35c.19,0,.34-.18.3-.36l-.32-1.64c.55.74,1.69.88,3.01.88,1.86,0,3.37-1.51,3.37-3.37s-1.51-3.37-3.37-3.37Z"/><path class="cls-2" d="m74.7,157.33c-4.9,6.58-15.03,7.77-26.73,7.77-16.5,0-29.87-13.37-29.87-29.87s13.37-29.87,29.87-29.87c3.77,0,7.06.34,9.94.98-4.51-5.23-7.24-12.04-7.24-19.49,0-6.64,2.16-12.78,5.83-17.73l29.05-11.32c.17-.07.29-.19.34-.34,13.94,2.51,24.53,14.71,24.53,29.39,0,7.45-2.72,14.26-7.24,19.49,2.88-.64,6.17-.98,9.94-.98,16.5,0,29.87,13.37,29.87,29.87s-13.37,29.87-29.87,29.87c-11.7,0-21.83-1.19-26.73-7.77l2.82,14.51c.33,1.67-.95,3.23-2.66,3.23h-12.01c-1.71,0-2.99-1.56-2.66-3.23l2.82-14.51Zm24.73-27.54c0-10.44-8.45-18.89-18.89-18.89s-18.89,8.45-18.89,18.89,8.46,18.89,18.89,18.89,18.89-8.46,18.89-18.89Z"/><circle class="cls-3" cx="80.54" cy="129.79" r="18.89"/><line class="cls-3" x1="74.76" y1="157.02" x2="74.7" y2="157.33"/><line class="cls-3" x1="86.39" y1="157.33" x2="86.33" y2="157.02"/><path class="cls-3" d="m85.89,57.46c13.94,2.51,24.53,14.71,24.53,29.39,0,7.45-2.72,14.26-7.24,19.49,2.88-.64,6.17-.98,9.94-.98,16.5,0,29.87,13.37,29.87,29.87s-13.37,29.87-29.87,29.87c-11.7,0-21.83-1.19-26.73-7.77l2.82,14.51c.33,1.67-.95,3.23-2.66,3.23h-12.01c-1.71,0-2.99-1.56-2.66-3.23l2.82-14.51c-4.9,6.58-15.03,7.77-26.73,7.77-16.5,0-29.87-13.37-29.87-29.87s13.37-29.87,29.87-29.87c3.77,0,7.06.34,9.94.98-4.51-5.23-7.24-12.04-7.24-19.49,0-6.64,2.16-12.78,5.83-17.73"/><path class="cls-3" d="m85.89,57.46c-.05.15-.17.27-.34.34l-29.05,11.32-.31.12c-.26.1-.55.02-.73-.2l-9.51-12.18c-.38-.48.08-1.17.67-1l8.31,2.36c.33.09.67-.1.77-.42l1.81-5.84c.11-.36.52-.54.86-.39l4.96,2.24c.35.16.75-.02.86-.38l2.54-8.01c.13-.4.62-.57.97-.32l6.47,4.6c.31.22.75.12.93-.22l6.22-11.68c.28-.53,1.07-.41,1.17.18l3.45,19.12c.02.13.01.25-.05.36Z"/><path class="cls-3" d="m86.24,132.38s-.02.09-.03.14"/><path class="cls-3" d="m86.84,131.37c-.05.05-.11.1-.16.16-.04.05-.09.11-.13.16"/><path class="cls-3" d="m86.2,132.74c.02.65.43,1.22,1.09,1.66.73.47,1.76.77,2.91.77,2.21,0,4-1.1,4-2.47s-1.79-2.46-4-2.46c-1.38,0-2.6.43-3.32,1.09"/><path class="cls-3" d="m86.2,132.74c0,.72.44,1.35,1.09,1.66.27.14.58.21.91.21,1.11,0,2-.84,2-1.87s-.89-1.88-2-1.88c-.51,0-.97.18-1.32.47-.02.01-.03.03-.04.04-.06.05-.11.1-.16.16-.05.05-.09.1-.13.16-.16.2-.26.44-.31.69-.01.05-.02.09-.03.14,0,.07,0,.14,0,.22Z"/><path class="cls-3" d="m64.66,132.38s-.02.09-.03.14"/><path class="cls-3" d="m65.29,131.34c-.14.12-.26.26-.36.4-.09.14-.16.28-.21.42"/><path class="cls-3" d="m64.62,132.74c.02.64.43,1.22,1.09,1.66.73.47,1.76.77,2.91.77,2.2,0,4-1.1,4-2.47s-1.8-2.46-4-2.46c-1.38,0-2.6.43-3.32,1.09"/><path class="cls-3" d="m64.62,132.74c0,.72.44,1.35,1.09,1.66.27.14.58.21.91.21,1.1,0,2-.84,2-1.87s-.9-1.88-2-1.88c-.5,0-.97.18-1.32.47t-.01.01c-.14.11-.26.25-.36.4-.09.13-.16.27-.21.42-.03.07-.05.14-.06.22,0,.05-.02.09-.03.14-.01.07-.01.14-.01.22Z"/><path class="cls-3" d="m75.93,140c0,2.25,1.83,4.08,4.09,4.08s4.08-1.83,4.08-4.08"/></g></svg>