<?xml version="1.0" encoding="UTF-8"?><svg id="Layer_2" xmlns="http://www.w3.org/2000/svg" viewBox="0 0 161.09 234.55"><defs><style>.cls-1{fill:#ecede8;}.cls-1,.cls-2{stroke-width:0px;}.cls-3{fill:none;stroke:#000;stroke-linecap:round;stroke-linejoin:round;stroke-width:.5px;}.cls-2{fill:#8b001b;}</style></defs><g id="Layer_2-2"><rect class="cls-1" width="161.09" height="234.55" rx="5" ry="5"/><path class="cls-2" d="m141.84,213c0-1.19-.22-1.33-.65-1.33-.76,0-2.27,1.4-2.88,2.09-1.91,2.12-4,4.36-5.15,6.05-.32.47-.47.79-.47.94,0,.14.14.4.61.47l1.26.22c.4.25.32,1.12-.14,1.26-1.84-.07-3.17-.11-4.46-.11s-2.92.04-4.36.11c-.43-.14-.47-.97-.18-1.26,1.26-.14,2.34-.32,3.1-.65,1.44-.58,2.99-1.94,5.33-4.61l1.66-1.87c.36-.4.47-.68.47-.83,0-.18-.22-.61-1.3-2.23-1.8-2.7-3.92-6.16-6.37-9.39-.97-1.3-1.66-1.55-2.66-1.69l-1.15-.18c-.22-.32-.22-1.08.11-1.26,1.8.07,3.53.11,5.18.11,1.84,0,3.64-.04,5.65-.11.47.14.47,1.04.07,1.26l-.9.22c-.4.11-.61.22-.61.36s.07.4.29.72l2.09,3.2,1.91,2.92c1.3,1.98,1.91,2.84,2.7,2.84s.86-.5.86-2.45v-3.78c0-3.35-.22-3.67-1.84-3.89l-1.01-.14c-.29-.25-.29-1.04,0-1.26,1.91.07,3.71.11,5.44.11,1.62,0,3.49-.04,5.4-.11.29.22.29,1.04,0,1.26l-1.01.14c-1.62.22-1.84.54-1.84,3.89v13.39c0,3.35.22,3.67,1.84,3.89l1.01.14c.4.22.4,1.04,0,1.26-1.8-.07-3.6-.11-5.4-.11s-3.53.04-5.44.11c-.32-.22-.32-1.04,0-1.26l1.01-.14c1.62-.22,1.84-.54,1.84-3.89v-4.39Z"/><polygon class="cls-2" points="137.24 190.58 144.28 181.3 137.24 172.01 130.2 181.3 137.24 190.58"/><path class="cls-2" d="m19.25,21.56c0,1.19.22,1.33.65,1.33.76,0,2.27-1.4,2.88-2.09,1.91-2.12,4-4.36,5.15-6.05.32-.47.47-.79.47-.94s-.14-.4-.61-.47l-1.26-.22c-.4-.25-.32-1.12.14-1.26,1.84.07,3.17.11,4.46.11s2.92-.04,4.36-.11c.43.14.47.97.18,1.26-1.26.14-2.34.32-3.1.65-1.44.58-2.99,1.94-5.33,4.61l-1.66,1.87c-.36.4-.47.68-.47.83,0,.18.22.61,1.3,2.23,1.8,2.7,3.92,6.16,6.37,9.39.97,1.3,1.66,1.55,2.66,1.69l1.15.18c.22.32.22,1.08-.11,1.26-1.8-.07-3.53-.11-5.18-.11-1.84,0-3.64.04-5.65.11-.47-.14-.47-1.04-.07-1.26l.9-.22c.4-.11.61-.22.61-.36s-.07-.4-.29-.72l-2.09-3.2-1.91-2.92c-1.3-1.98-1.91-2.84-2.7-2.84s-.86.5-.86,2.45v3.78c0,3.35.22,3.67,1.84,3.89l1.01.14c.29.25.29,1.04,0,1.26-1.91-.07-3.71-.11-5.44-.11-1.62,0-3.49.04-5.4.11-.29-.22-.29-1.04,0-1.26l1.01-.14c1.62-.22,1.84-.54,1.84-3.89v-13.39c0-3.35-.22-3.67-1.84-3.89l-1.01-.14c-.4-.22-.4-1.04,0-1.26,1.8.07,3.6.11,5.4.11s3.53-.04,5.44-.11c.32.22.32,1.04,0,1.26l-1.01.14c-1.62.22-1.84.54-1.84,3.89v4.39Z"/><polygon class="cls-2" points="23.86 43.97 16.82 53.26 23.86 62.54 30.9 53.26 23.86 43.97"/><path class="cls-2" d="m80.55,61.71l2.83,3.73-5.04,6.05c-.24.29-.68.3-.94.03l-2.38-2.51,5.53-7.3Z"/><path class="cls-2" d="m64.95,83.1l31.5.52c.21,0,.4-.1.52-.26l30.83,40.65-47.25,62.3-47.25-62.3,31.19-41.13c.11.14.28.22.46.22Zm-2.85,54.01c0,10.44,8.46,18.9,18.9,18.9s18.89-8.46,18.89-18.9-8.46-18.89-18.89-18.89-18.9,8.46-18.9,18.89Z"/><polyline class="cls-3" points="75.02 69.01 80.55 61.71 83.38 65.44"/><polyline class="cls-3" points="96.97 83.36 127.8 124.01 80.55 186.31 33.3 124.01 64.49 82.88"/><path class="cls-3" d="m99.89,137.11c0,10.44-8.46,18.9-18.89,18.9s-18.9-8.46-18.9-18.9,8.46-18.89,18.9-18.89,18.89,8.46,18.89,18.89Z"/><path class="cls-3" d="m83.38,65.44l.33-.4c.28-.33.79-.3,1.02.06l4.26,6.71c.2.32.64.39.94.15l10.17-8.46c.46-.39,1.15.03,1.02.61l-4.04,19.01c-.02.09-.06.17-.11.24-.12.16-.31.26-.52.26l-31.5-.52c-.18,0-.35-.08-.46-.22-.07-.07-.11-.15-.14-.24l-4.2-14.88c-.16-.58.52-1.04,1-.66l6.8,5.32c.27.21.66.17.88-.1l3.88-4.71c.24-.3.68-.31.94-.04l1.37,1.44,2.38,2.51c.26.27.7.26.94-.03l5.04-6.05Z"/><path class="cls-3" d="m86.97,139.07c-.09.13-.16.28-.21.42"/><path class="cls-3" d="m87.83,141.77c.72.45,1.72.73,2.83.73,2.21,0,4-1.11,4-2.47s-1.79-2.47-4-2.47c-1.42,0-2.67.46-3.38,1.15-.05.05-.09.1-.14.14-.04.06-.09.11-.14.17"/><path class="cls-3" d="m86.66,140.06c0,.08.01.15.02.22.1.57.51,1.09,1.12,1.47"/><path class="cls-3" d="m86.66,140.06c0,.08,0,.15.02.22.07.66.51,1.21,1.12,1.47,0,.01.02.02.03.02.25.11.53.17.83.17,1.1,0,2-.84,2-1.88s-.9-1.87-2-1.87c-.53,0-1.02.2-1.38.52-.05.04-.09.08-.14.14-.05.05-.1.11-.14.17-.01.01-.03.03-.03.05-.09.13-.16.27-.21.42-.07.18-.1.37-.1.57Z"/><path class="cls-3" d="m65.53,138.87c-.11.14-.21.28-.28.43"/><path class="cls-3" d="m66.29,141.79c.72.44,1.7.71,2.78.71,2.21,0,4-1.11,4-2.47s-1.79-2.47-4-2.47c-1.44,0-2.71.47-3.41,1.18"/><path class="cls-3" d="m65.07,140.06c0,.08.01.15.02.22.1.57.51,1.09,1.12,1.47"/><path class="cls-3" d="m65.07,140.06c0,.08,0,.15.02.22.08.66.51,1.21,1.12,1.47.03.02.06.03.08.04.24.1.5.15.78.15,1.11,0,2-.84,2-1.88s-.89-1.87-2-1.87c-.55,0-1.05.21-1.41.55-.05.04-.09.09-.13.13-.12.13-.21.27-.28.43-.12.23-.18.49-.18.76Z"/><path class="cls-3" d="m76.39,147.32c0,2.26,1.83,4.09,4.09,4.09s4.08-1.83,4.08-4.09"/></g></svg>