<?xml version="1.0" encoding="UTF-8"?><svg id="Layer_2" xmlns="http://www.w3.org/2000/svg" viewBox="0 0 161.09 234.55"><defs><style>.cls-1{fill:#ecede8;}.cls-1,.cls-2{stroke-width:0px;}.cls-3{fill:none;stroke:#000;stroke-linecap:round;stroke-linejoin:round;stroke-width:.5px;}.cls-2{fill:#8b001b;}</style></defs><g id="Layer_2-2"><rect class="cls-1" width="161.09" height="234.55" rx="5" ry="5"/><path class="cls-2" d="m141.84,213c0-1.19-.22-1.33-.65-1.33-.76,0-2.27,1.4-2.88,2.09-1.91,2.12-4,4.36-5.15,6.05-.32.47-.47.79-.47.94,0,.14.14.4.61.47l1.26.22c.4.25.32,1.12-.14,1.26-1.84-.07-3.17-.11-4.46-.11s-2.92.04-4.36.11c-.43-.14-.47-.97-.18-1.26,1.26-.14,2.34-.32,3.1-.65,1.44-.58,2.99-1.94,5.33-4.61l1.66-1.87c.36-.4.47-.68.47-.83,0-.18-.22-.61-1.3-2.23-1.8-2.7-3.92-6.16-6.37-9.39-.97-1.3-1.66-1.55-2.66-1.69l-1.15-.18c-.22-.32-.22-1.08.11-1.26,1.8.07,3.53.11,5.18.11,1.84,0,3.64-.04,5.65-.11.47.14.47,1.04.07,1.26l-.9.22c-.4.11-.61.22-.61.36,0,.14.07.4.29.72l2.09,3.2,1.91,2.92c1.3,1.98,1.91,2.84,2.7,2.84s.86-.5.86-2.45v-3.78c0-3.35-.22-3.67-1.84-3.89l-1.01-.14c-.29-.25-.29-1.04,0-1.26,1.91.07,3.71.11,5.44.11,1.62,0,3.49-.04,5.4-.11.29.22.29,1.04,0,1.26l-1.01.14c-1.62.22-1.84.54-1.84,3.89v13.39c0,3.35.22,3.67,1.84,3.89l1.01.14c.4.22.4,1.04,0,1.26-1.8-.07-3.6-.11-5.4-.11s-3.53.04-5.44.11c-.32-.22-.32-1.04,0-1.26l1.01-.14c1.62-.22,1.84-.54,1.84-3.89v-4.39Z"/><path class="cls-2" d="m130.27,184.16c.2,1.21.74,2.05,1.8,2.68.9.54,2.06.54,3.03.15.51-.2.97-.38,1.39-.63.27-.16.52-.34.76-.58.23.23.49.42.76.58.42.25.88.43,1.39.63.98.38,2.13.38,3.03-.15,1.05-.63,1.59-1.47,1.8-2.68.17-1.01.02-2.06-.3-3.03-.33-1.01-1.11-2.03-1.88-2.77-.77-.74-1.4-1.2-2.32-1.74-.74-.44-1.49-.85-2.25-1.23-.14-.07-.3-.07-.44,0-.77.38-1.52.79-2.25,1.23-.91.55-1.55,1.01-2.32,1.74-.77.74-1.54,1.75-1.88,2.77-.32.97-.47,2.03-.3,3.03Z"/><path class="cls-2" d="m19.25,21.56c0,1.19.22,1.33.65,1.33.76,0,2.27-1.4,2.88-2.09,1.91-2.12,4-4.36,5.15-6.05.32-.47.47-.79.47-.94s-.14-.4-.61-.47l-1.26-.22c-.4-.25-.32-1.12.14-1.26,1.84.07,3.17.11,4.46.11s2.92-.04,4.36-.11c.43.14.47.97.18,1.26-1.26.14-2.34.32-3.1.65-1.44.58-2.99,1.94-5.33,4.61l-1.66,1.87c-.36.4-.47.68-.47.83,0,.18.22.61,1.3,2.23,1.8,2.7,3.92,6.16,6.37,9.39.97,1.3,1.66,1.55,2.66,1.69l1.15.18c.22.32.22,1.08-.11,1.26-1.8-.07-3.53-.11-5.18-.11-1.84,0-3.64.04-5.65.11-.47-.14-.47-1.04-.07-1.26l.9-.22c.4-.11.61-.22.61-.36s-.07-.4-.29-.72l-2.09-3.2-1.91-2.92c-1.3-1.98-1.91-2.84-2.7-2.84s-.86.5-.86,2.45v3.78c0,3.35.22,3.67,1.84,3.89l1.01.14c.29.25.29,1.04,0,1.26-1.91-.07-3.71-.11-5.44-.11-1.62,0-3.49.04-5.4.11-.29-.22-.29-1.04,0-1.26l1.01-.14c1.62-.22,1.84-.54,1.84-3.89v-13.39c0-3.35-.22-3.67-1.84-3.89l-1.01-.14c-.4-.22-.4-1.04,0-1.26,1.8.07,3.6.11,5.4.11s3.53-.04,5.44-.11c.32.22.32,1.04,0,1.26l-1.01.14c-1.62.22-1.84.54-1.84,3.89v4.39Z"/><path class="cls-2" d="m30.83,50.4c-.2-1.21-.74-2.05-1.8-2.68-.9-.54-2.06-.54-3.03-.15-.51.2-.97.38-1.39.63-.27.16-.52.34-.76.58-.23-.23-.49-.42-.76-.58-.42-.25-.88-.43-1.39-.63-.98-.38-2.13-.38-3.03.15-1.05.63-1.59,1.47-1.8,2.68-.17,1.01-.02,2.06.3,3.03.33,1.01,1.11,2.03,1.88,2.77.77.74,1.4,1.2,2.32,1.74.74.44,1.49.85,2.25,1.23.14.07.3.07.44,0,.77-.38,1.52-.79,2.25-1.23.91-.55,1.55-1.01,2.32-1.74.77-.74,1.54-1.75,1.88-2.77.32-.97.47-2.03.3-3.03Z"/><path class="cls-2" d="m96.12,80.06c.07.09.17.15.27.18l30.12,8.76c2.75,3.64,4.44,7.95,5.32,13.15,1.3,7.71.13,15.76-2.31,23.19-2.55,7.73-8.47,15.52-14.35,21.14-5.89,5.62-10.73,9.14-17.72,13.31-5.62,3.34-11.36,6.47-17.22,9.38-1.06.53-2.31.53-3.36,0-5.86-2.91-11.61-6.04-17.23-9.38-6.99-4.17-11.83-7.69-17.71-13.31-5.89-5.62-11.81-13.41-14.35-21.14-2.45-7.43-3.62-15.48-2.32-23.19,1.56-9.23,5.69-15.68,13.73-20.48,6.88-4.1,15.72-4.09,23.18-1.18,3.87,1.51,7.39,2.91,10.59,4.8,2.07,1.21,4,2.63,5.79,4.4,1.79-1.77,3.72-3.19,5.78-4.4,3.2-1.89,6.72-3.29,10.59-4.8.4-.15.8-.3,1.2-.43Zm1.32,59.27c0-10.44-8.46-18.9-18.9-18.9s-18.89,8.46-18.89,18.9,8.46,18.89,18.89,18.89,18.9-8.46,18.9-18.89Z"/><path class="cls-3" d="m59.65,139.33c0-10.44,8.46-18.9,18.89-18.9s18.9,8.46,18.9,18.9-8.46,18.89-18.9,18.89-18.89-8.46-18.89-18.89Z"/><path class="cls-3" d="m126.51,89c2.75,3.64,4.44,7.95,5.32,13.15,1.3,7.71.13,15.76-2.31,23.19-2.55,7.73-8.47,15.52-14.35,21.14-5.89,5.62-10.73,9.14-17.72,13.31-5.62,3.34-11.36,6.47-17.22,9.38-1.06.53-2.31.53-3.36,0-5.86-2.91-11.61-6.04-17.23-9.38-6.99-4.17-11.83-7.69-17.71-13.31-5.89-5.62-11.81-13.41-14.35-21.14-2.45-7.43-3.62-15.48-2.32-23.19,1.56-9.23,5.69-15.68,13.73-20.48,6.88-4.1,15.72-4.09,23.18-1.18,3.87,1.51,7.39,2.91,10.59,4.8,2.07,1.21,4,2.63,5.79,4.4,1.79-1.77,3.72-3.19,5.78-4.4,3.2-1.89,6.72-3.29,10.59-4.8.4-.15.8-.3,1.2-.43"/><path class="cls-3" d="m96.12,80.06c-.11-.1-.18-.25-.18-.42l-.13-15.46c0-.61.77-.87,1.14-.38l5.16,6.93c.2.27.59.33.87.14l4.98-3.53c.31-.22.74-.12.92.21l2.57,4.8c.18.33.61.43.92.21l6.88-4.8c.36-.25.84-.08.97.33l2.34,7.59c.11.37.52.55.86.39l12.05-5.48c.55-.25,1.1.33.82.86l-8.9,17.27c-.14.27-.45.4-.74.32l-.14-.04-30.12-8.76c-.1-.03-.2-.09-.27-.18Z"/><path class="cls-3" d="m84.2,142.27c0,.08.01.15.02.22.09.56.48,1.06,1.07,1.45.73.47,1.76.77,2.91.77,2.21,0,4-1.11,4-2.47s-1.79-2.47-4-2.47c-1.44,0-2.71.47-3.41,1.18"/><path class="cls-3" d="m84.2,142.27c0,.08,0,.15.02.22.07.64.49,1.17,1.07,1.45.27.14.58.21.91.21,1.11,0,2-.84,2-1.88s-.89-1.87-2-1.87c-.55,0-1.05.21-1.41.55s-.59.8-.59,1.32Z"/><path class="cls-3" d="m62.93,141.28c-.09.14-.16.28-.22.43"/><path class="cls-3" d="m62.62,142.27c0,.08.01.15.02.22.09.56.48,1.06,1.07,1.45.73.47,1.76.77,2.91.77,2.21,0,4-1.11,4-2.47s-1.79-2.47-4-2.47c-1.42,0-2.67.46-3.38,1.15-.05.04-.09.09-.14.14-.04.06-.09.11-.14.17"/><path class="cls-3" d="m62.62,142.27c0,.08,0,.15.02.22.07.64.49,1.17,1.07,1.45.27.14.58.21.91.21,1.1,0,2-.84,2-1.88s-.9-1.87-2-1.87c-.53,0-1.02.2-1.38.52-.05.04-.09.08-.14.14-.05.05-.1.11-.14.17,0,.01-.03.03-.03.05-.1.13-.17.28-.22.43-.06.18-.09.37-.09.56Z"/><path class="cls-3" d="m73.94,149.53c0,2.26,1.83,4.09,4.08,4.09s4.09-1.83,4.09-4.09"/></g></svg>