<?xml version="1.0" encoding="UTF-8"?><svg id="Layer_2" xmlns="http://www.w3.org/2000/svg" viewBox="0 0 161.09 234.55"><defs><style>.cls-1{fill:#ecede8;}.cls-1,.cls-2{stroke-width:0px;}.cls-2{fill:#1a1a1a;}.cls-3{fill:none;stroke:#000;stroke-linecap:round;stroke-linejoin:round;stroke-width:.5px;}</style></defs><g id="Layer_2-2"><rect class="cls-1" width="161.09" height="234.55" rx="5" ry="5"/><path class="cls-2" d="m141.84,213c0-1.19-.22-1.33-.65-1.33-.76,0-2.27,1.4-2.88,2.09-1.91,2.12-4,4.36-5.15,6.05-.32.47-.47.79-.47.94s.14.4.61.47l1.26.22c.4.25.32,1.12-.14,1.26-1.84-.07-3.17-.11-4.46-.11s-2.92.04-4.36.11c-.43-.14-.47-.97-.18-1.26,1.26-.14,2.34-.32,3.1-.65,1.44-.58,2.99-1.94,5.33-4.61l1.66-1.87c.36-.4.47-.68.47-.83,0-.18-.22-.61-1.3-2.23-1.8-2.7-3.92-6.16-6.37-9.39-.97-1.3-1.66-1.55-2.66-1.69l-1.15-.18c-.22-.32-.22-1.08.11-1.26,1.8.07,3.53.11,5.18.11,1.84,0,3.64-.04,5.65-.11.47.14.47,1.04.07,1.26l-.9.22c-.4.11-.61.22-.61.36,0,.14.07.4.29.72l2.09,3.2,1.91,2.92c1.3,1.98,1.91,2.84,2.7,2.84s.86-.5.86-2.45v-3.78c0-3.35-.22-3.67-1.84-3.89l-1.01-.14c-.29-.25-.29-1.04,0-1.26,1.91.07,3.71.11,5.44.11,1.62,0,3.49-.04,5.4-.11.29.22.29,1.04,0,1.26l-1.01.14c-1.62.22-1.84.54-1.84,3.89v13.39c0,3.35.22,3.67,1.84,3.89l1.01.14c.4.22.4,1.04,0,1.26-1.8-.07-3.6-.11-5.4-.11s-3.53.04-5.44.11c-.32-.22-.32-1.04,0-1.26l1.01-.14c1.62-.22,1.84-.54,1.84-3.89v-4.39Z"/><path class="cls-2" d="m130.57,182.23c.33,1.01,1.11,2.03,1.88,2.77.77.74,1.4,1.2,2.32,1.74.66.4,1.34.77,2.03,1.12.28.14.6.14.88,0,.69-.35,1.37-.72,2.03-1.12.91-.54,1.55-1.01,2.32-1.74.77-.74,1.55-1.75,1.88-2.77.32-.97.47-2.03.3-3.03-.2-1.21-.74-2.05-1.8-2.68-.9-.54-2.06-.54-3.03-.15-.51.2-.97.38-1.39.63l.38-1.94c.04-.22-.12-.42-.35-.42h-1.57c-.22,0-.39.2-.35.42l.38,1.94c-.42-.25-.88-.43-1.39-.63-.98-.38-2.13-.38-3.03.15-1.05.63-1.59,1.47-1.8,2.68-.17,1.01-.02,2.06.3,3.03Z"/><path class="cls-2" d="m19.25,21.56c0,1.19.22,1.33.65,1.33.76,0,2.27-1.4,2.88-2.09,1.91-2.12,4-4.36,5.15-6.05.32-.47.47-.79.47-.94s-.14-.4-.61-.47l-1.26-.22c-.4-.25-.32-1.12.14-1.26,1.84.07,3.17.11,4.46.11s2.92-.04,4.36-.11c.43.14.47.97.18,1.26-1.26.14-2.34.32-3.1.65-1.44.58-2.99,1.94-5.33,4.61l-1.66,1.87c-.36.4-.47.68-.47.83,0,.18.22.61,1.3,2.23,1.8,2.7,3.92,6.16,6.37,9.39.97,1.3,1.66,1.55,2.66,1.69l1.15.18c.22.32.22,1.08-.11,1.26-1.8-.07-3.53-.11-5.18-.11-1.84,0-3.64.04-5.65.11-.47-.14-.47-1.04-.07-1.26l.9-.22c.4-.11.61-.22.61-.36s-.07-.4-.29-.72l-2.09-3.2-1.91-2.92c-1.3-1.98-1.91-2.84-2.7-2.84s-.86.5-.86,2.45v3.78c0,3.35.22,3.67,1.84,3.89l1.01.14c.29.25.29,1.04,0,1.26-1.91-.07-3.71-.11-5.44-.11-1.62,0-3.49.04-5.4.11-.29-.22-.29-1.04,0-1.26l1.01-.14c1.62-.22,1.84-.54,1.84-3.89v-13.39c0-3.35-.22-3.67-1.84-3.89l-1.01-.14c-.4-.22-.4-1.04,0-1.26,1.8.07,3.6.11,5.4.11s3.53-.04,5.44-.11c.32.22.32,1.04,0,1.26l-1.01.14c-1.62.22-1.84.54-1.84,3.89v4.39Z"/><path class="cls-2" d="m30.53,52.32c-.33-1.01-1.11-2.03-1.88-2.77-.77-.74-1.4-1.2-2.32-1.74-.66-.4-1.34-.77-2.03-1.12-.28-.14-.6-.14-.88,0-.69.35-1.37.72-2.03,1.12-.91.54-1.55,1.01-2.32,1.74-.77.74-1.55,1.75-1.88,2.77-.32.97-.47,2.03-.3,3.03.2,1.21.74,2.05,1.8,2.68.9.54,2.06.54,3.03.15.51-.2.97-.38,1.39-.63l-.38,1.94c-.04.22.12.42.35.42h1.57c.22,0,.39-.2.35-.42l-.38-1.94c.42.25.88.43,1.39.63.98.38,2.13.38,3.03-.15,1.05-.63,1.59-1.47,1.8-2.68.17-1.01.02-2.06-.3-3.03Z"/><path class="cls-2" d="m64.91,80.83c.09.06.2.09.32.09l31.5.51c.12,0,.23-.03.32-.09.8.45,1.6.92,2.4,1.4,6.99,4.16,11.83,7.69,17.72,13.31,5.88,5.62,11.8,13.41,14.35,21.14,2.44,7.43,3.61,15.48,2.31,23.19-1.56,9.23-5.69,15.68-13.73,20.48-6.88,4.1-15.71,4.09-23.18,1.18-3.87-1.51-7.39-2.91-10.59-4.8l2.88,14.82c.33,1.67-.95,3.23-2.66,3.23h-12.01c-1.71,0-2.99-1.56-2.66-3.23l2.88-14.82c-3.2,1.89-6.72,3.29-10.59,4.8-7.46,2.91-16.3,2.92-23.18-1.18-8.04-4.8-12.17-11.25-13.73-20.48-1.3-7.71-.13-15.76,2.32-23.19,2.54-7.73,8.46-15.52,14.35-21.14,5.88-5.62,10.72-9.15,17.71-13.31,1.08-.65,2.17-1.29,3.27-1.91Zm34.53,46.71c0-10.43-8.46-18.89-18.89-18.89s-18.9,8.46-18.9,18.89,8.46,18.89,18.9,18.89,18.89-8.46,18.89-18.89Z"/><path class="cls-3" d="m61.65,127.54c0-10.43,8.46-18.89,18.9-18.89s18.89,8.46,18.89,18.89-8.46,18.89-18.89,18.89-18.9-8.46-18.9-18.89Z"/><path class="cls-3" d="m97.05,81.34c.8.45,1.6.92,2.4,1.4,6.99,4.16,11.83,7.69,17.72,13.31,5.88,5.62,11.8,13.41,14.35,21.14,2.44,7.43,3.61,15.48,2.31,23.19-1.56,9.23-5.69,15.68-13.73,20.48-6.88,4.1-15.71,4.09-23.18,1.18-3.87-1.51-7.39-2.91-10.59-4.8l2.88,14.82c.33,1.67-.95,3.23-2.66,3.23h-12.01c-1.71,0-2.99-1.56-2.66-3.23l2.88-14.82c-3.2,1.89-6.72,3.29-10.59,4.8-7.46,2.91-16.3,2.92-23.18-1.18-8.04-4.8-12.17-11.25-13.73-20.48-1.3-7.71-.13-15.76,2.32-23.19,2.54-7.73,8.46-15.52,14.35-21.14,5.88-5.62,10.72-9.15,17.71-13.31,1.08-.65,2.17-1.29,3.27-1.91"/><path class="cls-3" d="m64.91,80.83c-.13-.08-.23-.21-.28-.37l-4.2-14.88c-.17-.59.52-1.04,1-.67l6.8,5.33c.27.21.66.17.88-.1l3.87-4.72c.25-.29.69-.31.95-.03l3.74,3.95c.26.27.7.26.95-.03l5.37-6.45c.27-.33.79-.3,1.02.06l4.26,6.71c.2.32.64.39.93.15l10.18-8.47c.46-.38,1.14.03,1.02.62l-4.04,19c-.04.18-.16.33-.31.41-.09.06-.2.09-.32.09l-31.5-.51c-.12,0-.23-.03-.32-.09Z"/><path class="cls-3" d="m86.25,130.13s-.02.09-.03.14"/><path class="cls-3" d="m86.21,130.49c.02.64.43,1.22,1.09,1.66.73.47,1.76.77,2.91.77,2.2,0,4-1.1,4-2.47s-1.8-2.46-4-2.46c-1.42,0-2.67.46-3.38,1.14-.05.05-.09.1-.14.14-.12.14-.22.29-.3.45"/><path class="cls-3" d="m86.21,130.49c0,.73.44,1.36,1.09,1.66.27.14.58.21.91.21,1.1,0,2-.84,2-1.87s-.9-1.88-2-1.88c-.54,0-1.03.2-1.38.52-.05.04-.09.08-.14.14-.12.13-.23.28-.3.45-.07.13-.11.27-.14.41-.01.05-.02.09-.03.14-.01.07-.01.14-.01.22Z"/><path class="cls-3" d="m64.66,130.13s-.02.09-.03.14"/><path class="cls-3" d="m64.62,130.49c.02.64.43,1.22,1.09,1.66.73.47,1.76.77,2.91.77,2.21,0,4-1.1,4-2.47s-1.79-2.46-4-2.46c-1.44,0-2.71.47-3.41,1.17"/><path class="cls-3" d="m64.62,130.49c0,.72.44,1.35,1.09,1.66.27.14.58.21.91.21,1.1,0,2-.84,2-1.87s-.9-1.88-2-1.88c-.55,0-1.05.21-1.41.55-.28.26-.48.59-.55.97-.01.05-.02.09-.03.14-.01.07-.01.14-.01.22Z"/><path class="cls-3" d="m75.94,137.75c0,2.25,1.83,4.08,4.08,4.08s4.09-1.83,4.09-4.08"/></g></svg>