<?xml version="1.0" encoding="UTF-8"?><svg id="Layer_2" xmlns="http://www.w3.org/2000/svg" viewBox="0 0 161.09 234.55"><defs><style>.cls-1{fill:#ecede8;}.cls-1,.cls-2{stroke-width:0px;}.cls-2{fill:#1a1a1a;}.cls-3{fill:none;stroke:#000;stroke-linecap:round;stroke-linejoin:round;stroke-width:.5px;}</style></defs><g id="Layer_2-2"><rect class="cls-1" width="161.09" height="234.55" rx="5" ry="5"/><path class="cls-2" d="m124.17,210.76c0-5.83,2.88-9.9,7.52-11.63.25-.14.14-.4-.32-.83-2.3-2.16-5.08-4.46-7.81-5.18-1.04-.25-2.09-.29-2.7-.29-.5,0-1.08.11-1.55.29-.32-.14-.43-.58-.32-.86,1.33-.94,3.38-1.33,5.15-1.33,5.18,0,9.65,2.74,12.99,6.19.68.72,1.04,1.15,1.91,1.22,5.9.5,10.62,5.11,10.62,12.17s-5.33,12.63-12.85,12.63c-7.49,0-12.63-5-12.63-12.38Zm19.73.58c0-4.39-1.55-11.48-7.42-11.48-4.72,0-6.55,4.64-6.55,10.47,0,6.16,2.7,11.16,7.16,11.16s6.8-4.14,6.8-10.15Z"/><path class="cls-2" d="m130.63,182.5c.43,0,.8-.04,1.12-.11-.51.59-.82,1.36-.82,2.2,0,1.86,1.51,3.37,3.37,3.37s3.37-1.51,3.37-3.37c0-.84-.31-1.61-.82-2.2.32.07.7.11,1.12.11,1.86,0,3.37-1.51,3.37-3.37s-1.51-3.37-3.37-3.37c-1.32,0-2.46.13-3.01.88l.32-1.64c.04-.19-.11-.36-.3-.36h-1.35c-.19,0-.34.18-.3.36l.32,1.64c-.55-.74-1.69-.88-3.01-.88-1.86,0-3.37,1.51-3.37,3.37s1.51,3.37,3.37,3.37Z"/><path class="cls-2" d="m36.92,23.79c0,5.83-2.88,9.9-7.52,11.63-.25.14-.14.4.32.83,2.3,2.16,5.08,4.46,7.81,5.18,1.04.25,2.09.29,2.7.29.5,0,1.08-.11,1.55-.29.32.14.43.58.32.86-1.33.94-3.38,1.33-5.15,1.33-5.18,0-9.65-2.74-12.99-6.19-.68-.72-1.04-1.15-1.91-1.22-5.9-.5-10.62-5.11-10.62-12.17s5.33-12.63,12.85-12.63,12.63,5,12.63,12.38Zm-19.73-.58c0,4.39,1.55,11.48,7.42,11.48,4.72,0,6.55-4.64,6.55-10.47,0-6.16-2.7-11.16-7.16-11.16s-6.8,4.14-6.8,10.15Z"/><path class="cls-2" d="m30.47,52.05c-.43,0-.8.04-1.12.11.51-.59.82-1.36.82-2.2,0-1.86-1.51-3.37-3.37-3.37s-3.37,1.51-3.37,3.37c0,.84.31,1.61.82,2.2-.32-.07-.7-.11-1.12-.11-1.86,0-3.37,1.51-3.37,3.37s1.51,3.37,3.37,3.37c1.32,0,2.46-.13,3.01-.88l-.32,1.64c-.04.19.11.36.3.36h1.35c.19,0,.34-.18.3-.36l-.32-1.64c.55.74,1.69.88,3.01.88,1.86,0,3.37-1.51,3.37-3.37s-1.51-3.37-3.37-3.37Z"/><path class="cls-2" d="m74.7,157.33c-4.9,6.58-15.03,7.77-26.73,7.77-16.5,0-29.87-13.37-29.87-29.87s13.37-29.87,29.87-29.87c3.77,0,7.06.34,9.94.98-4.51-5.23-7.24-12.04-7.24-19.49,0-14.12,9.8-25.95,22.97-29.06l.02.09,13.7-.11c13.21,3.07,23.06,14.93,23.06,29.08,0,7.45-2.72,14.26-7.24,19.49,2.88-.64,6.17-.98,9.94-.98,16.5,0,29.87,13.37,29.87,29.87s-13.37,29.87-29.87,29.87c-11.7,0-21.83-1.19-26.73-7.77l2.82,14.51c.33,1.67-.95,3.23-2.66,3.23h-12.01c-1.71,0-2.99-1.56-2.66-3.23l2.82-14.51Zm5.85-8.65c10.43,0,18.89-8.46,18.89-18.89s-8.46-18.89-18.89-18.89-18.9,8.45-18.9,18.89,8.46,18.89,18.9,18.89Z"/><path class="cls-3" d="m99.44,129.79c0-10.44-8.46-18.89-18.89-18.89s-18.9,8.45-18.9,18.89,8.46,18.89,18.9,18.89,18.89-8.46,18.89-18.89Z"/><line class="cls-3" x1="74.76" y1="157.02" x2="74.7" y2="157.33"/><line class="cls-3" x1="86.39" y1="157.33" x2="86.33" y2="157.02"/><path class="cls-3" d="m87.36,57.77c13.21,3.07,23.06,14.93,23.06,29.08,0,7.45-2.72,14.26-7.24,19.49,2.88-.64,6.17-.98,9.94-.98,16.5,0,29.87,13.37,29.87,29.87s-13.37,29.87-29.87,29.87c-11.7,0-21.83-1.19-26.73-7.77l2.82,14.51c.33,1.67-.95,3.23-2.66,3.23h-12.01c-1.71,0-2.99-1.56-2.66-3.23l2.82-14.51c-4.9,6.58-15.03,7.77-26.73,7.77-16.5,0-29.87-13.37-29.87-29.87s13.37-29.87,29.87-29.87c3.77,0,7.06.34,9.94.98-4.51-5.23-7.24-12.04-7.24-19.49,0-14.12,9.8-25.95,22.97-29.06"/><path class="cls-3" d="m73.64,57.79l-4.38-21.69c.42,1.76,2.87,11.4,7.21,11.4,3.13,0,3.92-11.28,4.09-19.12.17,7.84.96,19.12,4.08,19.12,4.35,0,6.8-9.64,7.22-11.4l-2.17,11.27-2.2,10.4h-.13l-13.7.11-.02-.09Z"/><path class="cls-3" d="m74.85,132.38s.02.06.02.1"/><path class="cls-3" d="m74.25,131.37c.05.05.11.1.16.16.12.14.22.29.3.44"/><path class="cls-3" d="m74.89,132.74c-.02.64-.43,1.22-1.09,1.66-.73.47-1.76.77-2.91.77-2.21,0-4-1.1-4-2.47s1.79-2.46,4-2.46c1.38,0,2.6.43,3.32,1.09"/><path class="cls-3" d="m74.89,132.74c0,.72-.44,1.35-1.09,1.66-.27.14-.58.21-.91.21-1.11,0-2-.84-2-1.87s.89-1.88,2-1.88c.51,0,.97.18,1.32.47.02.01.03.03.04.04.06.05.11.1.16.16.13.13.23.28.3.44.07.13.11.27.14.41.01.03.02.07.02.1.01.08.02.17.02.26Z"/><path class="cls-3" d="m96.43,132.38s.02.06.02.1"/><path class="cls-3" d="m95.8,131.34c.21.19.37.4.49.63"/><path class="cls-3" d="m96.47,132.74c-.02.64-.43,1.22-1.09,1.66-.73.47-1.76.77-2.91.77-2.21,0-4-1.1-4-2.47s1.79-2.46,4-2.46c1.38,0,2.6.43,3.32,1.09"/><path class="cls-3" d="m96.47,132.74c0,.73-.44,1.36-1.09,1.66-.27.14-.58.21-.91.21-1.1,0-2-.84-2-1.87s.9-1.88,2-1.88c.51,0,.97.17,1.32.47h.01c.21.18.38.39.49.64.07.13.11.27.14.41.01.03.02.07.02.1,0,.08.02.17.02.26Z"/><path class="cls-3" d="m85.16,140c0,2.25-1.83,4.08-4.09,4.08s-4.08-1.83-4.08-4.08"/></g></svg>