<?xml version="1.0" encoding="UTF-8"?><svg id="Layer_2" xmlns="http://www.w3.org/2000/svg" viewBox="0 0 161.09 234.55"><defs><style>.cls-1{fill:#ecede8;}.cls-1,.cls-2{stroke-width:0px;}.cls-3{fill:none;stroke:#000;stroke-linecap:round;stroke-linejoin:round;stroke-width:.5px;}.cls-2{fill:#8b001b;}</style></defs><g id="Layer_2-2"><rect class="cls-1" width="161.09" height="234.55" rx="5" ry="5"/><path class="cls-2" d="m124.17,210.76c0-5.83,2.88-9.9,7.52-11.63.25-.14.14-.4-.32-.83-2.3-2.16-5.08-4.46-7.81-5.18-1.04-.25-2.09-.29-2.7-.29-.5,0-1.08.11-1.55.29-.32-.14-.43-.58-.32-.86,1.33-.94,3.38-1.33,5.15-1.33,5.18,0,9.65,2.74,12.99,6.19.68.72,1.04,1.15,1.91,1.22,5.9.5,10.62,5.11,10.62,12.17s-5.33,12.63-12.85,12.63c-7.49,0-12.63-5-12.63-12.38Zm19.73.58c0-4.39-1.55-11.48-7.42-11.48-4.72,0-6.55,4.64-6.55,10.47,0,6.16,2.7,11.16,7.16,11.16s6.8-4.14,6.8-10.15Z"/><polygon class="cls-2" points="134.3 190.58 141.34 181.3 134.3 172.01 127.26 181.3 134.3 190.58"/><path class="cls-2" d="m36.92,23.79c0,5.83-2.88,9.9-7.52,11.63-.25.14-.14.4.32.83,2.3,2.16,5.08,4.46,7.81,5.18,1.04.25,2.09.29,2.7.29.5,0,1.08-.11,1.55-.29.32.14.43.58.32.86-1.33.94-3.38,1.33-5.15,1.33-5.18,0-9.65-2.74-12.99-6.19-.68-.72-1.04-1.15-1.91-1.22-5.9-.5-10.62-5.11-10.62-12.17s5.33-12.63,12.85-12.63,12.63,5,12.63,12.38Zm-19.73-.58c0,4.39,1.55,11.48,7.42,11.48,4.72,0,6.55-4.64,6.55-10.47,0-6.16-2.7-11.16-7.16-11.16s-6.8,4.14-6.8,10.15Z"/><polygon class="cls-2" points="26.79 43.97 19.75 53.26 26.79 62.54 33.84 53.26 26.79 43.97"/><path class="cls-2" d="m87.14,65.4l40.66,53.61-47.25,62.3-47.25-62.3,40.57-53.49,13.27-.12Zm-6.15,85.61c10.44,0,18.9-8.46,18.9-18.9s-8.46-18.89-18.9-18.89-18.89,8.46-18.89,18.89,8.46,18.9,18.89,18.9Z"/><polyline class="cls-3" points="87.14 65.4 127.8 119.01 80.55 181.31 33.3 119.01 73.87 65.52"/><path class="cls-3" d="m99.89,132.11c0-10.43-8.46-18.89-18.9-18.89s-18.89,8.46-18.89,18.89,8.46,18.9,18.89,18.9,18.9-8.46,18.9-18.9Z"/><path class="cls-3" d="m73.87,65.52h-.13l-4.4-21.79c.42,1.76,2.87,11.4,7.21,11.4,3.13,0,3.92-11.28,4.09-19.12.17,7.84.96,19.12,4.08,19.12,4.35,0,6.8-9.64,7.22-11.4l-2.17,11.28-2.2,10.39h-.43l-13.27.12Z"/><path class="cls-3" d="m74.11,136.79c-.72.44-1.7.71-2.78.71-2.21,0-4-1.11-4-2.47s1.79-2.47,4-2.47c1.42,0,2.67.46,3.38,1.15.05.05.09.1.14.14.12.14.22.29.3.45"/><path class="cls-3" d="m75.33,135.06c0,.08-.01.15-.02.22-.09.57-.5,1.09-1.12,1.47"/><path class="cls-3" d="m75.33,135.06c0,.08,0,.15-.02.22-.08.66-.51,1.21-1.12,1.47-.03.02-.05.03-.08.04-.24.1-.5.15-.78.15-1.1,0-2-.84-2-1.88s.9-1.87,2-1.87c.54,0,1.03.2,1.38.52.05.04.09.08.14.14.12.13.23.28.3.45.12.23.18.49.18.76Z"/><path class="cls-3" d="m95.75,136.77c-.72.45-1.72.73-2.83.73-2.21,0-4-1.11-4-2.47s1.79-2.47,4-2.47c1.44,0,2.71.47,3.41,1.18"/><path class="cls-3" d="m96.92,135.06c0,.08-.01.15-.02.22-.09.57-.5,1.09-1.12,1.47"/><path class="cls-3" d="m96.92,135.06c0,.08,0,.15-.02.22-.08.66-.51,1.21-1.12,1.47-.01.01-.02.02-.03.02-.25.11-.53.17-.83.17-1.11,0-2-.84-2-1.88s.89-1.87,2-1.87c.55,0,1.05.21,1.41.55s.59.81.59,1.32Z"/><path class="cls-3" d="m85.6,142.32c0,2.26-1.83,4.09-4.09,4.09s-4.08-1.83-4.08-4.09"/></g></svg>