<?xml version="1.0" encoding="UTF-8"?><svg id="Layer_2" xmlns="http://www.w3.org/2000/svg" viewBox="0 0 161.09 234.55"><defs><style>.cls-1{fill:#ecede8;}.cls-1,.cls-2{stroke-width:0px;}.cls-3{fill:none;stroke:#000;stroke-linecap:round;stroke-linejoin:round;stroke-width:.5px;}.cls-2{fill:#8b001b;}</style></defs><g id="Layer_2-2"><rect class="cls-1" width="161.09" height="234.55" rx="5" ry="5"/><path class="cls-2" d="m124.17,210.76c0-5.83,2.88-9.9,7.52-11.63.25-.14.14-.4-.32-.83-2.3-2.16-5.08-4.46-7.81-5.18-1.04-.25-2.09-.29-2.7-.29-.5,0-1.08.11-1.55.29-.32-.14-.43-.58-.32-.86,1.33-.94,3.38-1.33,5.15-1.33,5.18,0,9.65,2.74,12.99,6.19.68.72,1.04,1.15,1.91,1.22,5.9.5,10.62,5.11,10.62,12.17s-5.33,12.63-12.85,12.63c-7.49,0-12.63-5-12.63-12.38Zm19.73.58c0-4.39-1.55-11.48-7.42-11.48-4.72,0-6.55,4.64-6.55,10.47,0,6.16,2.7,11.16,7.16,11.16s6.8-4.14,6.8-10.15Z"/><path class="cls-2" d="m127.33,184.16c.2,1.21.74,2.05,1.8,2.68.9.54,2.06.54,3.03.15.51-.2.97-.38,1.39-.63.27-.16.52-.34.76-.58.23.23.49.42.76.58.42.25.88.43,1.39.63.98.38,2.13.38,3.03-.15,1.05-.63,1.59-1.47,1.8-2.68.17-1.01.02-2.06-.3-3.03-.33-1.01-1.11-2.03-1.88-2.77-.77-.74-1.4-1.2-2.32-1.74-.74-.44-1.49-.85-2.25-1.23-.14-.07-.3-.07-.44,0-.77.38-1.52.79-2.25,1.23-.91.55-1.55,1.01-2.32,1.74-.77.74-1.54,1.75-1.88,2.77-.32.97-.47,2.03-.3,3.03Z"/><path class="cls-2" d="m36.92,23.79c0,5.83-2.88,9.9-7.52,11.63-.25.14-.14.4.32.83,2.3,2.16,5.08,4.46,7.81,5.18,1.04.25,2.09.29,2.7.29.5,0,1.08-.11,1.55-.29.32.14.43.58.32.86-1.33.94-3.38,1.33-5.15,1.33-5.18,0-9.65-2.74-12.99-6.19-.68-.72-1.04-1.15-1.91-1.22-5.9-.5-10.62-5.11-10.62-12.17s5.33-12.63,12.85-12.63,12.63,5,12.63,12.38Zm-19.73-.58c0,4.39,1.55,11.48,7.42,11.48,4.72,0,6.55-4.64,6.55-10.47,0-6.16-2.7-11.16-7.16-11.16s-6.8,4.14-6.8,10.15Z"/><path class="cls-2" d="m33.77,50.4c-.2-1.21-.74-2.05-1.8-2.68-.9-.54-2.06-.54-3.03-.15-.51.2-.97.38-1.39.63-.27.16-.52.34-.76.58-.23-.23-.49-.42-.76-.58-.42-.25-.88-.43-1.39-.63-.98-.38-2.13-.38-3.03.15-1.05.63-1.59,1.47-1.8,2.68-.17,1.01-.02,2.06.3,3.03.33,1.01,1.11,2.03,1.88,2.77.77.74,1.4,1.2,2.32,1.74.74.44,1.49.85,2.25,1.23.14.07.3.07.44,0,.77-.38,1.52-.79,2.25-1.23.91-.55,1.55-1.01,2.32-1.74.77-.74,1.54-1.75,1.88-2.77.32-.97.47-2.03.3-3.03Z"/><path class="cls-2" d="m133.83,102.15c1.3,7.71.13,15.76-2.31,23.19-2.55,7.73-8.47,15.52-14.35,21.14-5.89,5.62-10.73,9.14-17.72,13.31-5.62,3.34-11.36,6.47-17.21,9.38-1.06.53-2.31.53-3.37,0-5.86-2.91-11.6-6.04-17.23-9.38-6.99-4.17-11.83-7.69-17.71-13.31-5.89-5.62-11.81-13.41-14.35-21.14-2.45-7.43-3.62-15.48-2.32-23.19,1.56-9.23,5.69-15.68,13.73-20.48,6.88-4.1,15.72-4.09,23.18-1.18,2.83,1.1,5.47,2.15,7.93,3.37l1.56,7.71,13.83-.11,1.62-7.66c2.43-1.2,5.03-2.22,7.81-3.31,7.47-2.91,16.3-2.92,23.18,1.18,8.04,4.8,12.17,11.25,13.73,20.48Zm-53.28,56.07c10.43,0,18.89-8.46,18.89-18.89s-8.46-18.9-18.89-18.9-18.89,8.46-18.89,18.9,8.45,18.89,18.89,18.89Z"/><path class="cls-3" d="m99.44,139.33c0-10.44-8.46-18.9-18.89-18.9s-18.89,8.46-18.89,18.9,8.45,18.89,18.89,18.89,18.89-8.46,18.89-18.89Z"/><path class="cls-3" d="m89.11,83.8c2.43-1.2,5.03-2.22,7.81-3.31,7.47-2.91,16.3-2.92,23.18,1.18,8.04,4.8,12.17,11.25,13.73,20.48,1.3,7.71.13,15.76-2.31,23.19-2.55,7.73-8.47,15.52-14.35,21.14-5.89,5.62-10.73,9.14-17.72,13.31-5.62,3.34-11.36,6.47-17.21,9.38-1.06.53-2.31.53-3.37,0-5.86-2.91-11.6-6.04-17.23-9.38-6.99-4.17-11.83-7.69-17.71-13.31-5.89-5.62-11.81-13.41-14.35-21.14-2.45-7.43-3.62-15.48-2.32-23.19,1.56-9.23,5.69-15.68,13.73-20.48,6.88-4.1,15.72-4.09,23.18-1.18,2.83,1.1,5.47,2.15,7.93,3.37"/><path class="cls-3" d="m72.1,83.86l-2.84-14.07c.42,1.76,2.87,11.4,7.21,11.4,3.13,0,3.92-11.28,4.09-19.12.17,7.84.96,19.12,4.08,19.12,4.35,0,6.8-9.64,7.22-11.4l-2.17,11.27-.58,2.74-1.62,7.66-13.83.11-1.56-7.71Z"/><path class="cls-3" d="m74.43,141.08c.11.14.21.28.28.43"/><path class="cls-3" d="m74.89,142.27c0,.08-.01.15-.02.22-.09.56-.48,1.06-1.07,1.45-.73.47-1.76.77-2.91.77-2.21,0-4-1.11-4-2.47s1.79-2.47,4-2.47c1.44,0,2.71.47,3.41,1.18"/><path class="cls-3" d="m74.89,142.27c0,.08,0,.15-.02.22-.07.64-.49,1.17-1.07,1.45-.27.14-.58.21-.91.21-1.1,0-2-.84-2-1.88s.9-1.87,2-1.87c.55,0,1.05.21,1.41.55.05.04.09.09.13.13.12.13.21.28.28.43.12.23.18.49.18.76Z"/><path class="cls-3" d="m96.48,142.27c0,.08-.01.15-.02.22-.09.56-.48,1.06-1.07,1.45-.73.47-1.77.77-2.91.77-2.21,0-4-1.11-4-2.47s1.79-2.47,4-2.47c1.44,0,2.7.47,3.41,1.18"/><path class="cls-3" d="m96.48,142.27c0,.08,0,.15-.02.22-.07.64-.49,1.17-1.07,1.45-.27.14-.58.21-.91.21-1.11,0-2-.84-2-1.88s.89-1.87,2-1.87c.55,0,1.05.21,1.41.55s.59.8.59,1.32Z"/><path class="cls-3" d="m85.16,149.53c0,2.26-1.83,4.09-4.09,4.09s-4.08-1.83-4.08-4.09"/></g></svg>