<?xml version="1.0" encoding="UTF-8"?><svg id="Layer_2" xmlns="http://www.w3.org/2000/svg" viewBox="0 0 161.09 234.55"><defs><style>.cls-1{fill:#ecede8;}.cls-1,.cls-2{stroke-width:0px;}.cls-2{fill:#1a1a1a;}.cls-3{fill:none;stroke:#000;stroke-linecap:round;stroke-linejoin:round;stroke-width:.5px;}</style></defs><g id="Layer_2-2"><rect class="cls-1" width="161.09" height="234.55" rx="5" ry="5"/><path class="cls-2" d="m124.17,210.76c0-5.83,2.88-9.9,7.52-11.63.25-.14.14-.4-.32-.83-2.3-2.16-5.08-4.46-7.81-5.18-1.04-.25-2.09-.29-2.7-.29-.5,0-1.08.11-1.55.29-.32-.14-.43-.58-.32-.86,1.33-.94,3.38-1.33,5.15-1.33,5.18,0,9.65,2.74,12.99,6.19.68.72,1.04,1.15,1.91,1.22,5.9.5,10.62,5.11,10.62,12.17,0,7.13-5.33,12.63-12.85,12.63-7.49,0-12.63-5-12.63-12.38Zm19.73.58c0-4.39-1.55-11.48-7.42-11.48-4.72,0-6.55,4.64-6.55,10.47,0,6.16,2.7,11.16,7.16,11.16s6.8-4.14,6.8-10.15Z"/><path class="cls-2" d="m127.63,182.23c.33,1.01,1.11,2.03,1.88,2.77.77.74,1.4,1.2,2.32,1.74.66.4,1.34.77,2.03,1.12.28.14.6.14.88,0,.69-.35,1.37-.72,2.03-1.12.91-.54,1.55-1.01,2.32-1.74.77-.74,1.55-1.75,1.88-2.77.32-.97.47-2.03.3-3.03-.2-1.21-.74-2.05-1.8-2.68-.9-.54-2.06-.54-3.03-.15-.51.2-.97.38-1.39.63l.38-1.94c.04-.22-.12-.42-.35-.42h-1.57c-.22,0-.39.2-.35.42l.38,1.94c-.42-.25-.88-.43-1.39-.63-.98-.38-2.13-.38-3.03.15-1.05.63-1.59,1.47-1.8,2.68-.17,1.01-.02,2.06.3,3.03Z"/><path class="cls-2" d="m36.92,23.79c0,5.83-2.88,9.9-7.52,11.63-.25.14-.14.4.32.83,2.3,2.16,5.08,4.46,7.81,5.18,1.04.25,2.09.29,2.7.29.5,0,1.08-.11,1.55-.29.32.14.43.58.32.86-1.33.94-3.38,1.33-5.15,1.33-5.18,0-9.65-2.74-12.99-6.19-.68-.72-1.04-1.15-1.91-1.22-5.9-.5-10.62-5.11-10.62-12.17s5.33-12.63,12.85-12.63,12.63,5,12.63,12.38Zm-19.73-.58c0,4.39,1.55,11.48,7.42,11.48,4.72,0,6.55-4.64,6.55-10.47,0-6.16-2.7-11.16-7.16-11.16s-6.8,4.14-6.8,10.15Z"/><path class="cls-2" d="m33.46,52.32c-.33-1.01-1.11-2.03-1.88-2.77-.77-.74-1.4-1.2-2.32-1.74-.66-.4-1.34-.77-2.03-1.12-.28-.14-.6-.14-.88,0-.69.35-1.37.72-2.03,1.12-.91.54-1.55,1.01-2.32,1.74-.77.74-1.55,1.75-1.88,2.77-.32.97-.47,2.03-.3,3.03.2,1.21.74,2.05,1.8,2.68.9.54,2.06.54,3.03.15.51-.2.97-.38,1.39-.63l-.38,1.94c-.04.22.12.42.35.42h1.57c.22,0,.39-.2.35-.42l-.38-1.94c.42.25.88.43,1.39.63.98.38,2.13.38,3.03-.15,1.05-.63,1.59-1.47,1.8-2.68.17-1.01.02-2.06-.3-3.03Z"/><path class="cls-2" d="m131.52,117.19c2.44,7.43,3.61,15.48,2.31,23.19-1.56,9.23-5.69,15.68-13.73,20.48-6.88,4.1-15.71,4.09-23.18,1.18-3.87-1.51-7.39-2.91-10.59-4.8l2.89,14.82c.32,1.67-.96,3.23-2.67,3.23h-12.01c-1.7,0-2.98-1.56-2.66-3.23l2.88-14.82c-3.2,1.89-6.72,3.29-10.59,4.8-7.46,2.91-16.3,2.92-23.18-1.18-8.04-4.8-12.17-11.25-13.73-20.48-1.3-7.71-.13-15.76,2.32-23.19,2.54-7.73,8.46-15.52,14.35-21.14,5.88-5.62,10.72-9.15,17.71-13.31,3.95-2.35,7.95-4.59,12.01-6.72v.06s13.7-.11,13.7-.11c4.1,2.14,8.13,4.4,12.1,6.77,6.99,4.16,11.83,7.69,17.72,13.31,5.88,5.62,11.8,13.41,14.35,21.14Zm-50.97,29.24c10.43,0,18.89-8.46,18.89-18.89s-8.46-18.89-18.89-18.89-18.89,8.46-18.89,18.89,8.45,18.89,18.89,18.89Z"/><circle class="cls-3" cx="80.55" cy="127.54" r="18.89"/><path class="cls-3" d="m87.35,75.97c4.1,2.14,8.13,4.4,12.1,6.77,6.99,4.16,11.83,7.69,17.72,13.31,5.88,5.62,11.8,13.41,14.35,21.14,2.44,7.43,3.61,15.48,2.31,23.19-1.56,9.23-5.69,15.68-13.73,20.48-6.88,4.1-15.71,4.09-23.18,1.18-3.87-1.51-7.39-2.91-10.59-4.8l2.89,14.82c.32,1.67-.96,3.23-2.67,3.23h-12.01c-1.7,0-2.98-1.56-2.66-3.23l2.88-14.82c-3.2,1.89-6.72,3.29-10.59,4.8-7.46,2.91-16.3,2.92-23.18-1.18-8.04-4.8-12.17-11.25-13.73-20.48-1.3-7.71-.13-15.76,2.32-23.19,2.54-7.73,8.46-15.52,14.35-21.14,5.88-5.62,10.72-9.15,17.71-13.31,3.95-2.35,7.95-4.59,12.01-6.72"/><path class="cls-3" d="m73.65,76.02l-4.39-21.72c.42,1.76,2.87,11.4,7.21,11.4,3.13,0,3.92-11.28,4.09-19.12.17,7.84.96,19.12,4.08,19.12,4.35,0,6.8-9.64,7.22-11.4l-2.17,11.27-2.2,10.4h-.14l-13.69.11v-.06Z"/><path class="cls-3" d="m74.85,130.13s.02.06.02.1"/><path class="cls-3" d="m74.89,130.49c-.02.64-.43,1.22-1.09,1.66-.73.47-1.76.77-2.91.77-2.21,0-4-1.1-4-2.47s1.79-2.46,4-2.46c1.44,0,2.71.47,3.41,1.17"/><path class="cls-3" d="m74.89,130.49c0,.72-.44,1.35-1.09,1.66-.27.14-.58.21-.91.21-1.11,0-2-.84-2-1.87s.89-1.88,2-1.88c.55,0,1.05.21,1.41.55.28.26.48.59.55.97.01.03.02.07.02.1.01.08.02.17.02.26Z"/><path class="cls-3" d="m96.43,130.13s.02.06.02.1"/><path class="cls-3" d="m96.16,129.49c.09.13.16.28.21.42"/><path class="cls-3" d="m96.47,130.49c-.02.64-.43,1.22-1.09,1.66-.73.47-1.76.77-2.91.77-2.2,0-4-1.1-4-2.47s1.8-2.46,4-2.46c1.42,0,2.67.46,3.38,1.14.05.05.09.1.14.14.04.06.09.11.14.17"/><path class="cls-3" d="m96.47,130.49c0,.72-.44,1.35-1.09,1.66-.27.14-.58.21-.91.21-1.1,0-2-.84-2-1.87s.9-1.88,2-1.88c.53,0,1.02.2,1.38.52.05.04.09.08.14.14.05.05.1.11.14.17.01.01.03.03.03.05.09.13.16.27.21.42.03.07.05.14.06.22.01.03.02.07.02.1.01.08.02.17.02.26Z"/><path class="cls-3" d="m85.16,137.75c0,2.25-1.83,4.08-4.09,4.08s-4.08-1.83-4.08-4.08"/></g></svg>